<svg width="125" height="57" xmlns="http://www.w3.org/2000/svg"><g fill="none" fill-rule="evenodd"><path fill="#27715A" d="M0 0h124.737v56.825H0z"/><path fill="#A0E1AA" d="M4.737 4.735H120v47.354H4.737z"/><ellipse fill="#27715A" cx="8.684" cy="8.682" rx="8.684" ry="8.682"/><ellipse fill="#27715A" cx="8.684" cy="48.143" rx="8.684" ry="8.682"/><ellipse fill="#27715A" cx="116.053" cy="48.143" rx="8.684" ry="8.682"/><ellipse fill="#27715A" cx="116.053" cy="8.682" rx="8.684" ry="8.682"/><ellipse fill="#27715A" cx="60.789" cy="27.886" rx="21.316" ry="21.309"/><path d="M65.318 22.506a3.308 3.308 0 00-1.125-.763 3.593 3.593 0 00-1.43-.292c-.573 0-1.05.102-1.429.306a2.5 2.5 0 00-.902.79c-.222.324-.375.68-.458 1.069a5.42 5.42 0 00-.125 1.138v1.415h4.33v3.191h-4.33v4.44h7.19v3.913H52.632V33.8h2.637v-4.44h-2.637v-3.19h2.637v-1.693c0-.758.134-1.545.402-2.359a6.783 6.783 0 011.263-2.247c.574-.685 1.319-1.245 2.235-1.68.916-.434 2.022-.652 3.317-.652 1.203 0 2.262.176 3.179.528.916.351 1.688.814 2.317 1.387l-2.664 3.053z" fill="#A0E1AA" fill-rule="nonzero"/></g></svg>