<svg width="140" height="101" xmlns="http://www.w3.org/2000/svg" xmlns:xlink="http://www.w3.org/1999/xlink"><defs><path d="M.983 4.61v8.593l8.098 69.186 116.45 18.414a6 6 0 006.907-5.314l7.68-74.87a6 6 0 00-5.299-6.574C53.664 4.92 11.538.246 8.44.022 5.27-.207 2.783 1.322.983 4.61z" id="a"/></defs><g transform="matrix(-1 0 0 1 140.742 0)" fill="none" fill-rule="evenodd"><mask id="b" fill="#fff"><use xlink:href="#a"/></mask><use fill="#DEBB87" xlink:href="#a"/><g mask="url(#b)"><g transform="scale(-1 1) rotate(-7 101.774 1099.066)"><rect fill="#FF4D56" width="120.032" height="76.472" rx="4.84"/><path d="M7.314 71.308v-3.237a.21.21 0 01.065-.153.21.21 0 01.153-.065.21.21 0 01.154.065.21.21 0 01.065.153v2.8h1.544a.22.22 0 01.157.064.206.206 0 01.067.155c0 .06-.023.112-.067.154a.22.22 0 01-.157.064h-1.98zm5.294-3.013h-1.545v1.063h.666a.21.21 0 01.153.065.21.21 0 01.065.154.218.218 0 01-.063.158.208.208 0 01-.155.065h-.666v1.071h1.55c.059 0 .11.021.153.064a.208.208 0 01.065.155c0 .06-.022.112-.066.154a.22.22 0 01-.157.064h-1.981v-3.455h1.98c.061 0 .114.022.158.066a.215.215 0 010 .311.217.217 0 01-.157.065zm1.344 2.709l.884-2.987c.035-.11.107-.164.218-.164.108 0 .175.046.203.138l.871 3.034a.22.22 0 01-.052.22.195.195 0 01-.143.063c-.114 0-.187-.053-.218-.159l-.177-.592h-.996l-.192.634c-.005.028-.027.054-.065.08a.222.222 0 01-.125.037.21.21 0 01-.158-.065.22.22 0 01-.063-.159.27.27 0 01.013-.08zm1.097-2.14l-.374 1.25h.736l-.362-1.25zm2.192 2.226v-3.02c0-.058.022-.11.064-.153a.208.208 0 01.155-.065.21.21 0 01.153.065.21.21 0 01.065.153v1.287h1.331V68.07a.21.21 0 01.064-.153.208.208 0 01.154-.065.21.21 0 01.155.065.218.218 0 01.064.159v3.013c0 .059-.022.11-.067.153a.211.211 0 01-.152.065.21.21 0 01-.156-.064.213.213 0 01-.062-.154v-1.295h-1.326v1.295c0 .059-.022.11-.066.153a.217.217 0 01-.157.065.212.212 0 01-.154-.064.208.208 0 01-.065-.154zm6.63-2.642v-.59h2.205v.596c0 .06-.022.112-.065.154a.212.212 0 01-.153.064.217.217 0 01-.158-.065.208.208 0 01-.066-.153v-.159h-.442v2.795c0 .06-.022.112-.065.154a.212.212 0 01-.153.064.218.218 0 01-.159-.064.208.208 0 01-.065-.154v-2.795h-.442v.153a.21.21 0 01-.063.155.21.21 0 01-.155.064.21.21 0 01-.155-.064.21.21 0 01-.063-.155zm5.3-.153h-1.545v1.063h.665a.21.21 0 01.154.065.21.21 0 01.065.154.218.218 0 01-.064.158.208.208 0 01-.155.065h-.665v1.071h1.55a.21.21 0 01.153.064.208.208 0 01.065.155c0 .06-.022.112-.067.154a.22.22 0 01-.157.064h-1.98v-3.455h1.98c.06 0 .113.022.157.066a.215.215 0 010 .311.217.217 0 01-.157.065zm2.21.915v-.112l-.453-.644v2.636a.21.21 0 01-.064.154.21.21 0 01-.154.064.208.208 0 01-.155-.065.212.212 0 01-.064-.153v-3.237h.564l.539.783.553-.783h.554v3.237c0 .06-.022.112-.066.154a.22.22 0 01-.31-.001.21.21 0 01-.066-.153v-2.626l-.442.624v.122a.21.21 0 01-.065.153.21.21 0 01-.153.065.208.208 0 01-.155-.065.212.212 0 01-.064-.153zm2.433 1.88v-3.237h1.55c.178 0 .332.065.461.195.13.13.194.285.194.465v.82a.63.63 0 01-.193.462.63.63 0 01-.462.192h-1.108v1.103a.21.21 0 01-.064.154.21.21 0 01-.154.064.218.218 0 01-.159-.064.208.208 0 01-.065-.154zm.442-1.54h1.108c.059 0 .11-.02.153-.063a.208.208 0 00.065-.155v-.819a.208.208 0 00-.065-.154.212.212 0 00-.153-.064h-1.108v1.256zm2.87 1.758v-3.237a.21.21 0 01.066-.153.21.21 0 01.153-.065.21.21 0 01.154.065.21.21 0 01.065.153v2.8h1.544a.22.22 0 01.157.064.206.206 0 01.066.155c0 .06-.022.112-.066.154a.22.22 0 01-.157.064h-1.981zm5.294-3.013h-1.544v1.063h.666a.21.21 0 01.153.065.21.21 0 01.065.154.218.218 0 01-.064.158.208.208 0 01-.154.065h-.666v1.071h1.55a.21.21 0 01.153.064.208.208 0 01.065.155c0 .06-.022.112-.067.154a.22.22 0 01-.157.064h-1.98v-3.455h1.98c.06 0 .113.022.157.066a.215.215 0 010 .311.217.217 0 01-.157.065zm1.826-.442h1.136a.57.57 0 01.394.176.563.563 0 01.185.425.214.214 0 01-.066.158.206.206 0 01-.147.065c-.074 0-.125-.017-.153-.05a.544.544 0 01-.08-.189c-.024-.092-.08-.138-.167-.138h-1.079c-.052 0-.078.017-.078.05 0 .02.011.045.034.072l1.62 2.072a.52.52 0 01.116.323c0 .13-.047.244-.141.343a.429.429 0 01-.316.148h-1.178a.549.549 0 01-.407-.178.551.551 0 01-.172-.391c0-.163.076-.245.228-.245.06 0 .11.022.151.064a.207.207 0 01.063.15c0 .046.016.085.048.116a.166.166 0 00.12.047h1.087c.047 0 .07-.018.07-.054 0-.018-.01-.04-.033-.068l-1.617-2.072a.517.517 0 01-.115-.322c0-.135.049-.253.146-.352a.47.47 0 01.35-.15zm2.813.595v-.59h2.205v.596c0 .06-.022.112-.065.154a.212.212 0 01-.154.064.217.217 0 01-.157-.065.208.208 0 01-.066-.153v-.159h-.442v2.795c0 .06-.022.112-.065.154a.212.212 0 01-.154.064.218.218 0 01-.158-.064.208.208 0 01-.065-.154v-2.795h-.442v.153a.21.21 0 01-.064.155.21.21 0 01-.155.064.21.21 0 01-.154-.064.21.21 0 01-.064-.155zm5.299-.153h-1.544v1.063h.665a.21.21 0 01.153.065.21.21 0 01.065.154.218.218 0 01-.063.158.208.208 0 01-.155.065h-.665v1.071h1.549c.059 0 .11.021.153.064a.208.208 0 01.065.155c0 .06-.022.112-.066.154a.22.22 0 01-.157.064h-1.981v-3.455h1.98c.061 0 .114.022.158.066a.215.215 0 010 .311.217.217 0 01-.157.065zm1.545-.442h1.767c.057 0 .108.022.152.065a.217.217 0 01.001.31.208.208 0 01-.153.067h-.66v2.576h.66a.21.21 0 01.155.064.21.21 0 01.064.155c0 .06-.022.112-.065.154a.212.212 0 01-.154.064h-1.767a.21.21 0 01-.155-.064.21.21 0 01-.064-.154.21.21 0 01.064-.155.21.21 0 01.155-.064h.67v-2.576h-.67a.208.208 0 01-.155-.065.212.212 0 01-.064-.153c0-.063.021-.116.064-.159a.208.208 0 01.155-.065zm5.298.224v3.231h-.587l-1.175-2.683v2.465a.21.21 0 01-.064.154.21.21 0 01-.155.064.21.21 0 01-.154-.064.21.21 0 01-.064-.154v-3.237h.58l1.177 2.678v-2.454c0-.061.022-.113.066-.158a.215.215 0 01.158-.066c.06 0 .112.022.154.065a.218.218 0 01.064.159z" fill="#FFF" fill-rule="nonzero"/><g fill-rule="nonzero"><path d="M95.201 72.558v-1.144c0-.44-.269-.725-.73-.725a.76.76 0 00-.653.324c-.135-.21-.327-.324-.616-.324a.622.622 0 00-.538.267v-.23h-.403v1.832h.403v-1.01c0-.325.173-.478.442-.478.27 0 .404.172.404.477v1.011h.404v-1.01c0-.325.192-.478.442-.478.269 0 .403.172.403.477v1.011h.442zm5.978-1.831h-.653v-.554h-.404v.554h-.365v.362h.365v.84c0 .42.173.668.634.668.173 0 .366-.058.5-.134l-.115-.343a.636.636 0 01-.346.095c-.192 0-.27-.115-.27-.305v-.82h.654v-.363zm3.422-.038a.543.543 0 00-.48.267v-.23h-.404v1.832h.403v-1.03c0-.305.135-.477.385-.477.077 0 .173.02.25.038l.115-.381c-.077-.02-.192-.02-.27-.02zm-5.17.19c-.193-.133-.462-.19-.75-.19-.462 0-.77.228-.77.591 0 .305.231.477.635.534l.192.02c.212.038.327.095.327.19 0 .134-.154.23-.423.23s-.48-.096-.615-.192l-.192.306c.211.152.5.229.788.229.538 0 .846-.248.846-.592 0-.324-.25-.496-.635-.553l-.192-.02c-.173-.018-.307-.057-.307-.171 0-.134.134-.21.346-.21.23 0 .46.095.576.153l.173-.325zm10.725-.19a.543.543 0 00-.48.267v-.23h-.404v1.832h.403v-1.03c0-.305.135-.477.385-.477.077 0 .173.02.25.038l.115-.381c-.077-.02-.192-.02-.27-.02zm-5.152.954c0 .553.385.954.98.954.27 0 .462-.058.654-.21l-.192-.325a.78.78 0 01-.48.172c-.327 0-.558-.229-.558-.591 0-.344.23-.573.557-.592a.78.78 0 01.481.172l.192-.325c-.192-.152-.384-.21-.653-.21-.596 0-.98.401-.98.955zm3.73 0v-.916h-.404v.229a.696.696 0 00-.577-.267c-.519 0-.923.4-.923.954 0 .553.404.954.923.954.27 0 .461-.096.577-.268v.23h.403v-.916zm-1.48 0c0-.325.21-.592.557-.592.327 0 .557.248.557.592 0 .324-.23.591-.557.591-.346-.019-.558-.267-.558-.591zm-4.825-.954c-.538 0-.923.381-.923.954 0 .572.385.954.942.954.27 0 .538-.077.75-.248l-.193-.287a.923.923 0 01-.538.191c-.25 0-.5-.114-.557-.439h1.364v-.152c.02-.592-.326-.973-.845-.973zm0 .343c.25 0 .423.153.461.439h-.961c.038-.248.211-.439.5-.439zm10.014.61v-1.64h-.404v.954a.696.696 0 00-.576-.267c-.52 0-.923.4-.923.954 0 .553.404.954.923.954.269 0 .461-.096.576-.268v.23h.404v-.916zm-1.48 0c0-.324.211-.59.557-.59.327 0 .558.247.558.59 0 .325-.23.592-.558.592-.346-.019-.557-.267-.557-.591zm-13.493 0v-.915h-.404v.229a.696.696 0 00-.577-.267c-.519 0-.922.4-.922.954 0 .553.403.954.922.954.27 0 .462-.096.577-.268v.23h.404v-.916zm-1.5 0c0-.324.212-.59.558-.59.327 0 .557.247.557.59 0 .325-.23.592-.557.592-.346-.019-.558-.267-.558-.591z" fill="#FFF"/><path fill="#FF5F00" d="M99.296 56.817h6.055v10.8h-6.055z"/><path d="M99.68 62.217a6.869 6.869 0 012.633-5.4 6.91 6.91 0 00-4.267-1.47c-3.825 0-6.92 3.073-6.92 6.87s3.095 6.869 6.92 6.869a6.91 6.91 0 004.267-1.47 6.84 6.84 0 01-2.633-5.4z" fill="#EB001B"/><path d="M113.52 62.217c0 3.797-3.095 6.869-6.92 6.869a6.91 6.91 0 01-4.267-1.47 6.812 6.812 0 002.633-5.4 6.869 6.869 0 00-2.633-5.4 6.91 6.91 0 014.267-1.468c3.825 0 6.92 3.09 6.92 6.869z" fill="#F79E1B"/></g><path d="M76.027 10.842V4.104h1.8v.903c.415-.69 1.02-1.029 1.838-1.029.818 0 1.434.352 1.875 1.08.705-.74 1.246-1.08 2.09-1.08 1.523 0 2.379.854 2.379 2.422v4.442H84.07V7.19c0-.94-.201-1.367-.944-1.367-.755 0-1.158.464-1.158 1.367v3.652h-1.951V7.19c0-.94-.202-1.367-.945-1.367-.755 0-1.158.464-1.158 1.367v3.652h-1.887zM88.4 4.982a3.577 3.577 0 013.868-.799 3.557 3.557 0 012.237 3.246c0 1.016-.34 1.857-1.02 2.534a3.51 3.51 0 01-2.568 1.054c-1.032 0-1.862-.35-2.555-1.079a3.515 3.515 0 01-.994-2.484A3.448 3.448 0 0188.4 4.982zm2.53 4.153c.882 0 1.599-.74 1.599-1.656 0-.93-.717-1.669-1.599-1.669-.88 0-1.598.74-1.598 1.669 0 .916.73 1.656 1.599 1.656zm4.936 1.707V4.104h1.888l-.025.903c.415-.677 1.044-1.029 1.938-1.029 1.397 0 2.304.879 2.304 2.422v4.442h-1.99V7.19c0-.94-.2-1.367-.968-1.367-.78 0-1.196.464-1.196 1.367v3.652h-1.951zm7.6 0V9.436l2.782-3.588h-2.782V4.104h5.023v1.593l-2.455 3.4h2.505v1.745h-5.073zm7.026-5.86a3.577 3.577 0 013.868-.799 3.557 3.557 0 012.237 3.246c0 1.016-.34 1.857-1.02 2.534a3.51 3.51 0 01-2.568 1.054c-1.032 0-1.863-.35-2.555-1.079a3.515 3.515 0 01-.994-2.484 3.448 3.448 0 011.032-2.472zm2.53 4.153c.881 0 1.599-.74 1.599-1.656 0-.93-.718-1.669-1.599-1.669s-1.599.74-1.599 1.669c0 .916.73 1.656 1.6 1.656h-.001z" fill="#FFF" fill-rule="nonzero"/></g></g><path fill="#D4B07C" mask="url(#b)" d="M143.076 67.36L-23.947 44.718v22.64L145.809 110z"/><path d="M12.776 0c.27 1.053 37.734 34.595 112.39 100.626l-16.93-2.651L.778 10.421c2.47-2.527 4.2-4.275 5.19-5.244C10.307.942 12.576-.784 12.777 0z" fill-opacity=".081" fill="#000" mask="url(#b)"/></g></svg>