<?xml version="1.0" encoding="UTF-8" standalone="no"?>
<svg width="142px" height="127px" viewBox="0 0 142 127" version="1.1" xmlns="http://www.w3.org/2000/svg" xmlns:xlink="http://www.w3.org/1999/xlink" xmlns:sketch="http://www.bohemiancoding.com/sketch/ns">
    <!-- Generator: Sketch 3.5.1 (25234) - http://www.bohemiancoding.com/sketch -->
    <title>logo</title>
    <desc>Created with Sketch.</desc>
    <defs></defs>
    <g id="Page-1" stroke="none" stroke-width="1" fill="none" fill-rule="evenodd" sketch:type="MSPage">
        <g id="Mobile" sketch:type="MSArtboardGroup" transform="translate(-304.000000, -263.000000)">
            <g id="1-Invest-in-Mondo" sketch:type="MSLayerGroup" transform="translate(0.000000, 129.000000)">
                <g id="Logo" transform="translate(304.000000, 134.000000)" sketch:type="MSShapeGroup">
                    <g id="Layer_1">
                        <g id="Group">
                            <g transform="translate(0.445000, 0.000000)" id="Shape">
                                <path d="M140.776747,92.242785 C140.776747,93.9672725 140.091747,95.6215475 138.872105,96.8408475 L109.749673,125.96328 C108.111153,127.602143 105.30916,126.44141 105.30916,124.124055 L105.30916,58.8678725 L140.372255,24.001715 L140.776747,24.001715 L140.776747,92.242785 L140.776747,92.242785 Z" fill="#E64B5F"></path>
                                <path d="M117.536753,0.76172 C116.520898,-0.254135 114.874158,-0.254135 113.858303,0.76172 L70.555,44.0650225 L69.9539125,44.0650225 L69.9539125,92.93943 L70.555,94.2234625 L105.309503,59.46896 L140.776748,24.001715 L117.536753,0.76172 L117.536753,0.76172 Z" fill="#EAD19F"></path>
                                <path d="M0.3332525,92.242785 C0.3332525,93.9672725 1.0182525,95.6215475 2.237895,96.8408475 L31.3603275,125.96328 C32.9988475,127.602143 35.80084,126.44141 35.80084,124.124055 L35.80084,58.8678725 L0.737745,24.001715 L0.3332525,24.001715 L0.3332525,92.242785 L0.3332525,92.242785 Z" fill="#1E788C"></path>
                                <path d="M27.2516975,0.76172 C26.2358425,-0.254135 24.5891025,-0.254135 23.5732475,0.76172 L0.3332525,24.001715 L35.8004975,59.4693025 L70.555,94.2234625 L70.555,44.0650225 L27.2516975,0.76172 L27.2516975,0.76172 Z" fill="#9ABDA9"></path>
                            </g>
                        </g>
                    </g>
                </g>
            </g>
        </g>
    </g>
</svg>