<svg viewBox="0 0 335 246" xmlns="http://www.w3.org/2000/svg" xmlns:xlink="http://www.w3.org/1999/xlink"><defs><path d="M16.049 0c10.699 2.156 21.398 3.234 32.097 3.234 10.7 0 21.399-1.078 32.098-3.234 10.7 14.016 16.049 27.493 16.049 40.431 0 12.362-4.884 23.248-14.652 32.657a9.261 9.261 0 0 1-3.125 1.983c-10.123 3.86-20.246 5.791-30.37 5.791-10.123 0-20.246-1.93-30.37-5.791a9.261 9.261 0 0 1-3.124-1.983C4.884 63.678 0 52.793 0 40.43 0 27.493 5.35 14.016 16.049 0z" id="a"/><linearGradient x1="50%" y1="100%" x2="50%" y2="0%" id="b"><stop stop-color="#FFF" stop-opacity=".2" offset="0%"/><stop stop-color="#FFF" offset="100%"/></linearGradient><linearGradient x1="50%" y1="0%" x2="50%" y2="100%" id="e"><stop stop-opacity="0" offset="0%"/><stop offset="100%"/></linearGradient><path d="M19.096 10.369c9.684 1.91 19.367 2.866 29.05 2.866 9.684 0 19.367-.955 29.05-2.866a4.57 4.57 0 0 1 5.455 4.483v2.031a5.051 5.051 0 0 1-3.716 4.872c-6.899 1.891-17.162 2.824-30.789 2.8-13.61-.025-23.865-.964-30.764-2.818a5.051 5.051 0 0 1-3.74-4.879v-2.006a4.57 4.57 0 0 1 5.454-4.483z" id="d"/><path d="M16.049 0c10.699 2.146 21.398 3.219 32.097 3.219 10.7 0 21.399-1.073 32.098-3.219 10.7 13.949 16.049 27.36 16.049 40.236 0 12.302-4.884 23.135-14.651 32.499a9.26 9.26 0 0 1-3.123 1.973c-10.124 3.843-20.248 5.764-30.373 5.764-10.124 0-20.248-1.921-30.372-5.764a9.261 9.261 0 0 1-3.123-1.973C4.884 63.37 0 52.538 0 40.236 0 27.361 5.35 13.95 16.049 0z" id="f"/><linearGradient x1="50%" y1="100%" x2="50%" y2="0%" id="g"><stop stop-color="#FFF" stop-opacity=".2" offset="0%"/><stop stop-color="#FFF" offset="100%"/></linearGradient><linearGradient x1="50%" y1="0%" x2="50%" y2="100%" id="j"><stop stop-opacity="0" offset="0%"/><stop offset="100%"/></linearGradient><path d="M19.071 30.939c9.692 1.904 19.384 2.857 29.075 2.857 9.692 0 19.384-.953 29.075-2.857a4.552 4.552 0 0 1 5.43 4.466v1.998a5.051 5.051 0 0 1-3.722 4.873c-6.9 1.881-17.16 2.81-30.783 2.785-13.606-.025-23.858-.959-30.757-2.803a5.051 5.051 0 0 1-3.748-4.88v-1.973a4.552 4.552 0 0 1 5.43-4.466z" id="i"/><path d="M38.369.027a3.432 3.432 0 0 0-2.233.862L1.682 31.179C.274 32.418.07 34.566 1.218 36.057L43.233 90.61a3.439 3.439 0 0 0 5.014.496L87.482 56.61c1.505-1.323 1.62-3.657.254-5.127L40.938 1.135A3.44 3.44 0 0 0 38.45.027h-.081z" id="k"/><linearGradient x1="5.575%" y1="39.324%" x2="95.792%" y2="62.294%" id="l"><stop stop-color="#B6B6B6" offset="0%"/><stop stop-color="#A8A8A8" offset="100%"/></linearGradient><path d="M16.049 0c10.699 2.151 21.398 3.227 32.097 3.227 10.7 0 21.399-1.076 32.098-3.227 10.7 13.983 16.049 27.427 16.049 40.335 0 12.332-4.884 23.191-14.652 32.578a9.261 9.261 0 0 1-3.123 1.978c-10.124 3.852-20.248 5.778-30.372 5.778-10.123 0-20.247-1.926-30.371-5.778a9.26 9.26 0 0 1-3.124-1.978C4.884 63.526 0 52.667 0 40.335 0 27.427 5.35 13.983 16.049 0z" id="n"/><linearGradient x1="50%" y1="100%" x2="50%" y2="0%" id="o"><stop stop-color="#FFF" stop-opacity=".2" offset="0%"/><stop stop-color="#FFF" offset="100%"/></linearGradient><linearGradient x1="50%" y1="0%" x2="50%" y2="100%" id="r"><stop stop-opacity="0" offset="0%"/><stop offset="100%"/></linearGradient><path d="M19.084 38.132c9.687 1.908 19.375 2.862 29.062 2.862 9.688 0 19.375-.954 29.063-2.862a4.561 4.561 0 0 1 5.442 4.475v2.014a5.051 5.051 0 0 1-3.719 4.873c-6.899 1.886-17.16 2.817-30.786 2.792-13.608-.024-23.862-.961-30.76-2.81a5.051 5.051 0 0 1-3.745-4.88v-1.989a4.561 4.561 0 0 1 5.443-4.475z" id="q"/></defs><g fill="none" fill-rule="evenodd"><g transform="translate(0 142.8)"><ellipse fill-opacity=".05" fill="#000" cx="48.146" cy="88.307" rx="37.715" ry="5.66"/><path d="M42.388 33.365l4.83 2.795c-.537-1.142-.777-1.883-.722-2.223.348-2.124 5.998-7.41 7.33-7.882 7.388 8.584 1.567-15.965-1.293-2.404 5.208-2.974 1.7-.853-3.485 3.706.831-2.835.924-4.852.956-7.038 7.578-8.634 3.37-12.9-7.904-18.774 1.304 7.406-7.467 12.901 5.996 18.72.643 1.684.592 7.574-3.586 12.482-.276.324-.984.53-2.122.618z" fill="#00BE3C"/><g transform="translate(0 21.191)"><mask id="c" fill="#fff"><use xlink:href="#a"/></mask><use fill="#D6940D" xlink:href="#a"/><path d="M0 14.555c16.049 3.774 32.098 5.66 48.146 5.66 16.05 0 32.098-1.886 48.147-5.66v45.283c-16.049 4.313-32.098 6.47-48.147 6.47-16.048 0-32.097-2.157-48.146-6.47V14.555z" fill-opacity=".3" fill="url(#b)" style="mix-blend-mode:overlay" mask="url(#c)"/><path d="M19.096-8.526c9.683 1.91 19.367 2.866 29.05 2.866 9.684 0 19.368-.956 29.051-2.866a4.57 4.57 0 0 1 5.454 4.483v2.03a5.051 5.051 0 0 1-3.716 4.872c-6.899 1.89-17.162 2.824-30.789 2.8-13.61-.025-23.865-.965-30.764-2.818a5.051 5.051 0 0 1-3.74-4.879v-2.005a4.57 4.57 0 0 1 5.454-4.483z" fill-opacity=".1" fill="#000" mask="url(#c)"/></g><use fill="#895E13" xlink:href="#d"/><use fill-opacity=".3" fill="url(#e)" style="mix-blend-mode:overlay" xlink:href="#d"/></g><g transform="translate(115.2 123.6)"><ellipse fill-opacity=".05" fill="#000" cx="48.146" cy="108.506" rx="37.715" ry="5.633"/><path d="M38.658 50.036l8.108 2.944c-1.108-1.63-1.662-2.72-1.66-3.272.003-3.433-7.893 17.014-5.967 15.877 13.475 11.26 18.122-5.784 26.906-14.614-12.386 1.495-28.48-10.887-29.489 11.23 7.25-6.215 13.278-7.969 25.434-9.391C49.836 54.947 54.2 29.936 47.38 38.63c.57-4.695.21-7.885-.286-11.321C56.573 11.513 49.051 6.076 30.29.225c3.845 11.225-8.245 22.455 13.864 27.568 1.406 2.45 2.796 11.7-2.393 20.641-.343.59-1.377 1.125-3.102 1.602z" fill="#00BE3C"/><g transform="translate(0 41.714)"><mask id="h" fill="#fff"><use xlink:href="#f"/></mask><use fill="#D6940D" xlink:href="#f"/><path d="M0 14.485c16.049 3.755 32.098 5.633 48.146 5.633 16.05 0 32.098-1.878 48.147-5.633V59.55c-16.049 4.291-32.098 6.437-48.147 6.437-16.048 0-32.097-2.146-48.146-6.437V14.485z" fill-opacity=".3" fill="url(#g)" style="mix-blend-mode:overlay" mask="url(#h)"/><path d="M19.071-8.49c9.692 1.905 19.384 2.857 29.075 2.857 9.692 0 19.384-.952 29.076-2.857a4.552 4.552 0 0 1 5.43 4.466v1.997a5.051 5.051 0 0 1-3.723 4.874c-6.9 1.88-17.16 2.809-30.783 2.784C34.54 5.607 24.288 4.672 17.39 2.83a5.051 5.051 0 0 1-3.748-4.88v-1.973a4.552 4.552 0 0 1 5.43-4.466z" fill-opacity=".1" fill="#000" mask="url(#h)"/></g><use fill="#895E13" xlink:href="#i"/><use fill-opacity=".3" fill="url(#j)" style="mix-blend-mode:overlay" xlink:href="#i"/></g><path d="M303.969 17.081c6.313 7.457 5.5 18.718-1.819 25.152-7.318 6.435-18.369 5.605-24.682-1.852-6.314-7.458-5.5-18.719 1.819-25.153 7.317-6.434 18.368-5.604 24.682 1.853z" stroke="#A8A8A8" stroke-width="9.237"/><path d="M217.469 77.417l-.33-3.652c-.175-1.943 1.241-3.68 3.148-3.858l57.137-5.357c1.907-.179 3.61 1.265 3.786 3.208l.33 3.652c.175 1.943-1.242 3.68-3.148 3.858l-57.137 5.357c-1.907.179-3.61-1.265-3.786-3.208" fill="#A8A8A8"/><g transform="translate(227.898 .87)"><mask id="m" fill="#fff"><use xlink:href="#k"/></mask><path d="M38.369.027a3.432 3.432 0 0 0-2.233.862L1.682 31.179C.274 32.418.07 34.566 1.218 36.057L43.233 90.61a3.439 3.439 0 0 0 5.014.496L87.482 56.61c1.505-1.323 1.62-3.657.254-5.127L40.938 1.135A3.44 3.44 0 0 0 38.45.027h-.081z" fill="url(#l)" mask="url(#m)"/></g><g><path d="M213.119 89.172l-2.362-26.155c-.192-2.127 1.655-3.328 2.866-1.864l10.121 12.24c.692.836.817 2.211.286 3.162l-7.76 13.916c-.928 1.665-2.96.827-3.151-1.3" fill="#A8A8A8"/><path d="M205.139 68.068c-4.829.309-14.433 1.607-24.293 8.035-13.506 8.806-18.79 21.565-20.41 26.026M205.562 74.41c-4.462 1.154-11.569 3.634-18.683 9.288-10.822 8.601-15.21 19.421-16.82 24.183M206.084 80.365a55.46 55.46 0 0 0-16.52 13.709c-6.886 8.455-9.731 17.014-10.963 21.864M206.808 86.972a78.138 78.138 0 0 0-13.429 19.996c-5.115 10.956-6.678 20.915-7.184 27.36" stroke="#72A7C4" stroke-width="2.999" stroke-linecap="round" stroke-dasharray="6.855839640734189,6.427121830390718"/></g><g transform="translate(238.4 115.6)"><ellipse fill-opacity=".05" fill="#000" cx="48.146" cy="115.886" rx="37.715" ry="5.647"/><path d="M46.296 44.216h8.628c-1.6-1.156-2.494-1.994-2.682-2.513-1.174-3.236 2.316-15.144 3.737-16.874C72.502 30.827 71.024 13.183 76.25 1.862c-11.126 5.643-30.495-.517-23.86 20.662 4.683-8.333 9.745-12.046 20.68-17.543-10.688 6.169-19.061 14.987-22.489 25.51-1.074-4.618-2.507-7.5-4.151-10.568C49.92 1.802 40.987-.747 21.35.157c7.462 9.259-.047 23.971 22.482 21.227 2.161 1.827 6.64 10.065 4.829 20.263-.12.673-.908 1.53-2.365 2.57z" fill="#00BE3C"/><g transform="translate(0 48.93)"><mask id="p" fill="#fff"><use xlink:href="#n"/></mask><use fill="#D6940D" xlink:href="#n"/><path d="M0 14.52c16.049 3.765 32.098 5.647 48.146 5.647 16.05 0 32.098-1.882 48.147-5.647v45.175c-16.049 4.302-32.098 6.454-48.147 6.454-16.048 0-32.097-2.152-48.146-6.454V14.52z" fill-opacity=".3" fill="url(#o)" style="mix-blend-mode:overlay" mask="url(#p)"/><path d="M19.084-8.508c9.687 1.907 19.375 2.861 29.062 2.861 9.688 0 19.376-.954 29.063-2.861a4.56 4.56 0 0 1 5.442 4.475v2.013a5.051 5.051 0 0 1-3.719 4.873c-6.9 1.886-17.16 2.817-30.786 2.792-13.608-.025-23.862-.961-30.76-2.81a5.051 5.051 0 0 1-3.745-4.88v-1.988a4.56 4.56 0 0 1 5.443-4.475z" fill-opacity=".1" fill="#000" mask="url(#p)"/></g><use fill="#895E13" xlink:href="#q"/><use fill-opacity=".3" fill="url(#r)" style="mix-blend-mode:overlay" xlink:href="#q"/></g></g></svg>
