<svg viewBox="0 0 327 182" xmlns="http://www.w3.org/2000/svg" xmlns:xlink="http://www.w3.org/1999/xlink"><defs><path d="M16.049 0c10.699 2.156 21.398 3.234 32.097 3.234 10.7 0 21.399-1.078 32.098-3.234 10.7 14.016 16.049 27.493 16.049 40.431 0 12.362-4.884 23.248-14.652 32.657a9.261 9.261 0 0 1-3.125 1.983c-10.123 3.86-20.246 5.791-30.37 5.791-10.123 0-20.246-1.93-30.37-5.791a9.261 9.261 0 0 1-3.124-1.983C4.884 63.678 0 52.793 0 40.43 0 27.493 5.35 14.016 16.049 0z" id="a"/><linearGradient x1="50%" y1="100%" x2="50%" y2="0%" id="b"><stop stop-color="#FFF" stop-opacity=".2" offset="0%"/><stop stop-color="#FFF" offset="100%"/></linearGradient><linearGradient x1="50%" y1="0%" x2="50%" y2="100%" id="e"><stop stop-opacity="0" offset="0%"/><stop offset="100%"/></linearGradient><path d="M19.096.369c9.684 1.91 19.367 2.866 29.05 2.866 9.684 0 19.367-.955 29.05-2.866a4.57 4.57 0 0 1 5.455 4.483v2.031a5.051 5.051 0 0 1-3.716 4.872c-6.899 1.891-17.162 2.824-30.789 2.8-13.61-.025-23.865-.964-30.764-2.818a5.051 5.051 0 0 1-3.74-4.879V4.852A4.57 4.57 0 0 1 19.095.37z" id="d"/></defs><g fill="none" fill-rule="evenodd"><g transform="rotate(15 134.18 398.596)" fill-rule="nonzero"><path d="M0 39.369S3.798 51.84 7.31 55.214c3.51 3.374 10.18 20.829 10.18 20.829s23.828-5.05 38.205-15.478c14.377-10.427 47.878-23.591 47.878-23.591L85.294 0S56.242 7.354 42.542 20.298C28.842 33.24 0 39.369 0 39.369z" fill="#8DD070"/><path d="M0 39.369S3.798 51.84 7.31 55.214c3.51 3.374 10.18 20.829 10.18 20.829s23.828-5.05 38.205-15.478c14.377-10.427 47.878-23.591 47.878-23.591L85.294 0S56.242 7.354 42.542 20.298C28.842 33.24 0 39.369 0 39.369z" fill="#000" opacity=".1"/><path d="M6.56 42.256s2.579 10.471 5.443 13.157c2.865 2.687 7.653 17.259 7.653 17.259s21.06-5.73 34.2-15.515c13.141-9.785 43.111-23.032 43.111-23.032L83.205 3.492s-25.749 8.01-38.448 19.914c-12.7 11.903-38.198 18.85-38.198 18.85z" fill="#8DD070"/><ellipse fill="#000" opacity=".1" transform="rotate(-24.97 48.246 39.896)" cx="48.246" cy="39.896" rx="5.66" ry="12.141"/></g><g transform="translate(0 49.02)" fill-rule="nonzero"><path d="M83.951 63.037v-1.864A5.174 5.174 0 0 0 78.777 56H5.174A5.174 5.174 0 0 0 0 61.173v3.437l83.951-1.573z" fill="#33323D"/><g transform="rotate(-15 102.228 13.459)"><path d="M0 39.369S3.798 51.84 7.31 55.214c3.51 3.374 10.18 20.829 10.18 20.829s23.828-5.05 38.205-15.478c14.377-10.427 47.878-23.591 47.878-23.591L85.294 0S56.242 7.354 42.542 20.298C28.842 33.24 0 39.369 0 39.369z" fill="#8DD070"/><path d="M0 39.369S3.798 51.84 7.31 55.214c3.51 3.374 10.18 20.829 10.18 20.829s23.828-5.05 38.205-15.478c14.377-10.427 47.878-23.591 47.878-23.591L85.294 0S56.242 7.354 42.542 20.298C28.842 33.24 0 39.369 0 39.369z" fill="#000" opacity=".1"/><path d="M6.56 42.256s2.579 10.471 5.443 13.157c2.865 2.687 7.653 17.259 7.653 17.259s21.06-5.73 34.2-15.515c13.141-9.785 43.111-23.032 43.111-23.032L83.205 3.492s-25.749 8.01-38.448 19.914c-12.7 11.903-38.198 18.85-38.198 18.85z" fill="#8DD070"/><ellipse fill="#000" opacity=".1" transform="rotate(-24.97 48.246 39.896)" cx="48.246" cy="39.896" rx="5.66" ry="12.141"/></g><path d="M85.938 64.866v51.776a4.477 4.477 0 0 1-4.478 4.477H4.48a4.477 4.477 0 0 1-4.475-4.477V59.647c2.205.82 2.205.82 4.474.75H81.46c2.47 0 4.473 2 4.478 4.47z" fill="#000" opacity=".1"/><path d="M85.938 65.525v51.776a4.478 4.478 0 0 1-4.478 4.477H4.48A4.477 4.477 0 0 1 .004 117.3V60.304c2.205.818 2.205.818 4.474.75H81.46c2.47 0 4.474 2 4.478 4.471z" fill="#504F60"/><path d="M85.719 84.667v16.558H69.662a8.28 8.28 0 0 1-8.167-8.279 8.28 8.28 0 0 1 8.167-8.279H85.72z" fill="#000" opacity=".1"/><path d="M85.938 84.226v16.56H69.88a8.28 8.28 0 0 1-8.167-8.278 8.28 8.28 0 0 1 8.167-8.279l16.057-.003z" fill="#33323D"/><ellipse fill="#000" opacity=".1" cx="70.651" cy="92.947" rx="3.228" ry="3.228"/><ellipse fill="#504F60" cx="70.87" cy="92.509" rx="3.228" ry="3.228"/><g opacity=".05" fill="#000"><path d="M92.484 96.634c-.127.347-.206.71-.234 1.079.067-.255.157-.503.269-.742l-.035-.337zM100.413 95.094c.023-.106.034-.213.032-.321-.044.219-.074.421-.096.6.02-.092.04-.179.064-.28zM92.402 107.068c.048-.072.075-.315.087-.653a2.217 2.217 0 0 0-.17.824.788.788 0 0 1 .083-.17z"/></g></g><g transform="rotate(60 126.34 228.829)" fill-rule="nonzero"><path d="M0 39.369S3.798 51.84 7.31 55.214c3.51 3.374 10.18 20.829 10.18 20.829s23.828-5.05 38.205-15.478c14.377-10.427 47.878-23.591 47.878-23.591L85.294 0S56.242 7.354 42.542 20.298C28.842 33.24 0 39.369 0 39.369z" fill="#8DD070"/><path d="M0 39.369S3.798 51.84 7.31 55.214c3.51 3.374 10.18 20.829 10.18 20.829s23.828-5.05 38.205-15.478c14.377-10.427 47.878-23.591 47.878-23.591L85.294 0S56.242 7.354 42.542 20.298C28.842 33.24 0 39.369 0 39.369z" fill="#000" opacity=".1"/><path d="M6.56 42.256s2.579 10.471 5.443 13.157c2.865 2.687 7.653 17.259 7.653 17.259s21.06-5.73 34.2-15.515c13.141-9.785 43.111-23.032 43.111-23.032L83.205 3.492s-25.749 8.01-38.448 19.914c-12.7 11.903-38.198 18.85-38.198 18.85z" fill="#8DD070"/><ellipse fill="#000" opacity=".1" transform="rotate(-24.97 48.246 39.896)" cx="48.246" cy="39.896" rx="5.66" ry="12.141"/></g><g transform="translate(230 89.783)"><ellipse fill-opacity=".05" fill="#000" cx="48.146" cy="78.307" rx="37.715" ry="5.66"/><g transform="translate(0 11.191)"><mask id="c" fill="#fff"><use xlink:href="#a"/></mask><use fill="#D6940D" xlink:href="#a"/><path d="M0 15c16.049 3.774 32.098 5.66 48.146 5.66 16.05 0 32.098-1.886 48.147-5.66v45.283c-16.049 4.313-32.098 6.469-48.147 6.469-16.048 0-32.097-2.156-48.146-6.47V15z" fill-opacity=".3" fill="url(#b)" style="mix-blend-mode:overlay" mask="url(#c)"/><path d="M19.096-8.526c9.683 1.91 19.367 2.866 29.05 2.866 9.684 0 19.368-.956 29.051-2.866a4.57 4.57 0 0 1 5.454 4.483v2.03a5.051 5.051 0 0 1-3.716 4.872c-6.899 1.89-17.162 2.824-30.789 2.8-13.61-.025-23.865-.965-30.764-2.818a5.051 5.051 0 0 1-3.74-4.879v-2.005a4.57 4.57 0 0 1 5.454-4.483z" fill-opacity=".1" fill="#000" mask="url(#c)"/></g><use fill="#895E13" xlink:href="#d"/><use fill-opacity=".3" fill="url(#e)" style="mix-blend-mode:overlay" xlink:href="#d"/></g></g></svg>
