<svg id="Layer_1" data-name="Layer 1" xmlns="http://www.w3.org/2000/svg" viewBox="0 0 580 570"><defs><style>.cls-1{fill:#db6f26;}.cls-2{fill:#f1c430;}.cls-3{fill:#707b8c;}.cls-4{fill:#2991cc;}.cls-5{fill:#145d8e;}.cls-6{fill:#c8c7cc;}.cls-7{opacity:0.2;}</style></defs><title>ISA-Page-4</title><g id="Rocket"><path class="cls-1" d="M109.85,416.56c-79,100.14-87.95,144.2-87.95,144.2S68,549.21,168.59,468c3.16-12.86,6.8-36-6.84-48.18C147.94,407.52,123.29,412.67,109.85,416.56Z"/><path class="cls-1" d="M126.74,434.14c-48.09,78.07-50.55,110.3-50.55,110.3s32.38-12,97.88-78.34c1.11-9.45,1.62-26.33-9.39-33.89S136.13,430.26,126.74,434.14Z"/><path class="cls-1" d="M148.94,453.58c-79.37,50.68-113.38,55.3-113.38,55.3S46,477.64,111.67,411.47c9.94-1.71,27.81-3.4,36.61,6.39S152.39,444.5,148.94,453.58Z"/><path class="cls-2" d="M116.59,433.09C70.89,491,65.7,516.53,65.7,516.53s26.68-6.69,84.88-53.69c1.83-7.44,3.93-20.86-4-27.88S124.37,430.84,116.59,433.09Z"/><path class="cls-3" d="M199,454q-12.94,8.24-26.53,16.58c-10.26-2.08-26.71-7-41.38-19.73A81.9,81.9,0,0,1,106.75,413q7.75-13.14,15.45-25.67Z"/><path class="cls-4" d="M150,336.09s-26.8,5.42-40.59,9.4A402.42,402.42,0,0,0,0,396c13.9-51.82,48.23-97.46,99.21-124A199,199,0,0,1,196,249.6Z"/><path class="cls-5" d="M251.06,424.55s-3.83,25.53-7.06,38.75c-10.77,44-29,79.78-45.8,106.25,54-16.74,99.93-52.2,124.43-101.91a168.69,168.69,0,0,0,16.89-92.36Z"/><path class="cls-6" d="M207.43,458.36a154.87,154.87,0,0,1-53.68-30.16,143.19,143.19,0,0,1-36.49-48.79C220.5,166.84,329.61,71.86,415.14,30.56,507.86-14.18,572.93,4.18,572.93,4.18S597,63.88,556.19,154C518.52,237.24,425.56,346.37,207.43,458.36Z"/><ellipse class="cls-3" cx="376.17" cy="202.92" rx="67.35" ry="62" transform="translate(-49.48 164.13) rotate(-23.14)"/><path class="cls-4" d="M556.2,154.05C597,63.89,572.94,4.19,572.94,4.19S507.87-14.17,415.15,30.57a190.85,190.85,0,0,0,53.52,78.23C502,138.12,537.68,149.48,556.2,154.05Z"/><path class="cls-7" d="M310.2,214.93c-4.85-34.08,20.76-67.08,57.19-73.71s69.91,15.62,74.76,49.7c-14.2-23.29-42.63-35.28-71.54-30.19C341.38,165.88,317.29,187.49,310.2,214.93Z"/><path class="cls-7" d="M179.14,446a158.08,158.08,0,0,0,28.29,12.34C425.56,346.37,518.52,237.24,556.19,154,597,63.88,572.93,4.18,572.93,4.18a381.59,381.59,0,0,1-31.48,127.06C492.17,243,399.55,308.33,324.29,361.42A977.79,977.79,0,0,1,179.14,446Z"/></g></svg>