<svg id="Layer_1" data-name="Layer 1" xmlns="http://www.w3.org/2000/svg" viewBox="0 0 422 675"><defs><style>.cls-1{fill:#ebd6b7;}.cls-2{fill:#ddba87;}.cls-3{fill:#5a3f35;}</style></defs><title>ISA-Page-3</title><path class="cls-1" d="M393.74,588.51c-27.8,42.08-51.74,86.9-184.89,85.83C77.46,673.29,44.91,623,23.57,593-1.68,557.63-8.79,504.47,13.28,430.85c4.54-15.18,4.4-18.7,40.39-86.06,64.7-121.13,116.23-139.6,108.23-190.38C153.22,99.58,85.28,60.79,95.5,47c3.71-5,14.06-2,24.48-2.79,5.69-.43,11.36-2,16-6.62a18.78,18.78,0,0,0,4.74-7.61c2.46-7.37.58-15,7.38-21.83,11.87-11.9,38.53-9.82,56.4.58,18.1,10.51,17.78,24.07,30.7,25.65,16.08,1.93,22.58-18.39,40.44-17.31,12.21.71,26.22,11.23,28.42,23.42,3.49,19.36-26.18,24.78-38,62.57-6,19.31-5.76,41.91-5.64,47a77.17,77.17,0,0,0,1.73,20.66c6.42,26.66,19.23,49.61,68.89,132,33,54.8,43.8,52.53,64.17,124.34C414.49,494.91,417.63,552.34,393.74,588.51Z"/><path class="cls-2" d="M416.83,455.56c19.56,79.49-18.44,176.57-95.14,205.19-42,15.67-112.84,13.59-112.84,13.59,23.73-1.26,95.59-32.27,120.92-82.28,7.87-15.54,36.78-105.72-33.44-254.31-44.53-94.24-58.95-136.5-76.07-223.06-8.86-44.78-13.34-81.94-15.72-106,18.08,10.52,17.78,24.09,30.69,25.65,16.09,2,22.58-18.38,40.44-17.31,12.2.73,26.23,11.23,28.42,23.42,3.5,19.36-26.18,24.8-38,62.59-6,19.3-5.77,41.89-5.66,47a78.2,78.2,0,0,0,1.73,20.67c6.44,26.65,3.39,18.32,57.65,97.81C354.18,318.74,401.48,393.17,416.83,455.56Z"/><path class="cls-3" d="M130,527.21l9.72-.09c7.2-.07,14.69-3.91,14.59-14.56l-.31-32-24.45.24-.35-37,24.44-.24-.3-32c-.48-49.83,26.91-69.53,64.21-69.89s61.92,17.9,68.3,62.35l-38.78,8.21c-4-21.9-10.35-33.13-27.28-33S195.48,389.6,195.67,409L196,443.2l53.91-.52.35,37-53.91.52.45,46.39,89.64-.87.38,39.5-156.4,1.5Z"/><path class="cls-2" d="M204,163.85c-2.6-7.72-10.64-9.15-16.33-6.46-5.79-.15-11.76,3.5-11.81,11-.1,16.76-7.73,34.81-13.65,51.2-1.35,3.75-.93,2.54-2.58,7.45-7.75,23.05-12.94,38.47-9.87,40.31,3.87,2.32,20.71-17,31.68-34.52,3.83-6.13,7.87-15.45,16-34.1C200.17,192.26,207.6,174.63,204,163.85Z"/><path class="cls-2" d="M142.31,35.6c6.22,14.1,16.48,25.28,35.71,62.19,3.27,6.28,4.9,9.4,6.66,12.84,7.46,14.75,13.3,27.25,17.45,36.43a7,7,0,0,1,.24,7.44c-1.79,3.65-6.39,4.87-9,7.63-4.52,4.68-5.8,12.11-7,18.24-.81,4.19-7.61,3.28-7.4-.93,1.51-30.84-11.89-58.31-26.53-84.59-.07-.1-.18-.22-.25-.32a322.86,322.86,0,0,1-31.8-48.79,4.26,4.26,0,0,1-.42-1.58c5.69-.43,11.36-2,16-6.62a18.78,18.78,0,0,0,4.74-7.61"/><rect class="cls-3" x="144.48" y="144.12" width="134.92" height="28.94" rx="13.97" transform="translate(4.3 -5.59) rotate(1.53)"/><rect class="cls-3" x="144.67" y="154.14" width="134.92" height="28.94" rx="13.97" transform="translate(-20.85 30.22) rotate(-7.77)"/></svg>