<svg id="Layer_1" data-name="Layer 1" xmlns="http://www.w3.org/2000/svg" viewBox="0 0 684 500"><defs><style>.cls-1{fill:#ec7063;}.cls-2{fill:#e74c3c;}.cls-3{fill:#14233c;}.cls-4{fill:#c3c8cf;}.cls-5{fill:#8e2520;}</style></defs><title>ISA-Page-1</title><polygon class="cls-1" points="446.43 500.34 382.38 500.34 370.84 392.77 457.97 392.77 446.43 500.34"/><polygon class="cls-1" points="232.71 500.34 168.65 500.34 157.11 392.77 244.25 392.77 232.71 500.34"/><polygon class="cls-2" points="232.71 500.34 207.24 500.34 210.54 392.77 244.25 392.77 232.71 500.34"/><polygon class="cls-2" points="446.43 500.34 420.96 500.34 424.26 392.77 457.97 392.77 446.43 500.34"/><ellipse class="cls-1" cx="305.85" cy="251.19" rx="253.75" ry="207.11"/><path class="cls-1" d="M100.77,330.55,14.4,318.65a166.35,166.35,0,0,1,0-134.92l86.37-11.9Z"/><path class="cls-2" d="M544.67,213.21c1.25-.55,2.69-1.23,4.06-1.86s2.78-1.31,4.17-2c2.76-1.37,5.51-2.8,8.22-4.24a178.61,178.61,0,0,0,15.59-9.36,98.78,98.78,0,0,0,13.39-10.64,54,54,0,0,0,5.06-5.68,26.27,26.27,0,0,0,3.19-5.46,11.82,11.82,0,0,0,.47-1.23c.1-.4.23-.79.35-1.17a10.09,10.09,0,0,1,.18-1.1c.07-.36,0-.69.06-1a16.61,16.61,0,0,0-.62-5.29,12.43,12.43,0,0,0-.75-1.92,7.94,7.94,0,0,0-.86-1.25,5.23,5.23,0,0,0-1.07-.9,9.11,9.11,0,0,0-1.63-.87,12.19,12.19,0,0,0-4.36-.78,10.7,10.7,0,0,0-4,.84,7.26,7.26,0,0,0-.79.39c-.27.13-.45.32-.71.44a7.85,7.85,0,0,0-1.2,1.18,8.41,8.41,0,0,0-1.06,1.62,12.31,12.31,0,0,0-.78,2.15,14.42,14.42,0,0,0-.44,5,11.9,11.9,0,0,0,.41,2.22c.06.35.23.59.3.91s.25.6.46.89a13.52,13.52,0,0,0,3.38,3.77,27.62,27.62,0,0,0,5.86,3.51A58.07,58.07,0,0,0,607,185.67a71.16,71.16,0,0,0,16.86.43c10.78-1.07,21.33-5.07,31.38-11.62a121.17,121.17,0,0,0,14.63-11.37c4.77-4.25,9.34-8.91,14-13.93a55.69,55.69,0,0,1-2.44,10,76.92,76.92,0,0,1-15.84,27.13c-1.22,1.32-2.47,2.64-3.79,3.9-.65.64-1.35,1.23-2,1.84s-1.38,1.21-2.1,1.79a64.59,64.59,0,0,1-9.22,6.34A66.67,66.67,0,0,1,627,207.89a94.18,94.18,0,0,1-22.34,1.05,77.9,77.9,0,0,1-22.55-4.81,52.71,52.71,0,0,1-11.31-5.92,40.59,40.59,0,0,1-5.4-4.48,36.49,36.49,0,0,1-4.77-5.81,31.74,31.74,0,0,1-3.54-7,37,37,0,0,1-1.86-7.31,40.09,40.09,0,0,1,.45-14.48A38.42,38.42,0,0,1,558,152a36.22,36.22,0,0,1,3.94-6.81,34.93,34.93,0,0,1,5.55-5.93c1.07-.83,2.14-1.69,3.28-2.41a34.86,34.86,0,0,1,3.5-2,36.82,36.82,0,0,1,14.91-3.75,39.63,39.63,0,0,1,14.92,2.28,35.84,35.84,0,0,1,7.12,3.55,33,33,0,0,1,6.43,5.39,35.79,35.79,0,0,1,4.81,6.75,40.22,40.22,0,0,1,3,7.15,42.71,42.71,0,0,1,1.77,14.12c-.08,1.28-.11,2.6-.31,3.85s-.43,2.5-.68,3.74-.66,2.37-1,3.55-.85,2.23-1.28,3.35a52,52,0,0,1-6.81,11.39,75.38,75.38,0,0,1-8.15,8.83,115.63,115.63,0,0,1-17.75,13.23c-1.52.95-3.06,1.83-4.59,2.73s-3.09,1.72-4.65,2.52c-3.11,1.64-6.24,3.17-9.4,4.63s-6.34,2.83-9.56,4.1c-1.62.63-3.23,1.26-4.87,1.86s-3.26,1.15-5.07,1.75Z"/><path class="cls-1" d="M135.47,117.57l82.31-9C210.72,43.78,168.13-4.74,122.67.22a207.47,207.47,0,0,1,15.41,62.54A207.5,207.5,0,0,1,135.47,117.57Z"/><path class="cls-2" d="M529.08,152.63c19.47,29.31,30.53,62.88,30.53,98.56C559.61,365.58,446,458.3,305.85,458.3c-54.27,0-104.56-13.9-145.82-37.59,155.4,39.75,299.85-12.55,352.69-113.53C542.83,249.63,536.7,188.67,529.08,152.63Z"/><path class="cls-2" d="M169.15,97.89c6.52-3.35,13.73-6.73,21.6-10s15.42-5.89,22.44-8.08C212.82,76,207.22,28,167,7.63,154,1,138.92-1.56,122.67.22a78.09,78.09,0,0,1,25.92,17.41C179.16,49,170.38,91.51,169.15,97.89Z"/><circle class="cls-3" cx="160.63" cy="190.51" r="23.44"/><circle class="cls-4" cx="154.39" cy="184.51" r="8.17"/><path class="cls-5" d="M237.87,72.76q.18-6.93.38-13.87a280.57,280.57,0,0,1,128-1.5l.48,13.81a267.13,267.13,0,0,0-128.84,1.56Z"/></svg>