<svg id="Layer_1" data-name="Layer 1" xmlns="http://www.w3.org/2000/svg" viewBox="0 0 536 539"><defs><style>.cls-1{fill:#f1c430;}.cls-2{fill:#a48210;}.cls-2,.cls-5{opacity:0.5;}.cls-3{fill:#f7dc83;}.cls-4{fill:#55bd9c;}.cls-5{fill:#277059;}</style></defs><title>ISA-Page-2</title><path class="cls-1" d="M247.45,98a53.66,53.66,0,0,0,61-53.15H288.13a33.36,33.36,0,0,1-33.36,33.35"/><path class="cls-2" d="M247.45,98a53.66,53.66,0,0,0,61-53.15H288.13a33.36,33.36,0,0,1-33.36,33.35"/><circle class="cls-1" cx="299.23" cy="26.01" r="26.01"/><circle class="cls-3" cx="299.23" cy="12.09" r="10.67"/><path class="cls-1" d="M281.23,78.15A33.36,33.36,0,0,1,247.87,44.8H227.58a53.66,53.66,0,0,0,61,53.15"/><circle class="cls-1" cx="236.77" cy="26.01" r="26.01"/><circle class="cls-3" cx="236.77" cy="12.09" r="10.67"/><path class="cls-3" d="M118.62,271.19l-74.11-30.7a125.32,125.32,0,0,1-2-65.34c2.31-9.59,10.35-37.77,35.08-60.75C112.5,82,163.05,78.88,199.15,77.57c5.59-.2,10.23-.2,13.43-.16H324.36c88.28,0,147.56,20,169.18,103.11,7.88,33-2.66,57.2,1,65.87-25.22,13.07-53,16.95-78.2,30"/><path class="cls-1" d="M118.62,283.79,40.45,245.53c5.09-12.7-6-29,2.06-57.78C50.17,161.19,62,141.48,77.59,127c34.91-32.45,85.46-35.52,121.56-36.83,5.59-.2,10.23-.2,13.43-.16H324.36C412.64,90,471.92,110,493.54,193.12c7.88,33-5.19,48-1.48,56.68L416.39,289"/><path class="cls-4" d="M242.09,522.62c14.86-10.09,49.15-22.48,64-32.57l-7.77,9.59C285.6,511.4,234.94,537,179,537.41c-25.11.2-43.93-6.27-54.11-9.75a185.82,185.82,0,0,1-96.29-76.37C-3.38,401-8,338.07,14.21,282.8l15.21-37.9a402,402,0,0,0,13.09-38.85c7.66-26.56,19.5-46.27,35.08-60.74,34.91-32.45,85.46-35.53,121.56-36.84,5.59-.2,10.23-.2,13.43-.15H324.36c88.28,0,147.56,20,169.18,103.1a187.62,187.62,0,0,0,9.29,26.68l17.34,40.49c32.08,74.89,13.05,162.87-49.13,215.52-25,21.15-57.42,33-58.88,33.52-49.06,17.11-95.6,10-112.35,5.66-2.5-.64-10.37-2.79-21.61-5.08C263.22,525.14,250.69,523.52,242.09,522.62Z"/><path class="cls-5" d="M242.09,522.62c14.86-10.09,49.15-22.48,64-32.57l-7.77,9.59C285.6,511.4,234.94,537,179,537.41c-25.11.2-43.9-6.36-54.11-9.75-65.69-21.82-96.29-76.37-96.29-76.37,11.5,14.24,47.34,54.81,106.81,66.82,0,0,46.08,9.31,94.94-5.58,15-4.57,37.54-14.8,41.9-17,5.93-3,12-6.36,12-6.36h0c8.59-4.74,12.72-7.39,15.76-9.06,5.86-3.21,10.08-6,16.3-8.72,4-1.73,4.53-1.64,4.88-1.4,3.8,2.57-13,22.73-8.67,33.87,6.27,16,57.59,16.92,99.6,2.27,61.86-21.58,92-73,95.48-79.09,38.5-67.89,16.48-136.92,12.59-148.44,32.08,74.89,13.05,162.87-49.13,215.52-25,21.15-57.42,33-58.88,33.52-49.06,17.11-95.6,10-112.35,5.66-2.5-.64-10.37-2.79-21.61-5.08C263.22,525.14,250.69,523.52,242.09,522.62Z"/></svg>