<svg width="48" height="48" xmlns="http://www.w3.org/2000/svg" xmlns:xlink="http://www.w3.org/1999/xlink"><defs><rect id="a" width="48" height="48" rx="6"/></defs><g fill="none" fill-rule="evenodd"><mask id="b" fill="#fff"><use xlink:href="#a"/></mask><use fill="#A0E1AB" xlink:href="#a"/><g mask="url(#b)"><path d="M6 6h36v36H6z"/><path d="M12.75 33V21.75l2.25-1.8V15a2.25 2.25 0 012.25-2.25h13.5A2.25 2.25 0 0133 15v4.95l2.25 1.8v13.5h-22.5V33zm4.5-7.65l6.75 5.4 6.75-5.4V15h-13.5v10.35zm4.5-5.287a2.812 2.812 0 014.9-1.885 1.125 1.125 0 01-1.67 1.508.565.565 0 00-.417-.186.562.562 0 00-.563.563v.562h1.125a1.125 1.125 0 010 2.25H24c0 .378-.062.76-.175 1.125h2.425a1.125 1.125 0 010 2.25h-4.5a1.125 1.125 0 01-.652-2.042c.358-.264.652-.837.652-1.333a1.125 1.125 0 010-2.25v-.563z" fill="#FFF"/></g></g></svg>