<svg width="48" height="48" xmlns="http://www.w3.org/2000/svg" xmlns:xlink="http://www.w3.org/1999/xlink"><defs><rect id="a" width="48" height="48" rx="6"/></defs><g fill="none" fill-rule="evenodd"><mask id="b" fill="#fff"><use xlink:href="#a"/></mask><use fill="#D8D8D8" xlink:href="#a"/><g mask="url(#b)"><path fill="#00A4DB" d="M0 0h48v48H0z"/><path d="M18 25.5h-1.5a1.5 1.5 0 010-3H18V18a7.5 7.5 0 0114-3.745 1.5 1.5 0 11-2.599 1.5A4.5 4.5 0 0021 18v4.5h7.5a1.5 1.5 0 010 3H21v6a5.972 5.972 0 01-.803 3H33a1.5 1.5 0 010 3H15a1.5 1.5 0 010-3 3 3 0 003-3v-6z" fill="#FFF"/></g></g></svg>