<svg width="48" height="48" xmlns="http://www.w3.org/2000/svg" xmlns:xlink="http://www.w3.org/1999/xlink"><defs><rect id="a" width="48" height="48" rx="6"/></defs><g fill="none" fill-rule="evenodd"><mask id="b" fill="#fff"><use xlink:href="#a"/></mask><use fill="#30803D" xlink:href="#a"/><g mask="url(#b)"><path d="M6 6h36v36H6z"/><path d="M30.75 15h1.125a2.25 2.25 0 012.25 2.25v14.625a2.25 2.25 0 01-2.25 2.25h-15.75a2.25 2.25 0 01-2.25-2.25V17.25a2.25 2.25 0 012.25-2.25h1.125v-1.125a1.125 1.125 0 012.25 0V15h9v-1.125a1.125 1.125 0 012.25 0V15zm-14.625 4.5v12.375h15.75V19.5h-15.75zm2.25 2.25h3.375v3.375h-3.375V21.75z" fill="#FFF"/></g></g></svg>