<svg width="48" height="48" xmlns="http://www.w3.org/2000/svg" xmlns:xlink="http://www.w3.org/1999/xlink"><defs><rect id="a" width="48" height="48" rx="6"/></defs><g fill="none" fill-rule="evenodd"><mask id="b" fill="#fff"><use xlink:href="#a"/></mask><use fill="#61CD73" xlink:href="#a"/><g mask="url(#b)"><path d="M6 6h36v36H6z"/><path d="M21.75 15.384V15a2.25 2.25 0 114.5 0v.384a6.753 6.753 0 014.5 6.366v3.375h-.452.452c0 1.463.699 2.764 1.78 3.586a1.124 1.124 0 01-.655 2.039h-15.75a1.125 1.125 0 01-.655-2.04 4.493 4.493 0 001.78-3.585V21.75a6.753 6.753 0 014.5-6.366zm0 17.616h4.5a2.25 2.25 0 11-4.5 0z" fill="#FFF"/></g></g></svg>