<svg width="439" height="357" xmlns="http://www.w3.org/2000/svg" xmlns:xlink="http://www.w3.org/1999/xlink"><defs><path d="M37.396 316.548a1.817 1.817 0 00-.683-.48 2.168 2.168 0 00-.854-.181c-.342 0-.623.042-.844.128-.22.085-.395.202-.523.352-.128.15-.217.32-.267.512-.05.192-.074.395-.074.609v.192h3.095v3.459h-3.095v1.857h5.359v4.12H27.297v-4.12h1.965v-1.857h-1.965v-3.459h1.965v-.598c0-.655.124-1.313.373-1.975a5.167 5.167 0 011.121-1.772c.498-.52 1.128-.943 1.89-1.27.761-.327 1.647-.491 2.658-.491 1.152 0 2.142.167 2.967.502.826.334 1.488.743 1.986 1.227l-2.861 3.245z" id="a"/><path d="M37.916 316.188a1.817 1.817 0 00-.683-.48 2.168 2.168 0 00-.854-.181c-.342 0-.623.042-.844.128-.22.085-.395.202-.523.352-.128.15-.217.32-.267.512-.05.192-.074.395-.074.609v.192h3.095v3.459h-3.095v1.857h5.359v4.12H27.817v-4.12h1.965v-1.857h-1.965v-3.459h1.965v-.598c0-.655.124-1.313.373-1.975a5.167 5.167 0 011.121-1.772c.498-.52 1.128-.943 1.89-1.27.761-.327 1.647-.491 2.658-.491 1.152 0 2.142.167 2.967.502.826.334 1.488.743 1.986 1.227l-2.861 3.245z" id="b"/><path d="M423.152 132.524a1.809 1.809 0 00-.683-.48 2.168 2.168 0 00-.854-.181c-.342 0-.623.042-.843.128a1.278 1.278 0 00-.523.352c-.129.15-.218.32-.267.512-.05.193-.075.395-.075.609v.192h3.096v3.459h-3.096v1.857h5.359v4.12h-12.212v-4.12h1.964v-1.857h-1.964v-3.459h1.964v-.598c0-.655.124-1.313.373-1.975a5.167 5.167 0 011.121-1.772c.498-.52 1.128-.943 1.89-1.27.761-.327 1.647-.491 2.658-.491 1.153 0 2.142.167 2.967.502.826.334 1.488.743 1.986 1.227l-2.86 3.245z" id="c"/><path d="M423.382 133.124a1.809 1.809 0 00-.683-.48 2.168 2.168 0 00-.854-.181c-.342 0-.623.042-.843.128a1.278 1.278 0 00-.523.352c-.129.15-.218.32-.267.512-.05.193-.075.395-.075.609v.192h3.096v3.459h-3.096v1.857h5.359v4.12h-12.212v-4.12h1.964v-1.857h-1.964v-3.459h1.964v-.598c0-.655.124-1.313.373-1.975a5.167 5.167 0 011.121-1.772c.498-.52 1.128-.943 1.89-1.27.761-.327 1.647-.491 2.658-.491 1.153 0 2.142.167 2.967.502.826.334 1.488.743 1.986 1.227l-2.86 3.245z" id="d"/><path d="M381.752 205.103c-.171-.2-.399-.36-.683-.48a2.168 2.168 0 00-.854-.182c-.342 0-.623.042-.844.128-.22.085-.395.203-.523.352-.128.15-.217.32-.267.513-.05.192-.074.395-.074.608v.192h3.095v3.459h-3.095v1.857h5.358v4.12h-12.212v-4.12h1.964v-1.857h-1.964v-3.459h1.964v-.598c0-.654.125-1.313.374-1.974a5.167 5.167 0 011.121-1.773c.498-.52 1.128-.942 1.89-1.27.761-.327 1.647-.49 2.658-.49 1.152 0 2.142.166 2.967.5.826.335 1.488.745 1.986 1.228l-2.861 3.246z" id="e"/><path d="M381.732 204.463c-.171-.2-.399-.36-.683-.48a2.168 2.168 0 00-.854-.182c-.342 0-.623.042-.844.128-.22.085-.395.203-.523.352-.128.15-.217.32-.267.513-.05.192-.074.395-.074.608v.192h3.095v3.459h-3.095v1.857h5.358v4.12h-12.212v-4.12h1.964v-1.857h-1.964v-3.459h1.964v-.598c0-.654.125-1.313.374-1.974a5.167 5.167 0 011.121-1.773c.498-.52 1.128-.942 1.89-1.27.761-.327 1.647-.49 2.658-.49 1.152 0 2.142.166 2.967.5.826.335 1.488.745 1.986 1.228l-2.861 3.246z" id="f"/><path id="g" d="M30.302 124.805v-18.2h3.614l5.278 11.804h.052l5.278-11.804h3.64v18.2h-3.432v-11.18h-.052l-5.174 11.18h-.572l-5.174-11.18h-.052v11.18z"/><path id="h" d="M92.14 115.205v-14.95h-5.33v-3.25h14.17v3.25h-5.33v14.95z"/><path id="i" d="M140.47 105.68l-3.536-18.2h3.562l2.34 12.376h.078L147.1 87.48h1.768l4.186 12.376h.078l2.34-12.376h3.484l-3.536 18.2h-3.64l-3.744-11.31h-.156l-3.77 11.31z"/><path id="j" d="M200.41 96.115v-14.95h-5.33v-3.25h14.17v3.25h-5.33v14.95z"/><path id="k" d="M250.45 86.675v-18.2h11.544v3.25h-8.034v4.81h7.306v3.094h-7.306v7.046z"/><path d="M303.063 71.026l3.692-.806c.416 2.678 1.196 4.03 3.614 4.03 1.898 0 3.25-.676 3.25-2.106 0-1.43-.624-1.924-4.706-3.198-3.926-1.222-5.2-2.886-5.2-5.252 0-2.678 2.184-5.174 6.136-5.174 3.198 0 6.11 1.482 6.76 4.966l-3.406.858c-.442-1.404-1.3-2.574-3.354-2.574-1.872 0-2.678.806-2.678 1.898 0 1.092.598 1.352 4.628 2.73 4.108 1.404 5.252 2.86 5.252 5.512 0 3.172-2.548 5.59-6.682 5.59-4.056 0-6.76-2.106-7.306-6.474z" id="l"/><path d="M358.013 61.336l3.692-.806c.416 2.678 1.196 4.03 3.614 4.03 1.898 0 3.25-.676 3.25-2.106 0-1.43-.624-1.924-4.706-3.198-3.926-1.222-5.2-2.886-5.2-5.252 0-2.678 2.184-5.174 6.136-5.174 3.198 0 6.11 1.482 6.76 4.966l-3.406.858c-.442-1.404-1.3-2.574-3.354-2.574-1.872 0-2.678.806-2.678 1.898 0 1.092.598 1.352 4.628 2.73 4.108 1.404 5.252 2.86 5.252 5.512 0 3.172-2.548 5.59-6.682 5.59-4.056 0-6.76-2.106-7.306-6.474z" id="m"/><path d="M250.147 182.536h2.918l.641-3.524c.997-5.73 4.662-7.972 8.684-7.972 3.523 0 7.367 2.1 7.082 7.794l-4.342.499c.036-2.492-.747-4.022-2.918-4.022-2.171 0-3.381 1.602-3.844 4.022l-.605 3.203h6.086l-.57 3.203h-6.12l-1.14 6.264h10.321l-.783 4.484h-17.759l.783-4.484h1.103c.819 0 1.744-.427 1.958-1.637l.818-4.627h-2.882l.569-3.203zm23.845 0h2.919l.64-3.524c.997-5.73 4.663-7.972 8.684-7.972 3.524 0 7.367 2.1 7.083 7.794l-4.342.499c.035-2.492-.748-4.022-2.919-4.022-2.17 0-3.38 1.602-3.843 4.022l-.605 3.203h6.085l-.569 3.203h-6.121l-1.14 6.264h10.322l-.783 4.484h-17.76l.783-4.484h1.104c.818 0 1.744-.427 1.957-1.637l.819-4.627h-2.883l.57-3.203zm23.846 0h2.918l.64-3.524c.997-5.73 4.663-7.972 8.685-7.972 3.523 0 7.367 2.1 7.082 7.794l-4.342.499c.036-2.492-.747-4.022-2.918-4.022-2.171 0-3.381 1.602-3.844 4.022l-.605 3.203h6.086l-.57 3.203h-6.121l-1.139 6.264h10.321l-.783 4.484h-17.76l.784-4.484h1.103c.819 0 1.744-.427 1.957-1.637l.819-4.627h-2.883l.57-3.203z" id="n"/><path d="M171.868 285.066c-.171-.2-.399-.36-.684-.48a2.168 2.168 0 00-.854-.182c-.341 0-.622.043-.843.128-.22.086-.395.203-.523.353-.128.15-.217.32-.267.512-.05.192-.075.395-.075.609v.192h3.096v3.458h-3.096v1.858h5.36v4.12h-12.213v-4.12h1.964v-1.858h-1.964v-3.458h1.964v-.598c0-.655.125-1.313.374-1.975a5.167 5.167 0 011.12-1.772c.499-.52 1.129-.943 1.89-1.27.762-.328 1.648-.491 2.658-.491 1.153 0 2.142.167 2.968.501.825.335 1.487.744 1.985 1.228l-2.86 3.245z" id="o"/><path d="M172.258 285.576c-.171-.2-.399-.36-.684-.48a2.168 2.168 0 00-.854-.182c-.341 0-.622.043-.843.128-.22.086-.395.203-.523.353-.128.15-.217.32-.267.512-.05.192-.075.395-.075.609v.192h3.096v3.458h-3.096v1.858h5.36v4.12h-12.213v-4.12h1.964v-1.858h-1.964v-3.458h1.964v-.598c0-.655.125-1.313.374-1.975a5.167 5.167 0 011.12-1.772c.499-.52 1.129-.943 1.89-1.27.762-.328 1.648-.491 2.658-.491 1.153 0 2.142.167 2.968.501.825.335 1.487.744 1.985 1.228l-2.86 3.245z" id="p"/><path d="M336.022 257.964a1.809 1.809 0 00-.683-.48 2.168 2.168 0 00-.854-.181c-.342 0-.623.042-.843.128a1.278 1.278 0 00-.523.352c-.129.15-.218.32-.267.512-.05.193-.075.395-.075.609v.192h3.096v3.459h-3.096v1.857h5.359v4.12h-12.212v-4.12h1.964v-1.857h-1.964v-3.459h1.964v-.598c0-.655.124-1.313.373-1.975a5.167 5.167 0 011.121-1.772c.498-.52 1.128-.943 1.89-1.27.761-.327 1.647-.491 2.658-.491 1.153 0 2.142.167 2.967.502.826.334 1.488.743 1.986 1.227l-2.86 3.245z" id="q"/><path d="M336.252 258.554a1.809 1.809 0 00-.683-.48 2.168 2.168 0 00-.854-.181c-.342 0-.623.042-.843.128a1.278 1.278 0 00-.523.352c-.129.15-.218.32-.267.512-.05.193-.075.395-.075.609v.192h3.096v3.459h-3.096v1.857h5.359v4.12h-12.212v-4.12h1.964v-1.857h-1.964v-3.459h1.964v-.598c0-.655.124-1.313.373-1.975a5.167 5.167 0 011.121-1.772c.498-.52 1.128-.943 1.89-1.27.761-.327 1.647-.491 2.658-.491 1.153 0 2.142.167 2.967.502.826.334 1.488.743 1.986 1.227l-2.86 3.245z" id="r"/><path d="M96.587 210.326c-.171-.2-.399-.36-.684-.48a2.168 2.168 0 00-.854-.182c-.341 0-.622.043-.843.128-.22.086-.395.203-.523.353-.128.149-.217.32-.267.512-.05.192-.075.395-.075.608v.193h3.096v3.458h-3.096v1.858h5.36v4.12H86.487v-4.12h1.964v-1.858h-1.964v-3.458h1.964v-.598c0-.655.125-1.313.374-1.975a5.167 5.167 0 011.12-1.772c.499-.52 1.129-.943 1.89-1.27.762-.328 1.648-.491 2.658-.491 1.153 0 2.142.167 2.968.501.826.335 1.487.744 1.986 1.228l-2.861 3.245z" id="s"/><path d="M96.817 209.726c-.171-.2-.399-.36-.684-.48a2.168 2.168 0 00-.854-.182c-.341 0-.622.043-.843.128-.22.086-.395.203-.523.353-.128.149-.217.32-.267.512-.05.192-.075.395-.075.608v.193h3.096v3.458h-3.096v1.858h5.36v4.12H86.717v-4.12h1.964v-1.858h-1.964v-3.458h1.964v-.598c0-.655.125-1.313.374-1.975a5.167 5.167 0 011.12-1.772c.499-.52 1.129-.943 1.89-1.27.762-.328 1.648-.491 2.658-.491 1.153 0 2.142.167 2.968.501.826.335 1.487.744 1.986 1.228l-2.861 3.245z" id="t"/><path d="M380.323 78.445c-.17-.2-.399-.36-.683-.48a2.168 2.168 0 00-.854-.182c-.342 0-.623.043-.844.128-.22.086-.394.203-.523.353-.128.15-.217.32-.266.512-.05.192-.075.395-.075.609v.192h3.096v3.458h-3.096v1.858h5.359v4.12h-12.213v-4.12h1.965v-1.858h-1.965v-3.458h1.965v-.598c0-.655.124-1.313.373-1.975a5.167 5.167 0 011.121-1.772c.498-.52 1.128-.943 1.89-1.27.761-.328 1.647-.491 2.658-.491 1.153 0 2.142.167 2.967.501.826.335 1.488.744 1.986 1.228l-2.861 3.245z" id="u"/><path d="M380.673 77.915c-.17-.2-.399-.36-.683-.48a2.168 2.168 0 00-.854-.182c-.342 0-.623.043-.844.128-.22.086-.394.203-.523.353-.128.15-.217.32-.266.512-.05.192-.075.395-.075.609v.192h3.096v3.458h-3.096v1.858h5.359v4.12h-12.213v-4.12h1.965v-1.858h-1.965v-3.458h1.965v-.598c0-.655.124-1.313.373-1.975a5.167 5.167 0 011.121-1.772c.498-.52 1.128-.943 1.89-1.27.761-.328 1.647-.491 2.658-.491 1.153 0 2.142.167 2.967.501.826.335 1.488.744 1.986 1.228l-2.861 3.245z" id="v"/><path d="M349.926 117.146c-.171-.2-.399-.36-.684-.48a2.168 2.168 0 00-.854-.182c-.341 0-.622.042-.843.128-.22.085-.395.203-.523.352-.128.15-.217.32-.267.512-.05.193-.075.395-.075.609v.192h3.096v3.459h-3.096v1.857h5.36v4.12h-12.213v-4.12h1.964v-1.857h-1.964v-3.459h1.964v-.598c0-.654.125-1.313.374-1.975a5.167 5.167 0 011.12-1.772c.499-.52 1.129-.943 1.89-1.27.762-.327 1.648-.491 2.658-.491 1.153 0 2.142.167 2.968.502.825.334 1.487.743 1.985 1.227l-2.86 3.246z" id="w"/><path d="M349.986 117.776c-.171-.2-.399-.36-.684-.48a2.168 2.168 0 00-.854-.182c-.341 0-.622.042-.843.128-.22.085-.395.203-.523.352-.128.15-.217.32-.267.512-.05.193-.075.395-.075.609v.192h3.096v3.459h-3.096v1.857h5.36v4.12h-12.213v-4.12h1.964v-1.857h-1.964v-3.459h1.964v-.598c0-.654.125-1.313.374-1.975a5.167 5.167 0 011.12-1.772c.499-.52 1.129-.943 1.89-1.27.762-.327 1.648-.491 2.658-.491 1.153 0 2.142.167 2.968.502.825.334 1.487.743 1.985 1.227l-2.86 3.246z" id="x"/><path d="M82.606 264.468a1.817 1.817 0 00-.683-.48 2.168 2.168 0 00-.854-.181c-.342 0-.623.042-.844.128-.22.085-.395.202-.523.352-.128.15-.217.32-.267.512-.05.192-.074.395-.074.609v.192h3.095v3.459h-3.095v1.857h5.359v4.12H72.507v-4.12h1.965v-1.857h-1.965V265.6h1.965v-.598c0-.655.124-1.313.373-1.975a5.167 5.167 0 011.121-1.772c.498-.52 1.128-.943 1.89-1.27.761-.327 1.647-.491 2.658-.491 1.152 0 2.142.167 2.967.502.826.334 1.488.743 1.986 1.227l-2.861 3.245z" id="y"/><path d="M83.136 264.108a1.817 1.817 0 00-.683-.48 2.168 2.168 0 00-.854-.181c-.342 0-.623.042-.844.128-.22.085-.395.202-.523.352-.128.15-.217.32-.267.512-.05.192-.074.395-.074.609v.192h3.095v3.459h-3.095v1.857h5.359v4.12H73.037v-4.12h1.965V268.7h-1.965v-3.459h1.965v-.598c0-.655.124-1.313.373-1.975a5.167 5.167 0 011.121-1.772c.498-.52 1.128-.943 1.89-1.27.761-.327 1.647-.491 2.658-.491 1.152 0 2.142.167 2.967.502.826.334 1.488.743 1.986 1.227l-2.861 3.245z" id="z"/><path d="M130.49 264.901a1.813 1.813 0 00-.683-.48 2.168 2.168 0 00-.854-.182c-.342 0-.623.043-.844.128-.22.086-.395.203-.523.353-.128.15-.217.32-.267.512-.05.192-.074.395-.074.609v.192h3.095v3.458h-3.095v1.858h5.358v4.12h-12.212v-4.12h1.964v-1.858h-1.964v-3.458h1.964v-.598c0-.655.125-1.313.374-1.975a5.167 5.167 0 011.12-1.772c.499-.52 1.129-.943 1.89-1.27.762-.328 1.648-.491 2.658-.491 1.153 0 2.143.167 2.968.501.826.335 1.487.744 1.986 1.228l-2.861 3.245z" id="A"/><path d="M130.64 264.281a1.813 1.813 0 00-.683-.48 2.168 2.168 0 00-.854-.182c-.342 0-.623.043-.844.128-.22.086-.395.203-.523.353-.128.15-.217.32-.267.512-.05.192-.074.395-.074.609v.192h3.095v3.458h-3.095v1.858h5.358v4.12h-12.212v-4.12h1.964v-1.858h-1.964v-3.458h1.964v-.598c0-.655.125-1.313.374-1.975a5.167 5.167 0 011.12-1.772c.499-.52 1.129-.943 1.89-1.27.762-.328 1.648-.491 2.658-.491 1.153 0 2.143.167 2.968.501.826.335 1.487.744 1.986 1.228l-2.861 3.245z" id="B"/><path d="M111.558 332.7c-.17-.2-.398-.36-.683-.48a2.168 2.168 0 00-.854-.182c-.341 0-.623.043-.843.128-.22.086-.395.203-.523.353-.128.149-.217.32-.267.512-.05.192-.075.395-.075.608v.193h3.096v3.458h-3.096v1.858h5.36v4.12H101.46v-4.12h1.964v-1.858h-1.964v-3.458h1.964v-.598c0-.655.125-1.313.374-1.975a5.167 5.167 0 011.12-1.772c.499-.52 1.129-.943 1.89-1.27.762-.328 1.648-.492 2.658-.492 1.153 0 2.142.168 2.968.502.825.335 1.487.744 1.985 1.228l-2.86 3.245z" id="C"/><path d="M112.188 332.72c-.17-.2-.398-.36-.683-.48a2.168 2.168 0 00-.854-.182c-.341 0-.623.043-.843.128-.22.086-.395.203-.523.353-.128.149-.217.32-.267.512-.05.192-.075.395-.075.608v.193h3.096v3.458h-3.096v1.858h5.36v4.12H102.09v-4.12h1.964v-1.858h-1.964v-3.458h1.964v-.598c0-.655.125-1.313.374-1.975a5.167 5.167 0 011.12-1.772c.499-.52 1.129-.943 1.89-1.27.762-.328 1.648-.492 2.658-.492 1.153 0 2.142.168 2.968.502.825.335 1.487.744 1.985 1.228l-2.86 3.245z" id="D"/><path d="M147.119 238.582c-.17-.2-.399-.36-.683-.48a2.168 2.168 0 00-.854-.182c-.342 0-.623.043-.844.128-.22.086-.394.203-.523.352-.128.15-.217.32-.266.513-.05.192-.075.395-.075.608v.192h3.096v3.46h-3.096v1.857h5.359v4.12H137.02v-4.12h1.965v-1.858h-1.965v-3.459h1.965v-.597c0-.655.124-1.313.373-1.975a5.167 5.167 0 011.121-1.772c.498-.52 1.128-.943 1.89-1.27.761-.328 1.647-.492 2.658-.492 1.153 0 2.142.168 2.967.502.826.335 1.488.744 1.986 1.228l-2.861 3.245z" id="E"/><path d="M147.719 238.792c-.17-.2-.399-.36-.683-.48a2.168 2.168 0 00-.854-.182c-.342 0-.623.043-.844.128-.22.086-.394.203-.523.352-.128.15-.217.32-.266.513-.05.192-.075.395-.075.608v.192h3.096v3.46h-3.096v1.857h5.359v4.12H137.62v-4.12h1.965v-1.858h-1.965v-3.459h1.965v-.597c0-.655.124-1.313.373-1.975a5.167 5.167 0 011.121-1.772c.498-.52 1.128-.943 1.89-1.27.761-.328 1.647-.492 2.658-.492 1.153 0 2.142.168 2.967.502.826.335 1.488.744 1.986 1.228l-2.861 3.245z" id="F"/></defs><g transform="translate(0 -1)" fill="none" fill-rule="evenodd"><path d="M31.47 340.62c10.617.633 19.737-7.46 20.371-18.078.634-10.617-7.458-19.738-18.074-20.373-10.617-.636-19.74 7.454-20.377 18.071a19.26 19.26 0 0018.08 20.38z" fill="#14233C" fill-rule="nonzero" opacity=".2" style="mix-blend-mode:multiply"/><circle fill="#F7DC83" fill-rule="nonzero" transform="rotate(-83.72 33.881 320.023)" cx="33.881" cy="320.023" r="19.26"/><path d="M32.61 334.33c-8.036-.888-13.83-8.121-12.944-16.157.887-8.036 8.12-13.832 16.155-12.946 8.036.885 13.833 8.117 12.949 16.153a14.64 14.64 0 01-16.16 12.95z" fill="#F1C430" fill-rule="nonzero"/><path d="M32 334.68a14.45 14.45 0 1115.9-12.78c-.875 7.912-7.984 13.627-15.9 12.78z" fill="#F1C430" fill-rule="nonzero"/><path d="M40.21 333.14A14.45 14.45 0 1022.47 311a14.64 14.64 0 1117.74 22.1v.04z" fill="#FEDF6F" fill-rule="nonzero" style="mix-blend-mode:multiply"/><g style="mix-blend-mode:multiply" fill-rule="nonzero" transform="rotate(6.34 33.777 319.345)"><use fill="#000" xlink:href="#a"/><use fill="#FEDF6F" xlink:href="#a"/></g><g fill-rule="nonzero" transform="rotate(6.34 34.297 318.985)"><use fill="#000" xlink:href="#b"/><use fill="#F7DC83" xlink:href="#b"/></g><path d="M416.69 158c10.617.633 19.737-7.46 20.371-18.078.634-10.617-7.458-19.738-18.074-20.373-10.617-.636-19.74 7.454-20.377 18.071A19.26 19.26 0 00416.69 158z" fill="#14233C" fill-rule="nonzero" opacity=".2" style="mix-blend-mode:multiply"/><circle fill="#F7DC83" fill-rule="nonzero" transform="rotate(-70.45 419.085 137.41)" cx="419.085" cy="137.411" r="19.26"/><path d="M405.48 132.91c2.707-7.618 11.077-11.599 18.695-8.893 7.618 2.706 11.6 11.074 8.896 18.693-2.704 7.618-11.072 11.603-18.691 8.9a14.64 14.64 0 01-8.9-18.7z" fill="#F1C430" fill-rule="nonzero"/><path d="M405.3 132.19c2.674-7.512 10.931-11.434 18.444-8.762 7.512 2.673 11.436 10.929 8.765 18.442-2.67 7.513-10.925 11.44-18.439 8.77a14.44 14.44 0 01-8.77-18.45z" fill="#F1C430" fill-rule="nonzero"/><path d="M404.9 140.57a14.45 14.45 0 1025.58-12.19 14.64 14.64 0 11-25.58 12.19z" fill="#FEDF6F" fill-rule="nonzero" style="mix-blend-mode:multiply"/><g style="mix-blend-mode:multiply" fill-rule="nonzero" transform="rotate(109.55 419.533 135.321)"><use fill="#000" xlink:href="#c"/><use fill="#FEDF6F" xlink:href="#c"/></g><g fill-rule="nonzero" transform="rotate(109.55 419.763 135.921)"><use fill="#000" xlink:href="#d"/><use fill="#F7DC83" xlink:href="#d"/></g><path d="M126 339.36a19.26 19.26 0 11-38.45-2.3v-.64l36.66-6.42a19.08 19.08 0 011.79 9.36z" fill="#14233C" fill-rule="nonzero" opacity=".2" style="mix-blend-mode:multiply"/><path d="M124.21 330l-36.58 6.44a19.25 19.25 0 0136.58-6.44z" fill="#14233C" fill-rule="nonzero" opacity=".2" style="mix-blend-mode:multiply"/><path d="M426.55 276.67L124.21 330a19.25 19.25 0 00-36.58 6.44l-40.25 7.1L0 74.78 379.17 7.93l47.38 268.74z" fill="#14233C" fill-rule="nonzero" opacity=".2" style="mix-blend-mode:multiply"/><path fill="#F7F7F7" fill-rule="nonzero" d="M429.99 271.75l-54.16 9.55-12.26 2.16-41.91 7.39-.24.04v.01l-53.93 9.5-.24.05-53.79 9.48-.13.02-54.04 9.53-.13.03-37.39 6.59-16.78 2.96-16.4 2.89-37.77 6.66-35.13-199.27L3.44 69.87l23.79-4.2 3.04-.53 3.79-.67 3.03-.53 3.72-.66 3.05-.54 3.79-.67 3.03-.53 20.12-3.55 3.06-.54 3.78-.66 3.03-.54 3.73-.66 3.04-.53 3.79-.67 3.03-.54 20.13-3.54 3.05-.54 3.78-.67 3.04-.54 3.71-.65 3.06-.54 3.78-.67 3.04-.53 20.12-3.55 3.06-.54 3.77-.66 3.04-.54 3.71-.65 3.06-.54 3.78-.67 3.04-.54 20.13-3.55 3.05-.53 3.78-.67 3.04-.54 3.69-.65 3.08-.54 3.75-.66 3.06-.54 20.11-3.55 3.07-.54 3.77-.66 3.05-.54 3.71-.65v-.01l3.06-.53 3.47-.62.31-.05 3.04-.54 20.12-3.54v-.01l3.06-.53 3.77-.67 3.05-.54 3.72-.65 3.05-.54 3.78-.67 3.03-.53 20.13-3.55 3.05-.54 3.79-.67 3.03-.53 3.71-.66 3.06-.54 3.78-.66 3.04-.54 26.84-4.73 12.25 69.47 23.42 132.84z"/><path fill="#2991CC" fill-rule="nonzero" d="M3.44 69.867L382.61 3.009l12.249 69.468-379.17 66.858z"/><path d="M34.06 64.46l5.28 21.18a3.462 3.462 0 11-6.72 1.67l-5.39-21.64 6.83-1.21zm13.59-2.39l5.28 21.17a3.463 3.463 0 11-6.72 1.68l-5.4-21.65 6.84-1.2zm29.99-5.29L82.92 78a3.462 3.462 0 01-6.72 1.67L70.8 58l6.84-1.22zm13.59-2.4l5.28 21.18a3.46 3.46 0 11-6.71 1.67l-5.4-21.64 6.83-1.21zm29.99-5.29l5.28 21.18a3.47 3.47 0 11-6.72 1.73l-5.39-21.7 6.83-1.21zm13.59-2.39l5.28 21.18a3.462 3.462 0 01-6.72 1.67L128 47.9l6.81-1.2zm29.99-5.29l5.28 21.18a3.46 3.46 0 01-6.71 1.67L158 42.61l6.8-1.2zM178.39 39l5.28 21.18a3.46 3.46 0 01-6.67 1.69l-5.4-21.65 6.79-1.22zm30-5.28l5.28 21.18a3.46 3.46 0 01-6.67 1.68l-5.39-21.65 6.78-1.21zM222 31.33l5.28 21.18a3.46 3.46 0 11-6.71 1.67l-5.4-21.64 6.83-1.21zM252 26l5.28 21.18a3.462 3.462 0 11-6.72 1.67l-5.4-21.64L252 26zm13.56-2.36l5.28 21.18a3.463 3.463 0 11-6.72 1.68l-5.4-21.65 6.84-1.21zm29.99-5.28l5.28 21.17a3.46 3.46 0 11-6.71 1.68l-5.4-21.65 6.83-1.2z" opacity=".2" fill="#000" fill-rule="nonzero"/><path fill="#FFF" fill-rule="nonzero" d="M104.99 329.06l-16.4 2.89-37.77 6.66-35.13-199.27 54.16-9.56v.01l33.41 189.49zm19.166-208.854l54.164-9.55 35.138 199.276-54.164 9.55zm107.956-19.036l54.164-9.55 35.138 199.276-54.164 9.55zm108.575-19.144l54.164-9.55 35.138 199.276-54.164 9.55z"/><path d="M309.15 16l5.28 21.17a3.463 3.463 0 11-6.72 1.68l-5.39-21.65 6.83-1.2zm30-5.33l5.28 21.17a3.463 3.463 0 01-6.72 1.68l-5.4-21.65 6.84-1.2zm13.58-2.4L358 29.45a3.463 3.463 0 11-6.72 1.68l-5.4-21.65 6.85-1.21z" opacity=".2" fill="#000" fill-rule="nonzero"/><circle fill="#145D8E" fill-rule="nonzero" cx="37.52" cy="86.3" r="5"/><circle fill="#145D8E" fill-rule="nonzero" cx="51.11" cy="83.9" r="5"/><circle fill="#145D8E" fill-rule="nonzero" cx="81.11" cy="78.61" r="5"/><circle fill="#145D8E" fill-rule="nonzero" cx="94.69" cy="76.21" r="5"/><circle fill="#145D8E" fill-rule="nonzero" cx="124.69" cy="70.93" r="5"/><circle fill="#145D8E" fill-rule="nonzero" cx="138.28" cy="68.53" r="5"/><circle fill="#145D8E" fill-rule="nonzero" cx="168.28" cy="63.24" r="5"/><circle fill="#145D8E" fill-rule="nonzero" cx="181.86" cy="60.84" r="5"/><circle fill="#145D8E" fill-rule="nonzero" cx="211.86" cy="55.56" r="5"/><circle fill="#145D8E" fill-rule="nonzero" cx="225.45" cy="53.16" r="5"/><circle fill="#145D8E" fill-rule="nonzero" cx="255.44" cy="47.87" r="5"/><circle fill="#145D8E" fill-rule="nonzero" cx="269.03" cy="45.47" r="5"/><circle fill="#145D8E" fill-rule="nonzero" cx="299.03" cy="40.18" r="5"/><circle fill="#145D8E" fill-rule="nonzero" cx="312.62" cy="37.79" r="5"/><circle fill="#145D8E" fill-rule="nonzero" cx="342.61" cy="32.5" r="5"/><circle fill="#145D8E" fill-rule="nonzero" cx="356.2" cy="30.1" r="5"/><rect fill="#C3C8CF" fill-rule="nonzero" transform="rotate(-10 35.102 72.553)" x="31.642" y="57.008" width="6.92" height="31.09" rx="3.46"/><rect fill="#C3C8CF" fill-rule="nonzero" transform="rotate(-10 48.68 70.151)" x="45.219" y="54.606" width="6.92" height="31.09" rx="3.46"/><rect fill="#C3C8CF" fill-rule="nonzero" transform="rotate(-10 78.675 64.862)" x="75.215" y="49.317" width="6.92" height="31.09" rx="3.46"/><rect fill="#C3C8CF" fill-rule="nonzero" transform="rotate(-10 92.273 62.479)" x="88.813" y="46.934" width="6.92" height="31.09" rx="3.46"/><rect fill="#C3C8CF" fill-rule="nonzero" transform="rotate(-10 122.269 57.19)" x="118.809" y="41.644" width="6.92" height="31.09" rx="3.46"/><rect fill="#C3C8CF" fill-rule="nonzero" transform="rotate(-10 135.846 54.788)" x="132.386" y="39.243" width="6.92" height="31.09" rx="3.46"/><rect fill="#C3C8CF" fill-rule="nonzero" transform="rotate(-10 165.851 49.499)" x="162.391" y="33.954" width="6.92" height="31.09" rx="3.46"/><rect fill="#C3C8CF" fill-rule="nonzero" transform="rotate(-10 179.44 47.105)" x="175.98" y="31.56" width="6.92" height="31.09" rx="3.46"/><rect fill="#C3C8CF" fill-rule="nonzero" transform="rotate(-10 209.436 41.816)" x="205.976" y="26.271" width="6.92" height="31.09" rx="3.46"/><rect fill="#C3C8CF" fill-rule="nonzero" transform="rotate(-10 223.023 39.414)" x="219.563" y="23.869" width="6.92" height="31.09" rx="3.46"/><rect fill="#C3C8CF" fill-rule="nonzero" transform="rotate(-10 253.018 34.125)" x="249.558" y="18.58" width="6.92" height="31.09" rx="3.46"/><rect fill="#C3C8CF" fill-rule="nonzero" transform="rotate(-10 266.607 31.732)" x="263.147" y="16.187" width="6.92" height="31.09" rx="3.46"/><rect fill="#C3C8CF" fill-rule="nonzero" transform="rotate(-9.841 295.084 27.404)" x="291.642" y="11.942" width="6.883" height="30.923" rx="3.441"/><rect fill="#C3C8CF" fill-rule="nonzero" transform="rotate(-10 310.19 24.041)" x="306.729" y="8.496" width="6.92" height="31.09" rx="3.46"/><rect fill="#C3C8CF" fill-rule="nonzero" transform="rotate(-10 340.185 18.752)" x="336.725" y="3.207" width="6.92" height="31.09" rx="3.46"/><rect fill="#C3C8CF" fill-rule="nonzero" transform="rotate(-10 353.783 16.368)" x="350.323" y=".823" width="6.92" height="31.09" rx="3.46"/><path d="M124.02 120.23l35.14 199.27M69.85 129.78l35.14 199.27m73.2-218.37l35.14 199.27m19.03-208.82l35.13 199.27m19.03-208.82l35.14 199.27m19.03-208.83l35.14 199.28" stroke="#707B8C" stroke-width=".47"/><path d="M375.12 229c10.61.609 19.707-7.49 20.33-18.099.624-10.608-7.463-19.717-18.07-20.355-10.608-.637-19.728 7.437-20.38 18.044A19.26 19.26 0 00375.12 229z" fill="#14233C" fill-rule="nonzero" opacity=".2" style="mix-blend-mode:multiply"/><circle fill="#F7DC83" fill-rule="nonzero" transform="rotate(-51 377.52 208.369)" cx="377.52" cy="208.369" r="19.26"/><path d="M388.86 217.18c-5.089 6.28-14.305 7.249-20.588 2.162-6.282-5.087-7.253-14.303-2.168-20.587 5.085-6.284 14.3-7.258 20.586-2.175a14.64 14.64 0 012.17 20.6z" fill="#F1C430" fill-rule="nonzero"/><path d="M388.8 217.91a14.45 14.45 0 11-2.14-20.32c6.201 5.02 7.159 14.117 2.14 20.32z" fill="#F1C430" fill-rule="nonzero"/><path d="M392 210.14a14.45 14.45 0 10-28.18 3 14.64 14.64 0 1128.18-3z" fill="#FEDF6F" fill-rule="nonzero" style="mix-blend-mode:multiply"/><g style="mix-blend-mode:multiply" fill-rule="nonzero" transform="rotate(-51.072 378.133 207.9)"><use fill="#000" xlink:href="#e"/><use fill="#FEDF6F" xlink:href="#e"/></g><g fill-rule="nonzero" transform="rotate(-51.072 378.113 207.26)"><use fill="#000" xlink:href="#f"/><use fill="#F7DC83" xlink:href="#f"/></g><path fill="#14233C" fill-rule="nonzero" opacity=".1" d="M347.21 222.99L414.47 210l-50.9 73.46z"/><path fill="#FFF" fill-rule="nonzero" d="M351.86 217.03l66.42-11.71-54.71 78.14z"/><path fill="#F7F7F7" fill-rule="nonzero" d="M430 271.75l-66.43 11.71 54.71-78.14z"/><g fill-rule="nonzero" transform="rotate(-9.841 39.233 115.705)"><use fill="#000" xlink:href="#g"/><use fill="#85C1E9" xlink:href="#g"/></g><g fill-rule="nonzero" transform="rotate(-9.841 93.895 106.105)"><use fill="#000" xlink:href="#h"/><use fill="#85C1E9" xlink:href="#h"/></g><g fill-rule="nonzero" transform="rotate(-9.841 147.945 96.58)"><use fill="#000" xlink:href="#i"/><use fill="#85C1E9" xlink:href="#i"/></g><g fill-rule="nonzero" transform="rotate(-9.841 202.165 87.015)"><use fill="#000" xlink:href="#j"/><use fill="#85C1E9" xlink:href="#j"/></g><g fill-rule="nonzero" transform="rotate(-9.841 256.222 77.575)"><use fill="#000" xlink:href="#k"/><use fill="#85C1E9" xlink:href="#k"/></g><g fill-rule="nonzero" transform="rotate(-9.841 310.057 68.01)"><use fill="#000" xlink:href="#l"/><use fill="#85C1E9" xlink:href="#l"/></g><g fill-rule="nonzero" transform="rotate(-9.841 365.007 58.32)"><use fill="#000" xlink:href="#m"/><use fill="#85C1E9" xlink:href="#m"/></g><g fill-rule="nonzero" transform="rotate(-14.452 282.488 183.764)"><use fill="#000" xlink:href="#n"/><use fill="#D64030" xlink:href="#n"/></g><path d="M165.64 310.52a19.26 19.26 0 10-18.08-20.37 19.25 19.25 0 0018.08 20.37z" fill="#14233C" fill-rule="nonzero" opacity=".2" style="mix-blend-mode:multiply"/><circle fill="#F7DC83" fill-rule="nonzero" transform="rotate(-86.58 168.05 289.977)" cx="168.05" cy="289.977" r="19.26"/><path d="M153.72 289.41a14.64 14.64 0 1113.74 15.48c-8.068-.483-14.218-7.412-13.74-15.48z" fill="#F1C430" fill-rule="nonzero"/><path d="M153.34 288.77a14.45 14.45 0 1113.56 15.28c-7.96-.483-14.027-7.319-13.56-15.28z" fill="#F1C430" fill-rule="nonzero"/><path d="M155.29 296.93a14.45 14.45 0 1021.18-18.82 14.64 14.64 0 11-21.18 18.82z" fill="#FEDF6F" fill-rule="nonzero" style="mix-blend-mode:multiply"/><g style="mix-blend-mode:multiply" fill-rule="nonzero" transform="rotate(93.42 168.249 287.863)"><use fill="#000" xlink:href="#o"/><use fill="#FEDF6F" xlink:href="#o"/></g><g fill-rule="nonzero" transform="rotate(93.42 168.639 288.373)"><use fill="#000" xlink:href="#p"/><use fill="#F7DC83" xlink:href="#p"/></g><path d="M329.57 283.42a19.26 19.26 0 10-18.08-20.37c-.632 10.617 7.463 19.737 18.08 20.37z" fill="#14233C" fill-rule="nonzero" opacity=".2" style="mix-blend-mode:multiply"/><circle fill="#F7DC83" fill-rule="nonzero" transform="rotate(-70.45 331.961 262.84)" cx="331.961" cy="262.841" r="19.26"/><path d="M318.36 258.34c2.707-7.618 11.077-11.599 18.695-8.893 7.618 2.706 11.6 11.074 8.896 18.693-2.704 7.618-11.072 11.603-18.691 8.9a14.64 14.64 0 01-8.9-18.7z" fill="#F1C430" fill-rule="nonzero"/><path d="M318.17 257.63c2.66-7.52 10.91-11.463 18.433-8.808 7.522 2.655 11.47 10.904 8.82 18.428-2.652 7.523-10.898 11.476-18.423 8.83a14.45 14.45 0 01-8.83-18.45z" fill="#F1C430" fill-rule="nonzero"/><path d="M317.78 266a14.45 14.45 0 1025.58-12.2 14.64 14.64 0 11-25.58 12.2z" fill="#FEDF6F" fill-rule="nonzero" style="mix-blend-mode:multiply"/><g style="mix-blend-mode:multiply" fill-rule="nonzero" transform="rotate(109.55 332.403 260.761)"><use fill="#000" xlink:href="#q"/><use fill="#FEDF6F" xlink:href="#q"/></g><g fill-rule="nonzero" transform="rotate(109.55 332.633 261.351)"><use fill="#000" xlink:href="#r"/><use fill="#F7DC83" xlink:href="#r"/></g><path d="M374.05 102.33A19.26 19.26 0 10356 82c-.61 10.591 7.461 19.681 18.05 20.33zM90.25 234.16c10.617.633 19.737-7.46 20.371-18.078.634-10.617-7.458-19.738-18.074-20.373-10.617-.636-19.74 7.454-20.377 18.071-.632 10.62 7.461 19.742 18.08 20.38z" fill="#14233C" fill-rule="nonzero" opacity=".2" style="mix-blend-mode:multiply"/><circle fill="#F7DC83" fill-rule="nonzero" transform="rotate(-28.25 92.656 213.59)" cx="92.656" cy="213.591" r="19.26"/><path d="M99.71 226.07c-7.129 3.814-16 1.127-19.814-6.001-3.815-7.128-1.13-16 5.999-19.815 7.127-3.815 15.998-1.131 19.815 5.996a14.63 14.63 0 01-6 19.82z" fill="#F1C430" fill-rule="nonzero"/><path d="M99.37 226.73c-7.025 3.768-15.775 1.13-19.547-5.894-3.771-7.024-1.137-15.775 5.884-19.55 7.022-3.775 15.774-1.146 19.553 5.874a14.45 14.45 0 01-5.89 19.57z" fill="#F1C430" fill-rule="nonzero"/><path d="M105.29 220.78a14.45 14.45 0 10-27.14-8.14 14.64 14.64 0 1127.14 8.14z" fill="#FEDF6F" fill-rule="nonzero" style="mix-blend-mode:multiply"/><g style="mix-blend-mode:multiply" fill-rule="nonzero" transform="rotate(-28.25 92.968 213.123)"><use fill="#000" xlink:href="#s"/><use fill="#FEDF6F" xlink:href="#s"/></g><g fill-rule="nonzero" transform="rotate(-28.25 93.198 212.523)"><use fill="#000" xlink:href="#t"/><use fill="#F7DC83" xlink:href="#t"/></g><circle fill="#F7DC83" fill-rule="nonzero" transform="rotate(-15.94 376.454 81.737)" cx="376.454" cy="81.737" r="19.26"/><path d="M380.68 95.46c-7.775 2.218-15.875-2.286-18.094-10.06-2.22-7.774 2.283-15.875 10.057-18.095 7.774-2.22 15.876 2.281 18.097 10.055a14.63 14.63 0 01-10.06 18.1z" fill="#F1C430" fill-rule="nonzero"/><path d="M380.21 96c-7.668 2.183-15.654-2.262-17.84-9.93-2.186-7.666 2.256-15.654 9.921-17.843 7.666-2.19 15.656 2.248 17.849 9.913A14.44 14.44 0 01380.21 96z" fill="#F1C430" fill-rule="nonzero"/><path d="M387.26 91.49a14.45 14.45 0 10-24.77-13.75 14.64 14.64 0 1124.77 13.75z" fill="#FEDF6F" fill-rule="nonzero" style="mix-blend-mode:multiply"/><g style="mix-blend-mode:multiply" fill-rule="nonzero" transform="rotate(-15.709 376.704 81.242)"><use fill="#000" xlink:href="#u"/><use fill="#FEDF6F" xlink:href="#u"/></g><g fill-rule="nonzero" transform="rotate(-15.709 377.054 80.712)"><use fill="#000" xlink:href="#v"/><use fill="#F7DC83" xlink:href="#v"/></g><path d="M343.23 142.64a19.26 19.26 0 10-18.08-20.37c-.632 10.617 7.463 19.737 18.08 20.37z" fill="#14233C" fill-rule="nonzero" opacity=".2" style="mix-blend-mode:multiply"/><circle fill="#F7DC83" fill-rule="nonzero" transform="rotate(-55.32 345.612 122.052)" cx="345.612" cy="122.052" r="19.26"/><path d="M333.67 114.16c4.603-6.645 13.72-8.301 20.367-3.7 6.646 4.6 8.306 13.718 3.707 20.365-4.598 6.648-13.714 8.311-20.364 3.715a14.63 14.63 0 01-3.71-20.38z" fill="#F1C430" fill-rule="nonzero"/><path d="M333.68 113.43a14.45 14.45 0 113.66 20.1c-6.56-4.54-8.198-13.538-3.66-20.1z" fill="#F1C430" fill-rule="nonzero"/><path d="M331.11 121.41a14.45 14.45 0 1027.89-5.09 14.64 14.64 0 11-27.87 5.09h-.02z" fill="#FEDF6F" fill-rule="nonzero" style="mix-blend-mode:multiply"/><g style="mix-blend-mode:multiply" fill-rule="nonzero" transform="rotate(124.804 346.307 119.942)"><use fill="#000" xlink:href="#w"/><use fill="#FEDF6F" xlink:href="#w"/></g><g fill-rule="nonzero" transform="rotate(124.804 346.367 120.572)"><use fill="#000" xlink:href="#x"/><use fill="#F7DC83" xlink:href="#x"/></g><path d="M76.69 288.53a19.26 19.26 0 10-18.08-20.37 19.24 19.24 0 0018.08 20.37z" fill="#14233C" fill-rule="nonzero" opacity=".2" style="mix-blend-mode:multiply"/><circle fill="#F7DC83" fill-rule="nonzero" transform="rotate(-83.72 79.1 267.938)" cx="79.101" cy="267.938" r="19.26"/><path d="M77.83 282.25c-8.034-.893-13.823-8.128-12.933-16.162.89-8.034 8.122-13.827 16.157-12.94 8.034.887 13.83 8.117 12.946 16.152a14.64 14.64 0 01-16.17 12.95z" fill="#F1C430" fill-rule="nonzero"/><path d="M77.18 282.59c-7.926-.876-13.641-8.012-12.766-15.938.876-7.926 8.01-13.642 15.937-12.767 7.926.874 13.643 8.009 12.769 15.935-.88 7.926-8.013 13.64-15.94 12.77z" fill="#F1C430" fill-rule="nonzero"/><path d="M85.42 281.06A14.45 14.45 0 1067.69 259a14.64 14.64 0 1117.73 22.1v-.04z" fill="#FEDF6F" fill-rule="nonzero" style="mix-blend-mode:multiply"/><g style="mix-blend-mode:multiply" fill-rule="nonzero" transform="rotate(6.34 78.987 267.265)"><use fill="#000" xlink:href="#y"/><use fill="#FEDF6F" xlink:href="#y"/></g><g fill-rule="nonzero" transform="rotate(6.34 79.517 266.905)"><use fill="#000" xlink:href="#z"/><use fill="#F7DC83" xlink:href="#z"/></g><path d="M124.09 288.53c10.618.627 19.734-7.47 20.362-18.088.63-10.617-7.468-19.735-18.085-20.365-10.617-.63-19.736 7.466-20.367 18.083a19.25 19.25 0 0018.09 20.37z" fill="#14233C" fill-rule="nonzero" opacity=".2" style="mix-blend-mode:multiply"/><circle fill="#F7DC83" fill-rule="nonzero" transform="rotate(-35.8 126.49 267.964)" cx="126.49" cy="267.964" r="19.26"/><path d="M135.13 279.41a14.64 14.64 0 113.31-20.41c4.71 6.553 3.23 15.682-3.31 20.41z" fill="#F1C430" fill-rule="nonzero"/><path d="M134.88 280.11a14.45 14.45 0 113.26-20.17c4.662 6.472 3.204 15.496-3.26 20.17z" fill="#F1C430" fill-rule="nonzero"/><path d="M140 273.44a14.45 14.45 0 10-28-4.51 14.64 14.64 0 1128 4.51z" fill="#FEDF6F" fill-rule="nonzero" style="mix-blend-mode:multiply"/><g style="mix-blend-mode:multiply" fill-rule="nonzero" transform="rotate(-35.605 126.87 267.698)"><use fill="#000" xlink:href="#A"/><use fill="#FEDF6F" xlink:href="#A"/></g><g fill-rule="nonzero" transform="rotate(-35.605 127.02 267.078)"><use fill="#000" xlink:href="#B"/><use fill="#F7DC83" xlink:href="#B"/></g><path d="M121.77 326.1l-16.78 3-16.4 2.9a19.25 19.25 0 0114.67-12.67A18.74 18.74 0 01108 319a19.21 19.21 0 0113.77 7.1z" fill="#14233C" fill-rule="nonzero" opacity=".2" style="mix-blend-mode:multiply"/><circle fill="#F7DC83" fill-rule="nonzero" transform="rotate(-47.71 108.064 336.847)" cx="108.064" cy="336.847" r="19.26"/><path d="M98.64 347.67c-5.987-5.434-6.434-14.693-1-20.68 5.435-5.987 14.693-6.434 20.68-1 5.987 5.435 6.434 14.693 1 20.68a14.64 14.64 0 01-20.68 1z" fill="#F1C430" fill-rule="nonzero"/><path d="M97.91 347.57c-5.903-5.359-6.346-14.487-.99-20.393 5.356-5.905 14.484-6.352 20.392-.999 5.908 5.354 6.359 14.482 1.008 20.392-5.363 5.906-14.496 6.354-20.41 1z" fill="#F1C430" fill-rule="nonzero"/><path d="M105.48 351.17a14.45 14.45 0 10-1.36-28.3 14.64 14.64 0 111.36 28.3z" fill="#FEDF6F" fill-rule="nonzero" style="mix-blend-mode:multiply"/><g style="mix-blend-mode:multiply" fill-rule="nonzero" transform="rotate(42.29 107.94 335.497)"><use fill="#000" xlink:href="#C"/><use fill="#FEDF6F" xlink:href="#C"/></g><g fill-rule="nonzero" transform="rotate(42.29 108.57 335.517)"><use fill="#000" xlink:href="#D"/><use fill="#F7DC83" xlink:href="#D"/></g><path d="M141.12 263.54c10.615.61 19.716-7.496 20.334-18.11.617-10.615-7.484-19.721-18.098-20.345-10.614-.624-19.726 7.471-20.356 18.085a19.27 19.27 0 0018.12 20.37z" fill="#14233C" fill-rule="nonzero" opacity=".2" style="mix-blend-mode:multiply"/><circle fill="#F7DC83" fill-rule="nonzero" transform="rotate(-29.8 143.523 242.973)" cx="143.523" cy="242.973" r="19.26"/><path d="M131.24 250.36c-4.01-7.016-1.578-15.955 5.436-19.97 7.014-4.016 15.954-1.589 19.974 5.422 4.02 7.011 1.598 15.954-5.41 19.978a14.64 14.64 0 01-20-5.43z" fill="#F1C430" fill-rule="nonzero"/><path d="M130.58 250a14.45 14.45 0 1119.71 5.35c-6.92 3.96-15.741 1.566-19.71-5.35z" fill="#F1C430" fill-rule="nonzero"/><path d="M136.68 255.79a14.45 14.45 0 107.41-27.35 14.64 14.64 0 11-7.41 27.35z" fill="#FEDF6F" fill-rule="nonzero" style="mix-blend-mode:multiply"/><g style="mix-blend-mode:multiply" fill-rule="nonzero" transform="rotate(60.113 143.5 241.379)"><use fill="#000" xlink:href="#E"/><use fill="#FEDF6F" xlink:href="#E"/></g><g fill-rule="nonzero" transform="rotate(60.113 144.1 241.589)"><use fill="#000" xlink:href="#F"/><use fill="#F7DC83" xlink:href="#F"/></g><path d="M280.58 138.34a.2.2 0 01.16 0c.61.23 1.42.95.42 2.13a.75.75 0 01-.16.13c-.07 0-1.42.24-3.38.78l-.19.05-.48.12a60.6 60.6 0 00-6.54 2.32 46.2 46.2 0 00-21.34 17.86l-1.74 3.14c-.56 1.07-1 2.19-1.51 3.28a47.76 47.76 0 00-2.18 6.94 47.15 47.15 0 00-1.12 14.62 41.33 41.33 0 003.87 14.29 35.32 35.32 0 009.17 11.77 41.52 41.52 0 0013.29 7.42 46 46 0 0015.25 2.53 40.85 40.85 0 0015.27-3 32.65 32.65 0 0012.63-9.08 33.29 33.29 0 007-14.13 40.51 40.51 0 00.22-16c-2-10.63-7.75-20.92-16.72-27.27a36.33 36.33 0 00-7.25-3.88 41.39 41.39 0 00-8-2.17 47.25 47.25 0 00-16.68.31 51.18 51.18 0 00-15.76 5.89 43.47 43.47 0 00-12.77 11 34.86 34.86 0 00-6.88 15.31 38.31 38.31 0 00.72 16.93 45 45 0 0020 27.11 40.55 40.55 0 0016.3 5.53 47.89 47.89 0 0017.24-1.27 48.45 48.45 0 0028.21-19.44c6.63-9.68 8.92-22 7-33.6a47.86 47.86 0 00-5.83-16.5 38.64 38.64 0 00-11.78-12.74 35.19 35.19 0 00-16.3-5.74 48.12 48.12 0 00-17.41 1.66 55.3 55.3 0 00-28.86 19.11 36.56 36.56 0 00-7.05 15.7 32.25 32.25 0 00-.3 8.61 38.76 38.76 0 001.87 8.43 44.43 44.43 0 0022.53 25.19 49.77 49.77 0 0033.65 3.11 38.32 38.32 0 0015-7.74 33.39 33.39 0 005.64-6.24 27.42 27.42 0 002.14-3.61l1-1.87c.27-.65.5-1.31.75-2a37.27 37.27 0 002.17-16.51 44.55 44.55 0 00-4.65-16 43 43 0 00-10.1-13.06c-1.09-.84-2.13-1.75-3.26-2.52l-3.49-2.18-3.71-1.77c-1.27-.51-2.58-.91-3.86-1.37a46 46 0 00-31.82 2.24 40.3 40.3 0 00-13 9.2c-.88 1-1.68 2-2.52 3.06-.84 1.06-1.44 2.21-2.17 3.3l-.52.84-.43.89-.85 1.77c-.49 1.21-1 2.44-1.36 3.68a39 39 0 00-1.35 15.49 46.65 46.65 0 004.35 14.85 42.85 42.85 0 009 12.32 37.7 37.7 0 006 4.64 39.71 39.71 0 006.69 3.48 51.51 51.51 0 0029.2 2.87c9.57-1.84 18.64-6.45 24.61-13.71 5.97-7.26 8.52-16.76 8.49-25.83a44.3 44.3 0 00-2.19-13.28 47.07 47.07 0 00-6-11.8 46 46 0 00-8.86-9.43c-.87-.63-1.69-1.31-2.59-1.86l-1.34-.86-1.4-.74c-.94-.46-1.83-1-2.81-1.41L299 148.5c-1-.38-2-.57-3-.86l-1.5-.4c-.51-.12-1-.17-1.53-.26l-3.06-.48-3.07-.18a20.84 20.84 0 00-3.06 0c-1 0-2 0-3 .12l-3 .38c-.5.07-1 .11-1.5.19l-1.47.32a63.62 63.62 0 00-21.58 8.83l-4.65 3.26c-1.44 1.2-2.88 2.38-4.31 3.56l-.78.76-.76.73-.66.64-1.59 1.3c-.92.76-2 1.81-2.94 2.6-3.16 2.8-2.46 1.24-.91-.91-.11.08.86-1.17 1.85-2.44.51-.64 1.09-1.21 1.5-1.67l.7-.76.67-.65.36-.34.2-.19.1-.11c.32-.3.62-.63 1-.91l2.06-1.7 2.09-1.72 2.23-1.58a67.36 67.36 0 0120.26-9.82l1.4-.43 1.43-.31 2.89-.62c1-.23 2-.27 2.94-.42.94-.15 2-.29 3-.33l3-.11c.51 0 1-.05 1.52 0l1.52.09 3.06.19 3.06.48c.51.09 1 .15 1.53.26l1.51.4c1 .28 2 .51 3 .84a40.43 40.43 0 015.82 2.52 32.38 32.38 0 015.45 3.39c.88.62 1.67 1.36 2.51 2 .84.64 1.6 1.45 2.37 2.22a47.86 47.86 0 0112.66 23 46 46 0 011 13.67 45.48 45.48 0 01-3.15 13.63 39.77 39.77 0 01-3.3 6.34 38.13 38.13 0 01-4.53 5.63 41.6 41.6 0 01-5.58 4.67 48.54 48.54 0 01-6.35 3.64 53.86 53.86 0 01-29.05 4.44c-10-1.2-20-5.33-27.44-12.69a47.46 47.46 0 01-13.39-28 41.22 41.22 0 011.34-16c.33-1.32.91-2.57 1.35-3.86.44-1.29 1.14-2.48 1.81-3.67l2.19-3.48 2.6-3.2c7.39-8.19 18-13.14 29.09-14.38a44.59 44.59 0 0131.9 8.52 46.1 46.1 0 0117 29 41.52 41.52 0 01-.83 17.28 36 36 0 01-8.42 15.28 38.46 38.46 0 01-14.68 9.63 48.53 48.53 0 01-17.34 3 52.54 52.54 0 01-17.4-3.05 46.72 46.72 0 01-8.08-3.77 44.58 44.58 0 01-7.2-5.31A47.85 47.85 0 01239 202.42a39.79 39.79 0 01-4.33-17.42 35.27 35.27 0 014.6-17.42 47.4 47.4 0 015.17-7.43 56 56 0 016.46-6.33 57.92 57.92 0 0133-13.24 42 42 0 0117.92 2.78 38.26 38.26 0 0114.64 10.75 46.56 46.56 0 018.7 15.89 52.4 52.4 0 012.4 17.93 49.19 49.19 0 01-4 17.64c-.68 1.36-1.24 2.78-2 4.08-.76 1.3-1.58 2.59-2.4 3.87l-2.78 3.59c-1 1.14-2.08 2.2-3.12 3.3a52 52 0 01-32.46 14.29 46.65 46.65 0 01-17.83-2.21l-4.2-1.67c-1.37-.63-2.66-1.41-4-2.11a17 17 0 01-1.91-1.2l-1.86-1.24c-1.14-1-2.37-1.85-3.45-2.89a49.15 49.15 0 01-10.65-14.31 47.3 47.3 0 01-4.63-17.16 39.53 39.53 0 012.9-17.5 40.83 40.83 0 0110.38-14.25 50.13 50.13 0 0114.9-9.14 53.26 53.26 0 0116.95-3.74 45.36 45.36 0 0117.12 2.31 36.73 36.73 0 0114.48 9.16 45.4 45.4 0 019.4 14.25 47.55 47.55 0 013.72 16.45 39.44 39.44 0 01-2.79 16.51c-.28.64-.48 1.33-.82 1.94l-1 1.85c-.35.6-.63 1.25-1 1.82l-1.23 1.71a29.75 29.75 0 01-5.68 6.12 37.39 37.39 0 01-14.71 7.36 45.1 45.1 0 01-16.18 1.06c-10.69-1.17-21-5.85-28.24-13.67a41.6 41.6 0 01-10.36-28.74 50.43 50.43 0 012.48-15c.42-1.19.84-2.37 1.32-3.53a36.49 36.49 0 011.61-3.4c.62-1.09 1.2-2.21 1.85-3.27l2.12-3.08A50 50 0 01273 140.42c1.12-.42 2.27-.75 3.41-1.09l.38-.1h.29c2-.63 3.42-.87 3.5-.89z" fill="#D64030" fill-rule="nonzero"/><path d="M211.2 171.14a.29.29 0 01-.2-.08c-.67-.47-1.62-1.63.06-2.91a.67.67 0 01.24-.12l5.16.17 11 .38 2.88.09s4.72.48 8 1.06c5.6.85 3.33 1.46-.17 1.72.36.08-8.36.31-8.36.31l-2.47-.09-11-.36-5.14-.17z" fill="#D64030" fill-rule="nonzero"/><path d="M210.69 171.66h-.11a2.87 2.87 0 01-2.07-2 .5.5 0 010-.17l9-8.92a25.74 25.74 0 013-1.88c2.18-1.24 2-.07 1.18 1.25.16-.07-2.12 2.94-2.12 2.94l-8.88 8.78z" fill="#D64030" fill-rule="nonzero"/><path d="M209.42 171.19v-.11a3.26 3.26 0 011.78-2.29h.15l8.49 6.69a19.85 19.85 0 011.83 2.45c1.22 1.8.14 1.83-1.09 1.33.06.13-2.77-1.44-2.77-1.44l-8.39-6.63zm1.65 27.29a.26.26 0 01-.21 0c-.73-.37-1.84-1.38-.36-2.89a.65.65 0 01.22-.15l5.13-.57 11-1.21 2.86-.32s4.74-.21 8.09-.1c5.67 0 3.51 1 .08 1.72.37 0-8.23 1.5-8.23 1.5l-2.45.28-11 1.22-5.13.52z" fill="#D64030" fill-rule="nonzero"/><path d="M210.64 199.07h-.12a2.91 2.91 0 01-2.34-1.73.45.45 0 010-.16l7.58-10.12a26.33 26.33 0 012.71-2.29c2-1.54 1.95-.36 1.35 1.07.14-.09-1.68 3.22-1.68 3.22l-7.5 10.01z" fill="#D64030" fill-rule="nonzero"/><path d="M209.31 198.78v-.1a3.29 3.29 0 011.44-2.53.59.59 0 01.14-.06l9.36 5.4a19.47 19.47 0 012.17 2.16c1.46 1.61.4 1.79-.9 1.47.09.13-2.94-1-2.94-1l-9.27-5.34z" fill="#D64030" fill-rule="nonzero"/></g></svg>