<svg width="292" height="296" xmlns="http://www.w3.org/2000/svg" xmlns:xlink="http://www.w3.org/1999/xlink"><defs><path d="M.772 8.326v15.519L15.368 148.8l209.91 33.257a10.8 10.8 0 0012.434-9.567l13.85-135.29c.602-5.892-3.65-11.17-9.536-11.833C95.734 8.887 19.796.445 14.214.04 8.497-.373 4.017 2.388.772 8.326z" id="a"/><path d="M29.097 17.288L222.56 70.367a10.8 10.8 0 017.888 11.49l-13.476 134.68c-.594 5.934-5.887 10.264-11.822 9.67a10.8 10.8 0 01-1.704-.31l-193.732-51.6a12.6 12.6 0 01-9.19-14.226l.31-1.879-.011-.001L15.924 8.127a9 9 0 0111.73-7.66l.431.14 1.012 16.68z" id="c"/></defs><g fill="none" fill-rule="evenodd"><g transform="translate(15.885 66.824)"><mask id="b" fill="#fff"><use xlink:href="#a"/></mask><use fill="#DEBB87" xlink:href="#a"/><path fill="#D4B07C" mask="url(#b)" d="M256.89 121.655l-301.054-40.89v40.89l305.98 77.012z"/><path d="M22.029 0c.488 1.902 68.014 62.48 202.578 181.737l-30.516-4.788L.404 18.822c4.45-4.565 7.57-7.722 9.357-9.471C17.576 1.7 21.666-1.416 22.029 0z" fill-opacity=".081" fill="#000" mask="url(#b)"/></g><g transform="rotate(10 -421.607 295.435)"><path fill="#27715A" d="M0 0h224.834v102.629H0z"/><path fill="#A0E1AA" d="M8.538 8.552h207.758v85.524H8.538z"/><ellipse fill="#27715A" cx="15.653" cy="15.679" rx="15.653" ry="15.679"/><ellipse fill="#27715A" cx="15.653" cy="86.949" rx="15.653" ry="15.679"/><ellipse fill="#27715A" cx="209.181" cy="86.949" rx="15.653" ry="15.679"/><ellipse fill="#27715A" cx="209.181" cy="15.679" rx="15.653" ry="15.679"/><ellipse fill="#27715A" cx="109.571" cy="50.364" rx="38.421" ry="38.486"/><path d="M117.733 40.647c-.534-.568-1.21-1.028-2.027-1.378a6.464 6.464 0 00-2.576-.527c-1.034 0-1.893.184-2.577.552-.684.367-1.226.843-1.626 1.428a5.371 5.371 0 00-.826 1.93 9.81 9.81 0 00-.225 2.055v2.556h7.805v5.763h-7.805v8.02h12.96v7.066h-25.97v-7.066h4.754v-8.02h-4.753v-5.763h4.753v-3.058c0-1.37.242-2.79.726-4.26a12.258 12.258 0 012.276-4.06c1.034-1.236 2.377-2.246 4.028-3.032 1.651-.785 3.644-1.177 5.98-1.177 2.168 0 4.077.317 5.728.952 1.652.635 3.044 1.47 4.178 2.506l-4.803 5.513z" fill="#A0E1AA" fill-rule="nonzero"/></g><g transform="translate(44.892 78.391)"><path fill="#27715A" d="M0 0h224.834v102.629H0z"/><path fill="#A0E1AA" d="M8.538 8.552h207.758v85.524H8.538z"/><ellipse fill="#27715A" cx="15.653" cy="15.679" rx="15.653" ry="15.679"/><ellipse fill="#27715A" cx="15.653" cy="86.949" rx="15.653" ry="15.679"/><ellipse fill="#27715A" cx="209.181" cy="86.949" rx="15.653" ry="15.679"/><ellipse fill="#27715A" cx="209.181" cy="15.679" rx="15.653" ry="15.679"/><ellipse fill="#27715A" cx="109.571" cy="50.364" rx="38.421" ry="38.486"/><path d="M117.733 40.647c-.534-.568-1.21-1.028-2.027-1.378a6.464 6.464 0 00-2.576-.527c-1.034 0-1.893.184-2.577.552-.684.367-1.226.843-1.626 1.428a5.371 5.371 0 00-.826 1.93 9.81 9.81 0 00-.225 2.055v2.556h7.805v5.763h-7.805v8.02h12.96v7.066h-25.97v-7.066h4.754v-8.02h-4.753v-5.763h4.753v-3.058c0-1.37.242-2.79.726-4.26a12.258 12.258 0 012.276-4.06c1.034-1.236 2.377-2.246 4.028-3.032 1.651-.785 3.644-1.177 5.98-1.177 2.168 0 4.077.317 5.728.952 1.652.635 3.044 1.47 4.178 2.506l-4.803 5.513z" fill="#A0E1AA" fill-rule="nonzero"/></g><g transform="rotate(-10 479.314 -216.415)"><path fill="#27715A" d="M0 0h224.834v102.629H0z"/><path fill="#A0E1AA" d="M8.538 8.552h207.758v85.524H8.538z"/><ellipse fill="#27715A" cx="15.653" cy="15.679" rx="15.653" ry="15.679"/><ellipse fill="#27715A" cx="15.653" cy="86.949" rx="15.653" ry="15.679"/><ellipse fill="#27715A" cx="209.181" cy="86.949" rx="15.653" ry="15.679"/><ellipse fill="#27715A" cx="209.181" cy="15.679" rx="15.653" ry="15.679"/><ellipse fill="#27715A" cx="109.571" cy="50.364" rx="38.421" ry="38.486"/><path d="M117.733 40.647c-.534-.568-1.21-1.028-2.027-1.378a6.464 6.464 0 00-2.576-.527c-1.034 0-1.893.184-2.577.552-.684.367-1.226.843-1.626 1.428a5.371 5.371 0 00-.826 1.93 9.81 9.81 0 00-.225 2.055v2.556h7.805v5.763h-7.805v8.02h12.96v7.066h-25.97v-7.066h4.754v-8.02h-4.753v-5.763h4.753v-3.058c0-1.37.242-2.79.726-4.26a12.258 12.258 0 012.276-4.06c1.034-1.236 2.377-2.246 4.028-3.032 1.651-.785 3.644-1.177 5.98-1.177 2.168 0 4.077.317 5.728.952 1.652.635 3.044 1.47 4.178 2.506l-4.803 5.513z" fill="#A0E1AA" fill-rule="nonzero"/></g><g transform="rotate(-20 243.02 -88.912)"><path fill="#27715A" d="M0 0h224.834v102.629H0z"/><path fill="#A0E1AA" d="M8.538 8.552h207.758v85.524H8.538z"/><ellipse fill="#27715A" cx="15.653" cy="15.679" rx="15.653" ry="15.679"/><ellipse fill="#27715A" cx="15.653" cy="86.949" rx="15.653" ry="15.679"/><ellipse fill="#27715A" cx="209.181" cy="86.949" rx="15.653" ry="15.679"/><ellipse fill="#27715A" cx="209.181" cy="15.679" rx="15.653" ry="15.679"/><ellipse fill="#27715A" cx="109.571" cy="50.364" rx="38.421" ry="38.486"/><path d="M117.733 40.647c-.534-.568-1.21-1.028-2.027-1.378a6.464 6.464 0 00-2.576-.527c-1.034 0-1.893.184-2.577.552-.684.367-1.226.843-1.626 1.428a5.371 5.371 0 00-.826 1.93 9.81 9.81 0 00-.225 2.055v2.556h7.805v5.763h-7.805v8.02h12.96v7.066h-25.97v-7.066h4.754v-8.02h-4.753v-5.763h4.753v-3.058c0-1.37.242-2.79.726-4.26a12.258 12.258 0 012.276-4.06c1.034-1.236 2.377-2.246 4.028-3.032 1.651-.785 3.644-1.177 5.98-1.177 2.168 0 4.077.317 5.728.952 1.652.635 3.044 1.47 4.178 2.506l-4.803 5.513z" fill="#A0E1AA" fill-rule="nonzero"/></g><g transform="translate(0 69.677)"><mask id="d" fill="#fff"><use xlink:href="#c"/></mask><use fill="#EBD6B8" xlink:href="#c"/><path d="M2.776 134.603c37.103-22.19 73.137-19.317 108.1 8.619 34.965 27.936 73.346 36.893 115.144 26.873l-8.877 63.085-218.48-56.656 4.113-41.92z" fill="#E2CAA8" opacity=".651" mask="url(#d)"/><path d="M0-7.04l20.345 31.21 194.647 52.726a9.72 9.72 0 017.13 10.348L209.989 208.69c-.534 5.341-5.297 9.239-10.639 8.705a9.72 9.72 0 01-1.577-.29L7.141 165.417l-27.847-35.616a11.34 11.34 0 01-2.229-8.987L0-7.041z" stroke="#977A3C" stroke-width="1.8" stroke-dasharray="3.599999904632568,3.599999904632568" mask="url(#d)"/><ellipse fill="#E5CEAD" mask="url(#d)" transform="rotate(24 189.906 139.257)" cx="189.906" cy="139.257" rx="14.425" ry="13.541"/></g><path d="M29.87 87.163c-7.978-2.161-17.778-5.67-11.81-15.166 2.274-3.619 6.563-5.159 11.81-5.173 1.856-.005 5.402.365 6.675 1.154a6.916 6.916 0 012.045 1.953c1.543 2.213-1.364 4.056-8.72 5.53.476 3.617.785 6.09.927 7.418.253 2.376 1.965 5.067-.927 4.284z" fill="#CBAB7B"/></g></svg>