<svg width="50" height="36" xmlns="http://www.w3.org/2000/svg"><path d="M2.822.123c.363.15.56.26.914.43 3.192 1.524 6.382 3.053 9.572 4.58l7.06 3.383 3.91 1.873c.264.126.508.282.698.507.328.39.314.864-.034 1.238-.198.212-.44.36-.7.484a4585.15 4585.15 0 00-4.493 2.151L6.363 21.185c-1.12.537-2.241 1.073-3.364 1.603-.232.11-.478.189-.742.182-.267-.006-.41-.151-.416-.416a1.27 1.27 0 01.168-.636c.276-.51.56-1.016.847-1.52 1.053-1.854 2.11-3.706 3.161-5.56.436-.77.708-1.596.817-2.474.192-1.556-.122-3.004-.903-4.366a1779.658 1779.658 0 01-3.82-6.685c-.144-.255-.366-.593-.299-.887.1-.438.442-.537 1.01-.303zm46.584 20.293c-.018.084-.01.188-.058.246-.04.048-.147.043-.225.058-.507.092-.884.377-1.182.778-.37.497-.547 1.07-.655 1.67-.084.466-.166.934-.253 1.4-.006.032-.047.08-.072.08-.501.005-1.002.004-1.522.004l.132-.748.462-2.599c.124-.697.248-1.394.377-2.09.007-.036.067-.088.102-.088.453-.006.906-.003 1.358-.005.087 0 .096.046.085.11-.052.299-.105.597-.156.896a.175.175 0 00.015.12l.087-.17c.131-.253.28-.493.5-.683.263-.229.576-.333.917-.37.066-.008.263-.006.329-.018 0 0-.205 1.246-.24 1.409zm-31.41 12.649l.12-.704.49-2.733c.118-.66.235-1.322.35-1.983.014-.076.045-.113.13-.112.453.003.907.002 1.36 0 .083 0 .117.014.097.113-.067.337-.122.677-.18 1.016-.008.042-.008.085-.01.127l.03.011.11-.17c.25-.383.527-.739.926-.984.405-.248.84-.3 1.292-.17.4.116.612.41.685.801.033.176.033.357.05.565.04-.05.071-.082.094-.12.233-.373.493-.722.856-.983.437-.314.918-.416 1.438-.264.438.128.636.459.707.882.07.41-.015.808-.086 1.207-.145.819-.29 1.637-.437 2.455-.056.319-.112.637-.175.954-.007.035-.056.086-.086.087-.494.005-.988.004-1.504.004l.102-.587c.154-.859.308-1.717.46-2.576.038-.217.084-.435.1-.654.02-.28-.165-.413-.422-.291a1.513 1.513 0 00-.446.325c-.536.571-.847 1.263-1.015 2.014-.122.543-.207 1.094-.302 1.643-.017.096-.052.13-.152.129-.445-.006-.89-.004-1.334-.001-.087 0-.125-.01-.105-.118.221-1.204.436-2.409.652-3.614a.6.6 0 00.007-.098c.002-.262-.171-.38-.423-.29-.235.086-.404.256-.558.441-.505.61-.803 1.317-.956 2.085-.099.498-.183.999-.27 1.499-.011.062-.029.095-.1.095-.49-.002-.98-.001-1.495-.001zM4.148 24.783c.568.03 1.106.175 1.543.567.36.323.523.738.576 1.206.056.506.003 1-.163 1.479-.294.851-.92 1.36-1.768 1.63-.597.19-1.213.209-1.833.201-.285-.003-.242-.025-.287.231-.146.826-.293 1.652-.438 2.479a8.61 8.61 0 00-.052.315c-.01.073-.048.101-.125.101a119.6 119.6 0 00-1.496 0c-.096.001-.115-.04-.1-.12.162-.897.326-1.795.486-2.694.18-1.003.355-2.007.534-3.01.137-.77.28-1.538.414-2.308.016-.088.052-.107.13-.106.357.002 2.078.002 2.579.029zM2.49 28.586c.305-.014.593-.005.873-.044.48-.068.828-.324.993-.788.104-.29.129-.594.102-.898-.036-.397-.26-.674-.643-.75-.257-.05-.527-.042-.792-.05-.032 0-.09.067-.097.11-.12.631-.234 1.264-.348 1.896-.03.163-.055.328-.088.524zm19.443-8.454h2.692c-.042.252-.081.488-.122.725-.031.178-.067.354-.093.532-.015.098-.055.137-.161.137-.798-.005-1.595-.003-2.393-.002-.181 0-.18 0-.212.178-.191 1.072-.384 2.143-.573 3.216-.014.078-.048.101-.123.101a252.34 252.34 0 00-1.507 0c-.088 0-.106-.033-.091-.113.257-1.43.51-2.86.768-4.29.22-1.233.446-2.465.664-3.698.017-.097.056-.12.146-.12 1.65.002 3.298.002 4.948 0 .116-.001.139.03.115.144a27.73 27.73 0 00-.206 1.123c-.017.103-.062.124-.156.124-1.064-.003-2.127.001-3.19-.005-.136 0-.183.033-.205.17-.086.542-.19 1.08-.285 1.62-.009.045-.01.09-.016.158zM9.864 27.854c.02-.092.031-.169.056-.241.01-.03.05-.07.076-.07.457-.005.913-.004 1.391-.004-.034.204-.066.396-.1.587l-.44 2.467c-.14.794-.281 1.588-.428 2.38-.006.037-.066.09-.102.091-.477.006-.955.004-1.433.003-.016 0-.031-.008-.057-.015l.127-.77-.033-.015-.095.131c-.272.39-.622.661-1.105.757-.774.153-1.412-.191-1.693-.927a2.891 2.891 0 01-.177-.963c-.023-.832.125-1.626.532-2.36.349-.632.824-1.138 1.531-1.374.556-.186 1.11-.175 1.64.104.104.056.195.137.31.22zm-2.363 3.2c.023.12.043.356.116.574.1.297.352.38.611.201.157-.107.301-.248.413-.401.52-.711.75-1.533.904-2.382.014-.074-.014-.121-.075-.165a1.059 1.059 0 00-.604-.197c-.347-.012-.586.183-.78.435-.414.538-.555 1.162-.585 1.935zm21.265-11.622c.015-.064.026-.14.05-.213.01-.032.045-.078.07-.078.46-.005.92-.003 1.4-.004l-.131.746-.463 2.6c-.124.697-.248 1.394-.377 2.09-.006.036-.058.088-.09.088-.486.005-.972.004-1.458.002-.011 0-.023-.009-.043-.017l.126-.763-.034-.011c-.028.038-.057.075-.083.114-.378.565-.91.838-1.594.799-.449-.025-.792-.245-1.038-.614-.223-.335-.32-.714-.345-1.105-.05-.792.052-1.564.39-2.293.32-.693.78-1.261 1.5-1.579a2.079 2.079 0 011.588-.056c.183.067.345.189.532.294zm-2.368 3.23c.026.121.053.373.136.604.094.262.323.328.565.183.125-.075.245-.174.336-.287.6-.745.852-1.627 1.006-2.546a.13.13 0 00-.04-.103.99.99 0 00-.777-.219c-.28.036-.473.212-.635.42-.416.536-.558 1.16-.591 1.948zm-8.811 4.746c-.025.059-.039.096-.057.131-.896 1.759-1.79 3.519-2.69 5.276-.293.573-.632 1.118-1.098 1.576-.53.52-1.173.82-1.898.964-.114.022-.23.035-.342.06-.069.015-.096.003-.107-.071a45.613 45.613 0 00-.144-.923c-.014-.085.007-.131.1-.162.46-.153.89-.36 1.25-.691.3-.275.496-.616.652-.98.034-.08.002-.194-.017-.288-.294-1.549-.592-3.097-.889-4.645-.047-.246-.047-.246.206-.246.428 0 .856.002 1.284-.002.102 0 .15.016.165.136.118.88.246 1.76.372 2.64.01.073.027.146.041.22.011 0 .022.002.032.003.024-.045.048-.09.07-.137.424-.91.849-1.817 1.268-2.728.047-.102.104-.137.217-.135.478.006.956.002 1.433.002h.152zm18.267.147l-.21 1.226.026.015c.027-.036.057-.069.08-.106.232-.363.487-.706.842-.964a1.573 1.573 0 011.343-.272c.42.1.699.42.766.845.063.4.012.792-.06 1.185-.158.866-.31 1.732-.464 2.599-.052.29-.104.58-.154.87-.014.084-.055.112-.143.111a73.05 73.05 0 00-1.334 0c-.1 0-.127-.022-.107-.128.182-.999.358-1.999.537-2.998.036-.205.076-.41.111-.616.022-.13.023-.263-.092-.35-.118-.09-.253-.065-.378-.006-.263.124-.45.336-.617.562-.458.616-.73 1.31-.864 2.06-.083.463-.165.927-.252 1.39-.006.032-.052.08-.08.08-.497.006-.994.005-1.512.005.037-.21.07-.406.106-.601l.46-2.588c.134-.75.266-1.499.404-2.248.006-.035.059-.089.09-.089.486-.005.973-.003 1.459-.001.01 0 .021.009.043.019zm8.324-4.624c.137.324.27.633.396.945.011.028-.01.09-.036.109-.565.416-1.185.702-1.896.776a3.1 3.1 0 01-1.206-.093c-.724-.212-1.173-.695-1.31-1.422-.205-1.085-.052-2.12.578-3.05.475-.704 1.157-1.09 2.011-1.168.57-.053 1.13-.016 1.647.254.458.24.687.635.703 1.14a2.68 2.68 0 01-.06.682c-.122.528-.494.849-.98 1.054-.407.172-.839.255-1.276.304-.313.035-.627.056-.941.079-.098.006-.141.04-.13.143.061.575.346.86.938.825.192-.011.391-.046.57-.114.296-.113.579-.262.867-.396.038-.017.073-.04.125-.068zm-2.415-1.262c.083-.01.151-.014.218-.025.364-.06.728-.125 1.058-.3.264-.139.442-.338.465-.65.022-.29-.136-.528-.398-.568-.203-.03-.41-.014-.565.126-.158.142-.309.3-.427.474-.187.277-.291.593-.351.943zM31.578 31.33c.137.324.27.629.393.937.013.031-.009.098-.037.119-.576.422-1.205.713-1.931.779-.532.048-1.046-.001-1.526-.239-.544-.27-.857-.726-.958-1.306-.194-1.123-.03-2.185.657-3.126.457-.627 1.095-.977 1.875-1.061.53-.057 1.054-.034 1.553.171.554.227.847.646.86 1.237a2.59 2.59 0 01-.064.681c-.138.558-.546.872-1.062 1.07a4.773 4.773 0 01-1.257.275c-.3.03-.603.05-.903.08-.036.003-.09.038-.097.067-.084.37.266.857.654.876.244.012.505.006.734-.067.344-.11.667-.285.999-.433.033-.014.064-.034.11-.06zm-2.427-1.253c.143-.021.253-.034.362-.055.317-.059.634-.122.923-.275.258-.137.443-.331.468-.636.024-.292-.108-.54-.427-.59a.689.689 0 00-.529.122c-.48.348-.657.862-.797 1.434zm18.129-.915c-.209-.103-.398-.204-.593-.293a1.79 1.79 0 00-.87-.171c-.25.016-.433.157-.449.361a.339.339 0 00.192.347c.246.126.504.229.752.35.19.094.381.186.553.306.37.259.56.624.6 1.072.037.404-.005.795-.183 1.162-.23.471-.639.714-1.137.814-1.076.215-2.047-.032-2.916-.686-.026-.019-.048-.081-.036-.103.185-.33.376-.657.566-.984.004-.006.014-.009.014-.01.222.118.437.242.661.346.282.132.576.236.896.224.057-.002.115-.013.172-.022.158-.026.272-.11.304-.268.034-.17.014-.338-.149-.438a3.683 3.683 0 00-.497-.248c-.31-.13-.627-.24-.895-.45-.344-.271-.511-.632-.544-1.053-.033-.417.028-.82.268-1.179.286-.426.708-.646 1.198-.752.942-.203 1.804-.03 2.568.563.028.022.055.088.043.113-.17.335-.344.665-.518 1zm-15.67-6.224c.323.153.621.303.927.437.226.1.468.135.717.12.208-.011.358-.109.404-.269.056-.196 0-.372-.182-.481-.152-.091-.32-.153-.48-.23-.282-.138-.579-.253-.839-.424-.398-.26-.56-.665-.584-1.128-.02-.38.036-.745.24-1.076.287-.461.73-.693 1.247-.803.923-.195 1.769-.022 2.527.545.079.06.092.102.044.189-.152.277-.294.56-.44.841-.019.036-.04.07-.063.108-.154-.082-.296-.164-.445-.235-.3-.143-.61-.258-.954-.235a1.172 1.172 0 00-.242.045.344.344 0 00-.26.287.333.333 0 00.16.36c.148.09.308.161.465.236.238.114.489.208.717.34.485.278.737.703.755 1.262.013.403-.025.796-.232 1.154-.265.457-.695.667-1.198.75-1.034.17-1.966-.07-2.799-.695-.03-.022-.062-.089-.05-.111.187-.337.382-.67.565-.987zm10.794 8.859l.111.723c.012.072.01.148.032.218.026.084-.004.126-.075.168a2.329 2.329 0 01-1.302.35c-.639-.027-1.052-.369-1.08-1.071-.016-.427.095-.837.165-1.252.118-.698.243-1.395.364-2.093.004-.023.003-.047.005-.092h-.584c.057-.315.106-.609.162-.901.047-.243.05-.24.3-.243.425-.007.313.069.434-.335.08-.262.146-.53.225-.792.013-.041.06-.093.1-.102.451-.102.905-.198 1.358-.294.015-.003.032.002.074.005-.02.126-.035.25-.057.37-.06.339-.12.677-.187 1.015-.02.099.007.136.11.134.195-.004.39 0 .585-.002.089-.001.126.012.104.119-.062.296-.11.595-.16.894-.016.096-.054.14-.162.134-.19-.01-.382.003-.573-.005-.1-.004-.141.034-.157.126-.074.427-.151.854-.227 1.281-.081.456-.16.911-.244 1.366-.05.28.074.409.36.357.1-.017.199-.048.32-.078zm-3.61-8.409c.044.288.09.565.127.844.031.234.028.24-.181.345-.474.24-.97.355-1.502.23-.42-.098-.69-.43-.745-.855-.052-.404.046-.79.112-1.18.13-.771.27-1.54.41-2.31.016-.09-.02-.117-.106-.116-.149.004-.298.001-.468.001.011-.086.019-.166.033-.243.048-.27.095-.54.152-.809.007-.035.065-.083.103-.086.127-.011.257-.01.385-.003.092.004.133-.03.157-.116.086-.325.184-.647.266-.972.025-.1.073-.14.171-.16.43-.089.858-.183 1.287-.274.027-.006.055 0 .098 0l-.159.887c-.03.177-.057.355-.093.532-.017.083.016.101.089.1h.726l-.09.542c-.03.166-.069.33-.092.495-.012.087-.052.108-.13.107-.204-.002-.408.002-.612-.001-.085-.001-.122.026-.138.116-.157.903-.32 1.805-.481 2.707-.038.212.07.335.288.323a.999.999 0 00.195-.036c.062-.017.123-.042.198-.068z" fill="#14233C" opacity=".6"/></svg>