<svg width="68" height="30" xmlns="http://www.w3.org/2000/svg"><g fill="none" fill-rule="evenodd" opacity=".6"><path d="M62.169 7.7v-.323a1.42 1.42 0 00-1.847.137l-1.925 1.924H2.24l.006 14.432c0 1.684 2.096 3.725 3.78 3.725h51.497c1.683 0 3.053-2.04 3.053-3.725V13.093l-3.168 3.225c-.277.277-.194.472-.557.472a1.41 1.41 0 01-1.005-.417c-.554-.554-1.001-.67-.447-1.225l4.923-4.923c.504-.503 1.291-1.052 1.847-.64v.657h.505V8.147l-.505-.448"/><path d="M8.292 14.513c.943.214 1.181.774 1.181 1.301 0 .817-.615 1.428-1.859 1.428-1.308 0-1.893-.654-1.893-1.144 0-.251.183-.428.435-.428.559 0 .414.817 1.458.817.533 0 .83-.295.83-.597 0-.182-.09-.383-.441-.47l-1.162-.297c-.937-.238-1.106-.754-1.106-1.237 0-1.006.929-1.384 1.802-1.384.806 0 1.754.454 1.754 1.057 0 .257-.22.407-.472.407-.476 0-.388-.671-1.35-.671-.478 0-.742.22-.742.533 0 .314.377.416.704.491l.86.194zm6.245 2.213c-.095.357-.246.49-.621.49-.39 0-.529-.163-.617-.51l-.673-2.758h-.012l-.673 2.759c-.08.346-.226.509-.616.509-.376 0-.526-.133-.621-.49l-.886-3.437a1.177 1.177 0 01-.051-.296c0-.314.258-.465.497-.465.264 0 .42.12.484.42l.609 3.005h.013l.704-3.042c.056-.25.156-.383.54-.383.433 0 .522.207.585.49l.685 2.935h.012l.616-3.004c.063-.302.22-.421.465-.421.239 0 .496.15.496.465 0 .1-.025.2-.05.296l-.886 3.437zm1.479-3.683c0-.308.2-.515.515-.515.314 0 .516.207.516.515v3.658c0 .307-.202.515-.516.515s-.515-.208-.515-.515v-3.658zm3.058.433H18.1c-.295 0-.534-.15-.534-.433 0-.283.24-.434.534-.434h2.979c.295 0 .535.151.535.434 0 .283-.24.433-.535.433h-.974v3.225c0 .307-.201.515-.515.515-.315 0-.516-.208-.516-.515v-3.225zm4.964-.974c1.18 0 1.828.742 1.828 1.182 0 .29-.157.465-.465.465-.597 0-.42-.817-1.363-.817-.647 0-1.182.56-1.182 1.54 0 .823.327 1.539 1.219 1.539.81 0 .792-.867 1.288-.867.253 0 .503.145.503.397 0 .653-.792 1.3-1.791 1.3-1.413 0-2.25-.81-2.25-2.369 0-1.276.756-2.37 2.213-2.37zm2.501.541c0-.308.202-.515.515-.515.316 0 .516.207.516.515v1.282h1.873v-1.282c0-.308.202-.515.515-.515.315 0 .515.207.515.515v3.658c0 .307-.2.515-.515.515-.313 0-.515-.208-.515-.515v-1.509H27.57v1.509c0 .307-.2.515-.516.515-.313 0-.515-.208-.515-.515v-3.658zM10.923 23.6a.41.41 0 01-.422.414c-.354 0-.452-.218-.527-.7-.353.444-.843.73-1.61.73-1.912 0-2.643-1.317-2.643-2.837 0-1.83 1.145-2.838 2.823-2.838 1.37 0 2.1.82 2.1 1.302 0 .429-.316.541-.579.541-.61 0-.385-.85-1.588-.85-.85 0-1.52.558-1.52 1.927 0 1.068.526 1.807 1.534 1.807.655 0 1.228-.444 1.288-1.107h-.806c-.263 0-.556-.098-.556-.474 0-.301.172-.474.48-.474h1.522c.36 0 .504.18.504.519v2.04zm.99-4.585c0-.368.24-.616.617-.616s.619.248.619.616v2.966c0 .738.412 1.069 1.12 1.069.708 0 1.122-.331 1.122-1.069v-2.966c0-.368.241-.616.617-.616s.618.248.618.616v2.868c0 1.49-.92 2.161-2.357 2.161-1.438 0-2.355-.67-2.355-2.16v-2.869zm6.91-.24c.105-.279.3-.376.602-.376h.294c.278 0 .526.067.662.451l1.49 4.148c.045.12.12.34.12.474 0 .3-.263.542-.579.542-.27 0-.466-.098-.556-.339l-.317-.903h-1.987l-.323.903c-.083.24-.256.34-.55.34-.339 0-.572-.21-.572-.543 0-.135.075-.354.12-.474l1.596-4.223zm.746.964h-.016l-.73 2.175h1.445l-.7-2.175zm3.046-.52c0-.55.286-.723.722-.723h2.055c1.468 0 1.86.806 1.86 1.506 0 .588-.347 1.166-.934 1.303v.014c.632.09.745.55.745 1.1 0 .624.166.858.166 1.113 0 .287-.294.482-.58.482-.677 0-.73-.656-.73-.873 0-.949-.174-1.333-.85-1.333h-1.22v1.59c0 .367-.24.616-.617.616s-.617-.249-.617-.617V19.22zm1.233 1.686h1.235c.467 0 .934-.12.934-.73 0-.58-.354-.73-.896-.73h-1.273v1.46zm5.63-2.13c.106-.279.3-.376.603-.376h.294c.277 0 .527.067.662.451l1.49 4.148c.045.12.12.34.12.474 0 .3-.263.542-.579.542-.271 0-.466-.098-.557-.339l-.316-.903h-1.988l-.323.903c-.083.24-.256.34-.55.34-.338 0-.572-.21-.572-.543 0-.135.077-.354.12-.474l1.597-4.223zm.746.964h-.015l-.73 2.175h1.444l-.699-2.175zm3.034-.618c0-.512.249-.722.776-.722.256 0 .482.097.618.324l2.16 3.485h.014v-3.214c0-.4.225-.595.595-.595.369 0 .595.195.595.595v4.253c0 .488-.21.767-.73.767-.391 0-.52-.082-.677-.332l-2.146-3.387h-.014v3.125c0 .4-.227.594-.595.594-.37 0-.596-.195-.596-.594v-4.3zm7.187.414H39.28c-.354 0-.64-.18-.64-.52 0-.338.286-.519.64-.519h3.567c.354 0 .64.18.64.52s-.286.52-.64.52H41.68v3.861c0 .368-.242.617-.617.617-.377 0-.618-.249-.618-.617v-3.862zm3.69-.316c0-.55.286-.723.721-.723h2.9c.36 0 .624.106.624.498 0 .39-.264.496-.624.496H45.37v1.175h2.092c.324 0 .579.09.579.473 0 .384-.255.475-.58.475H45.37v1.31h2.446c.36 0 .625.104.625.497 0 .39-.264.496-.625.496h-2.96c-.435 0-.72-.173-.72-.722V19.22zm5.088 0c0-.55.285-.723.722-.723h2.899c.36 0 .625.106.625.498 0 .39-.264.496-.625.496h-2.386v1.175h2.092c.324 0 .58.09.58.473 0 .384-.256.475-.58.475h-2.092v1.31h2.447c.36 0 .623.104.623.497 0 .39-.263.496-.623.496h-2.96c-.437 0-.722-.173-.722-.722V19.22zm18.028-2.636a1.416 1.416 0 01-2.01 0l-2.496-2.497v9.713a5.902 5.902 0 01-5.895 5.896H6.024a5.898 5.898 0 01-5.891-5.896V4.856C.133 2.384 2.239.38 4.83.38h53.15c2.592 0 4.693 2.003 4.693 4.475v3.77l-.344-.344a1.421 1.421 0 00-2.008 0l-1.926 1.925H2.964l.005 13.592a3.058 3.058 0 003.055 3.055H56.85a3.058 3.058 0 003.054-3.055v-9.714l-2.498 2.498c-.278.277-.64.415-1.004.415s-.728-.138-1.005-.415a1.421 1.421 0 010-2.009L60.32 9.65a1.42 1.42 0 012.008 0l4.923 4.923a1.42 1.42 0 010 2.009z" fill="#14233C"/><path d="M5.698 5.383c0 1.22.653 1.851 1.758 1.851.78 0 1.398-.505 1.398-1.016 0-.196-.196-.31-.391-.31-.389 0-.375.679-1.007.679-.698 0-.954-.56-.954-1.204 0-.765.419-1.203.925-1.203.735 0 .598.639 1.065.639.24 0 .362-.138.362-.364 0-.344-.505-.922-1.427-.922-1.14 0-1.729.854-1.729 1.85zm3.663.443c0 .971.6 1.408 1.538 1.408.937 0 1.537-.437 1.537-1.408V3.955c0-.241-.157-.404-.403-.404-.246 0-.403.163-.403.404V5.89c0 .48-.27.697-.731.697-.461 0-.732-.216-.732-.697V3.955c0-.241-.158-.404-.403-.404-.246 0-.403.163-.403.404v1.87zm3.81.986c0 .241.158.404.404.404.245 0 .402-.163.402-.404V5.776h.795c.442 0 .555.25.555.87 0 .141.035.57.477.57.186 0 .378-.129.378-.315 0-.168-.108-.32-.108-.727 0-.36-.074-.658-.487-.717v-.009c.383-.09.61-.467.61-.85 0-.457-.256-.982-1.213-.982h-1.34c-.286 0-.473.113-.473.471v2.725zm.806-2.577h.83c.353 0 .585.097.585.476 0 .397-.305.476-.61.476h-.805v-.952zm2.853 2.577c0 .241.158.404.403.404.246 0 .402-.163.402-.404V5.776h.797c.44 0 .555.25.555.87 0 .141.033.57.476.57.186 0 .377-.129.377-.315 0-.168-.108-.32-.108-.727 0-.36-.073-.658-.486-.717v-.009c.384-.09.61-.467.61-.85 0-.457-.256-.982-1.213-.982h-1.34c-.286 0-.473.113-.473.471v2.725zm.805-2.577h.831c.353 0 .583.097.583.476 0 .397-.304.476-.608.476h-.806v-.952zm2.858 2.445c0 .358.186.47.47.47h1.93c.236 0 .408-.067.408-.323 0-.255-.172-.324-.408-.324h-1.596v-.855h1.365c.211 0 .379-.058.379-.31 0-.25-.168-.307-.379-.307h-1.365v-.767h1.557c.235 0 .408-.07.408-.324 0-.255-.173-.324-.408-.324h-1.891c-.284 0-.47.113-.47.471V6.68zm3.324.147c0 .26.148.389.388.389.242 0 .388-.129.388-.389V4.79h.01L26.002 7c.103.16.187.216.443.216.338 0 .475-.183.475-.501V3.94c0-.26-.147-.389-.387-.389-.241 0-.388.129-.388.39v2.096h-.01l-1.41-2.274a.444.444 0 00-.402-.212c-.344 0-.506.139-.506.472v2.804zm4.7-.015c0 .241.156.404.402.404.246 0 .403-.163.403-.404V4.294h.761c.23 0 .417-.12.417-.34 0-.22-.187-.338-.417-.338h-2.327c-.23 0-.419.118-.419.339 0 .22.188.339.42.339h.76v2.518zm3.666-.26a1.155 1.155 0 00-.077.31c0 .215.152.354.373.354.191 0 .304-.065.359-.222l.21-.59h1.296l.208.59c.057.157.185.222.362.222.206 0 .378-.159.378-.354 0-.089-.05-.231-.078-.31l-.973-2.705c-.088-.25-.25-.296-.43-.296h-.193c-.197 0-.324.065-.393.245l-1.042 2.756zm1.986-.707h-.944l.476-1.42h.01l.458 1.42zm1.337-.462c0 1.22.653 1.851 1.759 1.851.78 0 1.399-.505 1.399-1.016 0-.196-.197-.31-.393-.31-.389 0-.374.679-1.006.679-.698 0-.954-.56-.954-1.204 0-.765.418-1.203.923-1.203.737 0 .6.639 1.067.639.239 0 .363-.138.363-.364 0-.344-.506-.922-1.43-.922-1.138 0-1.728.854-1.728 1.85zm3.52 0c0 1.22.653 1.851 1.758 1.851.78 0 1.4-.505 1.4-1.016 0-.196-.197-.31-.393-.31-.388 0-.373.679-1.007.679-.697 0-.953-.56-.953-1.204 0-.765.418-1.203.924-1.203.737 0 .6.639 1.065.639.241 0 .364-.138.364-.364 0-.344-.506-.922-1.429-.922-1.14 0-1.73.854-1.73 1.85zm3.498-.044c0 1.07.52 1.895 1.787 1.895 1.208 0 1.787-.898 1.787-1.895 0-1.036-.628-1.806-1.787-1.806-1.158 0-1.787.77-1.787 1.806zm.806 0c0-.678.323-1.159.981-1.159.659 0 .982.481.982 1.159 0 .677-.25 1.248-.982 1.248-.756 0-.981-.57-.981-1.248zm3.332.487c0 .971.6 1.408 1.538 1.408.937 0 1.536-.437 1.536-1.408V3.955c0-.241-.157-.404-.402-.404-.246 0-.402.163-.402.404V5.89c0 .48-.271.697-.732.697-.462 0-.732-.216-.732-.697V3.955c0-.241-.157-.404-.402-.404-.247 0-.404.163-.404.404v1.87zm3.805 1.001c0 .26.147.389.387.389.24 0 .389-.129.389-.389V4.79h.009l1.4 2.21c.102.16.186.216.44.216.34 0 .478-.183.478-.501V3.94c0-.26-.149-.389-.388-.389-.241 0-.389.129-.389.39v2.096h-.01l-1.408-2.274a.447.447 0 00-.403-.212c-.343 0-.505.139-.505.472v2.804zm4.698-.015c0 .241.157.404.402.404.246 0 .404-.163.404-.404V4.294h.762c.23 0 .416-.12.416-.34 0-.22-.186-.338-.416-.338h-2.327c-.233 0-.419.118-.419.339 0 .22.186.339.419.339h.759v2.518z" fill="#FFF"/></g></svg>