<svg width="76" height="24" xmlns="http://www.w3.org/2000/svg"><g fill="#14233C" opacity=".6"><path d="M27.674 11.539c-.03-7.05-4.298-10.086-9.139-11.142l-.001-.365C27.334.45 33.8 5.75 33.828 11.844c.03 6.96-7.531 11.957-16.884 11.993C7.592 23.873.03 18.562 0 11.975-.03 5.063 6.535.043 17.762 0l.037 8.585-2.655-.041c-5.686.22-12.26 2.715-12.247 6.031.016 3.648 6.287 8.008 13.793 7.98 6.072-.024 11.011-4.428 10.984-11.016"/><path d="M27.674 11.539c-.03-7.05-4.298-10.086-9.139-11.142l-.001-.365C27.334.45 33.8 5.75 33.828 11.844c.03 6.96-7.531 11.957-16.884 11.993C7.592 23.873.03 18.562 0 11.975-.03 5.063 6.535.043 17.762 0l.037 8.585-2.655-.041c-5.686.22-12.26 2.715-12.247 6.031.016 3.648 6.287 8.008 13.793 7.98 6.072-.024 11.011-4.428 10.984-11.016z"/><path d="M17.724 21.537c-3.224-.216-7.376-2.337-7.392-6.022-.016-3.647 3.503-6.306 7.34-6.466l.052 12.488z"/><path d="M17.724 21.537c-3.224-.216-7.376-2.337-7.392-6.022-.016-3.647 3.503-6.306 7.34-6.466l.052 12.488zM67.741 5.971l.165-.95c-1.94-.893-6.994-.45-6.889 2.942.091 2.942 3.918 3.798 6.793 2.985l-.103-1.033c-.876.236-4.703.56-4.666-1.935.047-3.116 4.26-2.154 4.7-2.009zm.889-1.323l.004 1.02 2.586-.01.022 5.343 1.83-.007-.024-5.344 2.537-.01-.005-1.02zm-11.46 6.347l3.388-.012-.005-1.067-3.388.013-.006-1.548 3.214-.012-.005-1.066-3.214.012-.007-1.614 3.415-.013-.005-1.067-5.125.02.027 6.361 1.71-.006zm-13.01-6.42l1.915-.007.023 6.335-1.915.007zm-5.603.045l-2.022.008-1.406.006.027 6.334 1.572-.006 1.856-.007c2.326-.009 4.334-1.19 4.326-3.157-.009-1.953-2.027-3.186-4.353-3.177zm-.312 5.27l-1.179.037-.019-4.405 1.474.073c1.031-.004 2.374.684 2.38 2.151.005 1.213-.996 2.138-2.656 2.144zm.312 2.852l-2.022.008-1.406.005.027 6.335 1.582-.006 1.847-.007c2.326-.01 4.334-1.19 4.325-3.157-.009-1.954-2.026-3.186-4.353-3.178zm-.312 5.27l-1.178.037-.02-4.406 1.474.073c1.031-.004 2.374.684 2.38 2.151.005 1.214-.995 2.138-2.656 2.145zm26.726-3.792l1.849-.008.018 4.708-1.849.007zm0-2.03l1.848-.008.005 1.214-1.848.007zm8.049 5.528l-.01-2.255 1.567-.006-.004-1-1.567.006L73 13.25l-1.889.007.006 1.214-1.473.005.004 1 1.473-.005.01 2.467c.008 1.667 2.244 1.699 3.515 1.4l-.004-1.04c-.589.202-1.62.02-1.623-.58zm-24.275-3.961c-2.042.009-3.47 1.134-3.464 2.547.006 1.588 1.566 2.555 3.486 2.547 1.053-.004 2.002-.047 2.737-.397l-.005-1.107c-.493.522-4.186 1.19-4.288-.637l4.74-.018c.112-2.214-1.632-2.941-3.206-2.935zm-1.524 2.075c.023-.788.678-1.124 1.548-1.128.804-.003 1.34.395 1.424 1.11l-2.972.018zm5.362-7.909c.075-.006 1.5-.126 1.493-1.633-.005-1.44-1.865-1.672-2.825-1.67l-3.432.014.027 6.361 1.898-.007-.01-2.534.707-.003c.778-.016 1.035.604 1.05.636l1.017 1.89 1.998-.007-1.479-2.595c-.01-.015-.215-.306-.444-.452zm-1.622-.553l-1.246.005-.007-1.707 1.273-.005c.59-.003 1.179.275 1.181.855.002.527-.706.85-1.201.852zm7.583 6.896c-.972.004-1.77.25-2.266.799l-.012-2.83-1.849.007.03 6.868 1.848-.007-.003-.597c.478.527 1.245.766 2.26.762 1.557-.006 2.815-.958 2.808-2.552-.007-1.634-1.259-2.456-2.816-2.45zm-.646 3.964c-.85.003-1.541-.58-1.613-1.323v-.236c.065-.744.751-1.332 1.6-1.335.896-.004 1.624.641 1.627 1.44.004.8-.719 1.45-1.614 1.454z"/></g></svg>