<svg width="59" height="30" xmlns="http://www.w3.org/2000/svg"><path d="M57.42 9.505c-.802-.739-1.688-1.107-2.66-1.107-.646 0-1.211.157-1.699.473-.488.315-.748.73-.777 1.247-.024.376.092.7.34.969.253.272.696.573 1.33.91l1.756.934c.543.286.937.656 1.189 1.105.25.45.357.943.324 1.476-.083 1.409-.686 2.523-1.806 3.342-1.12.82-2.509 1.23-4.163 1.23-1.455 0-2.74-.345-3.855-1.034l1.411-2.216c.317.32.784.614 1.396.88.615.267 1.144.402 1.595.402.766 0 1.414-.2 1.935-.593.523-.392.805-.924.845-1.596a1.2 1.2 0 00-.34-.92c-.247-.27-.682-.583-1.307-.933l-1.765-.96c-.543-.303-.942-.686-1.193-1.148a2.702 2.702 0 01-.332-1.482c.072-1.221.629-2.202 1.672-2.943 1.042-.741 2.291-1.114 3.743-1.114 1.008 0 2.201.305 3.588.911L57.42 9.505zm-10.576-.424c-.591-.456-1.407-.683-2.446-.683-1.581 0-2.893.597-3.938 1.788-1.047 1.195-1.618 2.66-1.722 4.397-.063 1.067.201 1.917.795 2.552.595.636 1.296.953 2.102.953 1.246 0 2.46-.368 3.645-1.103l-.416 2.39c-1.15.474-2.392.71-3.73.71-1.695 0-2.971-.466-3.825-1.394-.854-.932-1.236-2.168-1.144-3.707.15-2.508.987-4.56 2.521-6.16 1.536-1.597 3.416-2.397 5.643-2.397 1.32 0 2.343.223 3.07.657l-.555 1.997zm-12.722.424c-.8-.739-1.686-1.107-2.659-1.107-.646 0-1.212.157-1.7.473-.488.315-.747.73-.779 1.247-.022.376.092.7.345.969.248.272.693.573 1.33.91l1.753.934c.543.286.938.656 1.187 1.105.25.45.36.943.327 1.476-.083 1.409-.685 2.523-1.806 3.342-1.122.82-2.51 1.23-4.165 1.23-1.456 0-2.74-.345-3.854-1.034l1.41-2.216c.318.32.783.614 1.396.88.615.267 1.147.402 1.596.402.766 0 1.413-.2 1.936-.593.525-.392.805-.924.846-1.596a1.214 1.214 0 00-.34-.92c-.247-.27-.683-.583-1.308-.933l-1.767-.96c-.542-.303-.94-.686-1.192-1.148a2.703 2.703 0 01-.333-1.482c.072-1.221.628-2.202 1.673-2.943 1.042-.741 2.29-1.114 3.745-1.114 1.006 0 2.2.305 3.586.911l-1.227 2.167zm-6.403-5.681c-.98-.426-1.772-.64-2.373-.64-2.586 0-4.802 2.073-6.543 6.217h5.327l-1.449 2.804H17.75l-3.046 7.323c-2.813 6.266-6.744 9.394-11.808 9.394-1.203 0-2.168-.214-2.895-.64L1.563 25.1c.982.425 1.772.64 2.372.64 2.586 0 4.75-2.074 6.491-6.217l1-2.395H.337l1.458-2.79h10.688l.911-2.132-9.3.006L5.551 9.4l9.022.002C17.385 3.136 21.323 0 26.387 0c1.204 0 2.612.376 3.338.802l-2.006 3.022zM55.64 27.56h-.768c0-.116.004-.234.085-.325a.39.39 0 01.299-.12c.108 0 .212.029.287.112.088.093.097.185.097.308v.026zm.544.38a.054.054 0 00.052-.053v-.12c0-.619-.336-1.031-.951-1.031-.686 0-1.01.42-1.01 1.101 0 .297.068.598.28.812.209.21.46.252.745.252.22 0 .528-.03.728-.128.063-.033.088-.05.088-.128v-.284c0-.038-.007-.062-.047-.062-.021 0-.037.012-.054.02a1.048 1.048 0 01-.584.17c-.318 0-.555-.153-.555-.508v-.04h1.308zm-2.308.928a.054.054 0 00.051-.053v-1.316c0-.482-.227-.763-.707-.763-.249 0-.47.054-.665.21h-.028c-.176-.168-.296-.21-.54-.21-.116 0-.3.017-.403.07-.05.025-.113.07-.168.07h-.01c0-.04.01-.103-.05-.103h-.458a.054.054 0 00-.052.054v1.988c0 .028.025.053.052.053h.496a.053.053 0 00.052-.053V27.47c0-.186.138-.286.308-.286.096 0 .176.042.242.116.088.103.09.222.09.355v1.159c0 .028.026.053.054.053h.496a.052.052 0 00.051-.053v-1.341c0-.185.116-.289.291-.289.266 0 .35.224.35.462v1.168c0 .028.023.053.05.053h.498zm-3.993-1.307h-.77c0-.117.004-.235.085-.326a.393.393 0 01.301-.12c.108 0 .21.029.288.112.087.093.096.185.096.308v.026zm.542.38a.054.054 0 00.053-.054v-.12c0-.619-.336-1.031-.952-1.031-.685 0-1.009.42-1.009 1.101 0 .297.07.598.282.812.207.21.458.252.743.252.22 0 .529-.03.73-.128.064-.033.086-.05.086-.128v-.284c0-.038-.007-.062-.048-.062-.02 0-.036.012-.052.02a1.048 1.048 0 01-.584.17c-.32 0-.557-.153-.557-.508v-.04h1.308zm-2.307.927a.053.053 0 00.052-.053V27.42c0-.442-.292-.701-.708-.701a.95.95 0 00-.485.127c-.023.012-.051.03-.079.03h-.009v-.875a.054.054 0 00-.051-.054h-.498a.053.053 0 00-.05.054v2.813c0 .028.023.053.05.053h.498a.054.054 0 00.051-.053V27.47c0-.199.137-.286.316-.286.26 0 .365.178.365.426v1.204c0 .028.025.053.052.053h.496zm-2.222-.115c.044-.026.044-.038.044-.088v-.304c0-.033-.012-.062-.048-.062-.019 0-.035.016-.052.024a.84.84 0 01-.444.132c-.391 0-.575-.26-.575-.647 0-.384.187-.623.57-.623.134 0 .29.03.405.094.028.018.065.042.096.042.04 0 .048-.02.048-.058v-.333c0-.075-.023-.079-.083-.103a1.689 1.689 0 00-.592-.091c-.701 0-1.065.367-1.065 1.092 0 .677.353 1.073 1.016 1.073.2 0 .505-.05.68-.148zm-2.964.148c.504 0 .977-.202.977-.796 0-.4-.187-.61-.508-.813l-.353-.222c-.1-.062-.22-.15-.22-.285 0-.201.201-.255.361-.255.207 0 .372.062.556.156.024.013.052.034.08.034.04 0 .043-.045.043-.074v-.343c0-.074-.004-.087-.067-.116-.156-.07-.44-.104-.612-.104-.488 0-.961.163-.961.748 0 .296.136.54.373.705l.485.338c.115.083.222.14.222.301 0 .235-.216.28-.4.28-.207 0-.456-.053-.635-.169-.024-.015-.045-.037-.076-.037-.033 0-.048.037-.048.066v.334c0 .087.03.095.103.123.212.092.449.129.68.129zm-2.184-.033a.053.053 0 00.051-.053v-1.312c0-.224-.015-.429-.183-.586-.152-.14-.332-.181-.532-.181-.192 0-.336.029-.509.115a.165.165 0 01-.088.026h-.007c0-.041.007-.104-.052-.104h-.457a.053.053 0 00-.051.054v1.988c0 .028.023.053.05.053h.498c.028 0 .051-.025.051-.053v-1.341c0-.202.129-.289.313-.289.288 0 .368.198.368.466v1.164c0 .028.024.053.052.053h.496zm-3.273-1.72c.347 0 .435.368.435.66 0 .31-.055.718-.44.718-.383 0-.44-.392-.44-.706 0-.308.076-.672.445-.672zm.736 1.538c.24-.222.32-.51.32-.837 0-.326-.084-.639-.32-.865-.215-.206-.448-.248-.732-.248-.277 0-.536.046-.748.243-.228.214-.321.544-.321.859 0 .67.377 1.099 1.04 1.099.297 0 .532-.041.761-.25zm-2.24.182a.053.053 0 00.051-.053v-1.988a.054.054 0 00-.052-.054h-.495a.054.054 0 00-.052.054v1.988c0 .028.024.053.052.053h.495zm-.253-2.371c.173 0 .344-.067.344-.272 0-.195-.16-.277-.327-.277-.172 0-.353.066-.353.272 0 .207.16.277.336.277zm-.711 2.31c.064-.03.095-.043.095-.12v-.29c0-.024-.02-.061-.047-.061-.048 0-.18.12-.329.12-.176 0-.224-.116-.224-.28v-.99h.549c.027 0 .051-.025.051-.055v-.304a.054.054 0 00-.051-.053h-.549v-.464a.052.052 0 00-.052-.052h-.496a.054.054 0 00-.052.052v.464h-.228a.053.053 0 00-.052.053v.304c0 .03.024.054.052.054h.228v1.102c0 .177.02.37.172.482.136.1.315.132.48.132.163 0 .305-.029.453-.095zm-2.281-.612c0 .211-.113.293-.308.293-.164 0-.293-.078-.293-.264 0-.177.11-.234.25-.295.115-.055.23-.1.35-.15v.416zm.548.673a.053.053 0 00.051-.053v-1.456c0-.52-.468-.623-.88-.623-.227 0-.524.033-.732.14-.052.025-.068.037-.068.1v.292c0 .033.012.07.052.07.024 0 .04-.008.06-.021.207-.12.4-.17.64-.17.113 0 .329 0 .329.166 0 .091-.044.108-.125.132-.267.086-.596.16-.836.326-.172.12-.24.31-.24.52 0 .428.288.61.677.61a.842.842 0 00.384-.078.48.48 0 01.164-.058h.016c0 .041-.008.103.052.103h.456zm-2.745.033c.392 0 .749-.219.749-.66 0-.45-.36-.581-.692-.771-.07-.038-.15-.07-.15-.165 0-.136.146-.162.249-.162.172 0 .296.055.444.142.02.012.04.024.06.024.04 0 .049-.05.049-.079v-.284c0-.078-.033-.09-.101-.12a1.256 1.256 0 00-.492-.09c-.42 0-.769.202-.769.673 0 .304.148.44.392.581l.269.153c.072.04.179.086.179.189 0 .136-.127.16-.23.16-.169 0-.369-.036-.518-.123-.023-.012-.051-.033-.079-.033-.041 0-.052.036-.052.07v.251c0 .083.071.099.136.128.16.07.379.116.556.116zm-1.112-.033a.053.053 0 00.052-.053v-1.312c0-.224-.016-.429-.184-.586-.153-.14-.332-.181-.533-.181-.191 0-.336.029-.508.115a.163.163 0 01-.088.026h-.007c0-.041.007-.104-.052-.104h-.457a.054.054 0 00-.052.054v1.988c0 .028.024.053.052.053h.497a.053.053 0 00.05-.053v-1.341c0-.202.13-.289.314-.289.288 0 .367.198.367.466v1.164c0 .028.025.053.052.053h.497zm-2.793-1.307h-.769c0-.117.005-.235.085-.326a.393.393 0 01.3-.12c.108 0 .212.029.288.112.088.093.096.185.096.308v.026zm.543.38a.054.054 0 00.053-.054v-.12c0-.619-.337-1.031-.952-1.031-.685 0-1.01.42-1.01 1.101 0 .297.069.598.28.812.21.21.46.252.745.252.22 0 .528-.03.728-.128.064-.033.088-.05.088-.128v-.284c0-.038-.008-.062-.047-.062-.02 0-.037.012-.053.02a1.051 1.051 0 01-.584.17c-.32 0-.555-.153-.555-.508v-.04h1.307zm-3.24-.756c.372 0 .484.285.484.623 0 .35-.104.648-.492.648-.188 0-.348-.062-.348-.284v-.69c0-.23.156-.297.356-.297zm.825 1.418c.22-.226.28-.486.28-.8 0-.621-.317-1.071-.953-1.071-.192 0-.292.038-.464.123a.12.12 0 01-.076.021h-.007c0-.041.007-.103-.053-.103h-.456c-.029 0-.052.025-.052.055v2.844c0 .029.023.053.052.053h.496a.053.053 0 00.052-.053v-.907c.044 0 .056.004.096.024.144.079.22.112.384.112.26 0 .515-.108.7-.298zm-2.321.265a.053.053 0 00.052-.053v-1.316c0-.482-.228-.763-.708-.763-.247 0-.468.054-.663.21h-.029c-.176-.168-.296-.21-.54-.21-.117 0-.3.017-.404.07-.048.025-.112.07-.169.07h-.007c0-.04.007-.103-.052-.103h-.457a.054.054 0 00-.052.054v1.988c0 .028.024.053.052.053h.497a.053.053 0 00.052-.053V27.47c0-.186.136-.286.307-.286a.31.31 0 01.24.116c.089.103.092.222.092.355v1.159c0 .028.025.053.053.053h.496a.053.053 0 00.052-.053v-1.341c0-.185.116-.289.292-.289.264 0 .347.224.347.462v1.168c0 .028.024.053.053.053h.496zm-4.473-1.72c.348 0 .436.368.436.66 0 .31-.056.718-.44.718-.385 0-.44-.392-.44-.706 0-.308.076-.672.444-.672zm.735 1.538c.24-.222.32-.51.32-.837 0-.326-.084-.639-.32-.865-.216-.206-.447-.248-.732-.248-.276 0-.536.046-.748.243-.228.214-.32.544-.32.859 0 .67.376 1.099 1.04 1.099.296 0 .533-.041.76-.25zm-2.08.067c.052-.03.068-.042.068-.108V28.3c0-.038-.016-.066-.056-.066-.028 0-.056.017-.08.028a1.22 1.22 0 01-.587.162c-.557 0-.837-.372-.837-.924 0-.565.272-.932.84-.932.204 0 .424.05.6.156.016.013.044.034.068.034.04 0 .052-.045.052-.08v-.35c0-.073-.024-.081-.084-.11-.204-.104-.5-.134-.724-.134-.88 0-1.412.505-1.412 1.424 0 .927.503 1.394 1.392 1.394.224 0 .564-.029.76-.148zm29.2-3.286c.392 0 .75-.218.75-.66 0-.449-.362-.582-.694-.77-.067-.038-.147-.071-.147-.165 0-.136.144-.162.247-.162.173 0 .297.055.444.141.02.013.04.025.06.025.041 0 .05-.05.05-.078v-.285c0-.078-.034-.091-.101-.12a1.282 1.282 0 00-.493-.09c-.42 0-.768.202-.768.672 0 .305.149.441.393.58l.267.154c.073.041.181.087.181.19 0 .136-.128.16-.233.16a1.07 1.07 0 01-.516-.123c-.024-.013-.052-.033-.08-.033-.04 0-.052.036-.052.07v.251c0 .082.072.1.136.128.16.07.38.115.557.115zm-1.516-1.34h-.768c0-.115.004-.235.085-.325a.39.39 0 01.3-.12c.107 0 .21.029.287.112.088.094.096.185.096.308v.025zm.543.38a.054.054 0 00.053-.054v-.12c0-.618-.337-1.03-.952-1.03-.685 0-1.01.42-1.01 1.1 0 .298.07.598.28.813.21.21.461.251.745.251.22 0 .529-.028.728-.127.065-.034.089-.05.089-.128v-.284c0-.039-.008-.063-.048-.063-.02 0-.035.013-.053.021-.187.115-.363.17-.585.17-.32 0-.555-.154-.555-.508v-.04h1.308zm-2.14.812c.045-.025.045-.038.045-.087v-.304c0-.034-.013-.062-.048-.062-.021 0-.037.015-.052.024a.849.849 0 01-.445.132c-.391 0-.576-.26-.576-.648 0-.383.188-.621.573-.621a.86.86 0 01.404.094c.027.017.064.04.096.04.04 0 .048-.019.048-.057v-.333c0-.075-.025-.08-.085-.105a1.726 1.726 0 00-.591-.09c-.7 0-1.065.368-1.065 1.092 0 .678.353 1.074 1.016 1.074.2 0 .505-.05.68-.149zm-2.136.116a.053.053 0 00.051-.054v-1.989a.053.053 0 00-.051-.052h-.497a.054.054 0 00-.052.052v1.99c0 .028.025.053.052.053h.497zm-.885-1.983a.312.312 0 00.02-.08c0-.028-.044-.032-.063-.032h-.389c-.02 0-.044.016-.048.037l-.428 1.579-.417-1.579c-.007-.025-.026-.037-.051-.037h-.5c-.037 0-.068 0-.068.045 0 .017.004.029.008.045l.585 1.852c.03.106.042.186.162.186h.44c.133 0 .133-.087.169-.202l.58-1.814zm-2.22.404c.048 0 .057-.045.057-.088v-.308c0-.116-.072-.12-.169-.12a.975.975 0 00-.457.086c-.047.022-.072.034-.124.034h-.011c0-.042.011-.12-.053-.12h-.454a.053.053 0 00-.053.052v1.99c0 .028.024.053.053.053h.495a.054.054 0 00.052-.054v-1.27c0-.235.076-.31.304-.31.107 0 .212.016.317.046.015.004.028.009.043.009zm-2.228.271h-.768c0-.115.004-.235.083-.325a.392.392 0 01.3-.12.37.37 0 01.288.112c.088.094.097.185.097.308v.025zm.543.38a.054.054 0 00.053-.054v-.12c0-.618-.337-1.03-.953-1.03-.685 0-1.009.42-1.009 1.1 0 .298.069.598.281.813.208.21.46.251.744.251.22 0 .528-.028.728-.127.064-.034.088-.05.088-.128v-.284c0-.039-.008-.063-.048-.063-.02 0-.035.013-.052.021-.188.115-.364.17-.585.17-.319 0-.555-.154-.555-.508v-.04h1.308zm-3.176.96c.504 0 .976-.202.976-.795 0-.4-.187-.61-.508-.812l-.352-.223c-.1-.062-.22-.149-.22-.285 0-.202.2-.255.36-.255.208 0 .372.061.556.156.024.013.052.034.08.034.04 0 .044-.046.044-.075v-.342c0-.075-.004-.087-.068-.116-.156-.07-.44-.103-.612-.103-.489 0-.96.16-.96.747 0 .297.136.539.371.704l.485.339c.116.082.224.14.224.3 0 .236-.216.282-.4.282-.209 0-.456-.054-.637-.17-.023-.016-.043-.037-.076-.037-.03 0-.047.037-.047.065v.335c0 .086.032.095.104.123.21.092.447.128.68.128zm-2.225-.032a.054.054 0 00.052-.054v-2.829c0-.029-.02-.057-.052-.057h-.497c-.03 0-.05.028-.05.057v2.83c0 .028.023.053.05.053h.497zm-1.656-.673c0 .211-.113.293-.308.293-.165 0-.292-.078-.292-.264 0-.176.108-.235.248-.297a6.5 6.5 0 01.352-.147v.415zm.548.673a.054.054 0 00.052-.054v-1.456c0-.519-.468-.623-.881-.623-.228 0-.523.034-.732.14-.052.026-.067.037-.067.1v.292c0 .034.01.07.05.07a.105.105 0 00.061-.02c.208-.12.4-.17.641-.17.112 0 .328 0 .328.165 0 .092-.044.108-.125.133-.268.086-.596.16-.835.325-.172.12-.24.31-.24.52 0 .428.288.61.676.61a.83.83 0 00.384-.078c.04-.02.12-.057.164-.057h.016c0 .04-.008.103.053.103h.455zm-2.189 0a.054.054 0 00.053-.054v-1.989a.054.054 0 00-.053-.052h-.496a.053.053 0 00-.052.052v1.99c0 .028.024.053.052.053h.496zm-.94-.116c.043-.025.043-.038.043-.087v-.304c0-.034-.012-.062-.048-.062-.02 0-.036.015-.052.024a.842.842 0 01-.444.132c-.393 0-.576-.26-.576-.648 0-.383.19-.621.572-.621a.87.87 0 01.405.094c.028.017.063.04.095.04.04 0 .048-.019.048-.057v-.333c0-.075-.024-.08-.084-.105a1.728 1.728 0 00-.591-.09c-.7 0-1.066.368-1.066 1.092 0 .678.352 1.074 1.017 1.074.2 0 .505-.05.68-.149zm-2.097.116a.054.054 0 00.053-.054V24.07c0-.223-.017-.429-.185-.586-.152-.14-.332-.182-.532-.182-.191 0-.336.03-.508.115a.157.157 0 01-.089.026h-.007c0-.04.007-.103-.05-.103h-.458a.053.053 0 00-.052.052v1.99c0 .028.023.053.052.053h.496a.054.054 0 00.052-.054v-1.34c0-.202.128-.288.312-.288.288 0 .368.197.368.465v1.163c0 .029.024.054.052.054h.496zm-2.936-.673c0 .211-.113.293-.309.293-.164 0-.291-.078-.291-.264 0-.176.108-.235.248-.297a6.5 6.5 0 01.352-.147v.415zm.548.673a.054.054 0 00.052-.054v-1.456c0-.519-.469-.623-.881-.623-.228 0-.524.034-.731.14-.053.026-.07.037-.07.1v.292c0 .034.013.07.053.07a.103.103 0 00.06-.02c.209-.12.4-.17.64-.17.113 0 .329 0 .329.165 0 .092-.044.108-.125.133-.268.086-.595.16-.835.325-.173.12-.241.31-.241.52 0 .428.289.61.676.61a.828.828 0 00.384-.078.512.512 0 01.164-.057h.017c0 .04-.009.103.052.103h.456zm-2.149 0a.053.053 0 00.052-.054V24.07c0-.223-.016-.429-.184-.586-.152-.14-.332-.182-.532-.182-.192 0-.337.03-.509.115a.157.157 0 01-.088.026h-.007c0-.04.007-.103-.052-.103h-.456a.054.054 0 00-.052.052v1.99c0 .028.024.053.052.053h.496a.053.053 0 00.05-.054v-1.34c0-.202.13-.288.314-.288.288 0 .368.197.368.465v1.163c0 .029.024.054.052.054h.496zm-2.43 0a.053.053 0 00.052-.054v-1.989a.053.053 0 00-.052-.052h-.496a.053.053 0 00-.051.052v1.99c0 .028.023.053.051.053h.496zm-.895-2.268h-.908v.65h.749c.028 0 .052.026.052.054v.376a.053.053 0 01-.052.052h-.75v1.082a.054.054 0 01-.051.054h-.536a.053.053 0 01-.052-.054v-2.643c0-.03.024-.054.052-.054h1.496c.028 0 .052.025.052.054v.375c0 .029-.025.054-.052.054z" fill="#14233C" opacity=".6"/></svg>