<svg width="30" height="27" viewBox="0 0 30 27" xmlns="http://www.w3.org/2000/svg"><title>help</title><path d="M27.491 20.516l1.25 3.832.795 2.439-2.382-.953-3.95-1.58C20.843 25.612 18.022 26.4 15 26.4c-8.25 0-15-5.87-15-13.2C0 5.87 6.75 0 15 0s15 5.87 15 13.2c0 2.713-.925 5.227-2.509 7.316zM10.387 9.911h2.062c.09-1.275.976-2.082 2.35-2.082 1.365 0 2.252.797 2.252 1.893 0 1.006-.429 1.574-1.634 2.3-1.364.818-1.972 1.714-1.922 3.149l.01.757h2.062v-.598c0-1.006.368-1.534 1.653-2.291 1.315-.787 2.092-1.873 2.092-3.407 0-2.161-1.773-3.725-4.403-3.725-2.888 0-4.432 1.713-4.522 4.004zm5.453 8.998c0-.803-.53-1.329-1.316-1.329s-1.324.526-1.324 1.329c0 .785.538 1.311 1.324 1.311s1.316-.526 1.316-1.311z" fill="#00A4DB" fill-rule="nonzero"/></svg>