<?xml version="1.0" encoding="UTF-8"?>
<svg width="103px" height="100px" viewBox="0 0 103 100" version="1.1" xmlns="http://www.w3.org/2000/svg" xmlns:xlink="http://www.w3.org/1999/xlink">
    <!-- Generator: Sketch 42 (36781) - http://www.bohemiancoding.com/sketch -->
    <title>Logo</title>
    <desc>Created with Sketch.</desc>
    <defs></defs>
    <g id="/crowdcube" stroke="none" stroke-width="1" fill="none" fill-rule="evenodd">
        <g id="101" transform="translate(-549.000000, -4005.000000)">
            <g id="Footer" transform="translate(0.000000, 3955.000000)">
                <g id="Logo" transform="translate(549.000000, 50.000000)">
                    <g id="Layer_1">
                        <g id="Group">
                            <g>
                                <ellipse id="Oval" transform="translate(73.431894, 29.400892) rotate(-45.000000) translate(-73.431894, -29.400892) " cx="73.4318942" cy="29.400892" rx="6.05169294" ry="6.03994208"></ellipse>
                                <ellipse id="Oval" transform="translate(85.405464, 17.436980) rotate(-45.000000) translate(-85.405464, -17.436980) " cx="85.4054639" cy="17.43698" rx="6.05169294" ry="6.03994208"></ellipse>
                                <g transform="translate(0.000000, 44.400000)" id="Shape">
                                    <polygon fill="#1E7889" points="34.3867704 0.32 0 34.64 2.67155457 38.0136329 34.3867704 6.36"></polygon>
                                    <polygon fill="#97B8A5" points="48.1735409 0 10.587064 37.480558 8.76831676 39.2941799 11.4269422 42.6752461 48.1735409 6"></polygon>
                                    <polygon fill="#DEB680" points="12.7104642 54.8342164 57.8723735 9.76 51.7805447 9.76 9.98832462 51.5101674"></polygon>
                                    <polygon fill="#E34B5F" points="33.2048074 47.779668 57.2712062 23.76 51.2194553 23.76 30.2298494 44.7468236"></polygon>
                                </g>
                                <path d="M98.1505837,0.12 C88.5319066,1 76.7490272,7.08 66.5692607,17.2 C65.166537,18.6 63.8840467,20 62.7217899,21.36 C62.3210117,21.84 61.9202335,22.32 61.5595331,22.8 C61.4392996,22.68 61.2789883,22.64 61.118677,22.64 L51.7805447,22.64 L38.07393,36.32 C37.7132296,36.68 37.5128405,37.12 37.5128405,37.64 L37.5128405,49.32 C37.5128405,49.96 38.3143969,50.32 38.7552529,49.84 L51.7404669,36.88 L51.7404669,50.84 L65.7276265,50.84 L52.7424125,63.8 C52.2614786,64.28 52.622179,65.04 53.2634241,65.04 L64.9661479,65.04 C65.4470817,65.04 65.9280156,64.84 66.288716,64.48 L79.9953307,50.8 L79.9953307,41.48 C79.9953307,41.32 79.9552529,41.2 79.8750973,41.08 C80.4762646,40.68 81.1175097,40.28 81.718677,39.8 C83.0412451,38.68 84.3237354,37.48 85.6463035,36.16 C95.7859922,26.04 101.877821,14.24 102.759533,4.64 C103,2.08 100.79572,-0.16 98.1505837,0.12 Z M77.7108949,33.64 C75.3463035,36 71.4988327,36 69.1743191,33.64 C66.8097276,31.28 66.8097276,27.44 69.1743191,25.12 C71.5389105,22.8 75.3863813,22.76 77.7108949,25.12 C80.0754864,27.48 80.0754864,31.28 77.7108949,33.64 Z M89.6941634,21.72 C87.329572,24.08 83.4821012,24.08 81.1575875,21.72 C78.7929961,19.36 78.7929961,15.52 81.1575875,13.2 C83.522179,10.84 87.3696498,10.84 89.6941634,13.2 C92.0587549,15.52 92.0587549,19.36 89.6941634,21.72 Z" id="Shape" fill="#FFFFFF"></path>
                            </g>
                        </g>
                    </g>
                </g>
            </g>
        </g>
    </g>
</svg>