<svg version="1.1" viewBox="0.0 0.0 1186.0 375.0" fill="none" stroke="none" stroke-linecap="square" stroke-miterlimit="10" width="1186" height="375" xmlns:xlink="http://www.w3.org/1999/xlink" xmlns="http://www.w3.org/2000/svg"><path fill="#ffffff" d="M0 0L1186.0 0L1186.0 375.0L0 375.0L0 0Z" fill-rule="nonzero"/><path stroke="#cccccc" stroke-width="1.0" stroke-linecap="butt" d="M138.5 53.5L138.5 335.5" fill-rule="nonzero"/><path stroke="#cccccc" stroke-width="1.0" stroke-linecap="butt" d="M618.5 53.5L618.5 335.5" fill-rule="nonzero"/><path stroke="#cccccc" stroke-width="1.0" stroke-linecap="butt" d="M1098.5 53.5L1098.5 335.5" fill-rule="nonzero"/><path stroke="#333333" stroke-width="1.0" stroke-linecap="butt" d="M69.5 335.5L1167.5 335.5" fill-rule="nonzero"/><path stroke="#cccccc" stroke-width="1.0" stroke-linecap="butt" d="M69.5 278.5L1167.5 278.5" fill-rule="nonzero"/><path stroke="#cccccc" stroke-width="1.0" stroke-linecap="butt" d="M69.5 222.5L1167.5 222.5" fill-rule="nonzero"/><path stroke="#cccccc" stroke-width="1.0" stroke-linecap="butt" d="M69.5 166.5L1167.5 166.5" fill-rule="nonzero"/><path stroke="#cccccc" stroke-width="1.0" stroke-linecap="butt" d="M69.5 110.5L1167.5 110.5" fill-rule="nonzero"/><path stroke="#cccccc" stroke-width="1.0" stroke-linecap="butt" d="M69.5 53.5L1167.5 53.5" fill-rule="nonzero"/><clipPath id="id_0"><path d="M69.75 53.75L1167.25 53.75L1167.25 335.25L69.75 335.25L69.75 53.75Z" clip-rule="nonzero"/></clipPath><path stroke="#4285f4" stroke-width="2.0" stroke-linecap="butt" clip-path="url(#id_0)" d="M69.75 317.01035L138.34375 318.87143L206.9375 313.01782L275.53125 315.97968L344.125 310.0392L412.71875 314.39575L481.3125 311.0162L549.90625 316.4091L618.5 318.86285L687.09375 313.04443L755.6875 309.84314L824.28125 310.91492L892.875 286.46658L961.46875 307.52054L1030.0625 314.27148L1098.6562 317.49094L1167.25 305.21167" fill-rule="nonzero"/><path stroke="#db4437" stroke-width="2.0" stroke-linecap="butt" clip-path="url(#id_0)" d="M69.75 169.00063L138.34375 172.34229L206.9375 159.91124L275.53125 180.92914L344.125 163.41058L412.71875 168.4362L481.3125 194.08401L549.90625 206.68565L618.5 211.38121L687.09375 203.77396L755.6875 202.83858L824.28125 198.92084L892.875 196.69617L961.46875 202.77068L1030.0625 209.05647L1098.6562 211.47488L1167.25 201.96738" fill-rule="nonzero"/><path stroke="#f4b400" stroke-width="2.0" stroke-linecap="butt" clip-path="url(#id_0)" d="M69.75 160.19054L138.34375 139.45633L206.9375 135.40509L275.53125 154.37155L344.125 90.07634L412.71875 145.48311L481.3125 174.10416L549.90625 190.62273L618.5 180.93289L687.09375 176.64516L755.6875 147.01195L824.28125 127.89564L892.875 117.04667L961.46875 111.15424L1030.0625 118.510216L1098.6562 93.78989L1167.25 108.526276" fill-rule="nonzero"/><path fill="#000000" fill-opacity="0.0" clip-path="url(#id_0)" d="M72.75 317.01035C72.75 318.6672 71.40685 320.01035 69.75 320.01035C68.09315 320.01035 66.75 318.6672 66.75 317.01035C66.75 315.3535 68.09315 314.01035 69.75 314.01035C71.40685 314.01035 72.75 315.3535 72.75 317.01035Z" fill-rule="nonzero"/><path fill="#000000" fill-opacity="0.0" clip-path="url(#id_0)" d="M141.34375 318.87143C141.34375 320.5283 140.00061 321.87143 138.34375 321.87143C136.68689 321.87143 135.34375 320.5283 135.34375 318.87143C135.34375 317.21457 136.68689 315.87143 138.34375 315.87143C140.00061 315.87143 141.34375 317.21457 141.34375 318.87143Z" fill-rule="nonzero"/><path fill="#000000" fill-opacity="0.0" clip-path="url(#id_0)" d="M209.9375 313.01782C209.9375 314.67468 208.59436 316.01782 206.9375 316.01782C205.28064 316.01782 203.9375 314.67468 203.9375 313.01782C203.9375 311.36096 205.28064 310.01782 206.9375 310.01782C208.59436 310.01782 209.9375 311.36096 209.9375 313.01782Z" fill-rule="nonzero"/><path fill="#000000" fill-opacity="0.0" clip-path="url(#id_0)" d="M278.53125 315.97968C278.53125 317.6365 277.1881 318.97968 275.53125 318.97968C273.8744 318.97968 272.53125 317.6365 272.53125 315.97968C272.53125 314.3228 273.8744 312.97968 275.53125 312.97968C277.1881 312.97968 278.53125 314.3228 278.53125 315.97968Z" fill-rule="nonzero"/><path fill="#000000" fill-opacity="0.0" clip-path="url(#id_0)" d="M347.125 310.0392C347.125 311.69608 345.78186 313.0392 344.125 313.0392C342.46814 313.0392 341.125 311.69608 341.125 310.0392C341.125 308.38235 342.46814 307.0392 344.125 307.0392C345.78186 307.0392 347.125 308.38235 347.125 310.0392Z" fill-rule="nonzero"/><path fill="#000000" fill-opacity="0.0" clip-path="url(#id_0)" d="M415.71875 314.39575C415.71875 316.0526 414.3756 317.39575 412.71875 317.39575C411.0619 317.39575 409.71875 316.0526 409.71875 314.39575C409.71875 312.7389 411.0619 311.39575 412.71875 311.39575C414.3756 311.39575 415.71875 312.7389 415.71875 314.39575Z" fill-rule="nonzero"/><path fill="#000000" fill-opacity="0.0" clip-path="url(#id_0)" d="M484.3125 311.0162C484.3125 312.67303 482.96936 314.0162 481.3125 314.0162C479.65564 314.0162 478.3125 312.67303 478.3125 311.0162C478.3125 309.35934 479.65564 308.0162 481.3125 308.0162C482.96936 308.0162 484.3125 309.35934 484.3125 311.0162Z" fill-rule="nonzero"/><path fill="#000000" fill-opacity="0.0" clip-path="url(#id_0)" d="M552.90625 316.4091C552.90625 318.06595 551.5631 319.4091 549.90625 319.4091C548.2494 319.4091 546.90625 318.06595 546.90625 316.4091C546.90625 314.75223 548.2494 313.4091 549.90625 313.4091C551.5631 313.4091 552.90625 314.75223 552.90625 316.4091Z" fill-rule="nonzero"/><path fill="#000000" fill-opacity="0.0" clip-path="url(#id_0)" d="M621.5 318.86285C621.5 320.5197 620.15686 321.86285 618.5 321.86285C616.84314 321.86285 615.5 320.5197 615.5 318.86285C615.5 317.206 616.84314 315.86285 618.5 315.86285C620.15686 315.86285 621.5 317.206 621.5 318.86285Z" fill-rule="nonzero"/><path fill="#000000" fill-opacity="0.0" clip-path="url(#id_0)" d="M690.09375 313.04443C690.09375 314.7013 688.7506 316.04443 687.09375 316.04443C685.4369 316.04443 684.09375 314.7013 684.09375 313.04443C684.09375 311.38757 685.4369 310.04443 687.09375 310.04443C688.7506 310.04443 690.09375 311.38757 690.09375 313.04443Z" fill-rule="nonzero"/><path fill="#000000" fill-opacity="0.0" clip-path="url(#id_0)" d="M758.6875 309.84314C758.6875 311.5 757.34436 312.84314 755.6875 312.84314C754.03064 312.84314 752.6875 311.5 752.6875 309.84314C752.6875 308.18628 754.03064 306.84314 755.6875 306.84314C757.34436 306.84314 758.6875 308.18628 758.6875 309.84314Z" fill-rule="nonzero"/><path fill="#000000" fill-opacity="0.0" clip-path="url(#id_0)" d="M827.28125 310.91492C827.28125 312.57175 825.9381 313.91492 824.28125 313.91492C822.6244 313.91492 821.28125 312.57175 821.28125 310.91492C821.28125 309.25806 822.6244 307.91492 824.28125 307.91492C825.9381 307.91492 827.28125 309.25806 827.28125 310.91492Z" fill-rule="nonzero"/><path fill="#000000" fill-opacity="0.0" clip-path="url(#id_0)" d="M895.875 286.46658C895.875 288.12344 894.53186 289.46658 892.875 289.46658C891.21814 289.46658 889.875 288.12344 889.875 286.46658C889.875 284.80972 891.21814 283.46658 892.875 283.46658C894.53186 283.46658 895.875 284.80972 895.875 286.46658Z" fill-rule="nonzero"/><path fill="#000000" fill-opacity="0.0" clip-path="url(#id_0)" d="M964.46875 307.52054C964.46875 309.1774 963.1256 310.52054 961.46875 310.52054C959.8119 310.52054 958.46875 309.1774 958.46875 307.52054C958.46875 305.86368 959.8119 304.52054 961.46875 304.52054C963.1256 304.52054 964.46875 305.86368 964.46875 307.52054Z" fill-rule="nonzero"/><path fill="#000000" fill-opacity="0.0" clip-path="url(#id_0)" d="M1033.0625 314.27148C1033.0625 315.92834 1031.7194 317.27148 1030.0625 317.27148C1028.4056 317.27148 1027.0625 315.92834 1027.0625 314.27148C1027.0625 312.61462 1028.4056 311.27148 1030.0625 311.27148C1031.7194 311.27148 1033.0625 312.61462 1033.0625 314.27148Z" fill-rule="nonzero"/><path fill="#000000" fill-opacity="0.0" clip-path="url(#id_0)" d="M1101.6562 317.49094C1101.6562 319.1478 1100.3131 320.49094 1098.6562 320.49094C1096.9994 320.49094 1095.6562 319.1478 1095.6562 317.49094C1095.6562 315.83408 1096.9994 314.49094 1098.6562 314.49094C1100.3131 314.49094 1101.6562 315.83408 1101.6562 317.49094Z" fill-rule="nonzero"/><path fill="#000000" fill-opacity="0.0" clip-path="url(#id_0)" d="M1170.25 305.21167C1170.25 306.86853 1168.9069 308.21167 1167.25 308.21167C1165.5931 308.21167 1164.25 306.86853 1164.25 305.21167C1164.25 303.55484 1165.5931 302.21167 1167.25 302.21167C1168.9069 302.21167 1170.25 303.55484 1170.25 305.21167Z" fill-rule="nonzero"/><path fill="#000000" fill-opacity="0.0" clip-path="url(#id_0)" d="M72.75 169.00063C72.75 170.65747 71.40685 172.00063 69.75 172.00063C68.09315 172.00063 66.75 170.65747 66.75 169.00063C66.75 167.34377 68.09315 166.00063 69.75 166.00063C71.40685 166.00063 72.75 167.34377 72.75 169.00063Z" fill-rule="nonzero"/><path fill="#000000" fill-opacity="0.0" clip-path="url(#id_0)" d="M141.34375 172.34229C141.34375 173.99913 140.00061 175.34229 138.34375 175.34229C136.68689 175.34229 135.34375 173.99913 135.34375 172.34229C135.34375 170.68542 136.68689 169.34229 138.34375 169.34229C140.00061 169.34229 141.34375 170.68542 141.34375 172.34229Z" fill-rule="nonzero"/><path fill="#000000" fill-opacity="0.0" clip-path="url(#id_0)" d="M209.9375 159.91124C209.9375 161.56808 208.59436 162.91124 206.9375 162.91124C205.28064 162.91124 203.9375 161.56808 203.9375 159.91124C203.9375 158.25438 205.28064 156.91124 206.9375 156.91124C208.59436 156.91124 209.9375 158.25438 209.9375 159.91124Z" fill-rule="nonzero"/><path fill="#000000" fill-opacity="0.0" clip-path="url(#id_0)" d="M278.53125 180.92914C278.53125 182.586 277.1881 183.92914 275.53125 183.92914C273.8744 183.92914 272.53125 182.586 272.53125 180.92914C272.53125 179.27228 273.8744 177.92914 275.53125 177.92914C277.1881 177.92914 278.53125 179.27228 278.53125 180.92914Z" fill-rule="nonzero"/><path fill="#000000" fill-opacity="0.0" clip-path="url(#id_0)" d="M347.125 163.41058C347.125 165.06744 345.78186 166.41058 344.125 166.41058C342.46814 166.41058 341.125 165.06744 341.125 163.41058C341.125 161.75374 342.46814 160.41058 344.125 160.41058C345.78186 160.41058 347.125 161.75374 347.125 163.41058Z" fill-rule="nonzero"/><path fill="#000000" fill-opacity="0.0" clip-path="url(#id_0)" d="M415.71875 168.4362C415.71875 170.09306 414.3756 171.4362 412.71875 171.4362C411.0619 171.4362 409.71875 170.09306 409.71875 168.4362C409.71875 166.77936 411.0619 165.4362 412.71875 165.4362C414.3756 165.4362 415.71875 166.77936 415.71875 168.4362Z" fill-rule="nonzero"/><path fill="#000000" fill-opacity="0.0" clip-path="url(#id_0)" d="M484.3125 194.08401C484.3125 195.74088 482.96936 197.08401 481.3125 197.08401C479.65564 197.08401 478.3125 195.74088 478.3125 194.08401C478.3125 192.42717 479.65564 191.08401 481.3125 191.08401C482.96936 191.08401 484.3125 192.42717 484.3125 194.08401Z" fill-rule="nonzero"/><path fill="#000000" fill-opacity="0.0" clip-path="url(#id_0)" d="M552.90625 206.68565C552.90625 208.3425 551.5631 209.68565 549.90625 209.68565C548.2494 209.68565 546.90625 208.3425 546.90625 206.68565C546.90625 205.0288 548.2494 203.68565 549.90625 203.68565C551.5631 203.68565 552.90625 205.0288 552.90625 206.68565Z" fill-rule="nonzero"/><path fill="#000000" fill-opacity="0.0" clip-path="url(#id_0)" d="M621.5 211.38121C621.5 213.03807 620.15686 214.38121 618.5 214.38121C616.84314 214.38121 615.5 213.03807 615.5 211.38121C615.5 209.72437 616.84314 208.38121 618.5 208.38121C620.15686 208.38121 621.5 209.72437 621.5 211.38121Z" fill-rule="nonzero"/><path fill="#000000" fill-opacity="0.0" clip-path="url(#id_0)" d="M690.09375 203.77396C690.09375 205.43082 688.7506 206.77396 687.09375 206.77396C685.4369 206.77396 684.09375 205.43082 684.09375 203.77396C684.09375 202.11711 685.4369 200.77396 687.09375 200.77396C688.7506 200.77396 690.09375 202.11711 690.09375 203.77396Z" fill-rule="nonzero"/><path fill="#000000" fill-opacity="0.0" clip-path="url(#id_0)" d="M758.6875 202.83858C758.6875 204.49542 757.34436 205.83858 755.6875 205.83858C754.03064 205.83858 752.6875 204.49542 752.6875 202.83858C752.6875 201.18172 754.03064 199.83858 755.6875 199.83858C757.34436 199.83858 758.6875 201.18172 758.6875 202.83858Z" fill-rule="nonzero"/><path fill="#000000" fill-opacity="0.0" clip-path="url(#id_0)" d="M827.28125 198.92084C827.28125 200.5777 825.9381 201.92084 824.28125 201.92084C822.6244 201.92084 821.28125 200.5777 821.28125 198.92084C821.28125 197.26399 822.6244 195.92084 824.28125 195.92084C825.9381 195.92084 827.28125 197.26399 827.28125 198.92084Z" fill-rule="nonzero"/><path fill="#000000" fill-opacity="0.0" clip-path="url(#id_0)" d="M895.875 196.69617C895.875 198.35303 894.53186 199.69617 892.875 199.69617C891.21814 199.69617 889.875 198.35303 889.875 196.69617C889.875 195.03932 891.21814 193.69617 892.875 193.69617C894.53186 193.69617 895.875 195.03932 895.875 196.69617Z" fill-rule="nonzero"/><path fill="#000000" fill-opacity="0.0" clip-path="url(#id_0)" d="M964.46875 202.77068C964.46875 204.42754 963.1256 205.77068 961.46875 205.77068C959.8119 205.77068 958.46875 204.42754 958.46875 202.77068C958.46875 201.11383 959.8119 199.77068 961.46875 199.77068C963.1256 199.77068 964.46875 201.11383 964.46875 202.77068Z" fill-rule="nonzero"/><path fill="#000000" fill-opacity="0.0" clip-path="url(#id_0)" d="M1033.0625 209.05647C1033.0625 210.71332 1031.7194 212.05647 1030.0625 212.05647C1028.4056 212.05647 1027.0625 210.71332 1027.0625 209.05647C1027.0625 207.39961 1028.4056 206.05647 1030.0625 206.05647C1031.7194 206.05647 1033.0625 207.39961 1033.0625 209.05647Z" fill-rule="nonzero"/><path fill="#000000" fill-opacity="0.0" clip-path="url(#id_0)" d="M1101.6562 211.47488C1101.6562 213.13173 1100.3131 214.47488 1098.6562 214.47488C1096.9994 214.47488 1095.6562 213.13173 1095.6562 211.47488C1095.6562 209.81802 1096.9994 208.47488 1098.6562 208.47488C1100.3131 208.47488 1101.6562 209.81802 1101.6562 211.47488Z" fill-rule="nonzero"/><path fill="#000000" fill-opacity="0.0" clip-path="url(#id_0)" d="M1170.25 201.96738C1170.25 203.62424 1168.9069 204.96738 1167.25 204.96738C1165.5931 204.96738 1164.25 203.62424 1164.25 201.96738C1164.25 200.31053 1165.5931 198.96738 1167.25 198.96738C1168.9069 198.96738 1170.25 200.31053 1170.25 201.96738Z" fill-rule="nonzero"/><path fill="#000000" fill-opacity="0.0" clip-path="url(#id_0)" d="M72.75 160.19054C72.75 161.84738 71.40685 163.19054 69.75 163.19054C68.09315 163.19054 66.75 161.84738 66.75 160.19054C66.75 158.53368 68.09315 157.19054 69.75 157.19054C71.40685 157.19054 72.75 158.53368 72.75 160.19054Z" fill-rule="nonzero"/><path fill="#000000" fill-opacity="0.0" clip-path="url(#id_0)" d="M141.34375 139.45633C141.34375 141.11317 140.00061 142.45633 138.34375 142.45633C136.68689 142.45633 135.34375 141.11317 135.34375 139.45633C135.34375 137.79947 136.68689 136.45633 138.34375 136.45633C140.00061 136.45633 141.34375 137.79947 141.34375 139.45633Z" fill-rule="nonzero"/><path fill="#000000" fill-opacity="0.0" clip-path="url(#id_0)" d="M209.9375 135.40509C209.9375 137.06195 208.59436 138.40509 206.9375 138.40509C205.28064 138.40509 203.9375 137.06195 203.9375 135.40509C203.9375 133.74825 205.28064 132.40509 206.9375 132.40509C208.59436 132.40509 209.9375 133.74825 209.9375 135.40509Z" fill-rule="nonzero"/><path fill="#000000" fill-opacity="0.0" clip-path="url(#id_0)" d="M278.53125 154.37155C278.53125 156.0284 277.1881 157.37155 275.53125 157.37155C273.8744 157.37155 272.53125 156.0284 272.53125 154.37155C272.53125 152.71469 273.8744 151.37155 275.53125 151.37155C277.1881 151.37155 278.53125 152.71469 278.53125 154.37155Z" fill-rule="nonzero"/><path fill="#000000" fill-opacity="0.0" clip-path="url(#id_0)" d="M347.125 90.07634C347.125 91.73319 345.78186 93.07634 344.125 93.07634C342.46814 93.07634 341.125 91.73319 341.125 90.07634C341.125 88.41948 342.46814 87.07634 344.125 87.07634C345.78186 87.07634 347.125 88.41948 347.125 90.07634Z" fill-rule="nonzero"/><path fill="#000000" fill-opacity="0.0" clip-path="url(#id_0)" d="M415.71875 145.48311C415.71875 147.13997 414.3756 148.48311 412.71875 148.48311C411.0619 148.48311 409.71875 147.13997 409.71875 145.48311C409.71875 143.82626 411.0619 142.48311 412.71875 142.48311C414.3756 142.48311 415.71875 143.82626 415.71875 145.48311Z" fill-rule="nonzero"/><path fill="#000000" fill-opacity="0.0" clip-path="url(#id_0)" d="M484.3125 174.10416C484.3125 175.761 482.96936 177.10416 481.3125 177.10416C479.65564 177.10416 478.3125 175.761 478.3125 174.10416C478.3125 172.4473 479.65564 171.10416 481.3125 171.10416C482.96936 171.10416 484.3125 172.4473 484.3125 174.10416Z" fill-rule="nonzero"/><path fill="#000000" fill-opacity="0.0" clip-path="url(#id_0)" d="M552.90625 190.62273C552.90625 192.27959 551.5631 193.62273 549.90625 193.62273C548.2494 193.62273 546.90625 192.27959 546.90625 190.62273C546.90625 188.96588 548.2494 187.62273 549.90625 187.62273C551.5631 187.62273 552.90625 188.96588 552.90625 190.62273Z" fill-rule="nonzero"/><path fill="#000000" fill-opacity="0.0" clip-path="url(#id_0)" d="M621.5 180.93289C621.5 182.58974 620.15686 183.93289 618.5 183.93289C616.84314 183.93289 615.5 182.58974 615.5 180.93289C615.5 179.27603 616.84314 177.93289 618.5 177.93289C620.15686 177.93289 621.5 179.27603 621.5 180.93289Z" fill-rule="nonzero"/><path fill="#000000" fill-opacity="0.0" clip-path="url(#id_0)" d="M690.09375 176.64516C690.09375 178.30202 688.7506 179.64516 687.09375 179.64516C685.4369 179.64516 684.09375 178.30202 684.09375 176.64516C684.09375 174.98831 685.4369 173.64516 687.09375 173.64516C688.7506 173.64516 690.09375 174.98831 690.09375 176.64516Z" fill-rule="nonzero"/><path fill="#000000" fill-opacity="0.0" clip-path="url(#id_0)" d="M758.6875 147.01195C758.6875 148.6688 757.34436 150.01195 755.6875 150.01195C754.03064 150.01195 752.6875 148.6688 752.6875 147.01195C752.6875 145.35509 754.03064 144.01195 755.6875 144.01195C757.34436 144.01195 758.6875 145.35509 758.6875 147.01195Z" fill-rule="nonzero"/><path fill="#000000" fill-opacity="0.0" clip-path="url(#id_0)" d="M827.28125 127.89564C827.28125 129.55249 825.9381 130.89563 824.28125 130.89563C822.6244 130.89563 821.28125 129.55249 821.28125 127.89564C821.28125 126.238785 822.6244 124.89564 824.28125 124.89564C825.9381 124.89564 827.28125 126.238785 827.28125 127.89564Z" fill-rule="nonzero"/><path fill="#000000" fill-opacity="0.0" clip-path="url(#id_0)" d="M895.875 117.04667C895.875 118.70352 894.53186 120.04667 892.875 120.04667C891.21814 120.04667 889.875 118.70352 889.875 117.04667C889.875 115.38982 891.21814 114.04667 892.875 114.04667C894.53186 114.04667 895.875 115.38982 895.875 117.04667Z" fill-rule="nonzero"/><path fill="#000000" fill-opacity="0.0" clip-path="url(#id_0)" d="M964.46875 111.15424C964.46875 112.8111 963.1256 114.15424 961.46875 114.15424C959.8119 114.15424 958.46875 112.8111 958.46875 111.15424C958.46875 109.49739 959.8119 108.15424 961.46875 108.15424C963.1256 108.15424 964.46875 109.49739 964.46875 111.15424Z" fill-rule="nonzero"/><path fill="#000000" fill-opacity="0.0" clip-path="url(#id_0)" d="M1033.0625 118.510216C1033.0625 120.16707 1031.7194 121.510216 1030.0625 121.510216C1028.4056 121.510216 1027.0625 120.16707 1027.0625 118.510216C1027.0625 116.85336 1028.4056 115.510216 1030.0625 115.510216C1031.7194 115.510216 1033.0625 116.85336 1033.0625 118.510216Z" fill-rule="nonzero"/><path fill="#000000" fill-opacity="0.0" clip-path="url(#id_0)" d="M1101.6562 93.78989C1101.6562 95.44674 1100.3131 96.78989 1098.6562 96.78989C1096.9994 96.78989 1095.6562 95.44674 1095.6562 93.78989C1095.6562 92.13303 1096.9994 90.78989 1098.6562 90.78989C1100.3131 90.78989 1101.6562 92.13303 1101.6562 93.78989Z" fill-rule="nonzero"/><path fill="#000000" fill-opacity="0.0" clip-path="url(#id_0)" d="M1170.25 108.526276C1170.25 110.18313 1168.9069 111.526276 1167.25 111.526276C1165.5931 111.526276 1164.25 110.18313 1164.25 108.526276C1164.25 106.86942 1165.5931 105.526276 1167.25 105.526276C1168.9069 105.526276 1170.25 106.86942 1170.25 108.526276Z" fill-rule="nonzero"/><path fill="#757575" d="M45.8125 336.10938Q45.8125 338.01562 45.15625 338.95312Q44.515625 339.875 43.125 339.875Q41.765625 339.875 41.109375 338.96875Q40.453125 338.0625 40.421875 336.25L40.421875 334.8125Q40.421875 332.92188 41.0625 332.01562Q41.71875 331.09375 43.109375 331.09375Q44.484375 331.09375 45.140625 331.98438Q45.796875 332.85938 45.8125 334.70312L45.8125 336.10938ZM44.71875 334.625Q44.71875 333.25 44.328125 332.625Q43.953125 331.98438 43.109375 331.98438Q42.28125 331.98438 41.890625 332.625Q41.515625 333.25 41.515625 334.54688L41.515625 336.28125Q41.515625 337.65625 41.90625 338.32812Q42.3125 338.98438 43.125 338.98438Q43.921875 338.98438 44.3125 338.35938Q44.703125 337.73438 44.71875 336.40625L44.71875 334.625ZM48.59375 333.40625L48.625 334.10938Q49.3125 333.29688 50.5 333.29688Q51.828125 333.29688 52.3125 334.3125Q52.625 333.85938 53.125 333.57812Q53.640625 333.29688 54.328125 333.29688Q56.421875 333.29688 56.453125 335.5L56.453125 339.75L55.375 339.75L55.375 335.5625Q55.375 334.89062 55.0625 334.5625Q54.75 334.21875 54.015625 334.21875Q53.40625 334.21875 53.0 334.57812Q52.609375 334.9375 52.546875 335.54688L52.546875 339.75L51.46875 339.75L51.46875 335.59375Q51.46875 334.21875 50.109375 334.21875Q49.046875 334.21875 48.65625 335.125L48.65625 339.75L47.5625 339.75L47.5625 333.40625L48.59375 333.40625ZM62.265625 338.0625Q62.265625 337.625 61.921875 337.39062Q61.59375 337.14062 60.765625 336.96875Q59.953125 336.79688 59.46875 336.54688Q58.984375 336.29688 58.75 335.96875Q58.53125 335.625 58.53125 335.15625Q58.53125 334.375 59.1875 333.84375Q59.84375 333.29688 60.875 333.29688Q61.953125 333.29688 62.609375 333.85938Q63.28125 334.40625 63.28125 335.26562L62.203125 335.26562Q62.203125 334.82812 61.8125 334.51562Q61.4375 334.1875 60.875 334.1875Q60.28125 334.1875 59.9375 334.45312Q59.609375 334.70312 59.609375 335.10938Q59.609375 335.5 59.921875 335.70312Q60.234375 335.90625 61.046875 336.09375Q61.859375 336.26562 62.359375 336.51562Q62.859375 336.76562 63.09375 337.125Q63.34375 337.48438 63.34375 337.98438Q63.34375 338.84375 62.65625 339.35938Q61.984375 339.875 60.90625 339.875Q60.140625 339.875 59.546875 339.60938Q58.96875 339.32812 58.640625 338.84375Q58.3125 338.35938 58.3125 337.79688L59.390625 337.79688Q59.421875 338.34375 59.828125 338.67188Q60.234375 338.98438 60.90625 338.98438Q61.515625 338.98438 61.890625 338.73438Q62.265625 338.48438 62.265625 338.0625Z" fill-rule="nonzero"/><path fill="#757575" d="M32.046875 283.45L26.453125 283.45L26.453125 282.66876L29.40625 279.3875Q30.0625 278.6375 30.3125 278.1844Q30.5625 277.71564 30.5625 277.21564Q30.5625 276.54376 30.15625 276.1219Q29.765625 275.6844 29.078125 275.6844Q28.28125 275.6844 27.828125 276.15314Q27.375 276.60626 27.375 277.4344L26.296875 277.4344Q26.296875 276.2469 27.046875 275.52814Q27.8125 274.79376 29.078125 274.79376Q30.28125 274.79376 30.96875 275.41876Q31.65625 276.04376 31.65625 277.09064Q31.65625 278.34064 30.046875 280.09064L27.765625 282.5594L32.046875 282.5594L32.046875 283.45ZM33.953125 279.16876L34.390625 274.91876L38.765625 274.91876L38.765625 275.91876L35.3125 275.91876L35.046875 278.2469Q35.6875 277.8719 36.484375 277.8719Q37.640625 277.8719 38.328125 278.65314Q39.015625 279.41876 39.015625 280.73126Q39.015625 282.04376 38.296875 282.8094Q37.59375 283.575 36.3125 283.575Q35.1875 283.575 34.46875 282.95Q33.75 282.3094 33.65625 281.2L34.671875 281.2Q34.78125 281.9344 35.203125 282.3094Q35.625 282.6844 36.3125 282.6844Q37.0625 282.6844 37.5 282.16876Q37.9375 281.65314 37.9375 280.7469Q37.9375 279.8875 37.46875 279.3719Q37.0 278.85626 36.21875 278.85626Q35.515625 278.85626 35.109375 279.15314L34.828125 279.3875L33.953125 279.16876ZM45.8125 279.8094Q45.8125 281.71564 45.15625 282.65314Q44.515625 283.575 43.125 283.575Q41.765625 283.575 41.109375 282.66876Q40.453125 281.7625 40.421875 279.95L40.421875 278.5125Q40.421875 276.6219 41.0625 275.71564Q41.71875 274.79376 43.109375 274.79376Q44.484375 274.79376 45.140625 275.6844Q45.796875 276.5594 45.8125 278.40314L45.8125 279.8094ZM44.71875 278.325Q44.71875 276.95 44.328125 276.325Q43.953125 275.6844 43.109375 275.6844Q42.28125 275.6844 41.890625 276.325Q41.515625 276.95 41.515625 278.2469L41.515625 279.98126Q41.515625 281.35626 41.90625 282.02814Q42.3125 282.6844 43.125 282.6844Q43.921875 282.6844 44.3125 282.0594Q44.703125 281.4344 44.71875 280.10626L44.71875 278.325ZM48.59375 277.10626L48.625 277.8094Q49.3125 276.9969 50.5 276.9969Q51.828125 276.9969 52.3125 278.0125Q52.625 277.5594 53.125 277.27814Q53.640625 276.9969 54.328125 276.9969Q56.421875 276.9969 56.453125 279.2L56.453125 283.45L55.375 283.45L55.375 279.2625Q55.375 278.59064 55.0625 278.2625Q54.75 277.91876 54.015625 277.91876Q53.40625 277.91876 53.0 278.27814Q52.609375 278.6375 52.546875 279.2469L52.546875 283.45L51.46875 283.45L51.46875 279.29376Q51.46875 277.91876 50.109375 277.91876Q49.046875 277.91876 48.65625 278.825L48.65625 283.45L47.5625 283.45L47.5625 277.10626L48.59375 277.10626ZM62.265625 281.7625Q62.265625 281.325 61.921875 281.09064Q61.59375 280.84064 60.765625 280.66876Q59.953125 280.4969 59.46875 280.2469Q58.984375 279.9969 58.75 279.66876Q58.53125 279.325 58.53125 278.85626Q58.53125 278.075 59.1875 277.54376Q59.84375 276.9969 60.875 276.9969Q61.953125 276.9969 62.609375 277.5594Q63.28125 278.10626 63.28125 278.96564L62.203125 278.96564Q62.203125 278.52814 61.8125 278.21564Q61.4375 277.8875 60.875 277.8875Q60.28125 277.8875 59.9375 278.15314Q59.609375 278.40314 59.609375 278.8094Q59.609375 279.2 59.921875 279.40314Q60.234375 279.60626 61.046875 279.79376Q61.859375 279.96564 62.359375 280.21564Q62.859375 280.46564 63.09375 280.825Q63.34375 281.1844 63.34375 281.6844Q63.34375 282.54376 62.65625 283.0594Q61.984375 283.575 60.90625 283.575Q60.140625 283.575 59.546875 283.3094Q58.96875 283.02814 58.640625 282.54376Q58.3125 282.0594 58.3125 281.4969L59.390625 281.4969Q59.421875 282.04376 59.828125 282.3719Q60.234375 282.6844 60.90625 282.6844Q61.515625 282.6844 61.890625 282.4344Q62.265625 282.1844 62.265625 281.7625Z" fill-rule="nonzero"/><path fill="#757575" d="M26.953125 222.86874L27.390625 218.61874L31.765625 218.61874L31.765625 219.61874L28.3125 219.61874L28.046875 221.94687Q28.6875 221.57187 29.484375 221.57187Q30.640625 221.57187 31.328125 222.35312Q32.015625 223.11874 32.015625 224.43124Q32.015625 225.74374 31.296875 226.50937Q30.59375 227.275 29.3125 227.275Q28.1875 227.275 27.46875 226.65Q26.75 226.00937 26.65625 224.9L27.671875 224.9Q27.78125 225.63437 28.203125 226.00937Q28.625 226.38437 29.3125 226.38437Q30.0625 226.38437 30.5 225.86874Q30.9375 225.35312 30.9375 224.44687Q30.9375 223.5875 30.46875 223.07187Q30.0 222.55624 29.21875 222.55624Q28.515625 222.55624 28.109375 222.85312L27.828125 223.0875L26.953125 222.86874ZM38.8125 223.50937Q38.8125 225.41562 38.15625 226.35312Q37.515625 227.275 36.125 227.275Q34.765625 227.275 34.109375 226.36874Q33.453125 225.4625 33.421875 223.65L33.421875 222.2125Q33.421875 220.32187 34.0625 219.41562Q34.71875 218.49374 36.109375 218.49374Q37.484375 218.49374 38.140625 219.38437Q38.796875 220.25937 38.8125 222.10312L38.8125 223.50937ZM37.71875 222.025Q37.71875 220.65 37.328125 220.025Q36.953125 219.38437 36.109375 219.38437Q35.28125 219.38437 34.890625 220.025Q34.515625 220.65 34.515625 221.94687L34.515625 223.68124Q34.515625 225.05624 34.90625 225.72812Q35.3125 226.38437 36.125 226.38437Q36.921875 226.38437 37.3125 225.75937Q37.703125 225.13437 37.71875 223.80624L37.71875 222.025ZM45.8125 223.50937Q45.8125 225.41562 45.15625 226.35312Q44.515625 227.275 43.125 227.275Q41.765625 227.275 41.109375 226.36874Q40.453125 225.4625 40.421875 223.65L40.421875 222.2125Q40.421875 220.32187 41.0625 219.41562Q41.71875 218.49374 43.109375 218.49374Q44.484375 218.49374 45.140625 219.38437Q45.796875 220.25937 45.8125 222.10312L45.8125 223.50937ZM44.71875 222.025Q44.71875 220.65 44.328125 220.025Q43.953125 219.38437 43.109375 219.38437Q42.28125 219.38437 41.890625 220.025Q41.515625 220.65 41.515625 221.94687L41.515625 223.68124Q41.515625 225.05624 41.90625 225.72812Q42.3125 226.38437 43.125 226.38437Q43.921875 226.38437 44.3125 225.75937Q44.703125 225.13437 44.71875 223.80624L44.71875 222.025ZM48.59375 220.80624L48.625 221.50937Q49.3125 220.69687 50.5 220.69687Q51.828125 220.69687 52.3125 221.7125Q52.625 221.25937 53.125 220.97812Q53.640625 220.69687 54.328125 220.69687Q56.421875 220.69687 56.453125 222.9L56.453125 227.15L55.375 227.15L55.375 222.9625Q55.375 222.29062 55.0625 221.9625Q54.75 221.61874 54.015625 221.61874Q53.40625 221.61874 53.0 221.97812Q52.609375 222.3375 52.546875 222.94687L52.546875 227.15L51.46875 227.15L51.46875 222.99374Q51.46875 221.61874 50.109375 221.61874Q49.046875 221.61874 48.65625 222.525L48.65625 227.15L47.5625 227.15L47.5625 220.80624L48.59375 220.80624ZM62.265625 225.4625Q62.265625 225.025 61.921875 224.79062Q61.59375 224.54062 60.765625 224.36874Q59.953125 224.19687 59.46875 223.94687Q58.984375 223.69687 58.75 223.36874Q58.53125 223.025 58.53125 222.55624Q58.53125 221.775 59.1875 221.24374Q59.84375 220.69687 60.875 220.69687Q61.953125 220.69687 62.609375 221.25937Q63.28125 221.80624 63.28125 222.66562L62.203125 222.66562Q62.203125 222.22812 61.8125 221.91562Q61.4375 221.5875 60.875 221.5875Q60.28125 221.5875 59.9375 221.85312Q59.609375 222.10312 59.609375 222.50937Q59.609375 222.9 59.921875 223.10312Q60.234375 223.30624 61.046875 223.49374Q61.859375 223.66562 62.359375 223.91562Q62.859375 224.16562 63.09375 224.525Q63.34375 224.88437 63.34375 225.38437Q63.34375 226.24374 62.65625 226.75937Q61.984375 227.275 60.90625 227.275Q60.140625 227.275 59.546875 227.00937Q58.96875 226.72812 58.640625 226.24374Q58.3125 225.75937 58.3125 225.19687L59.390625 225.19687Q59.421875 225.74374 59.828125 226.07187Q60.234375 226.38437 60.90625 226.38437Q61.515625 226.38437 61.890625 226.13437Q62.265625 225.88437 62.265625 225.4625Z" fill-rule="nonzero"/><path fill="#757575" d="M31.96875 162.92813L28.4375 170.85L27.296875 170.85L30.8125 163.20938L26.203125 163.20938L26.203125 162.31876L31.96875 162.31876L31.96875 162.92813ZM33.953125 166.56876L34.390625 162.31876L38.765625 162.31876L38.765625 163.31876L35.3125 163.31876L35.046875 165.64688Q35.6875 165.27188 36.484375 165.27188Q37.640625 165.27188 38.328125 166.05313Q39.015625 166.81876 39.015625 168.13126Q39.015625 169.44376 38.296875 170.20938Q37.59375 170.975 36.3125 170.975Q35.1875 170.975 34.46875 170.35Q33.75 169.70938 33.65625 168.6L34.671875 168.6Q34.78125 169.33438 35.203125 169.70938Q35.625 170.08438 36.3125 170.08438Q37.0625 170.08438 37.5 169.56876Q37.9375 169.05313 37.9375 168.14688Q37.9375 167.2875 37.46875 166.77188Q37.0 166.25626 36.21875 166.25626Q35.515625 166.25626 35.109375 166.55313L34.828125 166.7875L33.953125 166.56876ZM45.8125 167.20938Q45.8125 169.11563 45.15625 170.05313Q44.515625 170.975 43.125 170.975Q41.765625 170.975 41.109375 170.06876Q40.453125 169.1625 40.421875 167.35L40.421875 165.9125Q40.421875 164.02188 41.0625 163.11563Q41.71875 162.19376 43.109375 162.19376Q44.484375 162.19376 45.140625 163.08438Q45.796875 163.95938 45.8125 165.80313L45.8125 167.20938ZM44.71875 165.725Q44.71875 164.35 44.328125 163.725Q43.953125 163.08438 43.109375 163.08438Q42.28125 163.08438 41.890625 163.725Q41.515625 164.35 41.515625 165.64688L41.515625 167.38126Q41.515625 168.75626 41.90625 169.42813Q42.3125 170.08438 43.125 170.08438Q43.921875 170.08438 44.3125 169.45938Q44.703125 168.83438 44.71875 167.50626L44.71875 165.725ZM48.59375 164.50626L48.625 165.20938Q49.3125 164.39688 50.5 164.39688Q51.828125 164.39688 52.3125 165.4125Q52.625 164.95938 53.125 164.67813Q53.640625 164.39688 54.328125 164.39688Q56.421875 164.39688 56.453125 166.6L56.453125 170.85L55.375 170.85L55.375 166.6625Q55.375 165.99063 55.0625 165.6625Q54.75 165.31876 54.015625 165.31876Q53.40625 165.31876 53.0 165.67813Q52.609375 166.0375 52.546875 166.64688L52.546875 170.85L51.46875 170.85L51.46875 166.69376Q51.46875 165.31876 50.109375 165.31876Q49.046875 165.31876 48.65625 166.225L48.65625 170.85L47.5625 170.85L47.5625 164.50626L48.59375 164.50626ZM62.265625 169.1625Q62.265625 168.725 61.921875 168.49063Q61.59375 168.24063 60.765625 168.06876Q59.953125 167.89688 59.46875 167.64688Q58.984375 167.39688 58.75 167.06876Q58.53125 166.725 58.53125 166.25626Q58.53125 165.475 59.1875 164.94376Q59.84375 164.39688 60.875 164.39688Q61.953125 164.39688 62.609375 164.95938Q63.28125 165.50626 63.28125 166.36563L62.203125 166.36563Q62.203125 165.92813 61.8125 165.61563Q61.4375 165.2875 60.875 165.2875Q60.28125 165.2875 59.9375 165.55313Q59.609375 165.80313 59.609375 166.20938Q59.609375 166.6 59.921875 166.80313Q60.234375 167.00626 61.046875 167.19376Q61.859375 167.36563 62.359375 167.61563Q62.859375 167.86563 63.09375 168.225Q63.34375 168.58438 63.34375 169.08438Q63.34375 169.94376 62.65625 170.45938Q61.984375 170.975 60.90625 170.975Q60.140625 170.975 59.546875 170.70938Q58.96875 170.42813 58.640625 169.94376Q58.3125 169.45938 58.3125 168.89688L59.390625 168.89688Q59.421875 169.44376 59.828125 169.77188Q60.234375 170.08438 60.90625 170.08438Q61.515625 170.08438 61.890625 169.83438Q62.265625 169.58438 62.265625 169.1625Z" fill-rule="nonzero"/><path fill="#757575" d="M23.015625 114.55L21.9375 114.55L21.9375 107.33125L19.75 108.12813L19.75 107.14375L22.859375 105.97188L23.015625 105.97188L23.015625 114.55ZM31.8125 110.90938Q31.8125 112.81563 31.15625 113.75313Q30.515625 114.675 29.125 114.675Q27.765625 114.675 27.109375 113.76875Q26.453125 112.8625 26.421875 111.05L26.421875 109.6125Q26.421875 107.72188 27.0625 106.81563Q27.71875 105.89375 29.109375 105.89375Q30.484375 105.89375 31.140625 106.78438Q31.796875 107.65938 31.8125 109.50313L31.8125 110.90938ZM30.71875 109.425Q30.71875 108.05 30.328125 107.425Q29.953125 106.78438 29.109375 106.78438Q28.28125 106.78438 27.890625 107.425Q27.515625 108.05 27.515625 109.34688L27.515625 111.08125Q27.515625 112.45625 27.90625 113.12813Q28.3125 113.78438 29.125 113.78438Q29.921875 113.78438 30.3125 113.15938Q30.703125 112.53438 30.71875 111.20625L30.71875 109.425ZM38.8125 110.90938Q38.8125 112.81563 38.15625 113.75313Q37.515625 114.675 36.125 114.675Q34.765625 114.675 34.109375 113.76875Q33.453125 112.8625 33.421875 111.05L33.421875 109.6125Q33.421875 107.72188 34.0625 106.81563Q34.71875 105.89375 36.109375 105.89375Q37.484375 105.89375 38.140625 106.78438Q38.796875 107.65938 38.8125 109.50313L38.8125 110.90938ZM37.71875 109.425Q37.71875 108.05 37.328125 107.425Q36.953125 106.78438 36.109375 106.78438Q35.28125 106.78438 34.890625 107.425Q34.515625 108.05 34.515625 109.34688L34.515625 111.08125Q34.515625 112.45625 34.90625 113.12813Q35.3125 113.78438 36.125 113.78438Q36.921875 113.78438 37.3125 113.15938Q37.703125 112.53438 37.71875 111.20625L37.71875 109.425ZM45.8125 110.90938Q45.8125 112.81563 45.15625 113.75313Q44.515625 114.675 43.125 114.675Q41.765625 114.675 41.109375 113.76875Q40.453125 112.8625 40.421875 111.05L40.421875 109.6125Q40.421875 107.72188 41.0625 106.81563Q41.71875 105.89375 43.109375 105.89375Q44.484375 105.89375 45.140625 106.78438Q45.796875 107.65938 45.8125 109.50313L45.8125 110.90938ZM44.71875 109.425Q44.71875 108.05 44.328125 107.425Q43.953125 106.78438 43.109375 106.78438Q42.28125 106.78438 41.890625 107.425Q41.515625 108.05 41.515625 109.34688L41.515625 111.08125Q41.515625 112.45625 41.90625 113.12813Q42.3125 113.78438 43.125 113.78438Q43.921875 113.78438 44.3125 113.15938Q44.703125 112.53438 44.71875 111.20625L44.71875 109.425ZM48.59375 108.20625L48.625 108.90938Q49.3125 108.09688 50.5 108.09688Q51.828125 108.09688 52.3125 109.1125Q52.625 108.65938 53.125 108.37813Q53.640625 108.09688 54.328125 108.09688Q56.421875 108.09688 56.453125 110.3L56.453125 114.55L55.375 114.55L55.375 110.3625Q55.375 109.69063 55.0625 109.3625Q54.75 109.01875 54.015625 109.01875Q53.40625 109.01875 53.0 109.37813Q52.609375 109.7375 52.546875 110.34688L52.546875 114.55L51.46875 114.55L51.46875 110.39375Q51.46875 109.01875 50.109375 109.01875Q49.046875 109.01875 48.65625 109.925L48.65625 114.55L47.5625 114.55L47.5625 108.20625L48.59375 108.20625ZM62.265625 112.8625Q62.265625 112.425 61.921875 112.19063Q61.59375 111.94063 60.765625 111.76875Q59.953125 111.59688 59.46875 111.34688Q58.984375 111.09688 58.75 110.76875Q58.53125 110.425 58.53125 109.95625Q58.53125 109.175 59.1875 108.64375Q59.84375 108.09688 60.875 108.09688Q61.953125 108.09688 62.609375 108.65938Q63.28125 109.20625 63.28125 110.06563L62.203125 110.06563Q62.203125 109.62813 61.8125 109.31563Q61.4375 108.9875 60.875 108.9875Q60.28125 108.9875 59.9375 109.25313Q59.609375 109.50313 59.609375 109.90938Q59.609375 110.3 59.921875 110.50313Q60.234375 110.70625 61.046875 110.89375Q61.859375 111.06563 62.359375 111.31563Q62.859375 111.56563 63.09375 111.925Q63.34375 112.28438 63.34375 112.78438Q63.34375 113.64375 62.65625 114.15938Q61.984375 114.675 60.90625 114.675Q60.140625 114.675 59.546875 114.40938Q58.96875 114.12813 58.640625 113.64375Q58.3125 113.15938 58.3125 112.59688L59.390625 112.59688Q59.421875 113.14375 59.828125 113.47188Q60.234375 113.78438 60.90625 113.78438Q61.515625 113.78438 61.890625 113.53438Q62.265625 113.28438 62.265625 112.8625Z" fill-rule="nonzero"/><path fill="#757575" d="M23.015625 58.25L21.9375 58.25L21.9375 51.03125L19.75 51.828125L19.75 50.84375L22.859375 49.671875L23.015625 49.671875L23.015625 58.25ZM32.046875 58.25L26.453125 58.25L26.453125 57.46875L29.40625 54.1875Q30.0625 53.4375 30.3125 52.984375Q30.5625 52.515625 30.5625 52.015625Q30.5625 51.34375 30.15625 50.921875Q29.765625 50.484375 29.078125 50.484375Q28.28125 50.484375 27.828125 50.953125Q27.375 51.40625 27.375 52.234375L26.296875 52.234375Q26.296875 51.046875 27.046875 50.328125Q27.8125 49.59375 29.078125 49.59375Q30.28125 49.59375 30.96875 50.21875Q31.65625 50.84375 31.65625 51.890625Q31.65625 53.140625 30.046875 54.890625L27.765625 57.359375L32.046875 57.359375L32.046875 58.25ZM33.953125 53.96875L34.390625 49.71875L38.765625 49.71875L38.765625 50.71875L35.3125 50.71875L35.046875 53.046875Q35.6875 52.671875 36.484375 52.671875Q37.640625 52.671875 38.328125 53.453125Q39.015625 54.21875 39.015625 55.53125Q39.015625 56.84375 38.296875 57.609375Q37.59375 58.375 36.3125 58.375Q35.1875 58.375 34.46875 57.75Q33.75 57.109375 33.65625 56.0L34.671875 56.0Q34.78125 56.734375 35.203125 57.109375Q35.625 57.484375 36.3125 57.484375Q37.0625 57.484375 37.5 56.96875Q37.9375 56.453125 37.9375 55.546875Q37.9375 54.6875 37.46875 54.171875Q37.0 53.65625 36.21875 53.65625Q35.515625 53.65625 35.109375 53.953125L34.828125 54.1875L33.953125 53.96875ZM45.8125 54.609375Q45.8125 56.515625 45.15625 57.453125Q44.515625 58.375 43.125 58.375Q41.765625 58.375 41.109375 57.46875Q40.453125 56.5625 40.421875 54.75L40.421875 53.3125Q40.421875 51.421875 41.0625 50.515625Q41.71875 49.59375 43.109375 49.59375Q44.484375 49.59375 45.140625 50.484375Q45.796875 51.359375 45.8125 53.203125L45.8125 54.609375ZM44.71875 53.125Q44.71875 51.75 44.328125 51.125Q43.953125 50.484375 43.109375 50.484375Q42.28125 50.484375 41.890625 51.125Q41.515625 51.75 41.515625 53.046875L41.515625 54.78125Q41.515625 56.15625 41.90625 56.828125Q42.3125 57.484375 43.125 57.484375Q43.921875 57.484375 44.3125 56.859375Q44.703125 56.234375 44.71875 54.90625L44.71875 53.125ZM48.59375 51.90625L48.625 52.609375Q49.3125 51.796875 50.5 51.796875Q51.828125 51.796875 52.3125 52.8125Q52.625 52.359375 53.125 52.078125Q53.640625 51.796875 54.328125 51.796875Q56.421875 51.796875 56.453125 54.0L56.453125 58.25L55.375 58.25L55.375 54.0625Q55.375 53.390625 55.0625 53.0625Q54.75 52.71875 54.015625 52.71875Q53.40625 52.71875 53.0 53.078125Q52.609375 53.4375 52.546875 54.046875L52.546875 58.25L51.46875 58.25L51.46875 54.09375Q51.46875 52.71875 50.109375 52.71875Q49.046875 52.71875 48.65625 53.625L48.65625 58.25L47.5625 58.25L47.5625 51.90625L48.59375 51.90625ZM62.265625 56.5625Q62.265625 56.125 61.921875 55.890625Q61.59375 55.640625 60.765625 55.46875Q59.953125 55.296875 59.46875 55.046875Q58.984375 54.796875 58.75 54.46875Q58.53125 54.125 58.53125 53.65625Q58.53125 52.875 59.1875 52.34375Q59.84375 51.796875 60.875 51.796875Q61.953125 51.796875 62.609375 52.359375Q63.28125 52.90625 63.28125 53.765625L62.203125 53.765625Q62.203125 53.328125 61.8125 53.015625Q61.4375 52.6875 60.875 52.6875Q60.28125 52.6875 59.9375 52.953125Q59.609375 53.203125 59.609375 53.609375Q59.609375 54.0 59.921875 54.203125Q60.234375 54.40625 61.046875 54.59375Q61.859375 54.765625 62.359375 55.015625Q62.859375 55.265625 63.09375 55.625Q63.34375 55.984375 63.34375 56.484375Q63.34375 57.34375 62.65625 57.859375Q61.984375 58.375 60.90625 58.375Q60.140625 58.375 59.546875 58.109375Q58.96875 57.828125 58.640625 57.34375Q58.3125 56.859375 58.3125 56.296875L59.390625 56.296875Q59.421875 56.84375 59.828125 57.171875Q60.234375 57.484375 60.90625 57.484375Q61.515625 57.484375 61.890625 57.234375Q62.265625 56.984375 62.265625 56.5625Z" fill-rule="nonzero"/><path fill="#757575" d="M113.640625 353.25L108.046875 353.25L108.046875 352.46875L111.0 349.1875Q111.65625 348.4375 111.90625 347.98438Q112.15625 347.51562 112.15625 347.01562Q112.15625 346.34375 111.75 345.92188Q111.359375 345.48438 110.671875 345.48438Q109.875 345.48438 109.421875 345.95312Q108.96875 346.40625 108.96875 347.23438L107.890625 347.23438Q107.890625 346.04688 108.640625 345.32812Q109.40625 344.59375 110.671875 344.59375Q111.875 344.59375 112.5625 345.21875Q113.25 345.84375 113.25 346.89062Q113.25 348.14062 111.640625 349.89062L109.359375 352.35938L113.640625 352.35938L113.640625 353.25ZM120.40625 349.60938Q120.40625 351.51562 119.75 352.45312Q119.109375 353.375 117.71875 353.375Q116.359375 353.375 115.703125 352.46875Q115.046875 351.5625 115.015625 349.75L115.015625 348.3125Q115.015625 346.42188 115.65625 345.51562Q116.3125 344.59375 117.703125 344.59375Q119.078125 344.59375 119.734375 345.48438Q120.390625 346.35938 120.40625 348.20312L120.40625 349.60938ZM119.3125 348.125Q119.3125 346.75 118.921875 346.125Q118.546875 345.48438 117.703125 345.48438Q116.875 345.48438 116.484375 346.125Q116.109375 346.75 116.109375 348.04688L116.109375 349.78125Q116.109375 351.15625 116.5 351.82812Q116.90625 352.48438 117.71875 352.48438Q118.515625 352.48438 118.90625 351.85938Q119.296875 351.23438 119.3125 349.90625L119.3125 348.125ZM125.609375 353.25L124.53125 353.25L124.53125 346.03125L122.34375 346.82812L122.34375 345.84375L125.453125 344.67188L125.609375 344.67188L125.609375 353.25ZM133.20312 349.5Q132.875 349.90625 132.39062 350.15625Q131.92188 350.39062 131.35938 350.39062Q130.625 350.39062 130.07812 350.03125Q129.53125 349.67188 129.23438 349.01562Q128.9375 348.34375 128.9375 347.54688Q128.9375 346.70312 129.25 346.01562Q129.57812 345.32812 130.17188 344.96875Q130.78125 344.59375 131.57812 344.59375Q132.84375 344.59375 133.5625 345.54688Q134.29688 346.5 134.29688 348.125L134.29688 348.4375Q134.29688 350.9375 133.3125 352.07812Q132.32812 353.21875 130.34375 353.25L130.125 353.25L130.125 352.34375L130.35938 352.34375Q131.70312 352.3125 132.42188 351.64062Q133.14062 350.96875 133.20312 349.5ZM131.53125 349.5Q132.07812 349.5 132.53125 349.17188Q133.0 348.82812 133.21875 348.34375L133.21875 347.90625Q133.21875 346.84375 132.75 346.17188Q132.28125 345.5 131.57812 345.5Q130.85938 345.5 130.42188 346.04688Q130.0 346.59375 130.0 347.5Q130.0 348.375 130.40625 348.9375Q130.82812 349.5 131.53125 349.5ZM138.42188 350.0625L135.5625 350.0625L135.5625 349.1875L138.42188 349.1875L138.42188 350.0625ZM144.40625 349.60938Q144.40625 351.51562 143.75 352.45312Q143.10938 353.375 141.71875 353.375Q140.35938 353.375 139.70312 352.46875Q139.04688 351.5625 139.01562 349.75L139.01562 348.3125Q139.01562 346.42188 139.65625 345.51562Q140.3125 344.59375 141.70312 344.59375Q143.07812 344.59375 143.73438 345.48438Q144.39062 346.35938 144.40625 348.20312L144.40625 349.60938ZM143.3125 348.125Q143.3125 346.75 142.92188 346.125Q142.54688 345.48438 141.70312 345.48438Q140.875 345.48438 140.48438 346.125Q140.10938 346.75 140.10938 348.04688L140.10938 349.78125Q140.10938 351.15625 140.5 351.82812Q140.90625 352.48438 141.71875 352.48438Q142.51562 352.48438 142.90625 351.85938Q143.29688 351.23438 143.3125 349.90625L143.3125 348.125ZM150.20312 349.5Q149.875 349.90625 149.39062 350.15625Q148.92188 350.39062 148.35938 350.39062Q147.625 350.39062 147.07812 350.03125Q146.53125 349.67188 146.23438 349.01562Q145.9375 348.34375 145.9375 347.54688Q145.9375 346.70312 146.25 346.01562Q146.57812 345.32812 147.17188 344.96875Q147.78125 344.59375 148.57812 344.59375Q149.84375 344.59375 150.5625 345.54688Q151.29688 346.5 151.29688 348.125L151.29688 348.4375Q151.29688 350.9375 150.3125 352.07812Q149.32812 353.21875 147.34375 353.25L147.125 353.25L147.125 352.34375L147.35938 352.34375Q148.70312 352.3125 149.42188 351.64062Q150.14062 350.96875 150.20312 349.5ZM148.53125 349.5Q149.07812 349.5 149.53125 349.17188Q150.0 348.82812 150.21875 348.34375L150.21875 347.90625Q150.21875 346.84375 149.75 346.17188Q149.28125 345.5 148.57812 345.5Q147.85938 345.5 147.42188 346.04688Q147.0 346.59375 147.0 347.5Q147.0 348.375 147.40625 348.9375Q147.82812 349.5 148.53125 349.5ZM155.42188 350.0625L152.5625 350.0625L152.5625 349.1875L155.42188 349.1875L155.42188 350.0625ZM159.60938 353.25L158.53125 353.25L158.53125 346.03125L156.34375 346.82812L156.34375 345.84375L159.45312 344.67188L159.60938 344.67188L159.60938 353.25ZM163.54688 348.96875L163.98438 344.71875L168.35938 344.71875L168.35938 345.71875L164.90625 345.71875L164.64062 348.04688Q165.28125 347.67188 166.07812 347.67188Q167.23438 347.67188 167.92188 348.45312Q168.60938 349.21875 168.60938 350.53125Q168.60938 351.84375 167.89062 352.60938Q167.1875 353.375 165.90625 353.375Q164.78125 353.375 164.0625 352.75Q163.34375 352.10938 163.25 351.0L164.26562 351.0Q164.375 351.73438 164.79688 352.10938Q165.21875 352.48438 165.90625 352.48438Q166.65625 352.48438 167.09375 351.96875Q167.53125 351.45312 167.53125 350.54688Q167.53125 349.6875 167.0625 349.17188Q166.59375 348.65625 165.8125 348.65625Q165.10938 348.65625 164.70312 348.95312L164.42188 349.1875L163.54688 348.96875Z" fill-rule="nonzero"/><path fill="#757575" d="M593.7969 353.25L588.2031 353.25L588.2031 352.46875L591.15625 349.1875Q591.8125 348.4375 592.0625 347.98438Q592.3125 347.51562 592.3125 347.01562Q592.3125 346.34375 591.90625 345.92188Q591.5156 345.48438 590.8281 345.48438Q590.03125 345.48438 589.5781 345.95312Q589.125 346.40625 589.125 347.23438L588.0469 347.23438Q588.0469 346.04688 588.7969 345.32812Q589.5625 344.59375 590.8281 344.59375Q592.03125 344.59375 592.71875 345.21875Q593.40625 345.84375 593.40625 346.89062Q593.40625 348.14062 591.7969 349.89062L589.5156 352.35938L593.7969 352.35938L593.7969 353.25ZM600.5625 349.60938Q600.5625 351.51562 599.90625 352.45312Q599.2656 353.375 597.875 353.375Q596.5156 353.375 595.8594 352.46875Q595.2031 351.5625 595.1719 349.75L595.1719 348.3125Q595.1719 346.42188 595.8125 345.51562Q596.46875 344.59375 597.8594 344.59375Q599.2344 344.59375 599.8906 345.48438Q600.5469 346.35938 600.5625 348.20312L600.5625 349.60938ZM599.46875 348.125Q599.46875 346.75 599.0781 346.125Q598.7031 345.48438 597.8594 345.48438Q597.03125 345.48438 596.6406 346.125Q596.2656 346.75 596.2656 348.04688L596.2656 349.78125Q596.2656 351.15625 596.65625 351.82812Q597.0625 352.48438 597.875 352.48438Q598.6719 352.48438 599.0625 351.85938Q599.4531 351.23438 599.46875 349.90625L599.46875 348.125ZM605.7656 353.25L604.6875 353.25L604.6875 346.03125L602.5 346.82812L602.5 345.84375L605.6094 344.67188L605.7656 344.67188L605.7656 353.25ZM613.3594 349.5Q613.03125 349.90625 612.5469 350.15625Q612.0781 350.39062 611.5156 350.39062Q610.78125 350.39062 610.2344 350.03125Q609.6875 349.67188 609.3906 349.01562Q609.09375 348.34375 609.09375 347.54688Q609.09375 346.70312 609.40625 346.01562Q609.7344 345.32812 610.3281 344.96875Q610.9375 344.59375 611.7344 344.59375Q613.0 344.59375 613.71875 345.54688Q614.4531 346.5 614.4531 348.125L614.4531 348.4375Q614.4531 350.9375 613.46875 352.07812Q612.4844 353.21875 610.5 353.25L610.28125 353.25L610.28125 352.34375L610.5156 352.34375Q611.8594 352.3125 612.5781 351.64062Q613.2969 350.96875 613.3594 349.5ZM611.6875 349.5Q612.2344 349.5 612.6875 349.17188Q613.15625 348.82812 613.375 348.34375L613.375 347.90625Q613.375 346.84375 612.90625 346.17188Q612.4375 345.5 611.7344 345.5Q611.0156 345.5 610.5781 346.04688Q610.15625 346.59375 610.15625 347.5Q610.15625 348.375 610.5625 348.9375Q610.9844 349.5 611.6875 349.5ZM618.5781 350.0625L615.71875 350.0625L615.71875 349.1875L618.5781 349.1875L618.5781 350.0625ZM624.5625 349.60938Q624.5625 351.51562 623.90625 352.45312Q623.2656 353.375 621.875 353.375Q620.5156 353.375 619.8594 352.46875Q619.2031 351.5625 619.1719 349.75L619.1719 348.3125Q619.1719 346.42188 619.8125 345.51562Q620.46875 344.59375 621.8594 344.59375Q623.2344 344.59375 623.8906 345.48438Q624.5469 346.35938 624.5625 348.20312L624.5625 349.60938ZM623.46875 348.125Q623.46875 346.75 623.0781 346.125Q622.7031 345.48438 621.8594 345.48438Q621.03125 345.48438 620.6406 346.125Q620.2656 346.75 620.2656 348.04688L620.2656 349.78125Q620.2656 351.15625 620.65625 351.82812Q621.0625 352.48438 621.875 352.48438Q622.6719 352.48438 623.0625 351.85938Q623.4531 351.23438 623.46875 349.90625L623.46875 348.125ZM630.3594 349.5Q630.03125 349.90625 629.5469 350.15625Q629.0781 350.39062 628.5156 350.39062Q627.78125 350.39062 627.2344 350.03125Q626.6875 349.67188 626.3906 349.01562Q626.09375 348.34375 626.09375 347.54688Q626.09375 346.70312 626.40625 346.01562Q626.7344 345.32812 627.3281 344.96875Q627.9375 344.59375 628.7344 344.59375Q630.0 344.59375 630.71875 345.54688Q631.4531 346.5 631.4531 348.125L631.4531 348.4375Q631.4531 350.9375 630.46875 352.07812Q629.4844 353.21875 627.5 353.25L627.28125 353.25L627.28125 352.34375L627.5156 352.34375Q628.8594 352.3125 629.5781 351.64062Q630.2969 350.96875 630.3594 349.5ZM628.6875 349.5Q629.2344 349.5 629.6875 349.17188Q630.15625 348.82812 630.375 348.34375L630.375 347.90625Q630.375 346.84375 629.90625 346.17188Q629.4375 345.5 628.7344 345.5Q628.0156 345.5 627.5781 346.04688Q627.15625 346.59375 627.15625 347.5Q627.15625 348.375 627.5625 348.9375Q627.9844 349.5 628.6875 349.5ZM635.5781 350.0625L632.71875 350.0625L632.71875 349.1875L635.5781 349.1875L635.5781 350.0625ZM641.7969 353.25L636.2031 353.25L636.2031 352.46875L639.15625 349.1875Q639.8125 348.4375 640.0625 347.98438Q640.3125 347.51562 640.3125 347.01562Q640.3125 346.34375 639.90625 345.92188Q639.5156 345.48438 638.8281 345.48438Q638.03125 345.48438 637.5781 345.95312Q637.125 346.40625 637.125 347.23438L636.0469 347.23438Q636.0469 346.04688 636.7969 345.32812Q637.5625 344.59375 638.8281 344.59375Q640.03125 344.59375 640.71875 345.21875Q641.40625 345.84375 641.40625 346.89062Q641.40625 348.14062 639.7969 349.89062L637.5156 352.35938L641.7969 352.35938L641.7969 353.25ZM648.7969 353.25L643.2031 353.25L643.2031 352.46875L646.15625 349.1875Q646.8125 348.4375 647.0625 347.98438Q647.3125 347.51562 647.3125 347.01562Q647.3125 346.34375 646.90625 345.92188Q646.5156 345.48438 645.8281 345.48438Q645.03125 345.48438 644.5781 345.95312Q644.125 346.40625 644.125 347.23438L643.0469 347.23438Q643.0469 346.04688 643.7969 345.32812Q644.5625 344.59375 645.8281 344.59375Q647.03125 344.59375 647.71875 345.21875Q648.40625 345.84375 648.40625 346.89062Q648.40625 348.14062 646.7969 349.89062L644.5156 352.35938L648.7969 352.35938L648.7969 353.25Z" fill-rule="nonzero"/><path fill="#757575" d="M1073.9531 353.25L1068.3594 353.25L1068.3594 352.46875L1071.3125 349.1875Q1071.9688 348.4375 1072.2188 347.98438Q1072.4688 347.51562 1072.4688 347.01562Q1072.4688 346.34375 1072.0625 345.92188Q1071.6719 345.48438 1070.9844 345.48438Q1070.1875 345.48438 1069.7344 345.95312Q1069.2812 346.40625 1069.2812 347.23438L1068.2031 347.23438Q1068.2031 346.04688 1068.9531 345.32812Q1069.7188 344.59375 1070.9844 344.59375Q1072.1875 344.59375 1072.875 345.21875Q1073.5625 345.84375 1073.5625 346.89062Q1073.5625 348.14062 1071.9531 349.89062L1069.6719 352.35938L1073.9531 352.35938L1073.9531 353.25ZM1080.7188 349.60938Q1080.7188 351.51562 1080.0625 352.45312Q1079.4219 353.375 1078.0312 353.375Q1076.6719 353.375 1076.0156 352.46875Q1075.3594 351.5625 1075.3281 349.75L1075.3281 348.3125Q1075.3281 346.42188 1075.9688 345.51562Q1076.625 344.59375 1078.0156 344.59375Q1079.3906 344.59375 1080.0469 345.48438Q1080.7031 346.35938 1080.7188 348.20312L1080.7188 349.60938ZM1079.625 348.125Q1079.625 346.75 1079.2344 346.125Q1078.8594 345.48438 1078.0156 345.48438Q1077.1875 345.48438 1076.7969 346.125Q1076.4219 346.75 1076.4219 348.04688L1076.4219 349.78125Q1076.4219 351.15625 1076.8125 351.82812Q1077.2188 352.48438 1078.0312 352.48438Q1078.8281 352.48438 1079.2188 351.85938Q1079.6094 351.23438 1079.625 349.90625L1079.625 348.125ZM1085.9219 353.25L1084.8438 353.25L1084.8438 346.03125L1082.6562 346.82812L1082.6562 345.84375L1085.7656 344.67188L1085.9219 344.67188L1085.9219 353.25ZM1093.5156 349.5Q1093.1875 349.90625 1092.7031 350.15625Q1092.2344 350.39062 1091.6719 350.39062Q1090.9375 350.39062 1090.3906 350.03125Q1089.8438 349.67188 1089.5469 349.01562Q1089.25 348.34375 1089.25 347.54688Q1089.25 346.70312 1089.5625 346.01562Q1089.8906 345.32812 1090.4844 344.96875Q1091.0938 344.59375 1091.8906 344.59375Q1093.1562 344.59375 1093.875 345.54688Q1094.6094 346.5 1094.6094 348.125L1094.6094 348.4375Q1094.6094 350.9375 1093.625 352.07812Q1092.6406 353.21875 1090.6562 353.25L1090.4375 353.25L1090.4375 352.34375L1090.6719 352.34375Q1092.0156 352.3125 1092.7344 351.64062Q1093.4531 350.96875 1093.5156 349.5ZM1091.8438 349.5Q1092.3906 349.5 1092.8438 349.17188Q1093.3125 348.82812 1093.5312 348.34375L1093.5312 347.90625Q1093.5312 346.84375 1093.0625 346.17188Q1092.5938 345.5 1091.8906 345.5Q1091.1719 345.5 1090.7344 346.04688Q1090.3125 346.59375 1090.3125 347.5Q1090.3125 348.375 1090.7188 348.9375Q1091.1406 349.5 1091.8438 349.5ZM1098.7344 350.0625L1095.875 350.0625L1095.875 349.1875L1098.7344 349.1875L1098.7344 350.0625ZM1104.7188 349.60938Q1104.7188 351.51562 1104.0625 352.45312Q1103.4219 353.375 1102.0312 353.375Q1100.6719 353.375 1100.0156 352.46875Q1099.3594 351.5625 1099.3281 349.75L1099.3281 348.3125Q1099.3281 346.42188 1099.9688 345.51562Q1100.625 344.59375 1102.0156 344.59375Q1103.3906 344.59375 1104.0469 345.48438Q1104.7031 346.35938 1104.7188 348.20312L1104.7188 349.60938ZM1103.625 348.125Q1103.625 346.75 1103.2344 346.125Q1102.8594 345.48438 1102.0156 345.48438Q1101.1875 345.48438 1100.7969 346.125Q1100.4219 346.75 1100.4219 348.04688L1100.4219 349.78125Q1100.4219 351.15625 1100.8125 351.82812Q1101.2188 352.48438 1102.0312 352.48438Q1102.8281 352.48438 1103.2188 351.85938Q1103.6094 351.23438 1103.625 349.90625L1103.625 348.125ZM1110.5156 349.5Q1110.1875 349.90625 1109.7031 350.15625Q1109.2344 350.39062 1108.6719 350.39062Q1107.9375 350.39062 1107.3906 350.03125Q1106.8438 349.67188 1106.5469 349.01562Q1106.25 348.34375 1106.25 347.54688Q1106.25 346.70312 1106.5625 346.01562Q1106.8906 345.32812 1107.4844 344.96875Q1108.0938 344.59375 1108.8906 344.59375Q1110.1562 344.59375 1110.875 345.54688Q1111.6094 346.5 1111.6094 348.125L1111.6094 348.4375Q1111.6094 350.9375 1110.625 352.07812Q1109.6406 353.21875 1107.6562 353.25L1107.4375 353.25L1107.4375 352.34375L1107.6719 352.34375Q1109.0156 352.3125 1109.7344 351.64062Q1110.4531 350.96875 1110.5156 349.5ZM1108.8438 349.5Q1109.3906 349.5 1109.8438 349.17188Q1110.3125 348.82812 1110.5312 348.34375L1110.5312 347.90625Q1110.5312 346.84375 1110.0625 346.17188Q1109.5938 345.5 1108.8906 345.5Q1108.1719 345.5 1107.7344 346.04688Q1107.3125 346.59375 1107.3125 347.5Q1107.3125 348.375 1107.7188 348.9375Q1108.1406 349.5 1108.8438 349.5ZM1115.7344 350.0625L1112.875 350.0625L1112.875 349.1875L1115.7344 349.1875L1115.7344 350.0625ZM1121.9531 353.25L1116.3594 353.25L1116.3594 352.46875L1119.3125 349.1875Q1119.9688 348.4375 1120.2188 347.98438Q1120.4688 347.51562 1120.4688 347.01562Q1120.4688 346.34375 1120.0625 345.92188Q1119.6719 345.48438 1118.9844 345.48438Q1118.1875 345.48438 1117.7344 345.95312Q1117.2812 346.40625 1117.2812 347.23438L1116.2031 347.23438Q1116.2031 346.04688 1116.9531 345.32812Q1117.7188 344.59375 1118.9844 344.59375Q1120.1875 344.59375 1120.875 345.21875Q1121.5625 345.84375 1121.5625 346.89062Q1121.5625 348.14062 1119.9531 349.89062L1117.6719 352.35938L1121.9531 352.35938L1121.9531 353.25ZM1127.5156 349.5Q1127.1875 349.90625 1126.7031 350.15625Q1126.2344 350.39062 1125.6719 350.39062Q1124.9375 350.39062 1124.3906 350.03125Q1123.8438 349.67188 1123.5469 349.01562Q1123.25 348.34375 1123.25 347.54688Q1123.25 346.70312 1123.5625 346.01562Q1123.8906 345.32812 1124.4844 344.96875Q1125.0938 344.59375 1125.8906 344.59375Q1127.1562 344.59375 1127.875 345.54688Q1128.6094 346.5 1128.6094 348.125L1128.6094 348.4375Q1128.6094 350.9375 1127.625 352.07812Q1126.6406 353.21875 1124.6562 353.25L1124.4375 353.25L1124.4375 352.34375L1124.6719 352.34375Q1126.0156 352.3125 1126.7344 351.64062Q1127.4531 350.96875 1127.5156 349.5ZM1125.8438 349.5Q1126.3906 349.5 1126.8438 349.17188Q1127.3125 348.82812 1127.5312 348.34375L1127.5312 347.90625Q1127.5312 346.84375 1127.0625 346.17188Q1126.5938 345.5 1125.8906 345.5Q1125.1719 345.5 1124.7344 346.04688Q1124.3125 346.59375 1124.3125 347.5Q1124.3125 348.375 1124.7188 348.9375Q1125.1406 349.5 1125.8438 349.5Z" fill-rule="nonzero"/><path stroke="#4285f4" stroke-width="4.0" stroke-linecap="butt" d="M332.0 26.25L344.0 26.25" fill-rule="nonzero"/><path fill="#757575" d="M354.4375 22.21875L357.23438 29.171875L360.01562 22.21875L361.48438 22.21875L361.48438 30.75L360.35938 30.75L360.35938 27.421875L360.46875 23.84375L357.65625 30.75L356.79688 30.75L354.0 23.859375L354.10938 27.421875L354.10938 30.75L352.98438 30.75L352.98438 22.21875L354.4375 22.21875ZM362.53125 27.515625Q362.53125 26.59375 362.89062 25.84375Q363.26562 25.09375 363.92188 24.703125Q364.57812 24.296875 365.40625 24.296875Q366.70312 24.296875 367.5 25.1875Q368.3125 26.078125 368.3125 27.578125L368.3125 27.65625Q368.3125 28.578125 367.95312 29.3125Q367.59375 30.046875 366.9375 30.46875Q366.28125 30.875 365.42188 30.875Q364.14062 30.875 363.32812 29.984375Q362.53125 29.078125 362.53125 27.59375L362.53125 27.515625ZM363.625 27.65625Q363.625 28.703125 364.10938 29.34375Q364.60938 29.984375 365.42188 29.984375Q366.25 29.984375 366.73438 29.34375Q367.21875 28.6875 367.21875 27.515625Q367.21875 26.484375 366.71875 25.84375Q366.23438 25.1875 365.40625 25.1875Q364.60938 25.1875 364.10938 25.828125Q363.625 26.453125 363.625 27.65625ZM370.84375 24.40625L370.875 25.203125Q371.60938 24.296875 372.78125 24.296875Q374.79688 24.296875 374.8125 26.5625L374.8125 30.75L373.71875 30.75L373.71875 26.546875Q373.71875 25.875 373.40625 25.546875Q373.10938 25.21875 372.45312 25.21875Q371.92188 25.21875 371.51562 25.5Q371.125 25.78125 370.90625 26.234375L370.90625 30.75L369.82812 30.75L369.82812 24.40625L370.84375 24.40625ZM377.84375 29.859375L381.54688 29.859375L381.54688 30.75L376.51562 30.75L376.51562 29.953125L380.01562 25.3125L376.5625 25.3125L376.5625 24.40625L381.375 24.40625L381.375 25.171875L377.84375 29.859375ZM382.53125 27.515625Q382.53125 26.59375 382.89062 25.84375Q383.26562 25.09375 383.92188 24.703125Q384.57812 24.296875 385.40625 24.296875Q386.70312 24.296875 387.5 25.1875Q388.3125 26.078125 388.3125 27.578125L388.3125 27.65625Q388.3125 28.578125 387.95312 29.3125Q387.59375 30.046875 386.9375 30.46875Q386.28125 30.875 385.42188 30.875Q384.14062 30.875 383.32812 29.984375Q382.53125 29.078125 382.53125 27.59375L382.53125 27.515625ZM383.625 27.65625Q383.625 28.703125 384.10938 29.34375Q384.60938 29.984375 385.42188 29.984375Q386.25 29.984375 386.73438 29.34375Q387.21875 28.6875 387.21875 27.515625Q387.21875 26.484375 386.71875 25.84375Q386.23438 25.1875 385.40625 25.1875Q384.60938 25.1875 384.10938 25.828125Q383.625 26.453125 383.625 27.65625ZM397.70312 28.515625L394.125 28.515625L393.32812 30.75L392.17188 30.75L395.42188 22.21875L396.40625 22.21875L399.67188 30.75L398.51562 30.75L397.70312 28.515625ZM394.46875 27.59375L397.375 27.59375L395.92188 23.609375L394.46875 27.59375ZM406.17188 27.65625Q406.17188 29.09375 405.51562 29.984375Q404.85938 30.875 403.71875 30.875Q402.5625 30.875 401.90625 30.140625L401.90625 33.1875L400.82812 33.1875L400.82812 24.40625L401.8125 24.40625L401.85938 25.109375Q402.53125 24.296875 403.70312 24.296875Q404.84375 24.296875 405.5 25.15625Q406.17188 26.015625 406.17188 27.546875L406.17188 27.65625ZM405.09375 27.53125Q405.09375 26.453125 404.625 25.84375Q404.17188 25.21875 403.375 25.21875Q402.39062 25.21875 401.90625 26.078125L401.90625 29.109375Q402.39062 29.984375 403.39062 29.984375Q404.17188 29.984375 404.625 29.375Q405.09375 28.75 405.09375 27.53125ZM413.17188 27.65625Q413.17188 29.09375 412.51562 29.984375Q411.85938 30.875 410.71875 30.875Q409.5625 30.875 408.90625 30.140625L408.90625 33.1875L407.82812 33.1875L407.82812 24.40625L408.8125 24.40625L408.85938 25.109375Q409.53125 24.296875 410.70312 24.296875Q411.84375 24.296875 412.5 25.15625Q413.17188 26.015625 413.17188 27.546875L413.17188 27.65625ZM412.09375 27.53125Q412.09375 26.453125 411.625 25.84375Q411.17188 25.21875 410.375 25.21875Q409.39062 25.21875 408.90625 26.078125L408.90625 29.109375Q409.39062 29.984375 410.39062 29.984375Q411.17188 29.984375 411.625 29.375Q412.09375 28.75 412.09375 27.53125Z" fill-rule="nonzero"/><path stroke="#db4437" stroke-width="4.0" stroke-linecap="butt" d="M430.0 26.25L442.0 26.25" fill-rule="nonzero"/><path fill="#757575" d="M457.54688 26.765625Q457.54688 28.015625 457.125 28.953125Q456.70312 29.875 455.92188 30.375Q455.15625 30.875 454.125 30.875Q453.125 30.875 452.34375 30.375Q451.5625 29.875 451.125 28.96875Q450.70312 28.046875 450.6875 26.828125L450.6875 26.21875Q450.6875 24.984375 451.10938 24.046875Q451.54688 23.109375 452.32812 22.609375Q453.10938 22.09375 454.125 22.09375Q455.14062 22.09375 455.92188 22.59375Q456.70312 23.09375 457.125 24.03125Q457.54688 24.96875 457.54688 26.21875L457.54688 26.765625ZM456.4375 26.203125Q456.4375 24.6875 455.82812 23.875Q455.21875 23.0625 454.125 23.0625Q453.04688 23.0625 452.4375 23.875Q451.82812 24.6875 451.8125 26.125L451.8125 26.765625Q451.8125 28.234375 452.42188 29.078125Q453.04688 29.90625 454.125 29.90625Q455.21875 29.90625 455.8125 29.125Q456.42188 28.328125 456.4375 26.84375L456.4375 26.203125ZM464.17188 27.65625Q464.17188 29.09375 463.51562 29.984375Q462.85938 30.875 461.71875 30.875Q460.5625 30.875 459.90625 30.140625L459.90625 33.1875L458.82812 33.1875L458.82812 24.40625L459.8125 24.40625L459.85938 25.109375Q460.53125 24.296875 461.70312 24.296875Q462.84375 24.296875 463.5 25.15625Q464.17188 26.015625 464.17188 27.546875L464.17188 27.65625ZM463.09375 27.53125Q463.09375 26.453125 462.625 25.84375Q462.17188 25.21875 461.375 25.21875Q460.39062 25.21875 459.90625 26.078125L459.90625 29.109375Q460.39062 29.984375 461.39062 29.984375Q462.17188 29.984375 462.625 29.375Q463.09375 28.75 463.09375 27.53125ZM468.45312 30.875Q467.15625 30.875 466.34375 30.03125Q465.54688 29.171875 465.54688 27.75L465.54688 27.5625Q465.54688 26.609375 465.90625 25.875Q466.26562 25.125 466.90625 24.71875Q467.5625 24.296875 468.3125 24.296875Q469.54688 24.296875 470.23438 25.109375Q470.92188 25.921875 470.92188 27.4375L470.92188 27.890625L466.625 27.890625Q466.65625 28.828125 467.17188 29.40625Q467.70312 29.984375 468.51562 29.984375Q469.07812 29.984375 469.46875 29.75Q469.875 29.515625 470.1875 29.125L470.84375 29.640625Q470.04688 30.875 468.45312 30.875ZM468.3125 25.1875Q467.65625 25.1875 467.20312 25.671875Q466.76562 26.140625 466.67188 27.0L469.84375 27.0L469.84375 26.921875Q469.79688 26.09375 469.39062 25.640625Q469.0 25.1875 468.3125 25.1875ZM472.84375 24.40625L472.875 25.203125Q473.60938 24.296875 474.78125 24.296875Q476.79688 24.296875 476.8125 26.5625L476.8125 30.75L475.71875 30.75L475.71875 26.546875Q475.71875 25.875 475.40625 25.546875Q475.10938 25.21875 474.45312 25.21875Q473.92188 25.21875 473.51562 25.5Q473.125 25.78125 472.90625 26.234375L472.90625 30.75L471.82812 30.75L471.82812 24.40625L472.84375 24.40625ZM481.98438 30.75L481.98438 22.21875L484.78125 22.21875Q486.17188 22.21875 486.85938 22.796875Q487.5625 23.359375 487.5625 24.484375Q487.5625 25.09375 487.21875 25.5625Q486.89062 26.015625 486.29688 26.265625Q487.0 26.453125 487.39062 27.0Q487.79688 27.53125 487.79688 28.28125Q487.79688 29.4375 487.04688 30.09375Q486.3125 30.75 484.95312 30.75L481.98438 30.75ZM483.10938 26.765625L483.10938 29.828125L484.96875 29.828125Q485.76562 29.828125 486.21875 29.421875Q486.67188 29.015625 486.67188 28.296875Q486.67188 26.765625 484.98438 26.765625L483.10938 26.765625ZM483.10938 25.859375L484.8125 25.859375Q485.54688 25.859375 485.98438 25.5Q486.4375 25.125 486.4375 24.484375Q486.4375 23.78125 486.03125 23.46875Q485.625 23.140625 484.78125 23.140625L483.10938 23.140625L483.10938 25.859375ZM492.73438 30.75Q492.64062 30.5625 492.57812 30.078125Q491.82812 30.875 490.78125 30.875Q489.84375 30.875 489.23438 30.34375Q488.64062 29.8125 488.64062 28.984375Q488.64062 28.0 489.39062 27.453125Q490.14062 26.90625 491.51562 26.90625L492.5625 26.90625L492.5625 26.40625Q492.5625 25.84375 492.21875 25.515625Q491.89062 25.171875 491.21875 25.171875Q490.64062 25.171875 490.25 25.46875Q489.85938 25.75 489.85938 26.171875L488.76562 26.171875Q488.76562 25.6875 489.09375 25.25Q489.4375 24.8125 490.01562 24.5625Q490.59375 24.296875 491.28125 24.296875Q492.39062 24.296875 493.0 24.84375Q493.625 25.390625 493.65625 26.34375L493.65625 29.265625Q493.65625 30.140625 493.875 30.65625L493.875 30.75L492.73438 30.75ZM490.9375 29.921875Q491.45312 29.921875 491.90625 29.65625Q492.35938 29.390625 492.5625 28.96875L492.5625 27.671875L491.71875 27.671875Q489.71875 27.671875 489.71875 28.84375Q489.71875 29.34375 490.0625 29.640625Q490.40625 29.921875 490.9375 29.921875ZM496.84375 24.40625L496.875 25.203125Q497.60938 24.296875 498.78125 24.296875Q500.79688 24.296875 500.8125 26.5625L500.8125 30.75L499.71875 30.75L499.71875 26.546875Q499.71875 25.875 499.40625 25.546875Q499.10938 25.21875 498.45312 25.21875Q497.92188 25.21875 497.51562 25.5Q497.125 25.78125 496.90625 26.234375L496.90625 30.75L495.82812 30.75L495.82812 24.40625L496.84375 24.40625ZM504.59375 27.8125L503.90625 28.515625L503.90625 30.75L502.82812 30.75L502.82812 21.75L503.90625 21.75L503.90625 27.1875L504.48438 26.5L506.46875 24.40625L507.78125 24.40625L505.3125 27.0625L508.07812 30.75L506.79688 30.75L504.59375 27.8125ZM510.0 30.75L508.92188 30.75L508.92188 24.40625L510.0 24.40625L510.0 30.75ZM508.82812 22.734375Q508.82812 22.46875 508.98438 22.28125Q509.15625 22.09375 509.46875 22.09375Q509.78125 22.09375 509.9375 22.28125Q510.10938 22.46875 510.10938 22.734375Q510.10938 22.984375 509.9375 23.171875Q509.78125 23.34375 509.46875 23.34375Q509.15625 23.34375 508.98438 23.171875Q508.82812 22.984375 508.82812 22.734375ZM512.84375 24.40625L512.875 25.203125Q513.6094 24.296875 514.78125 24.296875Q516.7969 24.296875 516.8125 26.5625L516.8125 30.75L515.71875 30.75L515.71875 26.546875Q515.71875 25.875 515.40625 25.546875Q515.1094 25.21875 514.4531 25.21875Q513.9219 25.21875 513.5156 25.5Q513.125 25.78125 512.90625 26.234375L512.90625 30.75L511.82812 30.75L511.82812 24.40625L512.84375 24.40625ZM518.5625 27.53125Q518.5625 26.046875 519.25 25.171875Q519.9375 24.296875 521.0625 24.296875Q522.21875 24.296875 522.875 25.109375L522.9219 24.40625L523.9219 24.40625L523.9219 30.59375Q523.9219 31.828125 523.1875 32.53125Q522.4531 33.25 521.2344 33.25Q520.5469 33.25 519.8906 32.953125Q519.2344 32.65625 518.8906 32.15625L519.4531 31.5Q520.1406 32.359375 521.15625 32.359375Q521.9375 32.359375 522.375 31.90625Q522.8281 31.46875 522.8281 30.65625L522.8281 30.109375Q522.1719 30.875 521.0469 30.875Q519.9375 30.875 519.25 29.984375Q518.5625 29.078125 518.5625 27.53125ZM519.65625 27.65625Q519.65625 28.71875 520.09375 29.34375Q520.53125 29.953125 521.3281 29.953125Q522.34375 29.953125 522.8281 29.015625L522.8281 26.125Q522.3281 25.21875 521.3281 25.21875Q520.5469 25.21875 520.09375 25.828125Q519.65625 26.4375 519.65625 27.65625ZM533.7031 28.515625L530.125 28.515625L529.3281 30.75L528.1719 30.75L531.4219 22.21875L532.40625 22.21875L535.6719 30.75L534.5156 30.75L533.7031 28.515625ZM530.46875 27.59375L533.375 27.59375L531.9219 23.609375L530.46875 27.59375ZM539.3594 29.984375Q539.9375 29.984375 540.375 29.640625Q540.8125 29.28125 540.8594 28.75L541.8906 28.75Q541.8594 29.296875 541.5 29.796875Q541.15625 30.28125 540.5781 30.578125Q540.0156 30.875 539.3594 30.875Q538.0625 30.875 537.2969 30.015625Q536.5469 29.140625 536.5469 27.640625L536.5469 27.453125Q536.5469 26.53125 536.875 25.8125Q537.21875 25.09375 537.84375 24.703125Q538.4844 24.296875 539.3594 24.296875Q540.4219 24.296875 541.125 24.9375Q541.84375 25.5625 541.8906 26.59375L540.8594 26.59375Q540.8125 25.96875 540.3906 25.578125Q539.96875 25.1875 539.3594 25.1875Q538.53125 25.1875 538.0781 25.78125Q537.625 26.375 537.625 27.5L537.625 27.703125Q537.625 28.796875 538.0781 29.390625Q538.53125 29.984375 539.3594 29.984375ZM545.3594 29.984375Q545.9375 29.984375 546.375 29.640625Q546.8125 29.28125 546.8594 28.75L547.8906 28.75Q547.8594 29.296875 547.5 29.796875Q547.15625 30.28125 546.5781 30.578125Q546.0156 30.875 545.3594 30.875Q544.0625 30.875 543.2969 30.015625Q542.5469 29.140625 542.5469 27.640625L542.5469 27.453125Q542.5469 26.53125 542.875 25.8125Q543.21875 25.09375 543.84375 24.703125Q544.4844 24.296875 545.3594 24.296875Q546.4219 24.296875 547.125 24.9375Q547.84375 25.5625 547.8906 26.59375L546.8594 26.59375Q546.8125 25.96875 546.3906 25.578125Q545.96875 25.1875 545.3594 25.1875Q544.53125 25.1875 544.0781 25.78125Q543.625 26.375 543.625 27.5L543.625 27.703125Q543.625 28.796875 544.0781 29.390625Q544.53125 29.984375 545.3594 29.984375ZM548.53125 27.515625Q548.53125 26.59375 548.8906 25.84375Q549.2656 25.09375 549.9219 24.703125Q550.5781 24.296875 551.40625 24.296875Q552.7031 24.296875 553.5 25.1875Q554.3125 26.078125 554.3125 27.578125L554.3125 27.65625Q554.3125 28.578125 553.9531 29.3125Q553.59375 30.046875 552.9375 30.46875Q552.28125 30.875 551.4219 30.875Q550.1406 30.875 549.3281 29.984375Q548.53125 29.078125 548.53125 27.59375L548.53125 27.515625ZM549.625 27.65625Q549.625 28.703125 550.1094 29.34375Q550.6094 29.984375 551.4219 29.984375Q552.25 29.984375 552.7344 29.34375Q553.21875 28.6875 553.21875 27.515625Q553.21875 26.484375 552.71875 25.84375Q552.2344 25.1875 551.40625 25.1875Q550.6094 25.1875 550.1094 25.828125Q549.625 26.453125 549.625 27.65625ZM559.7344 30.125Q559.1094 30.875 557.875 30.875Q556.8594 30.875 556.3281 30.28125Q555.7969 29.6875 555.7969 28.53125L555.7969 24.40625L556.875 24.40625L556.875 28.5Q556.875 29.953125 558.0469 29.953125Q559.2969 29.953125 559.7031 29.015625L559.7031 24.40625L560.7969 24.40625L560.7969 30.75L559.7656 30.75L559.7344 30.125ZM563.84375 24.40625L563.875 25.203125Q564.6094 24.296875 565.78125 24.296875Q567.7969 24.296875 567.8125 26.5625L567.8125 30.75L566.71875 30.75L566.71875 26.546875Q566.71875 25.875 566.40625 25.546875Q566.1094 25.21875 565.4531 25.21875Q564.9219 25.21875 564.5156 25.5Q564.125 25.78125 563.90625 26.234375L563.90625 30.75L562.8281 30.75L562.8281 24.40625L563.84375 24.40625ZM571.2969 22.875L571.2969 24.40625L572.46875 24.40625L572.46875 25.25L571.2969 25.25L571.2969 29.171875Q571.2969 29.5625 571.4531 29.75Q571.6094 29.9375 571.9844 29.9375Q572.1719 29.9375 572.5 29.875L572.5 30.75Q572.0781 30.875 571.6719 30.875Q570.9531 30.875 570.5781 30.4375Q570.2031 29.984375 570.2031 29.171875L570.2031 25.25L569.0469 25.25L569.0469 24.40625L570.2031 24.40625L570.2031 22.875L571.2969 22.875ZM578.2031 30.75L577.0781 30.75L577.0781 22.21875L578.2031 22.21875L578.2031 30.75ZM580.84375 24.40625L580.875 25.203125Q581.6094 24.296875 582.78125 24.296875Q584.7969 24.296875 584.8125 26.5625L584.8125 30.75L583.71875 30.75L583.71875 26.546875Q583.71875 25.875 583.40625 25.546875Q583.1094 25.21875 582.4531 25.21875Q581.9219 25.21875 581.5156 25.5Q581.125 25.78125 580.90625 26.234375L580.90625 30.75L579.8281 30.75L579.8281 24.40625L580.84375 24.40625ZM587.3594 30.75L587.3594 25.25L586.3594 25.25L586.3594 24.40625L587.3594 24.40625L587.3594 23.765625Q587.3594 22.734375 587.8906 22.1875Q588.4375 21.625 589.4375 21.625Q589.8125 21.625 590.1875 21.71875L590.125 22.609375Q589.84375 22.546875 589.5469 22.546875Q589.0156 22.546875 588.71875 22.859375Q588.4375 23.171875 588.4375 23.734375L588.4375 24.40625L589.7969 24.40625L589.7969 25.25L588.4375 25.25L588.4375 30.75L587.3594 30.75ZM590.53125 27.515625Q590.53125 26.59375 590.8906 25.84375Q591.2656 25.09375 591.9219 24.703125Q592.5781 24.296875 593.40625 24.296875Q594.7031 24.296875 595.5 25.1875Q596.3125 26.078125 596.3125 27.578125L596.3125 27.65625Q596.3125 28.578125 595.9531 29.3125Q595.59375 30.046875 594.9375 30.46875Q594.28125 30.875 593.4219 30.875Q592.1406 30.875 591.3281 29.984375Q590.53125 29.078125 590.53125 27.59375L590.53125 27.515625ZM591.625 27.65625Q591.625 28.703125 592.1094 29.34375Q592.6094 29.984375 593.4219 29.984375Q594.25 29.984375 594.7344 29.34375Q595.21875 28.6875 595.21875 27.515625Q595.21875 26.484375 594.71875 25.84375Q594.2344 25.1875 593.40625 25.1875Q592.6094 25.1875 592.1094 25.828125Q591.625 26.453125 591.625 27.65625ZM600.8906 25.375Q600.6406 25.34375 600.3594 25.34375Q599.28125 25.34375 598.90625 26.25L598.90625 30.75L597.8281 30.75L597.8281 24.40625L598.875 24.40625L598.8906 25.140625Q599.4219 24.296875 600.40625 24.296875Q600.71875 24.296875 600.8906 24.375L600.8906 25.375ZM602.84375 24.40625L602.875 25.109375Q603.5625 24.296875 604.75 24.296875Q606.0781 24.296875 606.5625 25.3125Q606.875 24.859375 607.375 24.578125Q607.8906 24.296875 608.5781 24.296875Q610.6719 24.296875 610.7031 26.5L610.7031 30.75L609.625 30.75L609.625 26.5625Q609.625 25.890625 609.3125 25.5625Q609.0 25.21875 608.2656 25.21875Q607.65625 25.21875 607.25 25.578125Q606.8594 25.9375 606.7969 26.546875L606.7969 30.75L605.71875 30.75L605.71875 26.59375Q605.71875 25.21875 604.3594 25.21875Q603.2969 25.21875 602.90625 26.125L602.90625 30.75L601.8125 30.75L601.8125 24.40625L602.84375 24.40625ZM616.7344 30.75Q616.6406 30.5625 616.5781 30.078125Q615.8281 30.875 614.78125 30.875Q613.84375 30.875 613.2344 30.34375Q612.6406 29.8125 612.6406 28.984375Q612.6406 28.0 613.3906 27.453125Q614.1406 26.90625 615.5156 26.90625L616.5625 26.90625L616.5625 26.40625Q616.5625 25.84375 616.21875 25.515625Q615.8906 25.171875 615.21875 25.171875Q614.6406 25.171875 614.25 25.46875Q613.8594 25.75 613.8594 26.171875L612.7656 26.171875Q612.7656 25.6875 613.09375 25.25Q613.4375 24.8125 614.0156 24.5625Q614.59375 24.296875 615.28125 24.296875Q616.3906 24.296875 617.0 24.84375Q617.625 25.390625 617.65625 26.34375L617.65625 29.265625Q617.65625 30.140625 617.875 30.65625L617.875 30.75L616.7344 30.75ZM614.9375 29.921875Q615.4531 29.921875 615.90625 29.65625Q616.3594 29.390625 616.5625 28.96875L616.5625 27.671875L615.71875 27.671875Q613.71875 27.671875 613.71875 28.84375Q613.71875 29.34375 614.0625 29.640625Q614.40625 29.921875 614.9375 29.921875ZM621.2969 22.875L621.2969 24.40625L622.46875 24.40625L622.46875 25.25L621.2969 25.25L621.2969 29.171875Q621.2969 29.5625 621.4531 29.75Q621.6094 29.9375 621.9844 29.9375Q622.1719 29.9375 622.5 29.875L622.5 30.75Q622.0781 30.875 621.6719 30.875Q620.9531 30.875 620.5781 30.4375Q620.2031 29.984375 620.2031 29.171875L620.2031 25.25L619.0469 25.25L619.0469 24.40625L620.2031 24.40625L620.2031 22.875L621.2969 22.875ZM625.0 30.75L623.9219 30.75L623.9219 24.40625L625.0 24.40625L625.0 30.75ZM623.8281 22.734375Q623.8281 22.46875 623.9844 22.28125Q624.15625 22.09375 624.46875 22.09375Q624.78125 22.09375 624.9375 22.28125Q625.1094 22.46875 625.1094 22.734375Q625.1094 22.984375 624.9375 23.171875Q624.78125 23.34375 624.46875 23.34375Q624.15625 23.34375 623.9844 23.171875Q623.8281 22.984375 623.8281 22.734375ZM626.53125 27.515625Q626.53125 26.59375 626.8906 25.84375Q627.2656 25.09375 627.9219 24.703125Q628.5781 24.296875 629.40625 24.296875Q630.7031 24.296875 631.5 25.1875Q632.3125 26.078125 632.3125 27.578125L632.3125 27.65625Q632.3125 28.578125 631.9531 29.3125Q631.59375 30.046875 630.9375 30.46875Q630.28125 30.875 629.4219 30.875Q628.1406 30.875 627.3281 29.984375Q626.53125 29.078125 626.53125 27.59375L626.53125 27.515625ZM627.625 27.65625Q627.625 28.703125 628.1094 29.34375Q628.6094 29.984375 629.4219 29.984375Q630.25 29.984375 630.7344 29.34375Q631.21875 28.6875 631.21875 27.515625Q631.21875 26.484375 630.71875 25.84375Q630.2344 25.1875 629.40625 25.1875Q628.6094 25.1875 628.1094 25.828125Q627.625 26.453125 627.625 27.65625ZM634.84375 24.40625L634.875 25.203125Q635.6094 24.296875 636.78125 24.296875Q638.7969 24.296875 638.8125 26.5625L638.8125 30.75L637.71875 30.75L637.71875 26.546875Q637.71875 25.875 637.40625 25.546875Q637.1094 25.21875 636.4531 25.21875Q635.9219 25.21875 635.5156 25.5Q635.125 25.78125 634.90625 26.234375L634.90625 30.75L633.8281 30.75L633.8281 24.40625L634.84375 24.40625Z" fill-rule="nonzero"/><path stroke="#f4b400" stroke-width="4.0" stroke-linecap="butt" d="M656.0 26.25L668.0 26.25" fill-rule="nonzero"/><path fill="#757575" d="M683.5469 26.765625Q683.5469 28.015625 683.125 28.953125Q682.7031 29.875 681.9219 30.375Q681.15625 30.875 680.125 30.875Q679.125 30.875 678.34375 30.375Q677.5625 29.875 677.125 28.96875Q676.7031 28.046875 676.6875 26.828125L676.6875 26.21875Q676.6875 24.984375 677.1094 24.046875Q677.5469 23.109375 678.3281 22.609375Q679.1094 22.09375 680.125 22.09375Q681.1406 22.09375 681.9219 22.59375Q682.7031 23.09375 683.125 24.03125Q683.5469 24.96875 683.5469 26.21875L683.5469 26.765625ZM682.4375 26.203125Q682.4375 24.6875 681.8281 23.875Q681.21875 23.0625 680.125 23.0625Q679.0469 23.0625 678.4375 23.875Q677.8281 24.6875 677.8125 26.125L677.8125 26.765625Q677.8125 28.234375 678.4219 29.078125Q679.0469 29.90625 680.125 29.90625Q681.21875 29.90625 681.8125 29.125Q682.4219 28.328125 682.4375 26.84375L682.4375 26.203125ZM690.1719 27.65625Q690.1719 29.09375 689.5156 29.984375Q688.8594 30.875 687.71875 30.875Q686.5625 30.875 685.90625 30.140625L685.90625 33.1875L684.8281 33.1875L684.8281 24.40625L685.8125 24.40625L685.8594 25.109375Q686.53125 24.296875 687.7031 24.296875Q688.84375 24.296875 689.5 25.15625Q690.1719 26.015625 690.1719 27.546875L690.1719 27.65625ZM689.09375 27.53125Q689.09375 26.453125 688.625 25.84375Q688.1719 25.21875 687.375 25.21875Q686.3906 25.21875 685.90625 26.078125L685.90625 29.109375Q686.3906 29.984375 687.3906 29.984375Q688.1719 29.984375 688.625 29.375Q689.09375 28.75 689.09375 27.53125ZM694.4531 30.875Q693.15625 30.875 692.34375 30.03125Q691.5469 29.171875 691.5469 27.75L691.5469 27.5625Q691.5469 26.609375 691.90625 25.875Q692.2656 25.125 692.90625 24.71875Q693.5625 24.296875 694.3125 24.296875Q695.5469 24.296875 696.2344 25.109375Q696.9219 25.921875 696.9219 27.4375L696.9219 27.890625L692.625 27.890625Q692.65625 28.828125 693.1719 29.40625Q693.7031 29.984375 694.5156 29.984375Q695.0781 29.984375 695.46875 29.75Q695.875 29.515625 696.1875 29.125L696.84375 29.640625Q696.0469 30.875 694.4531 30.875ZM694.3125 25.1875Q693.65625 25.1875 693.2031 25.671875Q692.7656 26.140625 692.6719 27.0L695.84375 27.0L695.84375 26.921875Q695.7969 26.09375 695.3906 25.640625Q695.0 25.1875 694.3125 25.1875ZM698.84375 24.40625L698.875 25.203125Q699.6094 24.296875 700.78125 24.296875Q702.7969 24.296875 702.8125 26.5625L702.8125 30.75L701.71875 30.75L701.71875 26.546875Q701.71875 25.875 701.40625 25.546875Q701.1094 25.21875 700.4531 25.21875Q699.9219 25.21875 699.5156 25.5Q699.125 25.78125 698.90625 26.234375L698.90625 30.75L697.8281 30.75L697.8281 24.40625L698.84375 24.40625ZM707.9844 30.75L707.9844 22.21875L710.78125 22.21875Q712.1719 22.21875 712.8594 22.796875Q713.5625 23.359375 713.5625 24.484375Q713.5625 25.09375 713.21875 25.5625Q712.8906 26.015625 712.2969 26.265625Q713.0 26.453125 713.3906 27.0Q713.7969 27.53125 713.7969 28.28125Q713.7969 29.4375 713.0469 30.09375Q712.3125 30.75 710.9531 30.75L707.9844 30.75ZM709.1094 26.765625L709.1094 29.828125L710.96875 29.828125Q711.7656 29.828125 712.21875 29.421875Q712.6719 29.015625 712.6719 28.296875Q712.6719 26.765625 710.9844 26.765625L709.1094 26.765625ZM709.1094 25.859375L710.8125 25.859375Q711.5469 25.859375 711.9844 25.5Q712.4375 25.125 712.4375 24.484375Q712.4375 23.78125 712.03125 23.46875Q711.625 23.140625 710.78125 23.140625L709.1094 23.140625L709.1094 25.859375ZM718.7344 30.75Q718.6406 30.5625 718.5781 30.078125Q717.8281 30.875 716.78125 30.875Q715.84375 30.875 715.2344 30.34375Q714.6406 29.8125 714.6406 28.984375Q714.6406 28.0 715.3906 27.453125Q716.1406 26.90625 717.5156 26.90625L718.5625 26.90625L718.5625 26.40625Q718.5625 25.84375 718.21875 25.515625Q717.8906 25.171875 717.21875 25.171875Q716.6406 25.171875 716.25 25.46875Q715.8594 25.75 715.8594 26.171875L714.7656 26.171875Q714.7656 25.6875 715.09375 25.25Q715.4375 24.8125 716.0156 24.5625Q716.59375 24.296875 717.28125 24.296875Q718.3906 24.296875 719.0 24.84375Q719.625 25.390625 719.65625 26.34375L719.65625 29.265625Q719.65625 30.140625 719.875 30.65625L719.875 30.75L718.7344 30.75ZM716.9375 29.921875Q717.4531 29.921875 717.90625 29.65625Q718.3594 29.390625 718.5625 28.96875L718.5625 27.671875L717.71875 27.671875Q715.71875 27.671875 715.71875 28.84375Q715.71875 29.34375 716.0625 29.640625Q716.40625 29.921875 716.9375 29.921875ZM722.84375 24.40625L722.875 25.203125Q723.6094 24.296875 724.78125 24.296875Q726.7969 24.296875 726.8125 26.5625L726.8125 30.75L725.71875 30.75L725.71875 26.546875Q725.71875 25.875 725.40625 25.546875Q725.1094 25.21875 724.4531 25.21875Q723.9219 25.21875 723.5156 25.5Q723.125 25.78125 722.90625 26.234375L722.90625 30.75L721.8281 30.75L721.8281 24.40625L722.84375 24.40625ZM730.59375 27.8125L729.90625 28.515625L729.90625 30.75L728.8281 30.75L728.8281 21.75L729.90625 21.75L729.90625 27.1875L730.4844 26.5L732.46875 24.40625L733.78125 24.40625L731.3125 27.0625L734.0781 30.75L732.7969 30.75L730.59375 27.8125ZM736.0 30.75L734.9219 30.75L734.9219 24.40625L736.0 24.40625L736.0 30.75ZM734.8281 22.734375Q734.8281 22.46875 734.9844 22.28125Q735.15625 22.09375 735.46875 22.09375Q735.78125 22.09375 735.9375 22.28125Q736.1094 22.46875 736.1094 22.734375Q736.1094 22.984375 735.9375 23.171875Q735.78125 23.34375 735.46875 23.34375Q735.15625 23.34375 734.9844 23.171875Q734.8281 22.984375 734.8281 22.734375ZM738.84375 24.40625L738.875 25.203125Q739.6094 24.296875 740.78125 24.296875Q742.7969 24.296875 742.8125 26.5625L742.8125 30.75L741.71875 30.75L741.71875 26.546875Q741.71875 25.875 741.40625 25.546875Q741.1094 25.21875 740.4531 25.21875Q739.9219 25.21875 739.5156 25.5Q739.125 25.78125 738.90625 26.234375L738.90625 30.75L737.8281 30.75L737.8281 24.40625L738.84375 24.40625ZM744.5625 27.53125Q744.5625 26.046875 745.25 25.171875Q745.9375 24.296875 747.0625 24.296875Q748.21875 24.296875 748.875 25.109375L748.9219 24.40625L749.9219 24.40625L749.9219 30.59375Q749.9219 31.828125 749.1875 32.53125Q748.4531 33.25 747.2344 33.25Q746.5469 33.25 745.8906 32.953125Q745.2344 32.65625 744.8906 32.15625L745.4531 31.5Q746.1406 32.359375 747.15625 32.359375Q747.9375 32.359375 748.375 31.90625Q748.8281 31.46875 748.8281 30.65625L748.8281 30.109375Q748.1719 30.875 747.0469 30.875Q745.9375 30.875 745.25 29.984375Q744.5625 29.078125 744.5625 27.53125ZM745.65625 27.65625Q745.65625 28.71875 746.09375 29.34375Q746.53125 29.953125 747.3281 29.953125Q748.34375 29.953125 748.8281 29.015625L748.8281 26.125Q748.3281 25.21875 747.3281 25.21875Q746.5469 25.21875 746.09375 25.828125Q745.65625 26.4375 745.65625 27.65625ZM756.1094 27.40625L756.1094 30.75L754.9844 30.75L754.9844 22.21875L758.1406 22.21875Q759.53125 22.21875 760.3281 22.9375Q761.125 23.640625 761.125 24.828125Q761.125 26.0625 760.34375 26.734375Q759.5781 27.40625 758.125 27.40625L756.1094 27.40625ZM756.1094 26.484375L758.1406 26.484375Q759.0469 26.484375 759.5156 26.0625Q760.0 25.640625 760.0 24.84375Q760.0 24.078125 759.5156 23.625Q759.0469 23.15625 758.2031 23.140625L756.1094 23.140625L756.1094 26.484375ZM766.7344 30.75Q766.6406 30.5625 766.5781 30.078125Q765.8281 30.875 764.78125 30.875Q763.84375 30.875 763.2344 30.34375Q762.6406 29.8125 762.6406 28.984375Q762.6406 28.0 763.3906 27.453125Q764.1406 26.90625 765.5156 26.90625L766.5625 26.90625L766.5625 26.40625Q766.5625 25.84375 766.21875 25.515625Q765.8906 25.171875 765.21875 25.171875Q764.6406 25.171875 764.25 25.46875Q763.8594 25.75 763.8594 26.171875L762.7656 26.171875Q762.7656 25.6875 763.09375 25.25Q763.4375 24.8125 764.0156 24.5625Q764.59375 24.296875 765.28125 24.296875Q766.3906 24.296875 767.0 24.84375Q767.625 25.390625 767.65625 26.34375L767.65625 29.265625Q767.65625 30.140625 767.875 30.65625L767.875 30.75L766.7344 30.75ZM764.9375 29.921875Q765.4531 29.921875 765.90625 29.65625Q766.3594 29.390625 766.5625 28.96875L766.5625 27.671875L765.71875 27.671875Q763.71875 27.671875 763.71875 28.84375Q763.71875 29.34375 764.0625 29.640625Q764.40625 29.921875 764.9375 29.921875ZM771.8906 29.15625L773.375 24.40625L774.53125 24.40625L771.9844 31.734375Q771.3906 33.3125 770.1094 33.3125L769.8906 33.296875L769.5 33.21875L769.5 32.34375L769.78125 32.359375Q770.34375 32.359375 770.6406 32.140625Q770.9531 31.921875 771.15625 31.328125L771.3906 30.671875L769.125 24.40625L770.3125 24.40625L771.8906 29.15625ZM776.84375 24.40625L776.875 25.109375Q777.5625 24.296875 778.75 24.296875Q780.0781 24.296875 780.5625 25.3125Q780.875 24.859375 781.375 24.578125Q781.8906 24.296875 782.5781 24.296875Q784.6719 24.296875 784.7031 26.5L784.7031 30.75L783.625 30.75L783.625 26.5625Q783.625 25.890625 783.3125 25.5625Q783.0 25.21875 782.2656 25.21875Q781.65625 25.21875 781.25 25.578125Q780.8594 25.9375 780.7969 26.546875L780.7969 30.75L779.71875 30.75L779.71875 26.59375Q779.71875 25.21875 778.3594 25.21875Q777.2969 25.21875 776.90625 26.125L776.90625 30.75L775.8125 30.75L775.8125 24.40625L776.84375 24.40625ZM789.4531 30.875Q788.15625 30.875 787.34375 30.03125Q786.5469 29.171875 786.5469 27.75L786.5469 27.5625Q786.5469 26.609375 786.90625 25.875Q787.2656 25.125 787.90625 24.71875Q788.5625 24.296875 789.3125 24.296875Q790.5469 24.296875 791.2344 25.109375Q791.9219 25.921875 791.9219 27.4375L791.9219 27.890625L787.625 27.890625Q787.65625 28.828125 788.1719 29.40625Q788.7031 29.984375 789.5156 29.984375Q790.0781 29.984375 790.46875 29.75Q790.875 29.515625 791.1875 29.125L791.84375 29.640625Q791.0469 30.875 789.4531 30.875ZM789.3125 25.1875Q788.65625 25.1875 788.2031 25.671875Q787.7656 26.140625 787.6719 27.0L790.84375 27.0L790.84375 26.921875Q790.7969 26.09375 790.3906 25.640625Q790.0 25.1875 789.3125 25.1875ZM793.84375 24.40625L793.875 25.203125Q794.6094 24.296875 795.78125 24.296875Q797.7969 24.296875 797.8125 26.5625L797.8125 30.75L796.71875 30.75L796.71875 26.546875Q796.71875 25.875 796.40625 25.546875Q796.1094 25.21875 795.4531 25.21875Q794.9219 25.21875 794.5156 25.5Q794.125 25.78125 793.90625 26.234375L793.90625 30.75L792.8281 30.75L792.8281 24.40625L793.84375 24.40625ZM801.2969 22.875L801.2969 24.40625L802.46875 24.40625L802.46875 25.25L801.2969 25.25L801.2969 29.171875Q801.2969 29.5625 801.4531 29.75Q801.6094 29.9375 801.9844 29.9375Q802.1719 29.9375 802.5 29.875L802.5 30.75Q802.0781 30.875 801.6719 30.875Q800.9531 30.875 800.5781 30.4375Q800.2031 29.984375 800.2031 29.171875L800.2031 25.25L799.0469 25.25L799.0469 24.40625L800.2031 24.40625L800.2031 22.875L801.2969 22.875ZM808.2031 30.75L807.0781 30.75L807.0781 22.21875L808.2031 22.21875L808.2031 30.75ZM810.84375 24.40625L810.875 25.203125Q811.6094 24.296875 812.78125 24.296875Q814.7969 24.296875 814.8125 26.5625L814.8125 30.75L813.71875 30.75L813.71875 26.546875Q813.71875 25.875 813.40625 25.546875Q813.1094 25.21875 812.4531 25.21875Q811.9219 25.21875 811.5156 25.5Q811.125 25.78125 810.90625 26.234375L810.90625 30.75L809.8281 30.75L809.8281 24.40625L810.84375 24.40625ZM818.0 30.75L816.9219 30.75L816.9219 24.40625L818.0 24.40625L818.0 30.75ZM816.8281 22.734375Q816.8281 22.46875 816.9844 22.28125Q817.15625 22.09375 817.46875 22.09375Q817.78125 22.09375 817.9375 22.28125Q818.1094 22.46875 818.1094 22.734375Q818.1094 22.984375 817.9375 23.171875Q817.78125 23.34375 817.46875 23.34375Q817.15625 23.34375 816.9844 23.171875Q816.8281 22.984375 816.8281 22.734375ZM821.2969 22.875L821.2969 24.40625L822.46875 24.40625L822.46875 25.25L821.2969 25.25L821.2969 29.171875Q821.2969 29.5625 821.4531 29.75Q821.6094 29.9375 821.9844 29.9375Q822.1719 29.9375 822.5 29.875L822.5 30.75Q822.0781 30.875 821.6719 30.875Q820.9531 30.875 820.5781 30.4375Q820.2031 29.984375 820.2031 29.171875L820.2031 25.25L819.0469 25.25L819.0469 24.40625L820.2031 24.40625L820.2031 22.875L821.2969 22.875ZM825.0 30.75L823.9219 30.75L823.9219 24.40625L825.0 24.40625L825.0 30.75ZM823.8281 22.734375Q823.8281 22.46875 823.9844 22.28125Q824.15625 22.09375 824.46875 22.09375Q824.78125 22.09375 824.9375 22.28125Q825.1094 22.46875 825.1094 22.734375Q825.1094 22.984375 824.9375 23.171875Q824.78125 23.34375 824.46875 23.34375Q824.15625 23.34375 823.9844 23.171875Q823.8281 22.984375 823.8281 22.734375ZM830.7344 30.75Q830.6406 30.5625 830.5781 30.078125Q829.8281 30.875 828.78125 30.875Q827.84375 30.875 827.2344 30.34375Q826.6406 29.8125 826.6406 28.984375Q826.6406 28.0 827.3906 27.453125Q828.1406 26.90625 829.5156 26.90625L830.5625 26.90625L830.5625 26.40625Q830.5625 25.84375 830.21875 25.515625Q829.8906 25.171875 829.21875 25.171875Q828.6406 25.171875 828.25 25.46875Q827.8594 25.75 827.8594 26.171875L826.7656 26.171875Q826.7656 25.6875 827.09375 25.25Q827.4375 24.8125 828.0156 24.5625Q828.59375 24.296875 829.28125 24.296875Q830.3906 24.296875 831.0 24.84375Q831.625 25.390625 831.65625 26.34375L831.65625 29.265625Q831.65625 30.140625 831.875 30.65625L831.875 30.75L830.7344 30.75ZM828.9375 29.921875Q829.4531 29.921875 829.90625 29.65625Q830.3594 29.390625 830.5625 28.96875L830.5625 27.671875L829.71875 27.671875Q827.71875 27.671875 827.71875 28.84375Q827.71875 29.34375 828.0625 29.640625Q828.40625 29.921875 828.9375 29.921875ZM835.2969 22.875L835.2969 24.40625L836.46875 24.40625L836.46875 25.25L835.2969 25.25L835.2969 29.171875Q835.2969 29.5625 835.4531 29.75Q835.6094 29.9375 835.9844 29.9375Q836.1719 29.9375 836.5 29.875L836.5 30.75Q836.0781 30.875 835.6719 30.875Q834.9531 30.875 834.5781 30.4375Q834.2031 29.984375 834.2031 29.171875L834.2031 25.25L833.0469 25.25L833.0469 24.40625L834.2031 24.40625L834.2031 22.875L835.2969 22.875ZM839.0 30.75L837.9219 30.75L837.9219 24.40625L839.0 24.40625L839.0 30.75ZM837.8281 22.734375Q837.8281 22.46875 837.9844 22.28125Q838.15625 22.09375 838.46875 22.09375Q838.78125 22.09375 838.9375 22.28125Q839.1094 22.46875 839.1094 22.734375Q839.1094 22.984375 838.9375 23.171875Q838.78125 23.34375 838.46875 23.34375Q838.15625 23.34375 837.9844 23.171875Q837.8281 22.984375 837.8281 22.734375ZM840.53125 27.515625Q840.53125 26.59375 840.8906 25.84375Q841.2656 25.09375 841.9219 24.703125Q842.5781 24.296875 843.40625 24.296875Q844.7031 24.296875 845.5 25.1875Q846.3125 26.078125 846.3125 27.578125L846.3125 27.65625Q846.3125 28.578125 845.9531 29.3125Q845.59375 30.046875 844.9375 30.46875Q844.28125 30.875 843.4219 30.875Q842.1406 30.875 841.3281 29.984375Q840.53125 29.078125 840.53125 27.59375L840.53125 27.515625ZM841.625 27.65625Q841.625 28.703125 842.1094 29.34375Q842.6094 29.984375 843.4219 29.984375Q844.25 29.984375 844.7344 29.34375Q845.21875 28.6875 845.21875 27.515625Q845.21875 26.484375 844.71875 25.84375Q844.2344 25.1875 843.40625 25.1875Q842.6094 25.1875 842.1094 25.828125Q841.625 26.453125 841.625 27.65625ZM848.84375 24.40625L848.875 25.203125Q849.6094 24.296875 850.78125 24.296875Q852.7969 24.296875 852.8125 26.5625L852.8125 30.75L851.71875 30.75L851.71875 26.546875Q851.71875 25.875 851.40625 25.546875Q851.1094 25.21875 850.4531 25.21875Q849.9219 25.21875 849.5156 25.5Q849.125 25.78125 848.90625 26.234375L848.90625 30.75L847.8281 30.75L847.8281 24.40625L848.84375 24.40625Z" fill-rule="nonzero"/></svg>