<svg width="391" height="49" xmlns="http://www.w3.org/2000/svg"><g fill-rule="nonzero" fill="none"><path d="M66.542 21.827v-5.161c0-2.834-.86-3.998-2.277-3.998-1.922 0-3.086 2.379-3.339 9.16h5.616zm26.11-2.023c0-2.38-1.469-3.138-3.037-3.138-1.062 0-2.378.557-2.884.91v16.698c0 2.025.76 2.633 2.429 2.936v.556H75.245v-.556c.962-.202 2.227-.861 2.227-3.087V15.502c0-2.227-.608-2.834-2.227-3.137v-.557h11.74l-.304 5.11c1.619-3.036 4.452-5.616 8.349-5.616 3.44 0 6.88 1.62 6.88 7.49v15.331c0 1.67.254 2.732 1.924 3.087v.556H90.677v-.556c1.215-.303 1.975-1.164 1.975-3.087v-14.32zm13.965-4.302c0-1.67-.506-2.834-2.125-3.137v-.557h11.384v22.315c0 1.62.607 2.885 2.277 3.087v.556H104.34v-.556c1.669-.202 2.277-1.468 2.277-3.087V15.502zm9.512-10.322c0 2.732-2.277 4.908-5.01 4.908-2.732 0-4.958-2.176-4.958-4.908 0-2.683 2.226-4.858 4.959-4.858 2.732 0 5.01 2.175 5.01 4.858zm19.633 14.624c0-2.38-1.468-3.138-3.036-3.138-1.063 0-2.38.557-2.885.91v16.698c0 2.025.709 2.633 2.429 2.936v.556h-13.611v-.556c.91-.202 1.922-.861 1.922-3.087V15.502c0-2.227-.606-2.834-2.226-3.137v-.557h11.74l-.305 5.11c1.62-3.036 4.453-5.616 8.35-5.616 3.44 0 6.88 1.62 6.88 7.49v15.331c0 1.67.254 2.732 1.923 3.087v.556h-13.155v-.556c1.214-.303 1.974-1.164 1.974-3.087v-14.32zm25.754-.153c0-4.908-.556-7.083-2.226-7.083-1.771 0-2.48 2.175-2.48 7.083v.81c0 4.908.709 7.084 2.48 7.084 1.67 0 2.226-2.176 2.226-7.084v-.81zm57.892 13.562c-.86 2.226-3.796 4.857-8.349 4.857-4.756 0-6.122-3.087-6.122-6.123v-18.52h-2.277v-.607c3.39-.556 8.297-3.39 10.98-6.325h.557v5.313h5.059v1.62h-5.06v17.76c0 1.72.81 2.733 2.428 2.733 1.114 0 1.974-.556 2.328-1.012l.456.304zm42.958-13.41c0-2.379-1.467-3.137-3.036-3.137-1.062 0-2.378.557-2.884.91v16.698c0 2.025.709 2.633 2.428 2.936v.556h-13.762v-.556c.961-.202 2.074-.861 2.074-3.087V15.502c0-2.227-.607-2.834-2.226-3.137v-.557h11.739l-.303 5.11c1.619-3.036 4.452-5.616 8.348-5.616 3.441 0 6.881 1.62 6.881 7.49v15.331c0 1.67.253 2.732 1.924 3.087v.556h-13.156v-.556c1.214-.303 1.973-1.164 1.973-3.087v-14.32zm28.082 11.487c0 2.227-1.923 3.187-3.187 3.187-2.58 0-3.897-1.821-3.897-4.807V16.868c0-2.783 1.872-3.946 3.745-3.946 1.618 0 3.34 1.214 3.34 3.542V31.29zM4.407 6.546c0-2.126-.81-3.896-4.149-4.15v-.86h28.64v9.311h-.962c-3.188-5.263-4.251-7.793-7.59-7.793h-5.414v15.94h2.226c3.643 0 4.757-1.57 6.578-5.972h.81v13.359h-.81c-1.821-4.402-2.935-5.97-6.578-5.97h-2.226v13.054c0 1.822.658 2.784 3.39 2.784h1.518c5.262 0 6.78-3.492 10.17-9.26h.911L29.91 37.766H.258v-.86c3.34-.252 4.149-2.024 4.149-4.15V6.547zm297.73 31.22v-.556c-2.176-.355-2.43-1.417-2.43-3.087V1.537h-12.042v.657c2.48.303 2.783.405 2.783 1.771v9.31c-.91-1.062-2.985-1.973-5.667-1.973-5.565 0-11.334 4.352-11.334 13.966 0 8.906 3.896 13.105 9.512 13.105 4.25 0 6.63-2.58 7.49-4.402v3.795h11.687zm64.058-6.476c0 2.227-1.923 3.187-3.188 3.187-2.58 0-3.897-1.821-3.897-4.807V16.868c0-2.783 1.872-3.946 3.745-3.946 1.62 0 3.34 1.214 3.34 3.542V31.29zm11.687 6.476v-.556c-2.175-.355-2.428-1.417-2.428-3.087V1.537h-12.042v.657c2.478.303 2.783.405 2.783 1.771v9.31c-.911-1.062-2.986-1.973-5.668-1.973-5.566 0-11.334 4.352-11.334 13.966 0 8.906 3.896 13.105 9.513 13.105 4.25 0 6.628-2.58 7.489-4.402v3.795h11.687zm-62.185-3.845V21.928c-.506 2.682-4.402 3.29-4.402 7.945v.202c0 2.277 1.568 3.948 3.541 3.948.254 0 .557-.052.86-.102zm23.325-14.674v13.966c0 2.479.71 3.49 2.885 3.997v.556h-14.22v-.556c.913-.202 2.076-.861 2.076-3.087V15.502c0-1.67-.606-2.834-2.226-3.137v-.557h11.689c-.204 2.43-.204 4.098-.204 7.439zm10.829-3.087c0 2.732-2.277 4.908-5.01 4.908-2.732 0-4.958-2.176-4.958-4.908 0-2.682 2.226-4.858 4.958-4.858 2.733 0 5.01 2.176 5.01 4.858zM153.138 27.72c-.416.398-.73.93-.73 1.596 0 .81.455 1.569 2.328 1.569l9.917.101c6.527.05 8.45 3.694 8.45 6.73 0 7.944-9.108 11.132-15.635 11.132-8.298 0-11.232-2.48-11.232-5.414 0-1.772 1.77-3.592 5.413-3.592.506 0 .962.05 1.519.1l.05.152c-.86.709-1.417 1.771-1.417 2.884 0 2.126 2.024 4.302 7.387 4.302 5.313 0 8.653-2.176 8.653-4.606 0-2.023-1.417-2.883-5.11-3.035l-7.489-.355c-5.465-.253-7.54-2.884-7.54-5.92 0-2.093 1.719-4.825 4.817-5.922-2.898-1.407-4.918-3.872-4.918-7.436 0-5.364 5.162-8.704 11.637-8.704 2.025 0 3.948.355 5.668.962.709.1 1.366.1 2.024.1 2.53 0 4.857-.505 7.135-1.517v4.402h-.304c-1.316-.152-4.858-1.265-7.337-2.277 2.631 1.569 4.351 3.946 4.351 7.034 0 5.464-5.16 8.855-11.537 8.855-2.157 0-4.275-.377-6.1-1.14zm30.345-6.5c-2.885-2.075-5.263-4.959-5.263-8.804 0-6.63 5.87-11.386 14.37-11.386 3.694 0 7.186.86 9.512 1.72l-.251 8.552h-1.013c-2.58-5.616-4.351-8.652-8.197-8.652-2.935 0-5.11 1.973-5.11 5.11 0 2.125 1.416 3.897 3.44 5.364l5.414 3.997c4.149 3.036 6.73 5.364 6.73 9.564 0 7.338-7.084 11.638-14.32 11.638-4.553 0-8.804-1.315-10.879-2.48l-.405-9.664h1.013c3.137 6.73 5.819 10.525 10.07 10.525 2.832 0 5.058-1.77 5.058-5.11 0-2.581-1.972-4.403-4.553-6.275l-5.616-4.1zM75.144 29.367c-1.366 4.807-5.16 8.956-11.991 8.956-7.793 0-12.043-5.718-12.043-12.346 0-8.35 5.06-14.675 13.358-14.675 6.072 0 10.626 3.745 10.626 11.133v1.011H60.926c0 6.68 3.239 9.31 6.83 9.31 2.43 0 4.96-.91 6.832-3.642l.556.253zm170.879 5.768c-1.72 1.822-4.352 3.238-7.64 3.238-3.188 0-4.859-1.466-5.212-3.643-1.316 2.025-3.441 3.593-6.63 3.593-4.047 0-6.88-2.732-6.88-6.578 0-4.604 3.137-6.275 8.146-7.59 4.048-1.063 5.515-2.48 5.515-5.566v-.203c0-3.187-2.58-5.262-5.768-5.262a7.97 7.97 0 00-2.378.354c2.328.202 4.251 2.125 4.251 4.453 0 2.53-2.075 4.504-4.656 4.504-2.428 0-4.3-1.923-4.3-4.352 0-4.2 5.717-6.781 12.042-6.781 6.122 0 9.967 2.43 9.967 6.932 0 .05 0 5.971-.1 15.029 0 1.062.505 1.923 1.619 1.923.455 0 1.063-.152 1.72-.506l.304.455zm-12.903-1.214V21.928c-.506 2.682-4.403 3.29-4.403 7.945v.202c0 2.277 1.57 3.948 3.543 3.948.253 0 .556-.052.86-.102zm95.48 1.214c-1.72 1.822-4.352 3.238-7.641 3.238-3.188 0-4.857-1.466-5.211-3.643-1.316 2.025-3.441 3.593-6.628 3.593-4.048 0-6.882-2.732-6.882-6.578 0-4.604 3.137-6.275 8.146-7.59 4.048-1.063 5.515-2.48 5.515-5.566v-.203c0-3.187-2.58-5.262-5.768-5.262-.759 0-1.568.101-2.378.354 2.328.202 4.25 2.125 4.25 4.453 0 2.53-2.075 4.504-4.655 4.504-2.429 0-4.301-1.923-4.301-4.352 0-4.2 5.718-6.781 12.043-6.781 6.123 0 9.967 2.43 9.967 6.932 0 .05 0 5.971-.101 15.029 0 1.062.507 1.923 1.62 1.923.454 0 1.062-.152 1.72-.506l.304.455zM44.33 37.766H36.84l-7.033-21.708c-.759-2.277-1.62-3.339-2.682-3.693v-.557h15.838v.557c-2.733.455-3.796 1.517-3.037 3.997L44.734 32.2l3.947-14.219c.354-1.315.557-2.327.557-3.289 0-1.72-1.164-2.124-2.631-2.327v-.557h8.045v.557c-1.417.506-2.429 1.215-3.846 5.414l-6.477 19.987z" fill="#1D1D1B"/><ellipse fill="#DD052B" cx="385.19" cy="32.171" rx="5.56" ry="5.576"/><path d="M66.542 21.827v-5.161c0-2.834-.86-3.998-2.277-3.998-1.922 0-3.086 2.379-3.339 9.16h5.616zm26.11-2.023c0-2.38-1.469-3.138-3.037-3.138-1.062 0-2.378.557-2.884.91v16.698c0 2.025.76 2.633 2.429 2.936v.556H75.245v-.556c.962-.202 2.227-.861 2.227-3.087V15.502c0-2.227-.608-2.834-2.227-3.137v-.557h11.74l-.304 5.11c1.619-3.036 4.452-5.616 8.349-5.616 3.44 0 6.88 1.62 6.88 7.49v15.331c0 1.67.254 2.732 1.924 3.087v.556H90.677v-.556c1.215-.303 1.975-1.164 1.975-3.087v-14.32zm13.965-4.302c0-1.67-.506-2.834-2.125-3.137v-.557h11.384v22.315c0 1.62.607 2.885 2.277 3.087v.556H104.34v-.556c1.669-.202 2.277-1.468 2.277-3.087V15.502zm9.512-10.322c0 2.732-2.277 4.908-5.01 4.908-2.732 0-4.958-2.176-4.958-4.908 0-2.683 2.226-4.858 4.959-4.858 2.732 0 5.01 2.175 5.01 4.858zm19.633 14.624c0-2.38-1.468-3.138-3.036-3.138-1.063 0-2.38.557-2.885.91v16.698c0 2.025.709 2.633 2.429 2.936v.556h-13.611v-.556c.91-.202 1.922-.861 1.922-3.087V15.502c0-2.227-.606-2.834-2.226-3.137v-.557h11.74l-.305 5.11c1.62-3.036 4.453-5.616 8.35-5.616 3.44 0 6.88 1.62 6.88 7.49v15.331c0 1.67.254 2.732 1.923 3.087v.556h-13.155v-.556c1.214-.303 1.974-1.164 1.974-3.087v-14.32zm25.754-.153c0-4.908-.556-7.083-2.226-7.083-1.771 0-2.48 2.175-2.48 7.083v.81c0 4.908.709 7.084 2.48 7.084 1.67 0 2.226-2.176 2.226-7.084v-.81zm57.892 13.562c-.86 2.226-3.796 4.857-8.349 4.857-4.756 0-6.122-3.087-6.122-6.123v-18.52h-2.277v-.607c3.39-.556 8.297-3.39 10.98-6.325h.557v5.313h5.059v1.62h-5.06v17.76c0 1.72.81 2.733 2.428 2.733 1.114 0 1.974-.556 2.328-1.012l.456.304zm42.958-13.41c0-2.379-1.467-3.137-3.036-3.137-1.062 0-2.378.557-2.884.91v16.698c0 2.025.709 2.633 2.428 2.936v.556h-13.762v-.556c.961-.202 2.074-.861 2.074-3.087V15.502c0-2.227-.607-2.834-2.226-3.137v-.557h11.739l-.303 5.11c1.619-3.036 4.452-5.616 8.348-5.616 3.441 0 6.881 1.62 6.881 7.49v15.331c0 1.67.253 2.732 1.924 3.087v.556h-13.156v-.556c1.214-.303 1.973-1.164 1.973-3.087v-14.32zm28.082 11.487c0 2.227-1.923 3.187-3.187 3.187-2.58 0-3.897-1.821-3.897-4.807V16.868c0-2.783 1.872-3.946 3.745-3.946 1.618 0 3.34 1.214 3.34 3.542V31.29zM4.407 6.546c0-2.126-.81-3.896-4.149-4.15v-.86h28.64v9.311h-.962c-3.188-5.263-4.251-7.793-7.59-7.793h-5.414v15.94h2.226c3.643 0 4.757-1.57 6.578-5.972h.81v13.359h-.81c-1.821-4.402-2.935-5.97-6.578-5.97h-2.226v13.054c0 1.822.658 2.784 3.39 2.784h1.518c5.262 0 6.78-3.492 10.17-9.26h.911L29.91 37.766H.258v-.86c3.34-.252 4.149-2.024 4.149-4.15V6.547zm297.73 31.22v-.556c-2.176-.355-2.43-1.417-2.43-3.087V1.537h-12.042v.657c2.48.303 2.783.405 2.783 1.771v9.31c-.91-1.062-2.985-1.973-5.667-1.973-5.565 0-11.334 4.352-11.334 13.966 0 8.906 3.896 13.105 9.512 13.105 4.25 0 6.63-2.58 7.49-4.402v3.795h11.687zm64.058-6.476c0 2.227-1.923 3.187-3.188 3.187-2.58 0-3.897-1.821-3.897-4.807V16.868c0-2.783 1.872-3.946 3.745-3.946 1.62 0 3.34 1.214 3.34 3.542V31.29zm11.687 6.476v-.556c-2.175-.355-2.428-1.417-2.428-3.087V1.537h-12.042v.657c2.478.303 2.783.405 2.783 1.771v9.31c-.911-1.062-2.986-1.973-5.668-1.973-5.566 0-11.334 4.352-11.334 13.966 0 8.906 3.896 13.105 9.513 13.105 4.25 0 6.628-2.58 7.489-4.402v3.795h11.687zm-62.185-3.845V21.928c-.506 2.682-4.402 3.29-4.402 7.945v.202c0 2.277 1.568 3.948 3.541 3.948.254 0 .557-.052.86-.102zm23.325-14.674v13.966c0 2.479.71 3.49 2.885 3.997v.556h-14.22v-.556c.913-.202 2.076-.861 2.076-3.087V15.502c0-1.67-.606-2.834-2.226-3.137v-.557h11.689c-.204 2.43-.204 4.098-.204 7.439zm10.829-3.087c0 2.732-2.277 4.908-5.01 4.908-2.732 0-4.958-2.176-4.958-4.908 0-2.682 2.226-4.858 4.958-4.858 2.733 0 5.01 2.176 5.01 4.858zM153.138 27.72c-.416.398-.73.93-.73 1.596 0 .81.455 1.569 2.328 1.569l9.917.101c6.527.05 8.45 3.694 8.45 6.73 0 7.944-9.108 11.132-15.635 11.132-8.298 0-11.232-2.48-11.232-5.414 0-1.772 1.77-3.592 5.413-3.592.506 0 .962.05 1.519.1l.05.152c-.86.709-1.417 1.771-1.417 2.884 0 2.126 2.024 4.302 7.387 4.302 5.313 0 8.653-2.176 8.653-4.606 0-2.023-1.417-2.883-5.11-3.035l-7.489-.355c-5.465-.253-7.54-2.884-7.54-5.92 0-2.093 1.719-4.825 4.817-5.922-2.898-1.407-4.918-3.872-4.918-7.436 0-5.364 5.162-8.704 11.637-8.704 2.025 0 3.948.355 5.668.962.709.1 1.366.1 2.024.1 2.53 0 4.857-.505 7.135-1.517v4.402h-.304c-1.316-.152-4.858-1.265-7.337-2.277 2.631 1.569 4.351 3.946 4.351 7.034 0 5.464-5.16 8.855-11.537 8.855-2.157 0-4.275-.377-6.1-1.14zm30.345-6.5c-2.885-2.075-5.263-4.959-5.263-8.804 0-6.63 5.87-11.386 14.37-11.386 3.694 0 7.186.86 9.512 1.72l-.251 8.552h-1.013c-2.58-5.616-4.351-8.652-8.197-8.652-2.935 0-5.11 1.973-5.11 5.11 0 2.125 1.416 3.897 3.44 5.364l5.414 3.997c4.149 3.036 6.73 5.364 6.73 9.564 0 7.338-7.084 11.638-14.32 11.638-4.553 0-8.804-1.315-10.879-2.48l-.405-9.664h1.013c3.137 6.73 5.819 10.525 10.07 10.525 2.832 0 5.058-1.77 5.058-5.11 0-2.581-1.972-4.403-4.553-6.275l-5.616-4.1zM75.144 29.367c-1.366 4.807-5.16 8.956-11.991 8.956-7.793 0-12.043-5.718-12.043-12.346 0-8.35 5.06-14.675 13.358-14.675 6.072 0 10.626 3.745 10.626 11.133v1.011H60.926c0 6.68 3.239 9.31 6.83 9.31 2.43 0 4.96-.91 6.832-3.642l.556.253zm170.879 5.768c-1.72 1.822-4.352 3.238-7.64 3.238-3.188 0-4.859-1.466-5.212-3.643-1.316 2.025-3.441 3.593-6.63 3.593-4.047 0-6.88-2.732-6.88-6.578 0-4.604 3.137-6.275 8.146-7.59 4.048-1.063 5.515-2.48 5.515-5.566v-.203c0-3.187-2.58-5.262-5.768-5.262a7.97 7.97 0 00-2.378.354c2.328.202 4.251 2.125 4.251 4.453 0 2.53-2.075 4.504-4.656 4.504-2.428 0-4.3-1.923-4.3-4.352 0-4.2 5.717-6.781 12.042-6.781 6.122 0 9.967 2.43 9.967 6.932 0 .05 0 5.971-.1 15.029 0 1.062.505 1.923 1.619 1.923.455 0 1.063-.152 1.72-.506l.304.455zm-12.903-1.214V21.928c-.506 2.682-4.403 3.29-4.403 7.945v.202c0 2.277 1.57 3.948 3.543 3.948.253 0 .556-.052.86-.102zm95.48 1.214c-1.72 1.822-4.352 3.238-7.641 3.238-3.188 0-4.857-1.466-5.211-3.643-1.316 2.025-3.441 3.593-6.628 3.593-4.048 0-6.882-2.732-6.882-6.578 0-4.604 3.137-6.275 8.146-7.59 4.048-1.063 5.515-2.48 5.515-5.566v-.203c0-3.187-2.58-5.262-5.768-5.262-.759 0-1.568.101-2.378.354 2.328.202 4.25 2.125 4.25 4.453 0 2.53-2.075 4.504-4.655 4.504-2.429 0-4.301-1.923-4.301-4.352 0-4.2 5.718-6.781 12.043-6.781 6.123 0 9.967 2.43 9.967 6.932 0 .05 0 5.971-.101 15.029 0 1.062.507 1.923 1.62 1.923.454 0 1.062-.152 1.72-.506l.304.455zM44.33 37.766H36.84l-7.033-21.708c-.759-2.277-1.62-3.339-2.682-3.693v-.557h15.838v.557c-2.733.455-3.796 1.517-3.037 3.997L44.734 32.2l3.947-14.219c.354-1.315.557-2.327.557-3.289 0-1.72-1.164-2.124-2.631-2.327v-.557h8.045v.557c-1.417.506-2.429 1.215-3.846 5.414l-6.477 19.987z" fill="#1D1D1B"/></g></svg>