<svg xmlns="http://www.w3.org/2000/svg" width="725.084" height="51.179"><defs><clipPath clipPathUnits="userSpaceOnUse" id="a"><path d="M517.133 766.292c12.326 0 22.32 9.992 22.32 22.318 0 12.327-9.994 22.32-22.32 22.32s-22.319-9.993-22.319-22.32c0-12.326 9.993-22.318 22.319-22.318"/></clipPath></defs><g clip-path="url(#a)" transform="matrix(1.1538 0 0 -1.1538 -444.872 934.568)"><path d="M517.775 786.495l.33-.067-.097-.321.041-.024.488.574-.023.041-.741-.153.002-.05zm.055.908l.043-.025.426.461-.024.042-.619-.103-.002-.049.268-.066-.092-.26zm-1.41-3.611l-.502.001-.012-.048.198-.086-.104-.188.037-.033.399.309-.016.045zm1.066.84l-.627-.021-.007-.049.255-.101-.125-.245.039-.031.483.401-.018.046zm.508.553l.348-.051-.082-.34.045-.021.47.626-.025.04-.76-.205.004-.049zm-1.668-2.501l-.01-.048.2-.086-.104-.188.037-.032.397.308-.016.045-.504.001zm3.137-.042l.338.371-.024.043-.496-.086-.002-.049.209-.05-.068-.204.043-.025zm.248 3.174l.576.796-.027.039-.944-.273.004-.05.442-.056-.096-.435.045-.021zm-1.818-2.252l-.629.001-.012-.049.256-.109-.137-.241.039-.032.498.385-.015.045zm1.152 4.302l.432-.116-.157-.417.041-.026.682.708-.023.043-.971-.142-.004-.05zm-.289-4.343l.508.599-.026.041-.767-.161v-.05l.342-.07-.102-.335.045-.024zm1.572 6.052l.037-.031.399.308-.016.044h-.502l-.01-.047.198-.086-.106-.188zm-1.367-.841l.039-.032.619.481-.015.046-.786.001-.011-.049.324-.139-.17-.308zm2.58-3.891v-.049l.266-.067-.092-.258.041-.026.428.461-.022.042-.621-.103zm1.871 4.424l.041-.032.397.308-.016.045h-.502l-.01-.047.198-.087-.108-.187zm-5.01-6.68l-.504.002-.007-.048.195-.086-.104-.187.038-.034.398.308-.016.045zm3.604 6.912l.037-.032.496.385-.014.044h-.63l-.01-.047.252-.11-.131-.24zm-.963-3.344l.344-.066-.098-.336.045-.023.498.605-.025.043-.766-.174.002-.049zm.482 4.474l2.555-.004s.807-.304 1.865-.73a1.09 1.09 0 00.705-1.136s.42-.42.653-.685c.277-.321.31-.765.09-1.057a.994.994 0 00-.655-.374l-.023.048c.166.169.099.438-.049.653-.156.224-.295.265-.455.169-.07-.044-.16-.111-.16-.111l.396-.633-.013-.046c-.317-.087-.754-.018-.957.24h-1.967l-.002-.05 1.094-.199.033-.075-3.758-4.42.035-.033 1.279 1.144.002-.998-.117-.301.119-.699-.041-.3s1.162-.997 1.17-.997h.002s.016-.01.031-.015a.82.82 0 00.045-.025c.016-.009.036-.019.055-.031l.063-.041c.023-.012.039-.032.062-.048.022-.019.043-.035.061-.056l.058-.063c.016-.023.037-.045.051-.068.018-.023.029-.048.045-.07.01-.025.025-.047.035-.071a.468.468 0 00.029-.067.5.5 0 00.022-.06.173.173 0 00.015-.049l.014-.046.051-.002s.01.016.017.045a.172.172 0 01.016.055c.004.024.01.051.008.079v.044c-.002.016-.006.032-.006.048-.004.033-.016.066-.025.1a.546.546 0 01-.112.197c-.025.028-.05.057-.082.08a.48.48 0 01-.091.063c-.034.017-.063.032-.096.04a.291.291 0 01-.035.012l.435.098h.002l.002-.002c.012-.005.027-.015.045-.024a.32.32 0 00.055-.033.324.324 0 00.06-.039c.026-.014.043-.033.065-.047.019-.02.043-.037.06-.057a.69.69 0 00.059-.063c.017-.023.035-.044.051-.068l.043-.071c.011-.025.029-.047.037-.07l.031-.068a.212.212 0 00.019-.059.296.296 0 00.018-.049c.008-.03.014-.046.014-.046l.051-.003s.007.017.015.047a.154.154 0 01.018.055.475.475 0 01.006.078v.045a.357.357 0 00-.004.047c-.004.033-.018.065-.026.1a.577.577 0 01-.047.101c-.017.035-.041.064-.064.096-.027.028-.053.057-.082.08a.724.724 0 01-.094.062c-.029.015-.058.031-.09.039 2.059.445 3.653.746 3.653.746 2.08-1.23 1.949-1.155 2.381-1.394.793-.441.759-1.736-.739-1.736-1.127 0-3.215-.193-4.486-.44l1.123 1.021-.035.035s-1.112-.806-2.432-1.466V777c-.715-.288-1.793-.757-2.904-1.251l1.641 1.552-.038.038s-2.097-1.688-3.582-2.477a481.05 481.05 0 01-2.095-.954c-.602-.275-1.075-.352-1.746-.114a86.513 86.513 0 00-2.391.873c-.527.2-.566.942-.004 1.121l1.311.418c.185-.081.377-.164.568-.249.301-.133.603-.265.889-.389.142-.061.279-.121.408-.179l.096-.042.048-.019.022-.011v-.001l.004-.001.002-.001.011-.006a.902.902 0 00.149-.101.609.609 0 00.176-.249.569.569 0 00.035-.237c-.002-.067-.018-.121-.028-.158-.011-.035-.015-.053-.015-.053l.056-.024a.776.776 0 01.069.227.714.714 0 01-.02.276.737.737 0 01-.187.311 1.013 1.013 0 01-.158.129l-.014.006-.004.004-.01.007-.023.012-.043.025-.092.053c-.123.07-.254.145-.389.22-.267.156-.552.319-.841.482-.633.364-1.268.726-1.707.979l-.006.003s2.218.698 5.05 1.476l.456-.2.015.03.008.012-.268.214-.701.566-.347.12-.231.633-.314.177-.309 1.412-.049-.01.127-1.542-.881-.494v2.038l-.05.008-.256-2.151-1.186-.231.404 2.338-.052.011-.727-2.389-1.162-.079.842 2.494-.049.022-1.24-2.542h-.002l-1.147-.075 1.338 2.632-.043.026-1.832-2.711-1.22-.19 1.982 2.921-.039.031-3.336-3.877-.18.12 2.989 4.686 4.576 1.711.486.21c.088.039.18.076.279.126.049.022.094.052.143.079a2.072 2.072 0 01.381.3l.056.055.051.06c.035.038.065.079.096.119.029.04.055.083.084.123l.07.122.057.119.049.115c.027.075.05.144.066.207.018.062.027.119.037.163l.016.105a.722.722 0 00.004.038l-.053.009-.01-.037a1.348 1.348 0 00-.023-.102c-.012-.043-.026-.094-.049-.152-.018-.059-.047-.125-.076-.192-.018-.034-.035-.07-.055-.105-.019-.035-.043-.072-.064-.109-.026-.035-.049-.073-.077-.109-.029-.035-.054-.072-.085-.108-.032-.034-.063-.071-.098-.103l-.055-.05-.053-.048a1.978 1.978 0 00-.369-.244c-.047-.02-.088-.044-.134-.06-.088-.036-.184-.069-.274-.102l-.5-.178c-.144-.053-.266-.095-.351-.125l-.293.593.593.523-.029.04-1.586-.973-.373.747 2.145 1.588-.036.045-3.261-1.95-.299.787 3.074 2.053-.025.042-3.961-2.174-.188.739 3.352 2.129-.026.044-4.101-2.092-.119.875v.001l3.384 1.824-.021.044-4.189-1.745-.018.853 3.418 1.335-.016.052-4.15-1.136.049.934 3.154.724-.01.048-4.037-.552.129.805 2.971.319v.052l-4.151-.068.063.681 3.308.023.004.049-5.943.435-.01.055.963.335-.002.047-2.461.939.004.053.985.079.009.052-2.125 1.312.014.072 1.488-.085.018.047-1.715 1.609.021.05.807-.154.024.039-.805 1.013-.498 1.435.049.025.771-.97 1.742-1.002.037.035-1.125 1.65-.419 1.843.05.023.908-1.363 1.76-1.432.033.036-1.074 1.953-.371 2.385.059.012 1.051-2.03 2.205-1.832.041.034-1.518 2.438-.344 2.924.049.015.947-2.593 3.127-2.815 3.946-2.018 4.326-6.014 1.685-1.419.039.039-.738.961h.008l.002.001-.01-.001 1.736.448-.003.053-1.506.088-.006.051 2.211.393-.006.05-2.758.21-.002.052 3.516.59 1.398-.33.016.048-1.334.612-2.18-.047-.006.052 2.328.438 1.442-.492.019.047-1.308.83-1.549.064v.055l1.732.269 1.518-.71.027.045-1.25 1.174-1.361.006-.006.055 1.656.371 1.471-1.209.035.035-1.131 1.652-1.232.231.006.051 1.558.094 1.405-1.708.041.028-1.008 2.126-1.348.44.01.053 1.717-.141 1.304-2.242.045.021-.865 2.631-1.691.605.011.052 2.045-.368 1.139-2.705.051.013-.746 3.018-1.815 1.028.026.05 2.156-.82 1.027-3.023.051.011-.642 3.301-1.971 1.436.029.046 2.295-1.258.898-3.181.053.012-.564 3.406-2.065 1.832.032.039 2.414-1.646.699-3.241.049.009-.354 3.446-2.058 2.228.035.041 2.386-2.041.526-3.14.053.004-.231 3.3-1.949 2.547.037.034 2.295-2.399.361-2.717.051.004-.117 2.873-1.783 2.731.043.032 2.062-2.614.275-1.951.053.005-.096 2.087-1.269 2.831.045.025 1.574-2.681.145-1.1.05.005.077 1.253-.657 2.664.049.019.903-2.236h.052l.555 2.233.055-.013-.182-2.197.049-.015 1.529 2.198.043-.026-.99-1.985.033-.037 2.334 1.666.029-.041-3.558-4.805s-1.155-3.08-1.526-4.109a.688.688 0 00-.4-.417l-2.887-1.153-.761-.672-2.545-.299.007-.059zm-3.906 19.368c-12.08 0-21.873-9.793-21.873-21.874s9.793-21.874 21.873-21.874c12.08 0 21.875 9.793 21.875 21.874s-9.795 21.874-21.875 21.874m3.219-22.38l.418-.089-.131-.406.045-.024.617.711-.023.041-.924-.183-.002-.05zm1.721-1.789l.209-.051-.073-.202.043-.026.34.37-.021.042-.496-.084-.002-.049zm-3.325-6.9c.022-.01.041-.024.063-.038.021-.012.039-.032.064-.047.02-.019.043-.035.061-.055a.06.06 0 00.016-.016c.015-.013.029-.03.044-.045.018-.023.036-.045.051-.068.018-.023.031-.047.047-.069.012-.024.029-.047.037-.071a.37.37 0 00.029-.065c.012-.022.018-.041.024-.059a.267.267 0 00.018-.049l.015-.046.051-.001s.008.016.017.046c.006.013.01.032.012.055a.334.334 0 01.006.079c-.002.014-.002.029-.002.044a.19.19 0 01-.006.047c-.004.034-.015.065-.025.101a.71.71 0 01-.049.1c-.01.021-.027.042-.041.061l-.025.032a.68.68 0 01-.178.14.53.53 0 01-.096.038l-.047.015-.025.003c-.006.002-.012.002-.018.002a.286.286 0 01-.076.005c-.023.001-.043-.002-.06-.004-.03-.005-.047-.01-.047-.01l-.004-.047v-.003s.015-.009.043-.021c.012-.005.027-.014.045-.023.017-.009.037-.019.056-.031m1.985-.796l-.18-.052c-.117-.035-.258-.074-.412-.121a18.876 18.876 0 01-.393-.12 9.72 9.72 0 01-.216-.064l-.221-.075-.943-.327c-.204-.072-.407-.15-.604-.225l-.332-.126c-.1-.037-.195-.075-.291-.113a23.014 23.014 0 01-.438-.176l-.08-.033a48.974 48.974 0 01-.564-.24l-.217-.092-.015-.007.033-.077.015.005.219.077.164.059c.119.042.258.091.416.149l.115.044c.086.032.176.066.27.098l.135.048.297.106c.107.039.214.08.328.12a378.086 378.086 0 001.545.555c.142.05.289.104.431.152l.293.1.096.033c.154.053.293.101.406.143.067.022.123.042.174.06l.234.086-.023.08-.242-.067zm-4.244-.738l.179.059c.235.075.463.151.684.228l.25.085.066.022.282.095c.119.039.224.075.31.106l.111.039a7.2 7.2 0 01.161.059l.017.006-.025.078-.016-.003-.164-.038-.084-.021c-.096-.023-.215-.05-.351-.086l-.29-.077c-.07-.019-.144-.043-.22-.066l-.098-.03a53.824 53.824 0 01-.691-.221c-.19-.062-.373-.129-.551-.193l-.133-.047-.066-.024a16.863 16.863 0 01-.711-.271l-.049-.02-.182-.073c-.099-.042-.156-.064-.156-.064l-.016-.008.03-.077.179.054c.036.011.077.022.122.038l.132.04c.053.016.112.034.172.054.108.036.229.073.356.114l.244.076.508.166m3.566 6.298l-.002-.049.268-.066-.09-.26.041-.025.426.461-.022.043-.621-.104zm-.453.638l.547.814-.028.037-.931-.306.004-.049.443-.04-.08-.438.045-.018zm2.908 2.951l-.625-.056-.006-.048.262-.088-.109-.251.037-.028.463.426-.022.045zm-2.918-6.988l-1.291 1.581-.068-.029.332-1.881.679-.789.036-.017c.013-.006.031-.014.048-.024a.629.629 0 00.055-.03.797.797 0 00.065-.039c.021-.012.041-.032.064-.047.018-.018.041-.034.061-.055.019-.018.039-.041.058-.062.018-.022.037-.043.051-.067.02-.021.031-.046.047-.069.012-.024.029-.046.037-.069.012-.024.023-.045.031-.068.01-.021.016-.04.024-.057.006-.017.013-.035.015-.05.01-.029.018-.046.018-.046l.049-.001.017.045c.004.014.012.033.014.058.004.023.008.05.006.078v.044c-.004.015-.006.031-.008.047-.004.033-.018.066-.027.1-.014.033-.028.068-.049.1-.016.034-.043.064-.067.094a.563.563 0 01-.084.078c-.029.026-.062.043-.091.062-.036.014-.065.029-.096.039-.018.005-.031.009-.047.012l-.002.001c.016.005.033.008.051.014.127.031.252.063.379.096.006-.002.01-.006.017-.009a.78.78 0 00.102-.053c.023-.01.041-.025.062-.039.024-.012.043-.032.065-.047.019-.018.045-.035.062-.055.024-.018.039-.041.061-.061.016-.022.035-.044.051-.067.017-.023.031-.048.045-.07.013-.024.029-.046.037-.071.011-.021.025-.043.031-.065a.257.257 0 00.023-.058.362.362 0 00.02-.049.2.2 0 01.014-.047h.05s.008.016.018.045c.004.014.012.033.012.056.006.023.008.05.006.078v.045l-.006.046c-.004.035-.016.066-.028.101-.013.034-.025.068-.048.1-.016.033-.043.064-.067.095-.027.027-.053.055-.086.077a.479.479 0 01-.207.105c.354.09.709.175 1.067.261l-1.155.643-.453-.01zm2.16 8.367l.323-.139-.17-.307.039-.032.621.481-.02.045-.783.001-.01-.049zm-11.375 7.16l-1.467-.748-.08.434-.07-.007-.008-.721.059-.027 1.603 1.012-.037.057zm1.405-1.769l-2.051-1.113-.08.435-.067-.008-.011-.721.056-.031 2.19 1.379-.037.059zm-.67.907l-1.942-1.026-.078.434-.066-.01-.01-.72.053-.026 2.078 1.29-.035.058zm3.031-3.543l-1.465-.748-.08.426-.066-.009-.01-.71.051-.028 1.605 1.01-.035.059zm-.797.872l-1.769-.919-.079.434-.068-.01-.01-.717.051-.033 1.912 1.188-.037.057zm-.791.855l-2.01-1.049-.08.435-.068-.007-.008-.722.057-.028 2.144 1.313-.035.058zm-4.76 1.109l.022.083-4.512 1.237-2.031 1.654-.057-.055 1.881-1.906 4.697-1.013zm.127.919l.03.082-3.821 1.234-1.888 1.775-.055-.061 1.693-2.001 4.041-1.029zm12.211-6.187l.322-.14-.171-.306.037-.033.621.479-.014.046-.785.003-.01-.049zm-16.83 4.351l1.662-.485 3.291-.301.01.089-4.945.779-.018-.082zm.428 5.672l-.061-.048 1.381-1.902 3.34-1.108.033.079-3.096 1.276-1.597 1.703zm11.078-8.506l-1.049-.5-.082.397-.066-.003-.01-.687.06-.026 1.184.762-.037.057zm-6.953 3.015l-6.25 1.289-.024-.08 1.621-.594 4.635-.704.018.089zm1.836 2.867l.039.079-2.891 1.389-1.76 2.342-.064-.045 1.572-2.565 3.104-1.2zm12.213-17.966a1.765 1.765 0 00.142.021 7.572 7.572 0 01.467.087c.094.019.195.042.297.066l.06.014a9.188 9.188 0 01.641.156c.059.014.109.031.152.043.024.008.041.014.061.019.051.016.08.027.08.027l.014.005-.016.077-.016-.001-.084-.008-.062-.008a11.155 11.155 0 01-.467-.071 15.65 15.65 0 01-.351-.071 11.231 11.231 0 01-.649-.178c-.06-.018-.115-.038-.16-.053l-.049-.015-.08-.03-.014-.004.018-.078.016.002zm2.648 1.175s.039.003.106.013l.074.008c.056.007.125.015.203.027.254.037.56.088.842.14l.072.014c.127.026.254.05.373.078.061.011.119.023.176.035l.215.045.199.047.074.018.102.026.015.004-.013.079h-.016s-.039-.002-.106-.01l-.066-.007a6.41 6.41 0 01-.215-.024l-.021-.003c-.112-.015-.239-.03-.371-.053-.141-.023-.291-.052-.438-.079l-.012-.002a21.359 21.359 0 01-.834-.176c-.074-.017-.138-.035-.193-.048-.027-.009-.057-.015-.08-.021a5.302 5.302 0 01-.102-.028l-.017-.004.017-.08.016.001zm-2.275.242l.054-.031a.543.543 0 00.061-.041c.021-.013.041-.032.064-.048.008-.01.02-.02.034-.029l.029-.027c.019-.02.037-.043.057-.063.015-.023.035-.045.05-.069a.866.866 0 00.043-.069c.012-.026.028-.047.037-.071.01-.023.022-.045.028-.067.009-.022.015-.041.023-.058.006-.019.014-.035.016-.051a.37.37 0 00.013-.047l.053-.002.016.046a.467.467 0 01.023.134v.045c-.002.014-.004.031-.008.047 0 .032-.013.066-.023.101-.012.032-.025.068-.045.1-.018.035-.043.065-.066.096l-.016.017a.556.556 0 01-.066.063c-.028.026-.063.044-.09.064-.033.014-.065.03-.1.04-.015.004-.027.01-.043.013l-.037.006c-.002.002-.004.002-.008.002-.025.007-.052.007-.074.007a.274.274 0 01-.059-.003 1.115 1.115 0 01-.05-.01l-.004-.039v-.011l.041-.021c.013-.005.027-.014.047-.024m2.418 7.589c.002-.015.007-.03.009-.043.006-.015.008-.029.014-.04l.02-.032.015-.027a.388.388 0 00.02-.019c.023-.024.037-.035.037-.035l.031.024s-.002.017-.008.043c0 .006 0 .013-.002.02v.026a.173.173 0 00.002.055c0 .02.006.04.012.06.002.009.008.021.012.029.008.009.01.021.015.03.012.018.022.038.036.049.005.006.007.012.023.023l.018.017.009.007h.002c.02.011.037.025.057.032.021.01.045.012.066.017.008.004.02.001.032.004a.107.107 0 00.031 0l.031-.002.027-.006a.34.34 0 00.051-.013c.008-.004.014-.007.022-.009a.127.127 0 00.019-.013l.039-.022.041.033-.017.044a.066.066 0 01-.012.021l-.02.026c-.009.009-.017.02-.027.029a.117.117 0 01-.035.027c-.012.007-.023.017-.037.025-.014.007-.031.012-.047.019a.226.226 0 01-.049.014c-.017.002-.039.006-.056.007a.408.408 0 01-.12-.016c-.039-.01-.074-.034-.111-.054l-.01-.007-.002-.003-.004-.003-.009-.009-.018-.017c-.01-.007-.025-.027-.041-.045-.029-.037-.041-.074-.057-.109-.007-.037-.015-.073-.013-.107l.004-.05m.088 1.465l.003-.017.004-.015.016-.036a.314.314 0 01.045-.071.162.162 0 01.029-.033c.012-.008.02-.017.029-.026.02-.014.038-.024.055-.034l.018-.009a.384.384 0 01.14-.03l.028.002a.285.285 0 01.072.012l.035.012.01.004.017.008.01.006c.024.014.086.06.106.094a.264.264 0 01.052.115l.004.014a.258.258 0 01.004.04l-.002.047a.165.165 0 01-.013.058l-.004.016a.383.383 0 01-.033.055l-.008.012-.061-.023v-.012s-.004-.02-.004-.046c0-.007-.002-.011-.004-.018-.002-.01-.002-.021-.005-.032-.004-.008-.01-.016-.012-.025l-.01-.017-.008-.012c0-.003-.004-.007-.01-.011l-.007-.012c-.004-.005-.014-.012-.024-.02a.05.05 0 00-.019-.011l-.01-.005-.002-.003-.025-.01a.24.24 0 00-.059-.007.147.147 0 00-.057.013c-.006.003-.011.007-.017.009l-.01.005a.11.11 0 01-.018.014l-.005.004c-.004.006-.006.01-.01.012-.006.003-.008.005-.012.015l-.016.024v.007a.151.151 0 00-.013.033c-.002.009-.002.017-.002.026v.03l.002.015c0 .005 0 .009.004.014.002.004.004.01.004.016l.005.012.01.026.014.02c.006.006.008.013.008.013.029.024.043.038.043.038l.007.01-.035.071-.013-.003s-.02-.002-.059-.012l-.016-.006c-.015-.008-.037-.017-.054-.032-.012-.01-.026-.02-.035-.032a.075.075 0 01-.024-.026l-.012-.016a.29.29 0 01-.048-.115c-.006-.024-.008-.049-.006-.069-.004-.023.002-.045.006-.066l.002-.01zm1.779-1.118c.01-.01.017-.022.025-.033.01-.011.016-.023.026-.035.013-.024.029-.049.039-.075a.453.453 0 00.027-.081.31.31 0 00.014-.086c.002-.014.002-.027.002-.042a.15.15 0 00-.002-.043c-.002-.03-.01-.058-.016-.085l-.016-.04-.019-.042.041-.024.025.039c.01.015.016.031.022.046a.658.658 0 01.031.095l.006.049c.002.016.006.033.006.049a.566.566 0 01-.008.101.332.332 0 01-.022.097c-.007.033-.021.064-.035.095a.276.276 0 01-.025.044c-.008.015-.016.03-.025.043a.71.71 0 01-.065.08l-.004.004c-.203.191-.406.38-.609.574l-.147-.173c.227-.165.45-.335.672-.5l.057-.057m-10.867.038l-.022.161-.064.004-.069-.417.055-.034.777.543-.037.057-.64-.314zm-.293 1.833l-.744-.326-.067.301h-.064l-.03-.574.053-.029.885.575-.033.053zm.465-2.698l-.014.157-.067.006-.07-.417.049-.037.566.412-.035.055-.429-.176zm.365 2.042l-.906-.399-.032.255-.06.005-.063-.523.053-.038 1.043.643-.035.057zm10.187-9.567l-.316-.048a6.712 6.712 0 01-.305-.054 2.63 2.63 0 01-.172-.033l-.113-.021-.117-.023a4.873 4.873 0 01-.139-.028c-.099-.02-.191-.038-.267-.055l-.114-.024-.16-.037.016-.081.162.019.117.014c.078.01.168.02.27.034l.255.037.071.009c.07.009.142.02.217.032.121.02.246.036.377.054.082.013.162.023.244.035.082.013.168.024.248.036l.068.011.303.048c.137.018.263.039.379.058l.166.027c.09.014.172.03.244.042.053.01.098.019.139.024l.162.029-.012.082-.016-.001-.146-.009-.049-.003c-.092-.007-.205-.015-.342-.03l-.183-.019c-.116-.011-.235-.022-.364-.039l-.304-.041-.319-.045m-13.414 3.555l-.01-.048.198-.085-.106-.187.039-.033.399.307-.016.046h-.504zm.949-8.064l-.711.315.69.361-.018.048-1.041-.29a.126.126 0 01-.091-.088.134.134 0 01.085-.171l.014-.002 1.012-.326c.17-.052.338-.112.506-.17l.509-.174.016.047-.482.228c-.164.075-.325.151-.489.222m.463 8.064l-.008-.048.196-.085-.104-.187.037-.033.399.307-.016.046h-.504z" fill="#e41c29"/></g><path d="M17.339.76h-3.025C7.84.76 5.507 3.71 3.03 9.903l-2.339 5.85H0V.073h42.651v15.681h-.686l-2.334-5.85C37.154 3.711 34.879.76 28.348.76h-3.03v39.694c0 3.1.965 6.056 5.712 6.812l1.716.274v.692H9.906v-.692l1.725-.274c4.737-.756 5.708-3.712 5.708-6.812V.76zM57.313.072V20.78c1.304-2.201 5.222-6.472 10.66-6.472 5.365 0 11.004 2.961 11.004 12.317v16.722c0 1.784.691 3.231 2.967 3.849l1.304.343v.692H67.145v-.692l1.314-.343c2.26-.618 2.957-2.065 2.957-3.85V27.313c0-6.326-3.654-8.601-7.228-8.601-2.472 0-4.953 1.31-6.875 2.824v21.812c0 1.784.686 3.231 2.957 3.849l1.304.343v.692H45.476v-.692l1.309-.343c2.27-.618 2.957-2.065 2.957-3.85V4.953c0-1.785-.687-3.227-2.957-3.845L45.475.76V.073h11.838zm43.96 14.235c8.665 0 13.554 5.786 13.554 12.597v.338H93.153c-.069.76-.069 1.584-.069 1.864 0 8.87 4.747 15.27 12.245 15.27 4.815 0 8.189-3.168 9.43-5.92l.612.28c-.544 2.957-5.021 10.518-14.098 10.518-9.777 0-15.686-7.355-15.686-17.603 0-9.087 5.909-17.344 15.686-17.344m-8.12 12.18h13.965V24.29c0-4.61-1.304-9.218-5.918-9.218-4.953 0-7.223 4.535-8.047 11.415m103.468 15.901c0 3.22 1.002 6.007 5.93 7.005l1.787.36v.358h-23.73v-.358l1.787-.36c4.934-.998 5.935-3.786 5.935-7.005V7.868c0-3.22-1.001-6.073-5.935-7.075l-1.786-.36V.082h23.729v.353l-1.786.359c-4.93 1.002-5.93 3.856-5.93 7.075v34.52zm57.458-31.877v40.668h-.495l-36.381-42.88.216 26.442c.072 12.01 3.856 13.583 8.215 14.727l1.144.285v.358H207.41v-.358l1.144-.285c4.29-1.073 8.224-2.79 8.224-14.727V7.939l-.86-.925c-3.792-4.15-6.22-5.86-10.152-6.579V.081h17.373c1.786 3.219 4.358 6.36 10.076 13.148l20.44 24.16-.218-25.735c-.065-8.572-3.214-10.36-7.647-11.001l-1.645-.218V.081h44.96c18.584 0 28.089 11.72 28.089 24.797 0 13.082-9.505 25.233-28.088 25.233H264.09v-.358l1.71-.285c5.077-.86 6.01-3.79 6.01-7.08V10.511c0-7.647-3.933-10.076-8.863-10.076-4.936 0-8.868 2.429-8.868 10.076m33.524 39.242c13.294 0 20.298-9.435 20.298-24.657C307.9 9.867 300.254.435 286.96.435h-6.863v41.888c0 4.139.932 7.43 5.938 7.43h1.568zm56.107 0c8.006 0 12.223-2.288 15.655-8.148l3.355-5.644h.358v14.15h-44.17v-.358l1.786-.285c4.93-.79 5.933-3.86 5.933-7.08V7.657c0-3.36-1.004-5.86-5.933-6.863l-1.786-.359V.081h42.243v14.15h-.36l-3.36-6.074c-3.36-6.148-8-7.722-16.655-7.722h-5.86v23.658l3.573-.07c7.652-.14 10.223-.5 12.651-8.218l.79-2.506h.354v21.944h-.354l-.79-2.43c-2.5-7.788-4.93-8.077-12.65-8.218l-3.574-.071v18.012c0 4.285 1.572 7.217 6.65 7.217h2.144zM390.522.08c11.22 0 19.086 6.148 19.086 14.94 0 8.861-7.866 15.004-19.086 15.004h-3.07V29.6h.141c8.147 0 12.935-5.65 12.935-14.58 0-8.938-4.788-14.586-12.935-14.586h-2.57v41.24c0 5.364 1.357 6.573 7.217 7.793l1.355.285v.358H368.94v-.358l1.786-.36c4.93-.998 5.933-3.786 5.933-7.005V7.798c0-3.212-1.003-6.002-5.933-7.004L368.94.435V.081h21.583zm45.887 49.672c8.006 0 12.222-2.288 15.652-8.148l3.361-5.644h.355v14.15h-44.172v-.358l1.787-.285c4.935-.79 5.936-3.86 5.936-7.08V7.657c0-3.36-1.001-5.86-5.936-6.863l-1.787-.359V.081h42.242v14.15h-.358l-3.36-6.074c-3.357-6.148-8-7.722-16.65-7.722h-5.86v23.658l3.573-.07c7.646-.14 10.216-.5 12.651-8.218l.783-2.506h.36v21.944h-.36l-.783-2.43c-2.506-7.788-4.935-8.077-12.651-8.218l-3.574-.071v18.012c0 4.285 1.568 7.217 6.646 7.217h2.145zm71.326-39.242v40.668h-.495l-36.382-42.88.217 26.442c.067 12.01 3.857 13.583 8.218 14.727l1.145.285v.358h-19.374v-.358l1.144-.285c4.292-1.073 8.218-2.79 8.218-14.727V7.939l-.855-.925c-3.79-4.15-6.219-5.86-10.152-6.579V.081h17.368c1.787 3.219 4.365 6.36 10.076 13.148l20.447 24.16-.217-25.735c-.07-8.572-3.214-10.36-7.648-11.001l-1.644-.218V.081h44.959c18.578 0 28.088 11.72 28.088 24.797 0 13.082-9.51 25.233-28.088 25.233h-25.013v-.358l1.714-.285c5.075-.86 6.001-3.79 6.001-7.08V10.511c0-7.647-3.932-10.076-8.86-10.076-4.936 0-8.867 2.429-8.867 10.076m33.523 39.242c13.295 0 20.298-9.435 20.298-24.657 0-15.229-7.648-24.661-20.941-24.661h-6.862v41.888c0 4.139.93 7.43 5.93 7.43h1.575zm56.108 0c8 0 12.224-2.288 15.647-8.148l3.367-5.644h.354v14.15h-44.172v-.358l1.787-.285c4.934-.79 5.932-3.86 5.932-7.08V7.657c0-3.36-.998-5.86-5.932-6.863l-1.787-.359V.081H614.8v14.15h-.354l-3.36-6.074C607.726 2.01 603.08.435 594.437.435h-5.861v23.658l3.574-.07c7.646-.14 10.217-.5 12.645-8.218l.79-2.506h.354v21.944h-.354l-.79-2.43c-2.497-7.788-4.93-8.077-12.645-8.218l-3.574-.071v18.012c0 4.285 1.569 7.217 6.646 7.217h2.144zm70.754-36.667c-.07-9.22-3.22-11.791-7.646-12.433L658.83.435V.081h19.224v.354l-1.643.218c-4.428.642-7.648 3.212-7.648 12.433V51.18h-.497L631.886 8.3l.215 26.442c.07 12.01 3.86 13.583 8.216 14.727l1.145.285v.358h-19.369v-.358l1.145-.285c4.286-1.073 8.218-2.79 8.218-14.727V7.939l-.86-.925c-3.786-4.15-6.215-5.86-10.148-6.579V.081h17.37c1.785 3.219 4.363 6.36 10.082 13.148l20.435 24.16-.214-24.303zM698.784.435h-3.15c-6.714 0-9.502 3.43-12.074 9.863l-2.433 6.078h-.354V.08h44.311v16.295h-.36l-2.427-6.078c-2.572-6.433-5.29-9.863-12.077-9.863h-3.149v41.953c0 3.22 1.004 6.29 5.932 7.08l1.787.285v.358h-23.73v-.358l1.787-.285c4.934-.79 5.937-3.86 5.937-7.08V.435z" fill="#110f0d"/></svg>