<svg width="75" height="21" xmlns="http://www.w3.org/2000/svg"><g fill="#000" fill-rule="nonzero"><path d="M15.46 12.71l-2.13-8.98c-.34-1.38-.8-1.8-1.97-1.8H9.17L6.68 12.71 4.5 1.93H.13L4.34 20.1h3.8l2.75-10.39 2.8 10.39h3.72l4.26-18.17h-4.16l-2.05 10.78zm15.1-6.65c-1.46 0-3.15.5-4.11 1.33v-3.9c0-.98-.34-1.56-1.38-1.56h-2.75V20.1h4.13V9.79a9.6 9.6 0 012.39-.34c.88 0 1.4.23 1.4 1.3v9.35h4.13V9.63c0-2.03-.8-3.57-3.81-3.57zm4.98 14.04h4.13V6.42h-4.13V20.1zm5.04-6.84c0 4.1 2.24 7.2 6.73 7.2 1.69 0 3.22-.34 4.08-1.15v-2.6c-1.61.3-2.39.33-3.35.33-2.13 0-3.2-1.46-3.2-3.78s1.07-3.78 3.2-3.78c.96 0 1.74.02 3.35.33v-2.6c-.86-.81-2.39-1.15-4.08-1.15-4.5 0-6.73 3.1-6.73 7.2zm20.01-7.2c-1.46 0-3.15.5-4.1 1.33v-3.9c0-.98-.35-1.56-1.38-1.56h-2.76V20.1h4.13V9.79a9.6 9.6 0 012.4-.34c.88 0 1.4.23 1.4 1.3v9.35h4.13V9.63c0-2.03-.8-3.57-3.82-3.57zM38.96 1.93h-2.7c-.49 0-.9.4-.9.9v1.53c0 .5.41.9.9.9h2.7c.49 0 .89-.4.89-.9V2.83c0-.5-.4-.9-.9-.9h.01zM68.82.03c-1.71 0-3.87.5-5.12 1.46V4.2c1.36-.28 2.97-.39 3.7-.39 1.94 0 3.14.58 3.14 2.14 0 1.44-.7 1.86-1.87 2.87-1.43 1.26-2.68 1.83-2.68 4.57v1.85h4.13V13.9c0-1.62.83-2.2 2.2-3.32a6.2 6.2 0 002.48-5.17c0-3.1-2.03-5.37-5.98-5.37m.53 16.36h-2.6a.95.95 0 00-.93.94v1.81c0 .52.42.95.94.95h2.6c.51 0 .94-.43.94-.95v-1.8a.95.95 0 00-.95-.95"/></g></svg>