<svg width="47" height="47" viewBox="0 0 47 47" xmlns="http://www.w3.org/2000/svg"><title>App Icon</title><g fill-rule="nonzero" fill="none"><path d="M38.105 46H8.895A7.895 7.895 0 0 1 1 38.105V8.895A7.895 7.895 0 0 1 8.895 1h29.21A7.895 7.895 0 0 1 46 8.895v29.21A7.895 7.895 0 0 1 38.105 46z" stroke="#979797" stroke-width=".5" fill="#14233C"/><path d="M40 30.279c0 .386-.155.756-.43 1.029l-6.568 6.52c-.37.367-1.002.107-1.002-.411v-14.61L39.909 15H40v15.279z" fill="#E64B5F"/><path d="M34.75 9.17a.594.594 0 0 0-.831 0l-9.783 9.651H24v10.893l.136.286 7.851-7.746L40 14.35l-5.25-5.18z" fill="#EAD19F"/><path d="M8 30.279c0 .386.155.756.43 1.029l6.568 6.52c.37.367 1.002.107 1.002-.411v-14.61L8.091 15H8v15.279z" fill="#1E788C"/><path d="M14.134 9.17a.602.602 0 0 0-.839 0L8 14.35l8.081 7.904L24 30V18.821L14.134 9.17z" fill="#9ABDA9"/></g></svg>