<svg width="90" height="90" viewBox="0 0 90 58" xmlns="http://www.w3.org/2000/svg" xmlns:xlink="http://www.w3.org/1999/xlink"><title>Group 15</title><defs><path id="a" d="M89.76 73.794H0v-57.35h89.76z"/></defs><g transform="translate(0 -16)" fill="none" fill-rule="evenodd"><mask id="b" fill="#fff"><use xlink:href="#a"/></mask><path d="M84.541 73.509H5.219A5.219 5.219 0 0 1 0 68.289V21.378a5.219 5.219 0 0 1 5.219-5.219H84.54a5.219 5.219 0 0 1 5.22 5.22V68.29a5.22 5.22 0 0 1-5.22 5.219" fill="#FF4D56" mask="url(#b)"/><path d="M23.364 47.125h-8.445a2.33 2.33 0 0 1-2.324-2.323v-8.446a2.33 2.33 0 0 1 2.324-2.323h8.445a2.33 2.33 0 0 1 2.323 2.323v8.446a2.33 2.33 0 0 1-2.323 2.323" fill="#D9D9D9" mask="url(#b)"/></g></svg>