<svg width="40" height="45" viewBox="0 0 40 45" xmlns="http://www.w3.org/2000/svg"><title>Group 5</title><g fill="none" fill-rule="evenodd"><path fill="none" d="M-5 0h45v45H-5z"/><path d="M34.044 33.813l-5.516 5.515-2.803-2.803-.936-.936-.936.936-1.87 1.87-.936.936.936.936.984.983H.956V0H25.22l8.823 8.691v25.122zM11.985 13.015v1.764h15.441v-1.764h-15.44zm0 6.838v1.765h15.441v-1.765h-15.44zm0 6.838v1.765h15.441V26.69h-15.44zm-5.073-11.25a1.544 1.544 0 1 0 0-3.088 1.544 1.544 0 0 0 0 3.088zm0 6.838a1.544 1.544 0 1 0 0-3.088 1.544 1.544 0 0 0 0 3.088zm0 6.839a1.544 1.544 0 1 0 0-3.089 1.544 1.544 0 0 0 0 3.089z" fill="#707B8C"/><path d="M28.89 44.578l10.944-10.943-1.87-1.87-9.436 9.435-3.739-3.74-1.87 1.87 5.612 5.612.36-.364z" fill="#52AF77" fill-rule="nonzero"/></g></svg>