<?xml version="1.0" encoding="UTF-8"?>
<svg width="42px" height="52px" viewBox="0 0 42 52" version="1.1" xmlns="http://www.w3.org/2000/svg" xmlns:xlink="http://www.w3.org/1999/xlink">
    <!-- Generator: Sketch 46.1 (44463) - http://www.bohemiancoding.com/sketch -->
    <title>annual-report</title>
    <desc>Created with Sketch.</desc>
    <defs></defs>
    <g id="Page-1" stroke="none" stroke-width="1" fill="none" fill-rule="evenodd">
        <g id="Artboard" transform="translate(-7.000000, -4.000000)" fill="#DCDEE1">
            <path d="M11,44.1260175 L11,39.8739825 C11.3196199,39.956247 11.6547004,40 12,40 C14.209139,40 16,38.209139 16,36 C16,33.790861 14.209139,32 12,32 C11.6547004,32 11.3196199,32.043753 11,32.1260175 L11,27.8739825 C11.3196199,27.956247 11.6547004,28 12,28 C14.209139,28 16,26.209139 16,24 C16,21.790861 14.209139,20 12,20 C11.6547004,20 11.3196199,20.043753 11,20.1260175 L11,15.8739825 C11.3196199,15.956247 11.6547004,16 12,16 C14.209139,16 16,14.209139 16,12 C16,9.790861 14.209139,8 12,8 C11.6547004,8 11.3196199,8.043753 11,8.12601749 L11,4 L49,4 L49,56 L11,56 L11,51.8739825 C11.3196199,51.956247 11.6547004,52 12,52 C14.209139,52 16,50.209139 16,48 C16,45.790861 14.209139,44 12,44 C11.6547004,44 11.3196199,44.043753 11,44.1260175 Z M8,10 L12,10 C13.1045695,10 14,10.8954305 14,12 C14,13.1045695 13.1045695,14 12,14 L8,14 C7.44771525,14 7,13.5522847 7,13 L7,11 C7,10.4477153 7.44771525,10 8,10 L8,10 Z M8,22 L12,22 C13.1045695,22 14,22.8954305 14,24 C14,25.1045695 13.1045695,26 12,26 L8,26 C7.44771525,26 7,25.5522847 7,25 L7,23 C7,22.4477153 7.44771525,22 8,22 L8,22 Z M8,34 L12,34 C13.1045695,34 14,34.8954305 14,36 C14,37.1045695 13.1045695,38 12,38 L8,38 C7.44771525,38 7,37.5522847 7,37 L7,35 C7,34.4477153 7.44771525,34 8,34 L8,34 Z M8,46 L12,46 C13.1045695,46 14,46.8954305 14,48 C14,49.1045695 13.1045695,50 12,50 L8,50 C7.44771525,50 7,49.5522847 7,49 L7,47 C7,46.4477153 7.44771525,46 8,46 L8,46 Z" id="annual-report"></path>
        </g>
    </g>
</svg>
