<?xml version="1.0" encoding="UTF-8"?>
<svg width="56px" height="31px" viewBox="0 0 56 31" version="1.1" xmlns="http://www.w3.org/2000/svg" xmlns:xlink="http://www.w3.org/1999/xlink">
    <!-- Generator: Sketch 42 (36781) - http://www.bohemiancoding.com/sketch -->
    <title>community</title>
    <desc>Created with Sketch.</desc>
    <defs></defs>
    <g id="Page-1" stroke="none" stroke-width="1" fill="none" fill-rule="evenodd">
        <g id="FAIR102" transform="translate(-154.000000, -489.000000)" fill="#DCDEE1">
            <g id="FAQ" transform="translate(130.000000, 465.000000)">
                <g id="Block">
                    <g id="Contacts" transform="translate(24.000000, 24.000000)">
                        <g id="Group-3">
                            <path d="M16.1991862,20.1801057 C15.8763783,20.0617223 15.3977098,19.9323542 14.5002996,19.7022093 C13.456231,19.4344249 12.9816934,19.2952394 12.8254215,19.2050169 C12.8386812,19.2124306 12.7499035,18.9453292 12.7178474,18.5318703 C12.6958565,18.2482317 12.6969421,17.9387577 12.7131768,17.6401826 L13.1452945,17.2753179 L13.1833871,17.0013276 C13.2058366,16.8398546 13.2477829,16.5881853 13.3023323,16.342422 C13.3490729,16.1318395 13.3977866,15.97065 13.4223767,15.9245099 C13.5452977,15.7057424 13.6788762,15.4308033 13.8153023,15.1205959 C13.9528551,14.8078265 14.0863369,14.4752926 14.2111823,14.1430982 C14.2470007,14.0477911 14.2784422,13.9623955 14.3049461,13.8892103 C14.3634983,13.8328027 14.4236382,13.7672412 14.4831225,13.6919016 C14.7191496,13.3929623 14.8650979,13.0301079 14.8650979,12.6131387 C14.8650979,12.1961695 14.7191496,11.8333151 14.4831225,11.5343758 C14.4713229,11.5194311 14.4594976,11.5048712 14.4476639,11.4906911 C14.4640999,11.3347445 14.4820992,11.1524611 14.5000891,10.9520369 C14.5294408,10.6250325 14.5532648,10.3058826 14.5695969,10.0042206 C14.5851525,9.716902 14.5934974,9.45267067 14.5934974,9.21566025 C14.5934974,6.58782534 12.761571,5.09090909 9.737381,5.09090909 C6.5299431,5.09090909 4.42859709,6.51473149 4.42859709,9.21566025 C4.42859709,9.46681506 4.44607387,9.74350449 4.47847097,10.0426993 C4.5120972,10.3532455 4.56091885,10.680257 4.62096534,11.0147435 C4.65524791,11.2057132 4.68955508,11.3805723 4.720039,11.5343758 C4.48401193,11.8333151 4.33806359,12.1961695 4.33806359,12.6131387 C4.33806359,13.0301079 4.48401193,13.3929623 4.720039,13.6919016 C4.7803152,13.7682442 4.84126459,13.8345467 4.90055304,13.8914584 C4.92141342,13.9481225 4.9453609,14.0125786 4.97201012,14.0835077 C5.07850992,14.3669658 5.18973245,14.6506593 5.30070664,14.9170688 C5.3568759,15.0519112 5.41172024,15.1792191 5.46497073,15.2978709 C5.58661879,15.5689252 5.69773861,15.7904579 5.80139757,15.9606472 C5.83296412,16.0091101 5.879158,16.14898 5.91922054,16.3366951 C5.96940607,16.571842 6.00179932,16.815526 6.01599747,16.9687112 L6.04327356,17.2629957 L6.48998459,17.6401826 C6.50621936,17.9387577 6.50730502,18.2482317 6.48531407,18.5318703 C6.45325795,18.9453292 6.36448028,19.2124306 6.34472506,19.2252496 C6.35411459,19.219151 6.25740534,19.2517044 6.10065102,19.2894429 C5.91641557,19.3337974 4.71785933,19.5680841 4.34876183,19.6533152 C2.49677236,20.0809726 0.736842105,20.6315013 0.736842105,21.8181818 L0.736842105,26.1818182 L14.7368421,26.1818182 L14.7368421,23.177582 C14.768699,22.5213806 14.9652051,21.763949 15.4840639,20.99576 C15.6857796,20.6971127 15.9240457,20.4233614 16.1991862,20.1801057 Z M41.2631579,26.1763727 L55.2631579,26.1818182 C55.2631579,26.1818182 55.2698889,21.8977713 55.266335,21.0877575 C55.2611591,19.9080776 53.4933832,19.3353688 51.677023,18.9034666 C51.2783263,18.8086627 49.9593758,18.5505514 49.7769786,18.5014854 C49.7013614,18.4811439 49.6577606,18.4655372 49.6679758,18.4714389 C49.6812265,18.4788526 49.5925095,18.2117513 49.5604753,17.7982923 C49.5384993,17.5146537 49.5395842,17.2051797 49.5558079,16.9066046 L49.9876303,16.5417399 L50.0256969,16.2677497 C50.0481311,16.1062766 50.0900487,15.8546073 50.1445608,15.608844 C50.1906354,15.4011204 50.2386285,15.2414576 50.2635092,15.1928745 C50.3948315,14.9567531 50.5246617,14.6885469 50.6571804,14.387018 C50.7946392,14.0742485 50.9280299,13.7417146 51.05279,13.4095202 C51.0885839,13.3142131 51.120004,13.2288175 51.1464898,13.1556324 C51.205002,13.0992248 51.2651008,13.0336632 51.3245444,12.9583236 C51.5604102,12.6593843 51.7062589,12.2965299 51.7062589,11.8795607 C51.7062589,11.4625915 51.5604102,11.0997371 51.2891101,10.7571131 C51.3055348,10.6011665 51.3235218,10.4188831 51.3414995,10.2184589 C51.3708311,9.89145452 51.3946388,9.5723046 51.4109597,9.27064262 C51.4265047,8.98332402 51.4348439,8.71909269 51.4348439,8.48208228 C51.4348439,7.96369835 51.3512836,7.55262469 51.1460148,6.83632029 C50.9589188,6.18343168 50.9128511,5.97832963 50.9128511,5.72389717 L50.9128511,4.90430847 L50.0889355,5.00178663 C48.5684085,5.18168149 47.8114259,5.11278673 46.7675971,4.61468045 C46.077788,4.28550943 45.1402646,4.27317819 44.4634892,4.6184295 C44.0070956,4.85125485 43.7083441,5.21252225 43.58761,5.65514449 C43.1034232,5.59927669 42.632961,5.74441385 42.2296836,6.09315373 C41.6231738,6.61764179 41.2768876,7.53810017 41.2768876,8.48208228 C41.2768876,8.73323708 41.2943524,9.00992652 41.3267274,9.30912137 C41.3603307,9.61966757 41.4091189,9.94667901 41.4691244,10.2811655 C41.5033836,10.4721352 41.5376673,10.6469943 41.5681304,10.8007978 C41.3322646,11.0997371 41.1864159,11.4625915 41.1864159,11.8795607 C41.1864159,12.2965299 41.3322646,12.6593843 41.5681304,12.9583236 C41.6283654,13.0346662 41.6892732,13.1009687 41.7485211,13.1578804 C41.7693672,13.2145445 41.7932984,13.2790006 41.8199294,13.3499297 C41.9263564,13.6333878 42.037503,13.9170814 42.1484014,14.1834909 C42.2045322,14.3183332 42.2593391,14.4456411 42.3125532,14.564293 C42.4341182,14.8353472 42.5451621,15.0568799 42.6487503,15.2270692 C42.6802952,15.2755321 42.7264576,15.415402 42.7664927,15.6031172 C42.816644,15.8382641 42.8490151,16.081948 42.8632036,16.2351332 L42.890461,16.5294177 L43.3368669,16.9066046 C43.3530906,17.2051797 43.3541755,17.5146537 43.3321996,17.7982923 C43.3001653,18.2117513 43.2114483,18.4788526 43.2316904,18.4674504 C42.9948015,18.6196511 42.3717916,18.9549685 41.4909701,19.4104522 C41.4462407,19.433575 41.4462407,19.433575 41.4014726,19.4566893 C40.9777559,19.675394 40.5233684,19.9072044 40.0689248,20.1372264 C39.9929358,20.1756891 39.9216621,20.211718 39.8557628,20.2449929 C40.1075812,20.4755177 40.3273609,20.7321684 40.5154008,21.010434 C41.034629,21.778799 41.2312828,22.5364563 41.2631579,23.1928547 L41.2631579,26.1763727 Z" id="Combined-Shape" fill-rule="nonzero"></path>
                            <path d="M24.8269926,16.8756183 L24.8269926,18.1489274 C24.8269926,18.1489274 24.6450752,18.2872547 24.3550621,18.4714002 C23.121188,19.1377274 20.4310964,19.8398365 20.3814426,19.865582 C20.3247582,19.8961274 19.5078879,20.0462365 17.9013908,20.7963456 C16.2944544,21.5460183 16.2105263,23.177582 16.2105263,23.177582 L16.2105263,30.5454545 L39.7894737,30.5454545 L39.7894737,23.1928547 C39.7894737,23.1928547 39.7055456,21.5617274 38.0986092,20.8116183 C36.4921121,20.0615093 35.6752418,19.9114002 35.6185574,19.8808547 C35.5706613,19.8551093 32.8792514,19.1530002 31.6449379,18.4866729 C31.3549248,18.3025274 31.1730074,18.1642002 31.1730074,18.1642002 L31.1730074,16.8380911 C31.1730074,16.8380911 34.7946564,16.9489274 36.5145222,15.2052183 C36.5145222,15.2052183 34.013818,14.5013638 34.4633384,9.98107289 C34.9128587,5.45860017 33.9022069,1.48900017 30.2427683,1.8245638 C30.2427683,1.8245638 28.6564843,-0.0709998327 25.4984169,1.12070926 C24.4135041,1.52958199 21.5059027,2.56420017 21.6535457,8.83038199 C21.8011571,15.0930363 19.4126828,15.1318928 19.4116566,15.1319093 C19.4118038,15.1321222 20.6444624,16.911398 24.8269926,16.8756183 Z" id="Path"></path>
                        </g>
                    </g>
                </g>
            </g>
        </g>
    </g>
</svg>