<?xml version="1.0" encoding="UTF-8"?>
<svg width="55px" height="55px" viewBox="0 0 55 55" version="1.1" xmlns="http://www.w3.org/2000/svg" xmlns:xlink="http://www.w3.org/1999/xlink">
    <!-- Generator: Sketch 42 (36781) - http://www.bohemiancoding.com/sketch -->
    <title>crowdfunding</title>
    <desc>Created with Sketch.</desc>
    <defs></defs>
    <g id="Page-1" stroke="none" stroke-width="1" fill="none" fill-rule="evenodd">
        <g id="FAIR102" transform="translate(-155.000000, -1016.000000)" fill="#DCDEE1">
            <g id="FAQ" transform="translate(130.000000, 465.000000)">
                <g id="Block" transform="translate(0.000000, 528.000000)">
                    <g id="Group-8" transform="translate(25.000000, 17.000000)">
                        <path d="M32.94,6.1 C29.585,6.1 26.84,8.845 26.84,12.2 C26.84,14.55704 28.2064,16.6001333 30.1762933,17.6135467 L27.755,27.2783867 C26.8847333,27.0018533 25.9697333,26.84 25.01,26.84 C22.8912667,26.84 20.94008,27.5679333 19.3866133,28.78468 L9.96984,20.85468 C10.6050533,19.9583867 10.98,18.8652667 10.98,17.69 C10.98,14.67172 8.50828,12.2 5.49,12.2 C2.47172,12.2 0,14.67172 0,17.69 C0,20.70828 2.47172,23.18 5.49,23.18 C6.44322667,23.18 7.33870667,22.92624 8.12032,22.4935467 L17.6712933,30.5382267 C16.53344,32.0632267 15.86,33.95016 15.86,35.99 C15.86,38.0680667 16.5716667,39.9802133 17.7469333,41.5182267 L11.5517733,47.7329067 C10.3537333,46.87484 8.89868,46.36 7.32,46.36 C3.29156,46.36 0,49.65156 0,53.68 C0,57.70844 3.29156,61 7.32,61 C11.34844,61 14.64,57.70844 14.64,53.68 C14.64,52.10132 14.12516,50.6462667 13.2670933,49.4482267 L19.4630667,43.2530667 C21.00352,44.43484 22.92624,45.14 25.01,45.14 C28.0632533,45.14 30.7602667,43.6182533 32.42516,41.3083867 L41.6133867,45.65484 C41.5279867,46.0802133 41.48,46.5218533 41.48,46.97 C41.48,50.66172 44.49828,53.68 48.19,53.68 C51.88172,53.68 54.9,50.66172 54.9,46.97 C54.9,43.27828 51.88172,40.26 48.19,40.26 C45.80368,40.26 43.7004,41.53368 42.50968,43.42468 L33.5687067,39.1733867 C33.9404,38.17868 34.16,37.1115867 34.16,35.99 C34.16,35.1002133 34.0168533,34.2486533 33.7785467,33.43532 L42.8529067,27.3930667 C43.8598133,28.54312 45.33032,29.28 46.97,29.28 C49.98828,29.28 52.46,26.80828 52.46,23.79 C52.46,20.77172 49.98828,18.3 46.97,18.3 C43.95172,18.3 41.48,20.77172 41.48,23.79 C41.48,24.28532 41.5466933,24.7619333 41.67032,25.21984 L32.7683867,31.1669333 C32.0599733,30.0364 31.11976,29.05796 30.00468,28.3267733 L32.52032,18.2812933 C32.65696,18.29024 32.8001067,18.3 32.94,18.3 C36.295,18.3 39.04,15.555 39.04,12.2 C38.9196267,8.13658667 35.8720667,6.27161333 32.94,6.1 Z" id="Page-1"></path>
                    </g>
                </g>
            </g>
        </g>
    </g>
</svg>