<?xml version="1.0" encoding="UTF-8"?>
<svg width="50px" height="80px" viewBox="0 0 50 80" version="1.1" xmlns="http://www.w3.org/2000/svg" xmlns:xlink="http://www.w3.org/1999/xlink">
    <!-- Generator: Sketch 42 (36781) - http://www.bohemiancoding.com/sketch -->
    <title>diversity</title>
    <desc>Created with Sketch.</desc>
    <defs></defs>
    <g id="Page-1" stroke="none" stroke-width="1" fill="none" fill-rule="evenodd">
        <g id="FAIR102" transform="translate(-866.000000, -993.000000)" fill="#DCDEE1">
            <g id="Group-11" transform="translate(866.000000, 993.000000)">
                <path d="M13.6169995,51.1111111 C7.27846701,49.4136017 2.32689058,44.4621215 0.62615673,38.1236582 C-1.07140988,31.7853422 0.738365439,25.0213047 5.37930111,20.3803507 C10.0202368,15.7393968 16.7843138,13.9269868 23.1232146,15.6273687 C29.4617471,17.3248781 34.4133228,22.2792308 36.1111111,28.6177678 C29.7725786,26.9202584 23.0112563,28.7328525 18.3701439,33.3736223 C13.7320514,38.0115564 11.9194322,44.7730897 13.6169995,51.1110375 L13.6169995,51.1111111 Z M44.6122178,32.7175953 C42.3365575,30.4337224 39.4969536,28.794232 36.3810121,27.962963 C38.0755681,34.2996501 36.2601807,41.0560585 31.622512,45.6928743 C26.9848433,50.3296902 20.2265343,52.1445798 13.8888889,50.4503784 C15.3647759,55.9672836 19.3206303,60.4861349 24.5969687,62.6723667 C29.8733808,64.8613245 35.8692131,64.4701 40.8148598,61.613859 C45.7633051,58.7576202 49.100567,53.7643358 49.8429664,48.1003073 C50.5880908,42.4395924 48.6547591,36.7531052 44.6125861,32.7171535 L44.6122178,32.7175953 Z" id="Page-1"></path>
            </g>
        </g>
    </g>
</svg>