<?xml version="1.0" encoding="UTF-8"?>
<svg width="52px" height="44px" viewBox="0 0 52 44" version="1.1" xmlns="http://www.w3.org/2000/svg" xmlns:xlink="http://www.w3.org/1999/xlink">
    <!-- Generator: Sketch 42 (36781) - http://www.bohemiancoding.com/sketch -->
    <title>ethics</title>
    <desc>Created with Sketch.</desc>
    <defs></defs>
    <g id="Page-1" stroke="none" stroke-width="1" fill="none" fill-rule="evenodd">
        <g id="FAIR102" transform="translate(-474.000000, -484.000000)" fill="#DCDEE1">
            <g id="FAQ" transform="translate(130.000000, 465.000000)">
                <g id="Block" transform="translate(320.000000, 0.000000)">
                    <g id="Group-7" transform="translate(24.000000, 19.000000)">
                        <path d="M47.7238491,14.3502526 L46.9077425,14.3502526 C45.6824625,11.6674793 43.7575558,9.27590598 41.3077425,7.35099931 L41.5989425,4.37553265 C41.8326491,2.15867931 41.8908891,1.34257265 41.8326491,0.934145979 C41.7736625,0.350252646 41.3659825,0.000812645578 40.7238491,0.000812645578 C37.9820891,-0.0574273544 31.9744091,3.03377265 31.7989425,3.15025265 C31.6824625,3.15025265 28.6487558,2.68433265 27.4242225,2.68433265 C19.1989425,2.68433265 12.0824625,6.88358598 8.58208912,13.0674793 C8.58208912,13.1257193 8.46560912,13.1839593 8.46560912,13.1839593 C7.06560912,14.5839593 4.79051579,14.5257193 3.39051579,13.1257193 C2.80736912,12.5425726 2.45718246,11.7839593 2.34070246,10.967106 C2.28246246,10.2092393 1.46560912,9.68358598 0.706995788,9.97553265 C0.241075788,10.1509993 -0.0508708782,10.675906 0.00736912179,11.2008126 C0.123849122,12.5425726 0.765982455,13.825346 1.69931579,14.7586793 C2.86560912,15.9257193 4.32384912,16.450626 5.84107579,16.450626 C6.24875579,16.450626 6.59894246,16.392386 7.00736912,16.334146 C6.48246246,17.967106 6.19051579,19.6590526 6.19051579,21.4092393 C6.19051579,25.1425726 7.41579579,28.7004393 9.69088912,31.792386 C7.64875579,34.475906 7.70774246,38.2674793 9.92384912,40.7755326 C11.2073691,42.2337726 13.0157958,43.108866 14.9989425,43.167106 L15.2326491,43.167106 C17.0993158,43.167106 18.9077425,42.4092393 20.1905158,41.1257193 L21.7659825,39.5502526 C24.8571825,40.308866 28.1820891,40.425346 31.3322758,39.8421993 L32.4993158,41.0092393 C35.2403291,43.6920126 39.4993158,43.8674793 42.2993158,41.4169193 C44.6908891,39.3172926 45.2740358,35.8169193 43.9322758,33.075906 C45.1575558,31.675906 46.1491291,30.1004393 46.9077425,28.4674793 L47.6656091,28.4674793 C49.7077425,28.4674793 51.3989425,26.7755326 51.3989425,24.734146 L51.3989425,18.1425726 C51.4571825,16.0421993 49.7659825,14.3502526 47.7238491,14.3502526 Z M29.6993158,9.45062598 C29.4656091,10.0337726 28.8242225,10.3839593 28.2410758,10.2092393 C28.0656091,10.1509993 23.9238491,8.80923931 20.6571825,11.6092393 C20.4242225,11.7839593 20.1905158,11.9004393 19.8993158,11.9004393 C19.5491291,11.9004393 19.2571825,11.7839593 19.0242225,11.4920126 C18.6157958,11.025346 18.6740358,10.2674793 19.1407025,9.85905265 C23.3989425,6.18395931 28.7659825,7.93414598 28.9989425,7.99238598 C29.5820891,8.16710598 29.9322758,8.86747931 29.6993158,9.45062598 Z M37.4571825,19.5425726 C36.2326491,19.5425726 35.2403291,18.5509993 35.2403291,17.3257193 C35.2403291,16.1004393 36.2326491,15.108866 37.4571825,15.108866 C38.6824625,15.108866 39.6740358,16.1004393 39.6740358,17.3257193 C39.6740358,18.5509993 38.6824625,19.5425726 37.4571825,19.5425726 Z" id="Page-1"></path>
                    </g>
                </g>
            </g>
        </g>
    </g>
</svg>