<?xml version="1.0" encoding="UTF-8"?>
<svg width="43px" height="41px" viewBox="0 0 43 41" version="1.1" xmlns="http://www.w3.org/2000/svg" xmlns:xlink="http://www.w3.org/1999/xlink">
    <!-- Generator: Sketch 42 (36781) - http://www.bohemiancoding.com/sketch -->
    <title>fill-this</title>
    <desc>Created with Sketch.</desc>
    <defs></defs>
    <g id="Page-1" stroke="none" stroke-width="1" fill="none" fill-rule="evenodd">
        <g id="fill-this" fill-rule="nonzero" fill="#DCDEE1">
            <g id="Page-1">
                <g>
                    <g id="FAIR102">
                        <g id="Group-9">
                            <path d="M0.00102666667,8.1708508 L0.00102666667,8.1708508 C0.00337333333,7.0544241 0.9086,6.1491975 2.02444,6.1468508 L23.7223067,6.1468508 L21.8819333,10.1942641 L2.02444,10.1942641 C0.9086,10.1919175 0.00337333333,9.2866908 0.00102666667,8.1708508 Z M0.00102666667,33.0355441 L0.00102666667,33.0355441 C0.00337333333,34.1513841 0.9086,35.0566108 2.02444,35.0589575 L12.9006533,35.0589575 C12.92588,33.6996508 13.0590533,32.3479708 13.3019333,31.0115441 L2.02444,31.0115441 C0.9086,31.0138908 0.00337333333,31.9191175 0.00102666667,33.0355441 Z M2.02444,18.4715441 L18.1278533,18.4715441 L19.9682267,14.4247175 L2.02444,14.4247175 C-0.674813333,14.4247175 -0.674813333,18.4715441 2.02444,18.4715441 Z M0.00102666667,24.7189575 L0.00102666667,24.7189575 C0.00337333333,25.8347975 0.9086,26.7400241 2.02444,26.7423708 L14.4594267,26.7423708 C14.6794267,26.1375175 14.9246533,25.5414641 15.19452,24.9524508 L16.2194267,22.6949575 L2.02444,22.6949575 C0.9086,22.6973041 0.00337333333,23.6025308 0.00102666667,24.7189575 Z M39.8509467,10.6090375 L37.61164,9.6052508 L38.49164,7.6827441 C39.1334533,6.3991175 39.2249733,4.9095708 38.7462533,3.5573041 C38.2651867,2.2056241 37.2567067,1.1079708 35.9502,0.5142641 C34.64428,-0.0794425 33.1523867,-0.1134692 31.8183067,0.4157041 C30.48716,0.9448775 29.42588,1.9944241 28.8826267,3.3214641 L18.3983067,26.4056241 C16.48284,30.6266908 15.9395867,35.3452508 16.8448133,39.8919175 C17.0260933,40.8153308 18.06156,41.2852508 18.8776133,40.8153308 C22.8968667,38.5032775 26.0918533,34.9879708 28.00732,30.7639708 L36.0810267,12.9967708 L38.3086,14.0052508 C38.4758,14.0809308 38.5491333,14.2780508 38.4758,14.4452508 L34.1420933,23.9920775 C33.6932933,24.9366108 34.1080667,26.0665308 35.0590533,26.4971441 C36.0123867,26.9301041 37.13292,26.4971441 37.5476933,25.5367708 L41.8814,15.9899441 C42.80012,13.9436508 41.8925467,11.5394908 39.8509467,10.6090375 Z" id="Page-1"></path>
                        </g>
                    </g>
                </g>
            </g>
        </g>
    </g>
</svg>