<?xml version="1.0" encoding="UTF-8"?>
<svg width="50px" height="41px" viewBox="0 0 50 41" version="1.1" xmlns="http://www.w3.org/2000/svg" xmlns:xlink="http://www.w3.org/1999/xlink">
    <!-- Generator: Sketch 42 (36781) - http://www.bohemiancoding.com/sketch -->
    <title>status</title>
    <desc>Created with Sketch.</desc>
    <defs></defs>
    <g id="Page-1" stroke="none" stroke-width="1" fill="none" fill-rule="evenodd">
        <g id="status" fill-rule="nonzero" fill="#DCDEE1">
            <g id="Page-1">
                <g>
                    <g id="FAIR102">
                        <g id="Group-10">
                            <path d="M46.9633888,17.1598269 L36.9242334,17.1598269 L32.7749141,2.2906754 C32.4040114,0.929322 31.1649154,0 29.7994317,0 C28.4380782,0 27.1989823,0.929322 26.8247753,2.2906754 L20.2616971,25.8334985 L18.4641819,19.4505022 C18.0932791,18.0891488 16.8541832,17.1598269 15.4886994,17.1598269 L3.09773989,17.1598269 C1.36217949,17.1598269 0,18.5211803 0,20.2575667 C0,21.9939532 1.36217949,23.3553066 3.09773989,23.3553066 L13.1335911,23.3553066 L17.2829104,38.2244581 C17.6538131,39.5858115 18.8929091,40.5151335 20.2583928,40.5151335 C21.6197462,40.5151335 22.8588422,39.5858115 23.2330492,38.2244581 L29.7383029,14.6816349 L31.5358181,21.0646312 C31.9067209,22.4259847 33.1458168,23.3553066 34.5113006,23.3553066 L46.9022601,23.3553066 C48.6378205,23.3553066 50,21.9939532 50,20.2575667 C50,18.5211803 48.6345163,17.1598269 46.9633888,17.1598269 Z" id="Page-1"></path>
                        </g>
                    </g>
                </g>
            </g>
        </g>
    </g>
</svg>