<?xml version="1.0" encoding="UTF-8"?>
<svg width="56px" height="30px" viewBox="0 0 56 30" version="1.1" xmlns="http://www.w3.org/2000/svg" xmlns:xlink="http://www.w3.org/1999/xlink">
    <!-- Generator: Sketch 42 (36781) - http://www.bohemiancoding.com/sketch -->
    <title>transparency</title>
    <desc>Created with Sketch.</desc>
    <defs></defs>
    <g id="Page-1" stroke="none" stroke-width="1" fill="none" fill-rule="evenodd">
        <g id="FAIR102" transform="translate(-476.000000, -757.000000)" fill="#DCDEE1">
            <g id="FAQ" transform="translate(130.000000, 465.000000)">
                <g id="Block" transform="translate(320.000000, 264.000000)">
                    <g id="Page-1" transform="translate(26.000000, 28.000000)">
                        <path d="M54.8101918,13.9823562 C54.3491507,13.4637808 42.728,0.287671233 28,0.287671233 C13.3855342,0.287671233 1.76515068,13.4637808 1.18980822,13.9823562 L0.383561644,14.9589041 L1.18980822,15.9354521 C1.65084932,16.4540274 13.272,29.630137 28,29.630137 C42.6144658,29.630137 54.2348493,16.4540274 54.8101918,15.9354521 L55.6164384,14.9589041 L54.8101918,13.9823562 Z M28,24.1643836 C22.9354521,24.1643836 18.7945205,20.0234521 18.7945205,14.9589041 C18.7945205,9.89435616 22.9354521,5.75342466 28,5.75342466 C33.0645479,5.75342466 37.2054795,9.89435616 37.2054795,14.9589041 C37.2054795,20.0234521 33.0645479,24.1643836 28,24.1643836 Z" id="Fill-1"></path>
                        <path d="M32.0273973,14.9589041 C32.0273973,20.3287671 23.9726027,20.3287671 23.9726027,14.9589041 C23.9726027,9.5890411 32.0273973,9.5890411 32.0273973,14.9589041" id="Fill-2"></path>
                    </g>
                </g>
            </g>
        </g>
    </g>
</svg>