<?xml version="1.0" encoding="UTF-8"?>
<svg width="45px" height="50px" viewBox="0 0 45 50" version="1.1" xmlns="http://www.w3.org/2000/svg" xmlns:xlink="http://www.w3.org/1999/xlink">
    <!-- Generator: Sketch 42 (36781) - http://www.bohemiancoding.com/sketch -->
    <title>whistleblowing</title>
    <desc>Created with Sketch.</desc>
    <defs></defs>
    <g id="Page-1" stroke="none" stroke-width="1" fill="none" fill-rule="evenodd">
        <g id="FAIR102" transform="translate(-796.000000, -1010.000000)" fill="#DCDEE1">
            <g id="FAQ" transform="translate(130.000000, 465.000000)">
                <g id="Block" transform="translate(640.000000, 528.000000)">
                    <g id="Page-1" transform="translate(26.000000, 17.000000)">
                        <path d="M41.7113053,32.0592105 C41.4526737,32.5065789 41.1237474,32.9335526 40.7271789,33.3342105 C36.5744842,37.5388158 25.8266842,38.0217105 22.2131368,38.0625 C18.6022421,38.0217105 7.85444211,37.5388158 3.70174737,33.3342105 C3.30517895,32.9335526 2.97890526,32.5065789 2.71762105,32.0592105 C-4.10561053,35.6776316 4.49422105,40.4578947 4.49422105,40.4578947 C5.92730526,41.4342105 15.9549158,47.0315789 15.9549158,47.0315789 C20.3065579,49.4473684 22.1196316,49.3473684 22.2157895,49.3421053 C22.3139368,49.35 24.1276737,49.45 28.4793158,47.0315789 C28.4793158,47.0315789 38.5069263,41.4368421 39.9400105,40.4578947 C39.9373579,40.4578947 48.5371895,35.6776316 41.7113053,32.0592105 Z" id="Fill-1"></path>
                        <path d="M22.2104842,4.55131579 L22.2104842,4.55131579 L22.2157895,4.55131579 L22.2210947,4.55131579 C25.2205579,4.55131579 27.3214421,4.21973684 28.3911158,3.90855263 L28.4846211,3.90855263 C28.3367368,3.77763158 28.0416316,3.62894737 27.4925368,3.46447368 L23.2416947,0.354605263 C23.2416947,0.354605263 23.0188737,0.00263157895 22.2210947,0 L22.2157895,0 L22.2104842,0 C21.4127053,0.00263157895 21.1898842,0.354605263 21.1898842,0.354605263 L16.9363895,3.46447368 C16.3872947,3.62631579 16.0921895,3.77763158 15.9443053,3.90855263 L16.0378105,3.90855263 C17.1127895,4.21973684 19.2110211,4.55131579 22.2104842,4.55131579 Z" id="Fill-2"></path>
                        <path d="M19.6254947,11.7315789 C19.9179474,11.7315789 20.1666316,11.8473684 20.4000632,11.9782895 C20.7236842,11.6388158 21.1149474,11.5184211 21.4518316,11.4618421 L21.4518316,11.4309211 C21.3066,11.4052632 21.1534105,11.3664474 21.0008842,11.3203947 C20.7415895,11.2407895 20.5114737,11.1302632 20.3092105,11.0328947 C20.1798947,10.9710526 20.0605263,10.9144737 19.9438105,10.8684211 C19.7627684,10.7986842 19.6308,10.7677632 19.5061263,10.7677632 C19.3920632,10.7677632 19.2726947,10.7934211 19.1460316,10.8473684 C18.8456211,10.9763158 18.7342105,11.1736842 18.7494632,11.5618421 C18.7547684,11.7263158 18.7965474,11.9164474 18.8635263,12.1092105 C18.8741368,12.0940789 18.8820947,12.0809211 18.8946947,12.0684211 C18.9908526,11.9447368 19.1951053,11.7960526 19.3688526,11.7572368 C19.4544,11.7421053 19.5399474,11.7315789 19.6254947,11.7315789 Z" id="Fill-3"></path>
                        <path d="M19.3250842,16.2210526 C19.3250842,16.2157895 19.3224316,16.2085526 19.3197789,16.2032895 C19.3144737,16.2032895 19.3091684,16.2032895 19.3065158,16.2006579 C19.3144737,16.2085526 19.3197789,16.2138158 19.3250842,16.2210526 Z" id="Fill-4"></path>
                        <path d="M25.0706842,16.2111842 C25.0653789,16.2111842 25.0627263,16.2111842 25.0600737,16.2138158 C25.0600737,16.2184211 25.0574211,16.2236842 25.0574211,16.2289474 C25.0627263,16.2210526 25.0680316,16.2157895 25.0706842,16.2111842 Z" id="Fill-5"></path>
                        <path d="M24.0912,11.9552632 C24.2908105,11.8315789 24.4459895,11.7315789 24.6873789,11.7315789 C24.7596632,11.7315789 24.8399053,11.7421053 24.9281053,11.7598684 C25.1038421,11.7986842 25.3061053,11.9473684 25.4022632,12.0710526 C25.4122105,12.0835526 25.4228211,12.0967105 25.4307789,12.1118421 C25.4977579,11.9190789 25.5395368,11.7289474 25.5448421,11.5644737 C25.5600947,11.1763158 25.4486842,10.9763158 25.1482737,10.85 C25.0209474,10.7960526 24.9048947,10.7703947 24.7881789,10.7703947 C24.6615158,10.7703947 24.5315368,10.8013158 24.3504947,10.8703947 C24.2364316,10.9144737 24.1144105,10.9736842 23.9877474,11.0348684 C23.7854842,11.1328947 23.5553684,11.2434211 23.2960737,11.3230263 C23.1428842,11.3717105 22.9903579,11.4078947 22.8451263,11.4335526 L22.8451263,11.4618421 C23.2184842,11.5210526 23.6926421,11.6440789 24.0500842,11.9835526 C24.0626842,11.9730263 24.0759474,11.9631579 24.0912,11.9552632 Z" id="Fill-6"></path>
                        <path d="M22.2104842,36.4592105 L22.2157895,36.4592105 L22.2210947,36.4592105 C25.6741579,36.4078947 35.9013789,35.9401316 39.5799158,32.2138158 C40.1933368,31.5921053 40.5792947,30.9210526 40.7450842,30.1809211 C40.7351368,28.2532895 40.3723895,8.39605263 29.9097474,4.79013158 C29.3526947,5.16315789 28.5078316,5.37631579 27.7306105,5.525 C26.2517684,5.81315789 24.2934632,5.96973684 22.2157895,5.96973684 C20.1407684,5.96973684 18.1824632,5.81052632 16.7036211,5.525 C15.9264,5.37368421 15.0815368,5.16052632 14.5244842,4.79013158 C4.06184211,8.39605263 3.69909474,28.2532895 3.68848421,30.1809211 C3.85427368,30.9210526 4.24089474,31.5921053 4.85431579,32.2138158 C8.53285263,35.9401316 18.7574211,36.4078947 22.2104842,36.4592105 Z M13.0608947,22.1526316 C13.5456632,21.9625 14.0894526,21.875 14.7758211,21.8723684 C14.5662632,21.8105263 14.364,21.7236842 14.1723474,21.5973684 C14.1285789,21.5690789 14.1053684,21.5203947 14.1100105,21.4690789 C14.1153158,21.4177632 14.1491368,21.3736842 14.1982105,21.3559211 C14.4833684,21.2480263 14.7890842,21.1967105 15.1332632,21.1967105 L15.1982526,21.1967105 C15.0609789,21.1348684 14.9316632,21.0657895 14.8122947,20.9881579 C14.7731684,20.9625 14.7499579,20.9190789 14.7499579,20.8703947 C14.7526105,20.8236842 14.7784737,20.7802632 14.8176,20.7572368 C15.0218526,20.6388158 15.2446737,20.5796053 15.5013158,20.5796053 L15.5530421,20.5796053 C15.4263789,20.5 15.3096632,20.4 15.2088632,20.2736842 C15.1803474,20.2381579 15.1697368,20.1894737 15.1849895,20.1453947 C15.2009053,20.1019737 15.2347263,20.0684211 15.2784947,20.0552632 C15.4104632,20.0197368 15.5503895,19.9986842 15.6929684,19.9986842 C15.7526526,19.9986842 15.8123368,20.0013158 15.8693684,20.0092105 C15.7267895,19.9092105 15.6021158,19.7855263 15.5013158,19.6289474 C15.4754526,19.5901316 15.4728,19.5414474 15.4907053,19.5006579 C15.5092737,19.4592105 15.5477368,19.4282895 15.5921684,19.4210526 C15.6777158,19.4052632 15.7652526,19.3973684 15.8534526,19.3973684 C15.9443053,19.3973684 16.0325053,19.4052632 16.1207053,19.4210526 C15.9675158,19.2973684 15.8355474,19.1480263 15.7420421,18.9578947 C15.7214842,18.9171053 15.7241368,18.8710526 15.7446947,18.8322368 C15.7652526,18.7934211 15.8070316,18.7677632 15.8508,18.7631579 C15.8978842,18.7578947 15.9443053,18.7552632 15.9907263,18.7552632 C16.1100947,18.7552632 16.2215053,18.7703947 16.3302632,18.7960526 C16.1465684,18.6368421 15.9834316,18.4519737 15.8614105,18.2230263 C15.8382,18.1796053 15.8408526,18.1309211 15.8640632,18.0894737 C15.8899263,18.0486842 15.9336947,18.0230263 15.9807789,18.0230263 L15.9880737,18.0230263 C16.1671263,18.0230263 16.3355684,18.0532895 16.4960526,18.1072368 C16.2553263,17.8789474 16.0504105,17.6190789 15.9104842,17.2953947 C15.8899263,17.2493421 15.8978842,17.1953947 15.9310421,17.1539474 C15.9622105,17.1157895 16.0165895,17.0973684 16.0663263,17.1078947 C16.2785368,17.1513158 16.4728421,17.2263158 16.6538842,17.3210526 C16.2579789,16.9177632 15.9005368,16.4756579 15.6438947,15.9565789 C15.6180316,15.9052632 15.6279789,15.8434211 15.6671053,15.8026316 C15.7062316,15.7611842 15.7679053,15.7486842 15.8196316,15.7717105 C16.3667368,15.9973684 16.8123789,16.3519737 17.2162421,16.7480263 C17.1174316,16.5657895 17.0371895,16.3730263 16.9828105,16.1618421 C16.9702105,16.1105263 16.9881158,16.0592105 17.0272421,16.0256579 C17.0657053,15.9927632 17.1227368,15.9848684 17.1698211,16.0052632 C17.5060421,16.1493421 17.7759474,16.3625 18.0113684,16.6118421 C17.9516842,16.4605263 17.9105684,16.2980263 17.8900105,16.1289474 C17.8847053,16.0796053 17.9026105,16.0335526 17.9417368,16.0052632 C17.9802,15.9743421 18.0319263,15.9690789 18.0763579,15.9875 C18.3303474,16.0875 18.5292947,16.2421053 18.6950842,16.4269737 C18.6566211,16.2723684 18.6360632,16.1131579 18.6407053,15.9460526 C18.6433579,15.9 18.6692211,15.8565789 18.7083474,15.8328947 C18.7494632,15.8098684 18.7992,15.8072368 18.8403158,15.8302632 C18.8741368,15.8486842 18.9079579,15.8664474 18.9391263,15.8868421 C18.9258632,15.8381579 18.9205579,15.7868421 18.9205579,15.7302632 C18.9232105,15.5375 19.0193684,15.2782895 19.1878105,15.2342105 L19.1772,15.1907895 C19.0578316,15.1625 18.9722842,15.1210526 18.9258632,15.0644737 C18.8118,14.9309211 18.8224105,14.8026316 18.8509263,14.6842105 C18.8767895,14.5763158 18.9775895,14.4815789 19.0087579,14.4532895 C19.0114105,14.4506579 19.0114105,14.4506579 19.0140632,14.4506579 L18.9079579,13.9723684 C18.9026526,13.9598684 18.8973474,13.9467105 18.8920421,13.9368421 C18.7315579,13.8848684 18.6148421,13.7335526 18.6148421,13.5611842 C18.6148421,13.5125 18.6254526,13.4638158 18.6407053,13.4197368 C18.5816842,13.3072368 18.5166947,13.1914474 18.4676211,13.1039474 C18.3973263,13.1631579 18.3064737,13.2013158 18.2056737,13.2013158 C17.9881579,13.2013158 17.8091053,13.0243421 17.8091053,12.8085526 C17.8091053,12.7519737 17.8223684,12.6980263 17.8429263,12.6493421 C17.7003474,12.5901316 17.6022,12.4486842 17.6022,12.2868421 C17.6022,12.2144737 17.6201053,12.1480263 17.6539263,12.0914474 C17.5557789,12.0197368 17.4907895,11.9039474 17.4907895,11.7730263 C17.4907895,11.6723684 17.5299158,11.5822368 17.5915895,11.5105263 C17.5299158,11.4414474 17.4907895,11.3486842 17.4907895,11.2486842 C17.4907895,11.0993421 17.5736842,10.9710526 17.6957053,10.9039474 C17.6698421,10.8526316 17.6565789,10.7960526 17.6565789,10.7342105 C17.6565789,10.5414474 17.7991579,10.3796053 17.9855053,10.3467105 C17.9855053,10.3361842 17.9828526,10.3256579 17.9828526,10.3157895 C17.9828526,10.1 18.1619053,9.92236842 18.3794211,9.92236842 C18.3973263,9.92236842 18.4158947,9.925 18.4364526,9.92763158 C18.4828737,9.76052632 18.6360632,9.63684211 18.8197579,9.63684211 C18.8946947,9.63684211 18.9623368,9.65789474 19.0220211,9.69342105 C19.0943053,9.59342105 19.2110211,9.52631579 19.3456421,9.52631579 C19.4544,9.52631579 19.5552,9.57039474 19.6254947,9.64210526 C19.6924737,9.58815789 19.7780211,9.55723684 19.8715263,9.55723684 C20.0214,9.55723684 20.1513789,9.63947368 20.2183579,9.76052632 C20.2700842,9.7375 20.3271158,9.72171053 20.3894526,9.72171053 C20.5578947,9.72171053 20.7004737,9.825 20.7575053,9.96842105 C20.7933158,9.95592105 20.8350947,9.95065789 20.8762105,9.95065789 C21.0294,9.95065789 21.1613684,10.0355263 21.2290105,10.1611842 C21.2674737,10.1460526 21.3092526,10.1355263 21.3503684,10.1328947 C21.3404211,10.1 21.3351158,10.0638158 21.3298105,10.0276316 C21.3066,9.98947368 21.2933368,9.94539474 21.2933368,9.89934211 L21.2933368,9.84802632 C21.2933368,9.78618421 21.3172105,9.72697368 21.3583263,9.68355263 C21.3948,9.5625 21.4591263,9.45460526 21.5446737,9.36710526 C21.4929474,9.35986842 21.4518316,9.32368421 21.4332632,9.275 L21.4332632,9.26973684 C21.4259684,9.26710526 21.4180105,9.26447368 21.4100526,9.25921053 C21.3609789,9.23355263 21.3324632,9.17960526 21.3377684,9.12565789 C21.3662842,8.83289474 21.3662842,8.52697368 21.3377684,8.19276316 C21.3324632,8.13355263 21.3662842,8.07960526 21.4180105,8.05657895 C21.4259684,8.05394737 21.4359158,8.05131579 21.4438737,8.04868421 C21.4438737,8.04407895 21.4465263,8.03881579 21.4491789,8.03355263 C21.4670842,7.98223684 21.5115158,7.94605263 21.5658947,7.94078947 C21.7548947,7.92302632 21.9465474,7.91513158 22.1382,7.91513158 C22.3298526,7.91513158 22.5241579,7.92565789 22.7184632,7.94078947 C22.7701895,7.94605263 22.8166105,7.97960526 22.8351789,8.03092105 C22.8378316,8.03618421 22.8378316,8.03881579 22.8378316,8.04144737 C22.8477789,8.04407895 22.8583895,8.04605263 22.8656842,8.05131579 C22.9180737,8.07697368 22.9465895,8.13355263 22.9386316,8.19013158 C22.9074632,8.43684211 22.9200632,8.68092105 22.9306737,8.94078947 C22.9333263,9 22.9359789,9.05657895 22.9386316,9.11513158 C22.9412842,9.16973684 22.9101158,9.21842105 22.8636947,9.24144737 C22.8557368,9.24671053 22.8504316,9.24671053 22.8424737,9.24934211 C22.8424737,9.25394737 22.8398211,9.26184211 22.8378316,9.26710526 C22.8219158,9.31842105 22.7808,9.35723684 22.7284105,9.36447368 C22.8113053,9.45460526 22.8762947,9.55986842 22.9154211,9.68092105 C22.9565368,9.72434211 22.9797474,9.78618421 22.9797474,9.84802632 L22.9797474,9.89934211 C22.9797474,9.94539474 22.9671474,9.98947368 22.9439368,10.0276316 C22.9386316,10.0638158 22.9306737,10.0973684 22.9227158,10.1328947 C22.9671474,10.1355263 23.0082632,10.1460526 23.0447368,10.1611842 C23.1123789,10.0355263 23.2443474,9.95065789 23.3968737,9.95065789 C23.4386526,9.95065789 23.4771158,9.95592105 23.5162421,9.96842105 C23.5732737,9.825 23.7185053,9.72171053 23.8842947,9.72171053 C23.9459684,9.72171053 24.003,9.73486842 24.0547263,9.76052632 C24.1223684,9.63947368 24.2516842,9.55723684 24.4022211,9.55723684 C24.4957263,9.55723684 24.5806105,9.58815789 24.6482526,9.64210526 C24.7205368,9.57039474 24.8193474,9.52631579 24.9281053,9.52631579 C25.0627263,9.52631579 25.1794421,9.59342105 25.2517263,9.69342105 C25.3114105,9.65789474 25.3810421,9.63684211 25.4539895,9.63684211 C25.6350316,9.63684211 25.7908737,9.76052632 25.8372947,9.92763158 C25.8552,9.925 25.8737684,9.92236842 25.8943263,9.92236842 C26.1118421,9.92236842 26.2908947,10.1 26.2908947,10.3157895 C26.2908947,10.3256579 26.2908947,10.3361842 26.2882421,10.3467105 C26.4745895,10.3769737 26.6171684,10.5414474 26.6171684,10.7342105 C26.6171684,10.7960526 26.6039053,10.8526316 26.5780421,10.9039474 C26.7000632,10.9710526 26.7856105,11.0993421 26.7856105,11.2486842 C26.7856105,11.3486842 26.7464842,11.4414474 26.6841474,11.5105263 C26.7464842,11.5802632 26.7856105,11.6723684 26.7856105,11.7730263 C26.7856105,11.9039474 26.7206211,12.0197368 26.6198211,12.0914474 C26.6529789,12.1480263 26.6715474,12.2144737 26.6715474,12.2868421 C26.6715474,12.4486842 26.5727368,12.5901316 26.4301579,12.6493421 C26.4513789,12.6980263 26.4639789,12.7519737 26.4639789,12.8085526 C26.4639789,13.0243421 26.2855895,13.2013158 26.0680737,13.2013158 C25.9692632,13.2013158 25.8764211,13.1657895 25.8061263,13.1039474 C25.7570526,13.1914474 25.6920632,13.3092105 25.6323789,13.4197368 C25.6509474,13.4664474 25.6582421,13.5125 25.6582421,13.5611842 C25.6582421,13.7361842 25.5421895,13.8848684 25.3810421,13.9368421 C25.3764,13.9467105 25.3710947,13.9598684 25.3684421,13.9697368 L25.2649895,14.4532895 C25.2649895,14.4532895 25.2649895,14.4532895 25.2649895,14.4559211 C25.2961579,14.4815789 25.3969579,14.5789474 25.4228211,14.6868421 C25.4513368,14.8052632 25.4639368,14.9309211 25.3478842,15.0671053 C25.3293158,15.0881579 25.2775895,15.1493421 25.1038421,15.1907895 L25.0912421,15.2473684 C25.3193684,15.3631579 25.389,15.6638158 25.3372737,15.8947368 C25.3293158,15.9282895 25.3193684,15.9592105 25.3087579,15.9875 C25.3863474,15.9361842 25.4745474,15.8921053 25.5707053,15.8585526 C25.6144737,15.8434211 25.6608947,15.8513158 25.6973684,15.8796053 C25.7338421,15.9078947 25.7544,15.9486842 25.7517474,15.9947368 C25.7437895,16.1493421 25.7179263,16.2934211 25.6768105,16.4342105 C25.8372947,16.2572368 26.0209895,16.1006579 26.2464632,15.9848684 C26.2908947,15.9618421 26.3399684,15.9644737 26.3810842,15.9901316 C26.4228632,16.0157895 26.4487263,16.0592105 26.4487263,16.1052632 C26.4487263,16.2855263 26.4175579,16.45 26.3658316,16.6065789 C26.6065579,16.3625 26.8811053,16.1546053 27.2047263,16.0131579 C27.2544632,15.9927632 27.3088421,16 27.3499579,16.0335526 C27.3917368,16.0671053 27.4069895,16.1210526 27.3943895,16.1723684 C27.3373579,16.3828947 27.2571158,16.5782895 27.1556526,16.7611842 C27.5548737,16.3730263 27.9899053,16.0230263 28.5131368,15.7842105 C28.5648632,15.7611842 28.6245474,15.7717105 28.6663263,15.8098684 C28.7074421,15.8486842 28.7207053,15.9105263 28.6968316,15.9618421 C28.4746737,16.4881579 28.1298316,16.9256579 27.7385684,17.3210526 C27.9123158,17.2309211 28.0986632,17.1618421 28.3009263,17.1203947 C28.35,17.1105263 28.4017263,17.1282895 28.4355474,17.1671053 C28.4693684,17.2052632 28.4766632,17.2592105 28.4561053,17.3059211 C28.3214842,17.6269737 28.1165684,17.8868421 27.8784947,18.1151316 C28.0290316,18.0611842 28.1842105,18.025 28.3526526,18.0098684 C28.3990737,18.0046053 28.4461579,18.025 28.4746737,18.0638158 C28.5025263,18.1026316 28.5078316,18.1513158 28.4899263,18.1973684 C28.3891263,18.4388158 28.2359368,18.6342105 28.0548947,18.8013158 C28.1921684,18.7677632 28.3161789,18.75 28.4461579,18.75 C28.4793158,18.75 28.5131368,18.7526316 28.5443053,18.7526316 C28.5880737,18.7552632 28.6298526,18.7809211 28.6530632,18.8190789 C28.6762737,18.8578947 28.6789263,18.9065789 28.6583684,18.9453947 C28.5648632,19.1434211 28.4302421,19.2973684 28.2750632,19.4230263 C28.3652526,19.4078947 28.4534526,19.4 28.5469579,19.4 C28.6298526,19.4 28.7127474,19.4078947 28.7956421,19.4184211 C28.8420632,19.4256579 28.8811895,19.4565789 28.8990947,19.5006579 C28.917,19.5440789 28.9123579,19.5927632 28.8864947,19.6315789 C28.7777368,19.7855263 28.6477579,19.9092105 28.5051789,20.0118421 C28.5701684,20.0039474 28.6378105,20.0013158 28.7047895,20.0013158 C28.8473684,20.0013158 28.9872947,20.0197368 29.1219158,20.0552632 C29.1656842,20.0684211 29.2021579,20.1019737 29.2154211,20.1453947 C29.2280211,20.1894737 29.2200632,20.2381579 29.1895579,20.2736842 C29.0808,20.4026316 28.9587789,20.5052632 28.8241579,20.5875 C28.8652737,20.5848684 28.9070526,20.5848684 28.9481684,20.5848684 C29.1583895,20.5848684 29.3500421,20.6157895 29.5337368,20.6828947 C29.5781684,20.6980263 29.6113263,20.7342105 29.6219368,20.7802632 C29.6325474,20.8236842 29.6192842,20.8730263 29.5881158,20.9059211 C29.4667579,21.0296053 29.3314737,21.1243421 29.1869053,21.1993421 L29.2644947,21.1993421 C29.6040316,21.1993421 29.9017895,21.2480263 30.1816421,21.3506579 C30.2307158,21.3684211 30.2645368,21.4125 30.2698421,21.4638158 C30.2744842,21.5151316 30.2512737,21.5638158 30.2075053,21.5921053 C30.0105474,21.7210526 29.8029789,21.8105263 29.5907684,21.875 C30.2698421,21.8776316 30.8189368,21.9546053 31.3163053,22.1164474 C31.3706842,22.1348684 31.4091474,22.1835526 31.4091474,22.2401316 C31.4118,22.2967105 31.3779789,22.3506579 31.3262526,22.3710526 C30.8474526,22.5690789 30.3056526,22.6611842 29.6192842,22.6611842 L29.6086737,22.6611842 C29.8135895,22.7230263 30.0105474,22.8078947 30.1995474,22.9263158 C30.2433158,22.9546053 30.2671895,23.0032895 30.2645368,23.0546053 C30.2592316,23.1059211 30.2280632,23.15 30.1789895,23.1677632 C29.8991368,23.2809211 29.5960737,23.3375 29.2512316,23.3375 L29.1995053,23.3375 C29.3268316,23.3940789 29.4428842,23.4578947 29.5569474,23.5302632 C29.5960737,23.5559211 29.6192842,23.5967105 29.6192842,23.6434211 C29.6192842,23.6894737 29.5987263,23.7328947 29.5596,23.7585526 C29.3599895,23.8921053 29.1351789,23.9592105 28.8732316,23.9592105 L28.8420632,23.9592105 C28.9667368,24.0388158 29.0827895,24.1368421 29.1842526,24.2572368 C29.2154211,24.2934211 29.2227158,24.3394737 29.2101158,24.3855263 C29.1968526,24.4296053 29.1610421,24.4631579 29.1166105,24.4756579 C28.9819895,24.5144737 28.8394105,24.5322368 28.6948421,24.5322368 C28.6351579,24.5322368 28.5781263,24.5296053 28.5184421,24.5217105 C28.6583684,24.6223684 28.7850316,24.7427632 28.8864947,24.8973684 C28.9123579,24.9355263 28.9150105,24.9848684 28.8964421,25.0256579 C28.8785368,25.0671053 28.8394105,25.0973684 28.7929895,25.1052632 C28.7074421,25.1210526 28.6218947,25.1256579 28.5336947,25.1256579 C28.4408526,25.1256579 28.3526526,25.1184211 28.2644526,25.1026316 C28.4196316,25.2289474 28.5549158,25.3802632 28.6504105,25.5756579 C28.6709684,25.6171053 28.6683158,25.6631579 28.6477579,25.7039474 C28.6245474,25.7427632 28.5854211,25.7684211 28.539,25.7736842 C28.5005368,25.7763158 28.4587579,25.7789474 28.4196316,25.7789474 C28.2929684,25.7789474 28.1709474,25.7631579 28.0575474,25.7348684 C28.2412421,25.8967105 28.3990737,26.0894737 28.5131368,26.3210526 C28.5336947,26.3644737 28.5310421,26.4157895 28.5025263,26.4572368 C28.4746737,26.4980263 28.4302421,26.5210526 28.3811684,26.5164474 C28.2047684,26.5059211 28.0389789,26.4697368 27.8784947,26.4157895 C28.1192211,26.6447368 28.3294421,26.9046053 28.4720211,27.2282895 C28.4925789,27.2743421 28.4846211,27.3282895 28.4534526,27.3697368 C28.4222842,27.4078947 28.3705579,27.4263158 28.3188316,27.4184211 C28.1066211,27.3743421 27.9123158,27.3026316 27.7306105,27.2072368 C28.1271789,27.6085526 28.4793158,28.0480263 28.7180526,28.5723684 C28.7412632,28.6236842 28.7306526,28.6855263 28.6895368,28.7263158 C28.6477579,28.7677632 28.5880737,28.7776316 28.5336947,28.7546053 C28.0051579,28.5157895 27.5621684,28.1611842 27.1583053,27.7677632 C27.2617579,27.9526316 27.3446526,28.1480263 27.4043368,28.3585526 C27.4176,28.4105263 27.4016842,28.4618421 27.3632211,28.4973684 C27.3240947,28.5309211 27.2697158,28.5414474 27.2206421,28.5210526 C26.8864105,28.3868421 26.6145158,28.1789474 26.3784316,27.9348684 C26.4328105,28.0888158 26.4666316,28.2532895 26.4719368,28.4282895 C26.4745895,28.4769737 26.4487263,28.5210526 26.4096,28.5467105 C26.3684842,28.5723684 26.3167579,28.575 26.2749789,28.5539474 C26.0395579,28.4407895 25.8498947,28.2842105 25.6867579,28.1046053 C25.7285368,28.2611842 25.7490947,28.4230263 25.7464421,28.5953947 C25.7437895,28.6414474 25.7179263,28.6855263 25.6794632,28.7085526 C25.6376842,28.7315789 25.5859579,28.7342105 25.5448421,28.7111842 C25.3505368,28.6078947 25.1920421,28.4717105 25.0627263,28.3151316 C25.0912421,28.4796053 25.0912421,28.6519737 25.0494632,28.8315789 C25.0395158,28.8756579 25.0083474,28.9111842 24.9665684,28.9269737 C24.9254526,28.9447368 24.8790316,28.9394737 24.8399053,28.9164474 C24.6847263,28.8164474 24.5653579,28.6980263 24.4692,28.5618421 C24.4957263,28.7493421 24.4930737,28.9394737 24.4539474,29.1375 C24.4459895,29.1809211 24.4148211,29.2197368 24.3710526,29.2375 C24.3272842,29.2559211 24.2802,29.2506579 24.2417368,29.225 C24.0786,29.1171053 23.9565789,28.9809211 23.8630737,28.8315789 C23.8816421,29.0730263 23.8736842,29.3171053 23.8193053,29.5644737 C23.8086947,29.6131579 23.7728842,29.6513158 23.7258,29.6644737 C23.6793789,29.6796053 23.6276526,29.6671053 23.5911789,29.6335526 C23.4439579,29.5 23.3352,29.3480263 23.2516421,29.1861842 C23.2596,29.5151316 23.2257789,29.8440789 23.1223263,30.1677632 C23.1070737,30.2171053 23.0652947,30.2526316 23.0162211,30.2605263 C22.9644947,30.2684211 22.9154211,30.25 22.8842526,30.2092105 C22.7542737,30.0394737 22.6614316,29.8598684 22.5964421,29.6723684 C22.5911368,30.0907895 22.5526737,30.5098684 22.4512105,30.9236842 C22.4492211,30.9342105 22.4465684,30.9414474 22.4412632,30.9493421 C22.4306526,30.9671053 22.4253474,31.0032895 22.4180526,31.0368421 C22.3968316,31.1342105 22.3663263,31.2861842 22.2104842,31.3473684 C22.1952316,31.3552632 22.1766632,31.3578947 22.1587579,31.3578947 C22.1382,31.3578947 22.1196316,31.3526316 22.1017263,31.3453947 C22.0679053,31.3296053 22.0420421,31.2986842 22.0294421,31.2651316 C21.8556947,30.7388158 21.8013158,30.1960526 21.7933579,29.6513158 C21.7237263,29.8546053 21.6249158,30.05 21.483,30.2296053 C21.4518316,30.2710526 21.4001053,30.2888158 21.3477158,30.2809211 C21.2959895,30.2710526 21.2575263,30.2348684 21.2416105,30.1861842 C21.1434632,29.8546053 21.1176,29.5203947 21.1275474,29.1914474 C21.0473053,29.3532895 20.9412,29.5078947 20.7986211,29.6440789 C20.7628105,29.6769737 20.7104211,29.6901316 20.664,29.6743421 C20.6175789,29.6618421 20.5811053,29.6230263 20.5711579,29.5743421 C20.5141263,29.3197368 20.5035158,29.0710526 20.5214211,28.8236842 C20.4285789,28.9835526 20.3171684,29.1223684 20.1852,29.2427632 C20.1513789,29.2736842 20.0996526,29.2868421 20.0525684,29.2736842 C20.0061474,29.2611842 19.9696737,29.225 19.9597263,29.1789474 C19.9026947,28.9651316 19.8920842,28.7598684 19.9152947,28.5618421 C19.8065368,28.7059211 19.6639579,28.8263158 19.4749579,28.9085526 C19.4338421,28.9269737 19.3867579,28.9243421 19.3509474,28.9013158 C19.3118211,28.8782895 19.2886105,28.8394737 19.2833053,28.7960526 C19.2707053,28.6315789 19.2833053,28.4717105 19.3144737,28.3203947 C19.1851579,28.4743421 19.0266632,28.6052632 18.8350105,28.7059211 C18.7938947,28.7263158 18.7421684,28.7263158 18.7003895,28.7032895 C18.6592737,28.6802632 18.6334105,28.6361842 18.6334105,28.5875 C18.6307579,28.4177632 18.6513158,28.2559211 18.6930947,28.0993421 C18.5273053,28.2894737 18.3303474,28.4539474 18.0889579,28.5776316 C18.0451895,28.6006579 17.9934632,28.5980263 17.9516842,28.5697368 C17.9105684,28.5440789 17.8873579,28.4947368 17.8900105,28.4460526 C17.9026105,28.2611842 17.9443895,28.0888158 18.0034105,27.9269737 C17.7679895,28.1736842 17.4987474,28.3868421 17.1618632,28.5282895 C17.1127895,28.5493421 17.0584105,28.5388158 17.0192842,28.5052632 C16.9801579,28.4717105 16.9622526,28.4177632 16.9781684,28.3664474 C17.0352,28.1532895 17.1174316,27.9552632 17.2215474,27.7677632 C16.8123789,28.1657895 16.3640842,28.5184211 15.8249368,28.7572368 C15.7732105,28.7802632 15.7108737,28.7677632 15.6697579,28.7263158 C15.6306316,28.6855263 15.6206842,28.6236842 15.6438947,28.5723684 C15.8978842,28.0506579 16.2553263,27.6085526 16.6538842,27.2052632 C16.4701895,27.3026316 16.2758842,27.3822368 16.0610211,27.4309211 C16.0119474,27.4414474 15.9569053,27.4263158 15.9264,27.3875 C15.8925789,27.3486842 15.8846211,27.2947368 15.9025263,27.2460526 C16.0404632,26.9171053 16.2500211,26.6526316 16.4934,26.4210526 C16.3329158,26.475 16.1618211,26.5085526 15.9807789,26.5085526 C15.9310421,26.5085526 15.8872737,26.4828947 15.8614105,26.4414474 C15.8355474,26.4006579 15.8355474,26.3493421 15.8587579,26.3078947 C15.9807789,26.0842105 16.1412632,25.8993421 16.3249579,25.7375 C16.1750842,25.7763158 16.0165895,25.7967105 15.8481474,25.7914474 C15.8017263,25.7914474 15.7606105,25.7657895 15.7367368,25.7269737 C15.7135263,25.6888158 15.7088842,25.6401316 15.7267895,25.5986842 C15.8196316,25.3934211 15.9522632,25.2335526 16.1127474,25.1052632 C16.0165895,25.1210526 15.9184421,25.1282895 15.8196316,25.1282895 C15.7446947,25.1282895 15.6697579,25.1236842 15.5974737,25.1131579 C15.5503895,25.1078947 15.5092737,25.0769737 15.4907053,25.0335526 C15.4728,24.9894737 15.4754526,24.9407895 15.5039684,24.9026316 C15.6021158,24.7585526 15.7294421,24.6302632 15.8766632,24.5197368 C15.8123368,24.5269737 15.7473474,24.5296053 15.6823579,24.5296053 C15.5404421,24.5296053 15.4031684,24.5118421 15.2705368,24.4756579 C15.2267684,24.4631579 15.1902947,24.4296053 15.1776947,24.3855263 C15.1644316,24.3421053 15.1723895,24.2934211 15.2009053,24.2598684 C15.3070105,24.1289474 15.4290316,24.0263158 15.561,23.9440789 C15.5192211,23.9460526 15.4781053,23.9460526 15.4363263,23.9460526 C15.2267684,23.9460526 15.0377684,23.9157895 14.8514211,23.8539474 C14.8069895,23.8381579 14.7731684,23.8026316 14.7632211,23.7559211 C14.7526105,23.7098684 14.7658737,23.6638158 14.7963789,23.6302632 C14.9157474,23.5065789 15.0503684,23.4118421 15.1929474,23.3375 L15.1544842,23.3375 C14.7917368,23.3375 14.4754105,23.2703947 14.1929053,23.1315789 C14.1464842,23.1085526 14.1179684,23.0625 14.1153158,23.0131579 C14.1153158,22.9618421 14.1411789,22.9157895 14.1882632,22.8901316 C14.3719579,22.7901316 14.5636105,22.7151316 14.7579158,22.6611842 C14.0974105,22.6539474 13.5556105,22.5717105 13.0635474,22.4072368 C13.0091684,22.3888158 12.9726947,22.3375 12.9707053,22.2809211 C12.9707053,22.2243421 13.0065158,22.1730263 13.0608947,22.1526316 Z" id="Fill-7"></path>
                        <path d="M22.2104842,27.7032895 C25.2855474,27.7032895 27.7750421,25.2315789 27.7750421,22.1835526 C27.7750421,19.1328947 25.2828947,16.6631579 22.2104842,16.6631579 C19.1354211,16.6631579 16.6465895,19.1355263 16.6465895,22.1835526 C16.6465895,25.2315789 19.1380737,27.7032895 22.2104842,27.7032895 Z M22.2104842,18.1717105 C24.4433368,18.1717105 26.2544211,19.9684211 26.2544211,22.1835526 C26.2544211,24.3986842 24.4433368,26.1947368 22.2104842,26.1947368 C19.9776316,26.1947368 18.1672105,24.3986842 18.1672105,22.1835526 C18.1672105,19.9684211 19.9776316,18.1717105 22.2104842,18.1717105 Z" id="Fill-8"></path>
                    </g>
                </g>
            </g>
        </g>
    </g>
</svg>