<?xml version="1.0" encoding="UTF-8"?>
<svg width="48px" height="48px" viewBox="0 0 48 48" version="1.1" xmlns="http://www.w3.org/2000/svg" xmlns:xlink="http://www.w3.org/1999/xlink">
    <!-- Generator: Sketch 50.2 (55047) - http://www.bohemiancoding.com/sketch -->
    <title>Icons/eye</title>
    <desc>Created with Sketch.</desc>
    <defs></defs>
    <g id="Icons/eye" stroke="none" stroke-width="1" fill="none" fill-rule="evenodd">
        <rect id="Rectangle-2" fill="#00A4DB" x="0" y="0" width="48" height="48" rx="6"></rect>
        <g id="Group" transform="translate(6.000000, 11.000000)" fill="#FFFFFF" fill-rule="nonzero">
            <path d="M17.6,-4.54747351e-13 C7.8784252,-4.54747351e-13 0,12.4444444 0,12.4444444 C0,12.4444444 7.8784252,24.8888889 17.6,24.8888889 C27.3215748,24.8888889 35.2,12.4444444 35.2,12.4444444 C35.2,12.4444444 27.3215748,-4.54747351e-13 17.6,-4.54747351e-13 Z M17.6,21.3333333 C12.7426772,21.3333333 8.8,17.3508311 8.8,12.4444444 C8.8,7.53805774 12.7426772,3.55555556 17.6,3.55555556 C22.4573228,3.55555556 26.4,7.53805774 26.4,12.4444444 C26.4,17.3508311 22.4573228,21.3333333 17.6,21.3333333 Z" id="Shape"></path>
            <path d="M20.24,10.6666667 C18.7848819,10.6666667 17.6,9.46981627 17.6,8 C17.6,7.6920385 17.6623622,7.40507437 17.7593701,7.12510936 C17.703937,7.12510936 17.6554331,7.11111111 17.6,7.11111111 C14.6897638,7.11111111 12.32,9.5048119 12.32,12.4444444 C12.32,15.384077 14.6897638,17.7777778 17.6,17.7777778 C20.5102362,17.7777778 22.88,15.384077 22.88,12.4444444 C22.88,11.4855643 22.6097638,10.5966754 22.1662992,9.8127734 C21.6812598,10.3377078 21.0022047,10.6666667 20.24,10.6666667 Z" id="Shape"></path>
        </g>
    </g>
</svg>