<?xml version="1.0" encoding="UTF-8"?>
<svg width="48px" height="48px" viewBox="0 0 48 48" version="1.1" xmlns="http://www.w3.org/2000/svg" xmlns:xlink="http://www.w3.org/1999/xlink">
    <!-- Generator: Sketch 50.2 (55047) - http://www.bohemiancoding.com/sketch -->
    <title>Icons/friends</title>
    <desc>Created with Sketch.</desc>
    <defs></defs>
    <g id="Icons/friends" stroke="none" stroke-width="1" fill="none" fill-rule="evenodd">
        <g id="Icon">
            <rect id="Rectangle-2" fill="#00A4DB" x="0" y="0" width="48" height="48" rx="6"></rect>
            <g id="Group" transform="translate(7.000000, 14.000000)" fill="#FFFFFF">
                <path d="M10.2095711,12.8859034 C10.0361633,13.0412331 9.88599558,13.2160356 9.75886381,13.4067353 C9.43185192,13.8972584 9.3080036,14.3809126 9.2879257,14.7999266 L9.2879257,16.7182663 L0.464396285,16.7182663 L0.464396285,13.9318885 C0.464396285,13.1741398 1.57359602,12.8226025 2.74081628,12.5495241 C2.97344076,12.4951001 3.72883334,12.3454976 3.84494812,12.3171752 C3.94374286,12.2930775 4.00469407,12.2722907 3.9987763,12.2761849 C4.01122707,12.2679994 4.06717938,12.0974432 4.08738282,11.8334311 C4.10124266,11.6523151 4.10055842,11.4547021 4.09032642,11.2640485 L3.80878585,11.0231977 L3.79159504,10.8352839 C3.78264663,10.7374682 3.76223071,10.5818651 3.73060118,10.4317132 C3.70535168,10.3118487 3.67623789,10.2225355 3.656343,10.1915897 C3.59101173,10.0829162 3.52097823,9.94145765 3.44430928,9.76837734 C3.41074805,9.6926128 3.37618229,9.61132102 3.34078149,9.52521811 C3.27083978,9.35510368 3.20074155,9.17395262 3.13361982,8.9929519 C3.1168241,8.94766047 3.10173115,8.90650235 3.08858385,8.87031978 C3.05121718,8.8339791 3.0128037,8.791642 2.97481449,8.74289381 C2.82605794,8.55200766 2.73407369,8.32030881 2.73407369,8.05405528 C2.73407369,7.78780174 2.82605794,7.5561029 2.97481449,7.36521674 C2.95560194,7.26700628 2.93397977,7.15535091 2.91237311,7.0334082 C2.87452869,6.81982354 2.84375874,6.61101205 2.82256574,6.41271437 C2.8021474,6.22166502 2.79113262,6.04498639 2.79113262,5.88461278 C2.79113262,4.15994851 4.11551036,3.25077399 6.13700483,3.25077399 C8.04300691,3.25077399 9.19758239,4.20662222 9.19758239,5.88461278 C9.19758239,6.03595457 9.19232298,6.20467813 9.18251905,6.38814395 C9.1722257,6.58076867 9.15721059,6.78456022 9.13871164,6.99336723 C9.12737346,7.12134706 9.11602936,7.23774321 9.10567055,7.33732211 C9.11312872,7.34637671 9.12058168,7.35567389 9.12801838,7.36521674 C9.27677493,7.5561029 9.36875918,7.78780174 9.36875918,8.05405528 C9.36875918,8.32030881 9.27677493,8.55200766 9.12801838,8.74289381 C9.09052828,8.79100153 9.052625,8.83286552 9.01572236,8.86888431 C8.99901822,8.91561634 8.9792021,8.97014525 8.95662752,9.03100309 C8.87794342,9.24312416 8.79381623,9.45546197 8.70712329,9.65517929 C8.62114048,9.85326064 8.53695235,10.0288216 8.45948113,10.1685144 C8.44398313,10.197977 8.41328125,10.3009037 8.38382285,10.4353701 C8.34944301,10.592301 8.32300624,10.7530031 8.30885742,10.8561109 L8.28484945,11.031066 L8.01250641,11.2640485 C8.00227445,11.4547021 8.00159021,11.6523151 8.01545005,11.8334311 C8.03565349,12.0974432 8.0916058,12.2679994 8.08324884,12.2632654 C8.18173957,12.3208766 8.48081786,12.4097528 9.13884428,12.5807451 C9.70443898,12.727703 10.0061208,12.8103103 10.2095711,12.8859034 Z M26.006192,16.7147891 L26.006192,14.8096789 C25.9861026,14.390539 25.8621611,13.9067409 25.5349165,13.4161053 C25.4164039,13.2384202 25.2778873,13.0745372 25.1191783,12.9273368 C25.1607114,12.9060893 25.2056318,12.8830832 25.253524,12.858523 C25.5399381,12.7116437 25.8263168,12.5636223 26.0933651,12.4239696 C26.1215803,12.40921 26.1215803,12.40921 26.1497711,12.3944451 C26.7049107,12.1035983 27.097564,11.8894831 27.2468637,11.7922961 C27.2341061,11.7995769 27.2900202,11.6290207 27.3102098,11.3650086 C27.3240602,11.1838926 27.3233764,10.9862796 27.3131514,10.795626 L27.0318032,10.5547752 L27.0146241,10.3668614 C27.0056818,10.2690457 26.9852798,10.1134426 26.9536719,9.96329076 C26.9284396,9.84342623 26.8993457,9.75411301 26.8794644,9.72316727 C26.8141778,9.61449376 26.7441921,9.47303518 26.6675756,9.29995487 C26.6340373,9.22419033 26.5994951,9.14289855 26.5641185,9.05679564 C26.4942246,8.88668121 26.4241742,8.70553015 26.3570984,8.52452943 C26.3403141,8.479238 26.3252315,8.43807988 26.3120931,8.40189731 C26.274752,8.36555664 26.2363648,8.32321953 26.1984015,8.27447134 C26.0497466,8.08358519 25.9578252,7.85188634 25.9578252,7.58563281 C25.9578252,7.31937927 26.0497466,7.08768043 26.1984015,6.89679427 C26.1792021,6.79858381 26.1575947,6.68692844 26.1360028,6.56498573 C26.0981842,6.35140107 26.0674353,6.14258958 26.0462568,5.9442919 C26.0258524,5.75324255 26.0148451,5.57656393 26.0148451,5.41619031 C26.0148451,4.81341536 26.2330927,4.22566136 26.6153468,3.89075219 C26.8695133,3.66806612 27.166023,3.57538953 27.4711827,3.61106362 C27.5472757,3.32842946 27.7355644,3.097744 28.0232075,2.94907457 C28.4497466,2.72861611 29.0406227,2.73649015 29.4753763,2.94668063 C30.1332516,3.26474385 30.6103415,3.30873625 31.5686569,3.1938653 L32.0879313,3.13162112 L32.0879313,3.6549653 C32.0879313,3.81743184 32.1169656,3.94839871 32.2348833,4.3652974 C32.3642543,4.82268992 32.4169184,5.0851789 32.4169184,5.41619031 C32.4169184,5.5675321 32.4116626,5.73625566 32.4018654,5.91972148 C32.3915791,6.1123462 32.3765742,6.31613775 32.3580879,6.52494476 C32.3467575,6.65292459 32.3354211,6.76932074 32.3250694,6.86889964 C32.4960569,7.08768043 32.5879783,7.31937927 32.5879783,7.58563281 C32.5879783,7.85188634 32.4960569,8.08358519 32.3474019,8.27447134 C32.3099375,8.32257906 32.2720601,8.36444305 32.2351826,8.40046184 C32.2184899,8.44719387 32.1986873,8.50172278 32.1761282,8.56258062 C32.0974978,8.77470169 32.0134281,8.9870395 31.9267944,9.18675682 C31.8432742,9.37929656 31.7614484,9.55055832 31.6786823,9.70133239 C31.6630012,9.73235491 31.6327534,9.83430674 31.6037148,9.96694761 C31.5693584,10.1238785 31.5429397,10.2845807 31.5288006,10.3876885 L31.504809,10.5626435 L31.2326521,10.795626 C31.222427,10.9862796 31.2217433,11.1838926 31.2355936,11.3650086 C31.2557833,11.6290207 31.3116974,11.7995769 31.3033461,11.794843 C31.2969079,11.7910744 31.3243874,11.80104 31.3720454,11.814029 C31.4870015,11.8453599 32.3182729,12.0101755 32.5695523,12.070712 C33.7143172,12.3465009 34.8284616,12.7122013 34.8317237,13.4654798 C34.8339636,13.98271 34.8297214,16.7182663 34.8297214,16.7182663 L26.006192,16.7147891 Z" id="Combined-Shape" fill-rule="nonzero"></path>
                <path d="M15.6472642,10.7758399 L15.6472642,11.5889049 C15.6472642,11.5889049 15.5326104,11.6772331 15.349829,11.7948182 C14.5721773,12.2202981 12.8767414,12.6686263 12.845447,12.6850659 C12.8097216,12.7045705 12.2948873,12.8004219 11.2823892,13.2794003 C10.2696141,13.7581 10.2167183,14.7999266 10.2167183,14.7999266 L10.2167183,19.504644 L25.0773994,19.504644 L25.0773994,14.8096789 C25.0773994,14.8096789 25.0245036,13.7681309 24.0117285,13.2891526 C22.9992303,12.8101743 22.4843961,12.7143229 22.4486706,12.6948182 C22.418484,12.6783786 20.7222173,12.2300504 19.9442886,11.8045705 C19.7615072,11.6869854 19.6468534,11.5986572 19.6468534,11.5986572 L19.6468534,10.751877 C19.6468534,10.751877 21.9294053,10.822651 23.0133544,9.7092145 C23.0133544,9.7092145 21.4372802,9.25977178 21.7205914,6.37336311 C22.0039026,3.48556125 21.3669371,0.950793451 19.0605683,1.1650659 C19.0605683,1.1650659 18.0608094,-0.0453365804 16.0704308,0.715623172 C15.3866623,0.976706763 13.5541403,1.63735692 13.6471927,5.63859531 C13.740225,9.6375812 12.2348841,9.66239288 12.2342373,9.66240335 C12.2343301,9.66253935 13.0112158,10.7986868 15.6472642,10.7758399 Z" id="Path"></path>
            </g>
        </g>
    </g>
</svg>