<?xml version="1.0" encoding="UTF-8"?>
<svg width="48px" height="48px" viewBox="0 0 48 48" version="1.1" xmlns="http://www.w3.org/2000/svg" xmlns:xlink="http://www.w3.org/1999/xlink">
    <!-- Generator: Sketch 50.2 (55047) - http://www.bohemiancoding.com/sketch -->
    <title>Icons/pound</title>
    <desc>Created with Sketch.</desc>
    <defs></defs>
    <g id="Icons/pound" stroke="none" stroke-width="1" fill="none" fill-rule="evenodd">
        <rect id="Rectangle-2" fill="#00A4DB" x="0" y="0" width="48" height="48" rx="6"></rect>
        <path d="M29.6088864,18.0097389 C29.2781741,17.658357 28.8596225,17.3741553 28.3532192,17.1571254 C27.8468159,16.9400954 27.3145837,16.831582 26.7565066,16.831582 C26.1157515,16.831582 25.5835193,16.9452627 25.1597941,17.1726274 C24.7360689,17.3999922 24.4001942,17.6945284 24.1521599,18.0562451 C23.9041257,18.4179617 23.7336047,18.815844 23.6405918,19.249904 C23.547579,19.6839639 23.5010732,20.1076828 23.5010732,20.5210732 L23.5010732,22.1022837 L28.3377172,22.1022837 L28.3377172,25.6677584 L23.5010732,25.6677584 L23.5010732,30.6284189 L31.5311423,30.6284189 L31.5311423,35.0000009 L15.44,35.0000009 L15.44,30.6284189 L18.3853921,30.6284189 L18.3853921,25.6677584 L15.44,25.6677584 L15.44,22.1022837 L18.3853921,22.1022837 L18.3853921,20.211032 C18.3853921,19.3635816 18.5352439,18.4851401 18.834952,17.5756811 C19.1346601,16.6662221 19.6048846,15.829119 20.2456398,15.0643467 C20.886395,14.2995744 21.7183308,13.6743308 22.7414721,13.188597 C23.7646134,12.7028632 24.9995988,12.46 26.4464654,12.46 C27.7899843,12.46 28.9732967,12.6563575 29.996438,13.0490784 C31.0195793,13.4417993 31.8825189,13.9585296 32.5852827,14.5992848 L29.6088864,18.0097389 Z" id="£" fill="#FFFFFF"></path>
    </g>
</svg>