<?xml version="1.0" encoding="UTF-8"?>
<svg width="48px" height="48px" viewBox="0 0 48 48" version="1.1" xmlns="http://www.w3.org/2000/svg" xmlns:xlink="http://www.w3.org/1999/xlink">
    <!-- Generator: Sketch 50.2 (55047) - http://www.bohemiancoding.com/sketch -->
    <title>Icons/question</title>
    <desc>Created with Sketch.</desc>
    <defs></defs>
    <g id="Icons/question" stroke="none" stroke-width="1" fill="none" fill-rule="evenodd">
        <g id="question">
            <rect id="Rectangle-2" fill="#00A4DB" x="0" y="0" width="48" height="48" rx="6"></rect>
            <g id="Group" transform="translate(16.000000, 14.000000)">
                <g id="?">
                    <g id="path-1-link" transform="translate(1.000000, 1.000000)" fill="#FFFFFF">
                        <path d="M3.50334821,5.19483101 C3.63392857,3.54075547 4.92522321,2.49403579 6.92745536,2.49403579 C8.91517857,2.49403579 10.2064732,3.527833 10.2064732,4.94930417 C10.2064732,6.25447316 9.58258929,6.99105368 7.82700893,7.93439364 C5.83928571,8.99403579 4.95424107,10.1570577 5.02678571,12.0178926 L5.04129464,13 L8.04464286,13 L8.04464286,12.2246521 C8.04464286,10.9194831 8.58147321,10.2345924 10.453125,9.25248509 C12.3683036,8.23161034 13.5,6.82306163 13.5,4.83300199 C13.5,2.02882704 10.9174107,0 7.08705357,0 C2.87946429,0 0.630580357,2.22266402 0.5,5.19483101 L3.50334821,5.19483101 Z" id="path-1"></path>
                    </g>
                    <path d="M4.96543155,6.69483101 L0.977550478,6.69483101 L1.00048186,6.17288499 C1.15111867,2.74420882 3.824486,0.5 8.08705357,0.5 C12.1300123,0.5 15,2.68923757 15,5.83300199 C15,7.94043899 13.8534229,9.53961894 11.6854474,10.6952337 C9.97484761,11.5928326 9.54464286,12.1269978 9.54464286,13.2246521 L9.54464286,14.5 L5.54862671,14.5 L5.5413492,14.0073858 L5.52716524,13.0373703 C5.44816052,11.0108287 6.393419,9.66511417 8.59034275,8.49395168 C10.2261819,7.6149532 10.7064732,7.01978889 10.7064732,5.94930417 C10.7064732,4.81390444 9.63253068,3.99403579 7.92745536,3.99403579 C6.18428612,3.99403579 5.11132692,4.84675859 5.0017974,6.23418089 L4.96543155,6.69483101 Z" id="Shape" stroke="#FFFFFF"></path>
                </g>
                <path d="M10.5,20.0163399 C10.5,18.496732 9.2961165,17.5 7.50970874,17.5 C5.72330097,17.5 4.5,18.496732 4.5,20.0163399 C4.5,21.503268 5.72330097,22.5 7.50970874,22.5 C9.2961165,22.5 10.5,21.503268 10.5,20.0163399 Z" id="?" fill="#FFFFFF" fill-rule="nonzero"></path>
            </g>
        </g>
    </g>
</svg>