<?xml version="1.0" encoding="UTF-8"?>
<svg width="48px" height="48px" viewBox="0 0 48 48" version="1.1" xmlns="http://www.w3.org/2000/svg" xmlns:xlink="http://www.w3.org/1999/xlink">
    <!-- Generator: Sketch 50.2 (55047) - http://www.bohemiancoding.com/sketch -->
    <title>Icons/reocurring</title>
    <desc>Created with Sketch.</desc>
    <defs></defs>
    <g id="Icons/reocurring" stroke="none" stroke-width="1" fill="none" fill-rule="evenodd">
        <g id="Group-4">
            <rect id="Rectangle-2" fill="#00A4DB" x="0" y="0" width="48" height="48" rx="6"></rect>
            <path d="M24,32.1818182 C19.4625,32.1818182 15.75,28.5 15.75,24 C15.75,22.6363636 16.1625,21.2727273 16.7125,20.1818182 L14.65,18.1363636 C13.6875,19.9090909 13,21.8181818 13,24 C13,30 17.95,34.9090909 24,34.9090909 L24,39 L29.5,33.5454545 L24,28.0909091 L24,32.1818182 L24,32.1818182 Z" id="Path" fill="#FFFFFF"></path>
            <path d="M24,13.0909091 L24,9 L18.5,14.4545455 L24,19.9090909 L24,15.8181818 C28.5375,15.8181818 32.25,19.5 32.25,24 C32.25,25.3636364 31.8375,26.7272727 31.2875,27.8181818 L33.35,29.8636364 C34.3125,28.0909091 35,26.1818182 35,24 C35,18 30.05,13.0909091 24,13.0909091 L24,13.0909091 Z" id="Path" fill="#FFFFFF"></path>
        </g>
    </g>
</svg>