<?xml version="1.0" encoding="UTF-8"?>
<svg width="48px" height="48px" viewBox="0 0 48 48" version="1.1" xmlns="http://www.w3.org/2000/svg" xmlns:xlink="http://www.w3.org/1999/xlink">
    <!-- Generator: Sketch 51.2 (57519) - http://www.bohemiancoding.com/sketch -->
    <title>4-Summary-Feature</title>
    <desc>Created with Sketch.</desc>
    <defs>
        <rect id="path-1" x="0" y="0" width="48" height="48" rx="6"></rect>
        <filter x="-43.8%" y="-31.2%" width="187.5%" height="187.5%" filterUnits="objectBoundingBox" id="filter-2">
            <feOffset dx="0" dy="6" in="SourceAlpha" result="shadowOffsetOuter1"></feOffset>
            <feGaussianBlur stdDeviation="6" in="shadowOffsetOuter1" result="shadowBlurOuter1"></feGaussianBlur>
            <feColorMatrix values="0 0 0 0 0.133333333   0 0 0 0 0.196078431   0 0 0 0 0.329411765  0 0 0 0.06 0" type="matrix" in="shadowBlurOuter1"></feColorMatrix>
        </filter>
    </defs>
    <g id="4-Summary-Feature" stroke="none" stroke-width="1" fill="none" fill-rule="evenodd">
        <g id="Icons/summary">
            <g id="Group-3">
                <g id="Rectangle-2">
                    <use fill="black" fill-opacity="1" filter="url(#filter-2)" xlink:href="#path-1"></use>
                    <use fill="#00A4DB" fill-rule="evenodd" xlink:href="#path-1"></use>
                </g>
            </g>
            <g id="Group" transform="translate(10.000000, 10.000000)" stroke="#FFFFFF">
                <path d="M24.9432037,15.7707363 C24.9317694,15.7707151 24.919726,15.7706928 24.9070148,15.7706693 C24.5717444,15.7701089 24.0873199,15.7696223 23.4662285,15.7692055 C22.3729394,15.7684719 20.8820263,15.7679687 19.0929194,15.7676631 C17.136363,15.767329 15.0694381,15.7672604 13.2401887,15.7673429 C12.8236773,15.7673648 12.8236773,15.7673648 12.7315038,15.7673721 L12.2313787,15.7674118 L12.2314642,15.2672867 C12.2315089,15.0054482 12.2315089,15.0054482 12.2316431,13.9087178 C12.231822,12.2385865 12.2318828,10.5155547 12.2317552,8.90645299 C12.2316133,7.11750977 12.2312464,5.62673301 12.2306128,4.53354397 C12.2302528,3.91250945 12.2298105,3.42812921 12.2292808,3.09288953 C12.2292576,3.07970043 12.2292356,3.06723019 12.2292148,3.05541359 C5.70720749,3.31670457 0.5,8.68661169 0.5,15.2727273 C0.5,22.0256635 5.97433647,27.5 12.7272727,27.5 C19.1303646,27.5 24.6604648,21.9834723 24.9432037,15.7707363 Z" id="Combined-Shape" fill="#FFFFFF"></path>
                <path d="M27.489827,12.2272727 C27.2318977,5.8985885 22.1014115,0.768102264 15.7727273,0.510173004 L15.7727273,12.2272727 L27.489827,12.2272727 Z" id="Oval-96"></path>
            </g>
        </g>
    </g>
</svg>